<?xml version="1.0" encoding="UTF-8"?>
<!DOCTYPE svg PUBLIC "-//W3C//DTD SVG 1.1//EN" "http://www.w3.org/Graphics/SVG/1.1/DTD/svg11.dtd">
<svg xmlns="http://www.w3.org/2000/svg" version="1.1" width="600px" height="600px" style="shape-rendering:geometricPrecision; text-rendering:geometricPrecision; image-rendering:optimizeQuality; fill-rule:evenodd; clip-rule:evenodd" xmlns:xlink="http://www.w3.org/1999/xlink">
<g><path style="opacity:1" fill="#fffdfc" d="M -0.5,-0.5 C 17.8333,-0.5 36.1667,-0.5 54.5,-0.5C 24.2819,5.38464 5.94861,23.3846 -0.5,53.5C -0.5,35.5 -0.5,17.5 -0.5,-0.5 Z"/></g>
<g><path style="opacity:1" fill="#fffdfa" d="M 544.5,-0.5 C 562.833,-0.5 581.167,-0.5 599.5,-0.5C 599.5,17.5 599.5,35.5 599.5,53.5C 595.381,30.8549 582.714,14.6882 561.5,5C 555.768,2.99182 550.102,1.15849 544.5,-0.5 Z"/></g>
<g><path style="opacity:1" fill="#f9aa2d" d="M 54.5,-0.5 C 217.833,-0.5 381.167,-0.5 544.5,-0.5C 550.102,1.15849 555.768,2.99182 561.5,5C 582.714,14.6882 595.381,30.8549 599.5,53.5C 599.5,222.167 599.5,390.833 599.5,559.5C 594.536,581.131 581.202,594.464 559.5,599.5C 385.5,599.5 211.5,599.5 37.5,599.5C 16.7158,593.967 4.04916,580.634 -0.5,559.5C -0.5,390.833 -0.5,222.167 -0.5,53.5C 5.94861,23.3846 24.2819,5.38464 54.5,-0.5 Z"/></g>
<g><path style="opacity:1" fill="#fefdfb" d="M 116.5,70.5 C 115.903,71.1386 115.07,71.472 114,71.5C 112.301,71.6134 111.134,70.9468 110.5,69.5C 110.333,55.1628 110.5,40.8295 111,26.5C 112.667,25.1667 114.333,25.1667 116,26.5C 116.5,41.1629 116.667,55.8295 116.5,70.5 Z"/></g>
<g><path style="opacity:1" fill="#fffdfc" d="M 202.5,70.5 C 200.5,71.8333 198.5,71.8333 196.5,70.5C 196.333,55.8295 196.5,41.1629 197,26.5C 198.667,25.1667 200.333,25.1667 202,26.5C 202.5,41.1629 202.667,55.8295 202.5,70.5 Z"/></g>
<g><path style="opacity:1" fill="#fee7c4" d="M 116.5,70.5 C 116.667,55.8295 116.5,41.1629 116,26.5C 114.333,25.1667 112.667,25.1667 111,26.5C 110.5,40.8295 110.333,55.1628 110.5,69.5C 109.339,55.0058 109.172,40.3391 110,25.5C 112.333,22.8333 114.667,22.8333 117,25.5C 117.828,40.6723 117.661,55.6723 116.5,70.5 Z"/></g>
<g><path style="opacity:1" fill="#fee8c6" d="M 202.5,70.5 C 202.667,55.8295 202.5,41.1629 202,26.5C 200.333,25.1667 198.667,25.1667 197,26.5C 196.5,41.1629 196.333,55.8295 196.5,70.5C 195.339,55.6723 195.172,40.6723 196,25.5C 198.333,22.8333 200.667,22.8333 203,25.5C 203.828,40.6723 203.661,55.6723 202.5,70.5 Z"/></g>
<g><path style="opacity:1" fill="#cd9132" d="M 443.5,28.5 C 441.523,39.1158 440.856,50.1158 441.5,61.5C 441.5,61.8333 441.5,62.1667 441.5,62.5C 440.505,51.012 440.172,39.3453 440.5,27.5C 441.791,27.2627 442.791,27.596 443.5,28.5 Z"/></g>
<g><path style="opacity:1" fill="#a57c38" d="M 278.5,28.5 C 277.5,28.5 276.5,28.5 275.5,28.5C 275.5,39.5 275.5,50.5 275.5,61.5C 274.505,50.3456 274.172,39.0123 274.5,27.5C 276.099,27.2322 277.432,27.5655 278.5,28.5 Z"/></g>
<g><path style="opacity:1" fill="#06254c" d="M 299.5,28.5 C 301.477,39.1158 302.144,50.1158 301.5,61.5C 300.041,61.5674 298.708,61.2341 297.5,60.5C 297.5,60.1667 297.5,59.8333 297.5,59.5C 297.81,58.2617 298.31,58.2617 299,59.5C 299.464,58.9056 299.631,58.2389 299.5,57.5C 299.5,47.8333 299.5,38.1667 299.5,28.5 Z"/></g>
<g><path style="opacity:1" fill="#8d6d3b" d="M 299.5,28.5 C 300.209,27.596 301.209,27.2627 302.5,27.5C 302.5,39.1667 302.5,50.8333 302.5,62.5C 300.219,62.9227 298.552,62.256 297.5,60.5C 298.708,61.2341 300.041,61.5674 301.5,61.5C 302.144,50.1158 301.477,39.1158 299.5,28.5 Z"/></g>
<g><path style="opacity:1" fill="#454545" d="M 466.5,28.5 C 467.5,28.5 468.5,28.5 469.5,28.5C 469.5,29.5 469.5,30.5 469.5,31.5C 468.5,31.5 467.5,31.5 466.5,31.5C 466.5,30.5 466.5,29.5 466.5,28.5 Z"/></g>
<g><path style="opacity:1" fill="#75613f" d="M 443.5,28.5 C 444.167,34.5 444.833,40.5 445.5,46.5C 445.44,47.0431 445.107,47.3764 444.5,47.5C 443.504,41.2015 443.17,34.8682 443.5,28.5 Z"/></g>
<g><path style="opacity:1" fill="#2c3748" d="M 278.5,28.5 C 285.255,38.3435 292.255,48.0102 299.5,57.5C 299.631,58.2389 299.464,58.9056 299,59.5C 298.31,58.2617 297.81,58.2617 297.5,59.5C 291.5,51.1667 285.5,42.8333 279.5,34.5C 279.631,33.6236 279.298,32.9569 278.5,32.5C 278.152,42.5349 277.152,52.2016 275.5,61.5C 275.5,50.5 275.5,39.5 275.5,28.5C 276.5,28.5 277.5,28.5 278.5,28.5 Z"/></g>
<g><path style="opacity:1" fill="#9a7539" d="M 279.5,34.5 C 278.506,43.6517 278.173,52.985 278.5,62.5C 277.209,62.7373 276.209,62.404 275.5,61.5C 277.152,52.2016 278.152,42.5349 278.5,32.5C 279.298,32.9569 279.631,33.6236 279.5,34.5 Z"/></g>
<g><path style="opacity:1" fill="#a67c37" d="M 349.5,37.5 C 347.5,37.5 345.5,37.5 343.5,37.5C 343.785,35.712 343.452,34.0453 342.5,32.5C 341.83,34.2914 341.163,35.9581 340.5,37.5C 340.5,35.5 340.5,33.5 340.5,31.5C 341.833,31.5 343.167,31.5 344.5,31.5C 344.5,33.1667 344.5,34.8333 344.5,36.5C 346.415,36.2155 348.081,36.5489 349.5,37.5 Z"/></g>
<g><path style="opacity:1" fill="#96723b" d="M 327.5,38.5 C 323.167,37.1667 318.833,37.1667 314.5,38.5C 314.611,37.8826 314.944,37.3826 315.5,37C 317.5,36.8333 319.5,36.6667 321.5,36.5C 323.952,36.5391 325.952,37.2057 327.5,38.5 Z"/></g>
<g><path style="opacity:1" fill="#84693d" d="M 518.5,37.5 C 515.43,37.3677 512.43,37.701 509.5,38.5C 509.611,37.8826 509.944,37.3826 510.5,37C 513.367,36.1993 516.034,36.3659 518.5,37.5 Z"/></g>
<g><path style="opacity:1" fill="#735f3e" d="M 466.5,38.5 C 467.209,37.596 468.209,37.2627 469.5,37.5C 469.5,45.8333 469.5,54.1667 469.5,62.5C 468.209,62.7373 467.209,62.404 466.5,61.5C 467.823,58.0623 468.49,54.229 468.5,50C 468.49,45.771 467.823,41.9377 466.5,38.5 Z"/></g>
<g><path style="opacity:1" fill="#80673d" d="M 482.5,38.5 C 481.458,39.7911 480.292,39.7911 479,38.5C 478.5,46.1594 478.334,53.8261 478.5,61.5C 477.508,53.6841 477.174,45.6841 477.5,37.5C 479.216,37.6287 480.883,37.962 482.5,38.5 Z"/></g>
<g><path style="opacity:1" fill="#fff8ee" d="M 89.5,38.5 C 92.0444,38.1043 94.2111,38.771 96,40.5C 96.6667,47.8333 96.6667,55.1667 96,62.5C 93.6667,65.1667 91.3333,65.1667 89,62.5C 88.2004,54.4211 88.3671,46.4211 89.5,38.5 Z"/></g>
<g><path style="opacity:1" fill="#fff8ee" d="M 132.5,38.5 C 135.044,38.1043 137.211,38.771 139,40.5C 139.667,47.8333 139.667,55.1667 139,62.5C 136.667,65.1667 134.333,65.1667 132,62.5C 131.2,54.4211 131.367,46.4211 132.5,38.5 Z"/></g>
<g><path style="opacity:1" fill="#fff6e9" d="M 175.5,38.5 C 177.591,38.3184 179.591,38.6518 181.5,39.5C 182.665,47.145 182.831,54.8117 182,62.5C 180.135,64.6732 177.969,65.0066 175.5,63.5C 174.199,55.108 174.199,46.7747 175.5,38.5 Z"/></g>
<g><path style="opacity:1" fill="#fff8ef" d="M 218.5,38.5 C 221.044,38.1043 223.211,38.771 225,40.5C 225.667,47.8333 225.667,55.1667 225,62.5C 222.925,64.6483 220.592,64.9817 218,63.5C 217.199,55.0881 217.366,46.7548 218.5,38.5 Z"/></g>
<g><path style="opacity:1" fill="#534d43" d="M 426.5,43.5 C 426.539,42.2438 426.039,41.2438 425,40.5C 424.333,47.5 424.333,54.5 425,61.5C 425.173,55.6518 425.673,49.9851 426.5,44.5C 426.5,50.5 426.5,56.5 426.5,62.5C 425.5,62.5 424.5,62.5 423.5,62.5C 423.169,54.1401 423.502,45.8068 424.5,37.5C 425.293,37.9312 426.127,38.2645 427,38.5C 429.547,36.8225 432.38,36.1559 435.5,36.5C 435.5,37.5 435.5,38.5 435.5,39.5C 431.379,38.6581 428.379,39.9915 426.5,43.5 Z"/></g>
<g><path style="opacity:1" fill="#263448" d="M 466.5,38.5 C 467.823,41.9377 468.49,45.771 468.5,50C 468.49,54.229 467.823,58.0623 466.5,61.5C 466.5,53.8333 466.5,46.1667 466.5,38.5 Z"/></g>
<g><path style="opacity:1" fill="#cc9134" d="M 388.5,37.5 C 389.124,37.9169 389.457,38.5836 389.5,39.5C 386.766,46.6755 384.599,54.0088 383,61.5C 380.992,64.1389 379.159,64.1389 377.5,61.5C 379.451,61.7733 380.951,61.1066 382,59.5C 383.874,52.0484 386.041,44.715 388.5,37.5 Z"/></g>
<g><path style="opacity:1" fill="#f1a52d" d="M 523.5,42.5 C 524.754,46.8183 524.754,51.1516 523.5,55.5C 511.207,61.4036 506.04,57.4036 508,43.5C 512.884,38.568 518.051,38.2346 523.5,42.5 Z"/></g>
<g><path style="opacity:1" fill="#a37a37" d="M 349.5,39.5 C 348.081,40.4511 346.415,40.7845 344.5,40.5C 344.5,46.8333 344.5,53.1667 344.5,59.5C 343.509,53.021 343.176,46.3543 343.5,39.5C 345.5,39.5 347.5,39.5 349.5,39.5 Z"/></g>
<g><path style="opacity:1" fill="#3e4046" d="M 349.5,37.5 C 349.5,38.1667 349.5,38.8333 349.5,39.5C 347.5,39.5 345.5,39.5 343.5,39.5C 343.176,46.3543 343.509,53.021 344.5,59.5C 346.042,60.1635 347.709,60.8302 349.5,61.5C 346.104,63.1295 343.271,62.4629 341,59.5C 340.5,52.8417 340.334,46.175 340.5,39.5C 336.5,38.8333 336.5,38.1667 340.5,37.5C 341.163,35.9581 341.83,34.2914 342.5,32.5C 343.452,34.0453 343.785,35.712 343.5,37.5C 345.5,37.5 347.5,37.5 349.5,37.5 Z"/></g>
<g><path style="opacity:1" fill="#b88535" d="M 493.5,37.5 C 495.044,37.7031 496.378,38.3698 497.5,39.5C 498.497,47.1378 498.831,54.8045 498.5,62.5C 497.209,62.7373 496.209,62.404 495.5,61.5C 496.821,58.4018 497.488,54.9018 497.5,51C 497.944,45.7436 496.611,41.2436 493.5,37.5 Z"/></g>
<g><path style="opacity:1" fill="#b28236" d="M 483.5,41.5 C 481.62,48.2605 480.953,55.2605 481.5,62.5C 480.209,62.7373 479.209,62.404 478.5,61.5C 480.295,55.9165 481.129,49.9165 481,43.5C 481.708,42.6195 482.542,41.9528 483.5,41.5 Z"/></g>
<g><path style="opacity:1" fill="#444445" d="M 493.5,37.5 C 496.611,41.2436 497.944,45.7436 497.5,51C 497.488,54.9018 496.821,58.4018 495.5,61.5C 494.672,55.0126 494.172,48.346 494,41.5C 491.159,39.4963 487.993,38.9963 484.5,40C 483.944,40.3826 483.611,40.8826 483.5,41.5C 482.542,41.9528 481.708,42.6195 481,43.5C 481.129,49.9165 480.295,55.9165 478.5,61.5C 478.334,53.8261 478.5,46.1594 479,38.5C 480.292,39.7911 481.458,39.7911 482.5,38.5C 486.02,36.4617 489.687,36.1284 493.5,37.5 Z"/></g>
<g><path style="opacity:1" fill="#fff6ea" d="M 68.5,48.5 C 70.4672,48.2606 72.3005,48.5939 74,49.5C 74.6667,53.8333 74.6667,58.1667 74,62.5C 71.6667,65.1667 69.3333,65.1667 67,62.5C 65.9656,57.5431 66.4656,52.8764 68.5,48.5 Z"/></g>
<g><path style="opacity:1" fill="#fff7ec" d="M 154.5,48.5 C 156.467,48.2606 158.301,48.5939 160,49.5C 160.667,53.8333 160.667,58.1667 160,62.5C 157.667,65.1667 155.333,65.1667 153,62.5C 151.966,57.5431 152.466,52.8764 154.5,48.5 Z"/></g>
<g><path style="opacity:1" fill="#fff6ea" d="M 240.5,48.5 C 242.722,48.178 244.556,48.8446 246,50.5C 246.667,54.5 246.667,58.5 246,62.5C 243.667,65.1667 241.333,65.1667 239,62.5C 237.966,57.5431 238.466,52.8764 240.5,48.5 Z"/></g>
<g><path style="opacity:1" fill="#182f4a" d="M 426.5,43.5 C 426.5,43.8333 426.5,44.1667 426.5,44.5C 425.673,49.9851 425.173,55.6518 425,61.5C 424.333,54.5 424.333,47.5 425,40.5C 426.039,41.2438 426.539,42.2438 426.5,43.5 Z"/></g>
<g><path style="opacity:1" fill="#1c2e4a" d="M 443.5,28.5 C 443.17,34.8682 443.504,41.2015 444.5,47.5C 445.107,47.3764 445.44,47.0431 445.5,46.5C 448.642,43.5314 451.975,40.698 455.5,38C 456.635,37.2506 457.635,37.4173 458.5,38.5C 454.428,41.202 450.761,44.3686 447.5,48C 451.119,52.6219 455.119,56.9552 459.5,61C 458.5,61.6667 457.5,61.6667 456.5,61C 452.964,57.2961 449.298,53.7961 445.5,50.5C 445.44,49.9569 445.107,49.6236 444.5,49.5C 444.118,53.9156 443.118,57.9156 441.5,61.5C 440.856,50.1158 441.523,39.1158 443.5,28.5 Z"/></g>
<g><path style="opacity:1" fill="#2e3649" d="M 388.5,37.5 C 386.041,44.715 383.874,52.0484 382,59.5C 380.951,61.1066 379.451,61.7733 377.5,61.5C 376.425,54.7756 374.259,48.4422 371,42.5C 368.343,48.3028 366.176,54.3028 364.5,60.5C 363.311,61.4287 361.978,61.762 360.5,61.5C 358.636,53.7149 356.303,46.0482 353.5,38.5C 354.325,37.6143 355.325,37.281 356.5,37.5C 358.351,44.5555 360.518,51.5555 363,58.5C 365.168,51.6465 367.335,44.8132 369.5,38C 370.784,37.3162 371.951,37.4829 373,38.5C 375.534,45.1024 377.867,51.769 380,58.5C 382,51.8333 384,45.1667 386,38.5C 386.671,37.7476 387.504,37.4142 388.5,37.5 Z"/></g>
<g><path style="opacity:1" fill="#3e4046" d="M 415.5,43.5 C 415.931,49.0228 415.264,54.3561 413.5,59.5C 404.807,64.8611 397.974,63.1945 393,54.5C 391.147,39.3366 397.314,34.1699 411.5,39C 413.07,40.3968 414.404,41.8968 415.5,43.5 Z"/></g>
<g><path style="opacity:1" fill="#efa42e" d="M 399.5,39.5 C 412.274,38.5514 416.441,44.218 412,56.5C 408.146,60.6706 403.646,61.5039 398.5,59C 394.174,52.147 394.507,45.647 399.5,39.5 Z"/></g>
<g><path style="opacity:1" fill="#3b3e47" d="M 518.5,37.5 C 520.784,37.9752 522.784,38.9752 524.5,40.5C 524.167,41.1667 523.833,41.8333 523.5,42.5C 518.051,38.2346 512.884,38.568 508,43.5C 506.04,57.4036 511.207,61.4036 523.5,55.5C 523.833,56.1667 524.167,56.8333 524.5,57.5C 511.082,63.942 504.582,59.6087 505,44.5C 505.566,41.7713 507.066,39.7713 509.5,38.5C 512.43,37.701 515.43,37.3677 518.5,37.5 Z"/></g>
<g><path style="opacity:1" fill="#78623e" d="M 445.5,50.5 C 444.517,54.2984 444.183,58.2984 444.5,62.5C 443.5,62.5 442.5,62.5 441.5,62.5C 441.5,62.1667 441.5,61.8333 441.5,61.5C 443.118,57.9156 444.118,53.9156 444.5,49.5C 445.107,49.6236 445.44,49.9569 445.5,50.5 Z"/></g>
<g><path style="opacity:1" fill="#1b2a4b" d="M 524.5,57.5 C 524.167,56.8333 523.833,56.1667 523.5,55.5C 524.754,51.1516 524.754,46.8183 523.5,42.5C 523.833,41.8333 524.167,41.1667 524.5,40.5C 524.281,39.325 524.614,38.325 525.5,37.5C 525.833,42.1667 526.167,46.8333 526.5,51.5C 526.618,56.9409 526.118,62.2742 525,67.5C 520.413,71.6373 515.247,72.4706 509.5,70C 506.941,68.6766 506.275,66.8433 507.5,64.5C 511.059,69.6007 515.726,70.7674 521.5,68C 524.1,65.0164 525.1,61.5164 524.5,57.5 Z"/></g>
<g><path style="opacity:1" fill="#343b47" d="M 327.5,38.5 C 331.103,41.6291 332.769,45.6291 332.5,50.5C 325.833,50.5 319.167,50.5 312.5,50.5C 312.547,58.7165 316.547,61.8832 324.5,60C 326.641,58.6924 328.641,57.1924 330.5,55.5C 331.754,57.2592 331.421,58.7592 329.5,60C 317.884,65.6935 311.218,62.1935 309.5,49.5C 309.234,44.8105 310.901,41.1439 314.5,38.5C 318.833,37.1667 323.167,37.1667 327.5,38.5 Z"/></g>
<g><path style="opacity:1" fill="#a97e37" d="M 315.5,41.5 C 314.37,43.3146 313.704,45.3146 313.5,47.5C 318.5,47.5 323.5,47.5 328.5,47.5C 328.5,46.1667 328.5,44.8333 328.5,43.5C 329.451,44.9187 329.784,46.5853 329.5,48.5C 323.833,48.5 318.167,48.5 312.5,48.5C 311.908,45.3695 312.908,43.0361 315.5,41.5 Z"/></g>
<g><path style="opacity:1" fill="#f2a52d" d="M 328.5,43.5 C 328.5,44.8333 328.5,46.1667 328.5,47.5C 323.5,47.5 318.5,47.5 313.5,47.5C 313.704,45.3146 314.37,43.3146 315.5,41.5C 315.611,40.8826 315.944,40.3826 316.5,40C 319.5,39.3333 322.5,39.3333 325.5,40C 327.426,40.4224 328.426,41.5891 328.5,43.5 Z"/></g>
<g><path style="opacity:1" fill="#b18138" d="M 415.5,43.5 C 416.648,47.9811 416.815,52.6478 416,57.5C 415.583,58.756 414.75,59.4226 413.5,59.5C 415.264,54.3561 415.931,49.0228 415.5,43.5 Z"/></g>
<g><path style="opacity:1" fill="#a47b38" d="M 384.5,81.5 C 382.725,85.3864 381.892,89.7197 382,94.5C 381.292,93.6195 380.458,92.9528 379.5,92.5C 379.167,91.8333 378.833,91.1667 378.5,90.5C 379.496,90.4142 380.329,90.7476 381,91.5C 381.499,87.8484 381.665,84.1817 381.5,80.5C 382.791,80.2627 383.791,80.596 384.5,81.5 Z"/></g>
<g><path style="opacity:1" fill="#fff9f1" d="M 95.5,107.5 C 98.9619,108.482 102.629,108.815 106.5,108.5C 106.5,110.833 106.5,113.167 106.5,115.5C 105.833,115.5 105.167,115.5 104.5,115.5C 100.131,115.533 95.7978,115.2 91.5,114.5C 82.9849,108.318 81.1516,100.318 86,90.5C 90.9683,84.8849 97.135,83.0516 104.5,85C 106.291,87.1062 106.958,89.6062 106.5,92.5C 100.961,91.6384 96.1278,92.9718 92,96.5C 90.8824,100.923 92.0491,104.59 95.5,107.5 Z"/></g>
<g><path style="opacity:1" fill="#fde9c8" d="M 118.5,85.5 C 118.5,95.1667 118.5,104.833 118.5,114.5C 120.5,114.5 122.5,114.5 124.5,114.5C 124.5,104.833 124.5,95.1667 124.5,85.5C 125.494,95.3194 125.827,105.319 125.5,115.5C 122.833,115.5 120.167,115.5 117.5,115.5C 117.173,105.319 117.506,95.3194 118.5,85.5 Z"/></g>
<g><path style="opacity:1" fill="#fffefd" d="M 118.5,85.5 C 120.5,85.5 122.5,85.5 124.5,85.5C 124.5,95.1667 124.5,104.833 124.5,114.5C 122.5,114.5 120.5,114.5 118.5,114.5C 118.5,104.833 118.5,95.1667 118.5,85.5 Z"/></g>
<g><path style="opacity:1" fill="#fff9f2" d="M 153.5,113.5 C 147.894,114.407 142.227,114.74 136.5,114.5C 136.5,112.833 136.5,111.167 136.5,109.5C 140.371,109.815 144.038,109.482 147.5,108.5C 149.466,107.745 149.8,106.579 148.5,105C 139.234,103.747 135.4,98.5799 137,89.5C 138.543,87.6217 140.376,86.1217 142.5,85C 146.859,84.4657 151.192,84.6324 155.5,85.5C 155.5,87.5 155.5,89.5 155.5,91.5C 152.482,91.3354 149.482,91.502 146.5,92C 144.408,92.9525 144.075,94.2859 145.5,96C 149.644,97.2656 153.477,99.0989 157,101.5C 158.407,106.401 157.24,110.401 153.5,113.5 Z"/></g>
<g><path style="opacity:1" fill="#fff9f0" d="M 176.5,106.5 C 176.611,107.117 176.944,107.617 177.5,108C 181.152,108.499 184.818,108.665 188.5,108.5C 188.5,110.5 188.5,112.5 188.5,114.5C 184.881,115.244 181.215,115.577 177.5,115.5C 171.63,114.133 167.797,110.467 166,104.5C 163.944,91.8917 169.277,85.225 182,84.5C 184.528,84.725 187.028,85.0584 189.5,85.5C 189.5,88.1667 189.5,90.8333 189.5,93.5C 185.099,92.0983 180.765,92.2649 176.5,94C 172.645,98.0898 172.645,102.256 176.5,106.5 Z"/></g>
<g><path style="opacity:1" fill="#fff9f1" d="M 209.5,84.5 C 225.18,84.0015 231.68,91.3348 229,106.5C 224.17,114.785 217.003,117.618 207.5,115C 198.198,110.108 195.364,102.608 199,92.5C 201.587,88.4753 205.087,85.8087 209.5,84.5 Z"/></g>
<g><path style="opacity:1" fill="#8a6c3c" d="M 322.5,90.5 C 319.098,90.3424 315.764,90.6758 312.5,91.5C 312.611,90.8826 312.944,90.3826 313.5,90C 316.696,89.1955 319.696,89.3622 322.5,90.5 Z"/></g>
<g><path style="opacity:1" fill="#82673d" d="M 406.5,90.5 C 403.43,90.3677 400.43,90.701 397.5,91.5C 397.611,90.8826 397.944,90.3826 398.5,90C 401.367,89.1993 404.034,89.3659 406.5,90.5 Z"/></g>
<g><path style="opacity:1" fill="#675741" d="M 378.5,90.5 C 378.833,91.1667 379.167,91.8333 379.5,92.5C 378.833,92.5 378.5,92.8333 378.5,93.5C 375.904,92.7347 373.237,92.4013 370.5,92.5C 372.292,91.6909 374.292,91.1909 376.5,91C 373.445,90.3658 370.445,90.5325 367.5,91.5C 367.611,90.8826 367.944,90.3826 368.5,90C 371.924,89.2534 375.257,89.42 378.5,90.5 Z"/></g>
<g><path style="opacity:1" fill="#434345" d="M 343.5,100.5 C 346.5,100.5 349.5,100.5 352.5,100.5C 352.662,98.4727 352.495,96.4727 352,94.5C 351.617,93.944 351.117,93.6107 350.5,93.5C 347.257,92.42 343.924,92.2534 340.5,93C 339.663,94.0113 339.33,95.1779 339.5,96.5C 338.5,96.5 337.5,96.5 336.5,96.5C 336.323,94.0194 337.323,92.1861 339.5,91C 343.956,90.1327 348.289,90.4661 352.5,92C 353.333,92.8333 354.167,93.6667 355,94.5C 355.5,101.158 355.666,107.825 355.5,114.5C 353.876,114.64 352.71,113.973 352,112.5C 349.441,114.687 346.441,115.687 343,115.5C 336.463,114.795 334.13,111.129 336,104.5C 337.992,102.211 340.492,100.877 343.5,100.5 Z"/></g>
<g><path style="opacity:1" fill="#fbaf38" d="M 211.5,92.5 C 219.201,92.3622 222.367,96.0289 221,103.5C 215.579,110.433 210.579,110.1 206,102.5C 204.67,97.3486 206.503,94.0153 211.5,92.5 Z"/></g>
<g><path style="opacity:1" fill="#a97d38" d="M 350.5,93.5 C 351.117,93.6107 351.617,93.944 352,94.5C 352.495,96.4727 352.662,98.4727 352.5,100.5C 349.5,100.5 346.5,100.5 343.5,100.5C 345.948,99.5269 348.615,99.1936 351.5,99.5C 351.483,97.4352 351.15,95.4352 350.5,93.5 Z"/></g>
<g><path style="opacity:1" fill="#323948" d="M 296.5,106.5 C 290.355,105.51 284.022,105.177 277.5,105.5C 277.5,106.833 277.5,108.167 277.5,109.5C 275.787,110.635 275.12,112.302 275.5,114.5C 274.5,114.5 273.5,114.5 272.5,114.5C 276.348,104.144 280.181,93.8111 284,83.5C 285.67,81.3017 287.67,80.9683 290,82.5C 294.742,93.3115 298.909,104.311 302.5,115.5C 301.5,115.5 300.5,115.5 299.5,115.5C 299.31,112.145 298.31,109.145 296.5,106.5 Z"/></g>
<g><path style="opacity:1" fill="#e8a02f" d="M 294.5,102.5 C 289.381,103.103 284.715,102.436 280.5,100.5C 281.876,95.0295 284.21,90.0295 287.5,85.5C 290.792,90.6936 293.125,96.3603 294.5,102.5 Z"/></g>
<g><path style="opacity:1" fill="#383c48" d="M 442.5,96.5 C 442.147,102.735 441.147,108.735 439.5,114.5C 439.666,108.158 439.5,101.825 439,95.5C 435.045,91.5108 431.045,91.5108 427,95.5C 426.5,101.825 426.334,108.158 426.5,114.5C 425.5,114.5 424.5,114.5 423.5,114.5C 423.169,106.472 423.502,98.4723 424.5,90.5C 425.654,92.8559 426.987,93.0226 428.5,91C 433.351,89.7423 437.685,90.5756 441.5,93.5C 444.967,90.7054 448.967,89.872 453.5,91C 455,91.8333 456.167,93 457,94.5C 457.5,101.158 457.666,107.825 457.5,114.5C 456.5,114.5 455.5,114.5 454.5,114.5C 454.666,107.825 454.5,101.158 454,94.5C 451.159,92.4963 447.993,91.9963 444.5,93C 443.695,94.1127 443.028,95.2794 442.5,96.5 Z"/></g>
<g><path style="opacity:1" fill="#aa7e37" d="M 442.5,96.5 C 442.5,102.833 442.5,109.167 442.5,115.5C 441.209,115.737 440.209,115.404 439.5,114.5C 441.147,108.735 442.147,102.735 442.5,96.5 Z"/></g>
<g><path style="opacity:1" fill="#3d4146" d="M 406.5,90.5 C 413.189,92.1947 416.189,96.528 415.5,103.5C 408.833,103.5 402.167,103.5 395.5,103.5C 395.232,105.099 395.566,106.432 396.5,107.5C 396.733,109.062 397.4,110.395 398.5,111.5C 398.611,112.117 398.944,112.617 399.5,113C 403.261,113.738 406.928,113.405 410.5,112C 411.252,111.329 411.586,110.496 411.5,109.5C 411.833,109.5 412.167,109.5 412.5,109.5C 413.043,109.56 413.376,109.893 413.5,110.5C 412.476,111.852 411.476,113.185 410.5,114.5C 406.5,115.833 402.5,115.833 398.5,114.5C 394.393,111.619 392.393,107.619 392.5,102.5C 392.069,97.7619 393.736,94.0952 397.5,91.5C 400.43,90.701 403.43,90.3677 406.5,90.5 Z"/></g>
<g><path style="opacity:1" fill="#9f7738" d="M 398.5,94.5 C 397.37,96.3146 396.704,98.3146 396.5,100.5C 401.5,100.5 406.5,100.5 411.5,100.5C 411.5,99.1667 411.5,97.8333 411.5,96.5C 412.451,97.9187 412.784,99.5853 412.5,101.5C 406.833,101.5 401.167,101.5 395.5,101.5C 394.908,98.3695 395.908,96.0361 398.5,94.5 Z"/></g>
<g><path style="opacity:1" fill="#f3a62d" d="M 411.5,96.5 C 411.5,97.8333 411.5,99.1667 411.5,100.5C 406.5,100.5 401.5,100.5 396.5,100.5C 396.704,98.3146 397.37,96.3146 398.5,94.5C 398.611,93.8826 398.944,93.3826 399.5,93C 404.401,91.593 408.401,92.7597 411.5,96.5 Z"/></g>
<g><path style="opacity:1" fill="#9a7539" d="M 280.5,100.5 C 284.715,102.436 289.381,103.103 294.5,102.5C 289.695,103.487 284.695,103.821 279.5,103.5C 279.263,102.209 279.596,101.209 280.5,100.5 Z"/></g>
<g><path style="opacity:1" fill="#e9a12f" d="M 345.5,102.5 C 347.833,102.5 350.167,102.5 352.5,102.5C 352.365,110.471 348.365,113.971 340.5,113C 336.766,106.848 338.433,103.348 345.5,102.5 Z"/></g>
<g><path style="opacity:1" fill="#b78535" d="M 415.5,103.5 C 409.355,104.49 403.022,104.823 396.5,104.5C 396.5,105.5 396.5,106.5 396.5,107.5C 395.566,106.432 395.232,105.099 395.5,103.5C 402.167,103.5 408.833,103.5 415.5,103.5 Z"/></g>
<g><path style="opacity:1" fill="#3b3f46" d="M 464.5,90.5 C 465.496,90.4142 466.329,90.7476 467,91.5C 469.542,98.2926 472.375,104.959 475.5,111.5C 478.095,104.882 480.595,98.215 483,91.5C 484.156,90.0072 484.99,90.1739 485.5,92C 483.437,97.4162 481.604,102.916 480,108.5C 477.689,113.771 475.189,118.937 472.5,124C 466.148,124.231 465.981,123.398 472,121.5C 472.808,119.577 473.308,117.577 473.5,115.5C 470.299,107.23 467.299,98.8968 464.5,90.5 Z"/></g>
<g><path style="opacity:1" fill="#b98634" d="M 296.5,106.5 C 290.5,106.5 284.5,106.5 278.5,106.5C 278.737,107.791 278.404,108.791 277.5,109.5C 277.5,108.167 277.5,106.833 277.5,105.5C 284.022,105.177 290.355,105.51 296.5,106.5 Z"/></g>
<g><path style="opacity:1" fill="#363b47" d="M 322.5,90.5 C 325.971,91.6332 327.971,93.9666 328.5,97.5C 327.5,97.5 326.5,97.5 325.5,97.5C 325.703,95.6096 325.037,94.1096 323.5,93C 311.514,91.3889 307.348,96.5555 311,108.5C 313.435,113.224 317.269,114.724 322.5,113C 323.743,111.846 324.743,110.512 325.5,109C 326.635,108.251 327.635,108.417 328.5,109.5C 324.995,115.078 319.995,116.911 313.5,115C 307.885,110.032 306.052,103.865 308,96.5C 308.996,94.3395 310.496,92.6728 312.5,91.5C 315.764,90.6758 319.098,90.3424 322.5,90.5 Z"/></g>
<g><path style="opacity:1" fill="#fdd698" d="M 176.5,106.5 C 180.768,107.373 185.102,107.706 189.5,107.5C 189.5,110.167 189.5,112.833 189.5,115.5C 185.352,116.644 181.352,116.644 177.5,115.5C 181.215,115.577 184.881,115.244 188.5,114.5C 188.5,112.5 188.5,110.5 188.5,108.5C 184.818,108.665 181.152,108.499 177.5,108C 176.944,107.617 176.611,107.117 176.5,106.5 Z"/></g>
<g><path style="opacity:1" fill="#fdd089" d="M 95.5,107.5 C 99.5,107.5 103.5,107.5 107.5,107.5C 107.806,110.385 107.473,113.052 106.5,115.5C 106.5,113.167 106.5,110.833 106.5,108.5C 102.629,108.815 98.9619,108.482 95.5,107.5 Z"/></g>
<g><path style="opacity:1" fill="#2b3648" d="M 384.5,81.5 C 384.832,92.5202 384.499,103.52 383.5,114.5C 382.749,113.624 382.249,112.624 382,111.5C 376.333,116.833 370.667,116.833 365,111.5C 361.735,105.528 361.735,99.5283 365,93.5C 365.708,92.6195 366.542,91.9528 367.5,91.5C 370.445,90.5325 373.445,90.3658 376.5,91C 374.292,91.1909 372.292,91.6909 370.5,92.5C 366.214,94.4691 364.547,97.8024 365.5,102.5C 365.043,111.213 369.043,114.713 377.5,113C 382.211,108.86 383.711,103.694 382,97.5C 381.34,95.6763 380.173,94.343 378.5,93.5C 378.5,92.8333 378.833,92.5 379.5,92.5C 380.458,92.9528 381.292,93.6195 382,94.5C 381.892,89.7197 382.725,85.3864 384.5,81.5 Z"/></g>
<g><path style="opacity:1" fill="#efa42e" d="M 370.5,92.5 C 373.237,92.4013 375.904,92.7347 378.5,93.5C 380.173,94.343 381.34,95.6763 382,97.5C 383.711,103.694 382.211,108.86 377.5,113C 369.043,114.713 365.043,111.213 365.5,102.5C 364.547,97.8024 366.214,94.4691 370.5,92.5 Z"/></g>
<g><path style="opacity:1" fill="#b58337" d="M 411.5,109.5 C 411.586,110.496 411.252,111.329 410.5,112C 406.928,113.405 403.261,113.738 399.5,113C 398.944,112.617 398.611,112.117 398.5,111.5C 403.123,112.642 407.457,111.975 411.5,109.5 Z"/></g>
<g><path style="opacity:1" fill="#8f6f3b" d="M 412.5,109.5 C 412.56,108.957 412.893,108.624 413.5,108.5C 415.17,111.807 414.17,113.807 410.5,114.5C 411.476,113.185 412.476,111.852 413.5,110.5C 413.376,109.893 413.043,109.56 412.5,109.5 Z"/></g>
<g><path style="opacity:1" fill="#ffddab" d="M 147.5,108.5 C 144.038,109.482 140.371,109.815 136.5,109.5C 136.5,111.167 136.5,112.833 136.5,114.5C 142.227,114.74 147.894,114.407 153.5,113.5C 152.653,114.966 151.32,115.8 149.5,116C 145.167,116.667 140.833,116.667 136.5,116C 135.565,113.619 135.232,111.119 135.5,108.5C 139.5,108.5 143.5,108.5 147.5,108.5 Z"/></g>
<g><path style="opacity:1" fill="#fdd089" d="M 91.5,114.5 C 95.7978,115.2 100.131,115.533 104.5,115.5C 102.866,116.161 101.033,116.494 99,116.5C 96.1345,116.7 93.6345,116.033 91.5,114.5 Z"/></g>
<g><path style="opacity:1" fill="#b28236" d="M 398.5,114.5 C 402.5,115.833 406.5,115.833 410.5,114.5C 409.129,115.787 407.295,116.453 405,116.5C 403.167,116.333 401.333,116.167 399.5,116C 398.944,115.617 398.611,115.117 398.5,114.5 Z"/></g>
<g><path style="opacity:1" fill="#2e3947" d="M 49.5,147.5 C 191.332,146.5 333.332,146.167 475.5,146.5C 475.027,147.906 474.027,148.573 472.5,148.5C 331.668,147.5 190.668,147.167 49.5,147.5 Z"/></g>
<g><path style="opacity:1" fill="#f67204" d="M 475.5,146.5 C 492.167,146.5 508.833,146.5 525.5,146.5C 507.964,154.268 490.964,163.102 474.5,173C 470.352,176.904 466.019,180.571 461.5,184C 440.647,206.9 417.647,227.234 392.5,245C 393.094,245.464 393.761,245.631 394.5,245.5C 369.15,259.678 342.15,269.012 313.5,273.5C 294.546,275.191 275.546,275.858 256.5,275.5C 254.833,275.5 253.167,275.5 251.5,275.5C 243.445,273.222 235.111,271.556 226.5,270.5C 207.434,266.409 188.434,262.076 169.5,257.5C 160.139,254.826 150.472,253.159 140.5,252.5C 139.167,252.5 137.833,252.5 136.5,252.5C 132.79,250.864 128.79,250.198 124.5,250.5C 108.517,249.634 92.5172,249.3 76.5,249.5C 82.9874,248.672 89.654,248.172 96.5,248C 70.7939,245.892 45.1272,246.058 19.5,248.5C 19.5,237.167 19.5,225.833 19.5,214.5C 113.12,231.442 206.786,231.776 300.5,215.5C 304.897,215.575 309.23,215.075 313.5,214C 314.056,213.617 314.389,213.117 314.5,212.5C 323.371,210.033 332.371,208.033 341.5,206.5C 343.848,206.33 346.182,205.997 348.5,205.5C 350.03,205.36 351.03,204.693 351.5,203.5C 351.833,203.5 352.167,203.5 352.5,203.5C 355.855,203.31 358.855,202.31 361.5,200.5C 362.391,199.89 363.391,199.557 364.5,199.5C 370.166,198.61 375.5,196.943 380.5,194.5C 384.165,194.498 387.165,193.165 389.5,190.5C 391.117,189.962 392.784,189.629 394.5,189.5C 398.397,189.274 401.73,187.941 404.5,185.5C 404.5,185.167 404.5,184.833 404.5,184.5C 408.775,185.25 412.109,183.917 414.5,180.5C 417.491,180.834 419.824,179.834 421.5,177.5C 426.081,174.378 431.081,172.044 436.5,170.5C 438.848,170.408 440.514,169.408 441.5,167.5C 452.097,161.563 462.431,155.23 472.5,148.5C 474.027,148.573 475.027,147.906 475.5,146.5 Z"/></g>
<g><path style="opacity:1" fill="#f35705" d="M 525.5,146.5 C 534.506,146.334 543.506,146.5 552.5,147C 556.619,147.644 560.285,149.144 563.5,151.5C 512.009,158.365 468.676,180.865 433.5,219C 421.167,228.837 408.167,237.67 394.5,245.5C 393.761,245.631 393.094,245.464 392.5,245C 417.647,227.234 440.647,206.9 461.5,184C 466.019,180.571 470.352,176.904 474.5,173C 490.964,163.102 507.964,154.268 525.5,146.5 Z"/></g>
<g><path style="opacity:1" fill="#0f274d" d="M 49.5,147.5 C 190.668,147.167 331.668,147.5 472.5,148.5C 462.431,155.23 452.097,161.563 441.5,167.5C 439.326,167.75 437.659,168.75 436.5,170.5C 431.081,172.044 426.081,174.378 421.5,177.5C 418.843,177.935 416.509,178.935 414.5,180.5C 410.873,181.321 407.54,182.654 404.5,184.5C 404.5,184.833 404.5,185.167 404.5,185.5C 400.642,185.77 397.309,187.103 394.5,189.5C 392.784,189.629 391.117,189.962 389.5,190.5C 386.088,191.075 383.088,192.408 380.5,194.5C 374.834,195.39 369.5,197.057 364.5,199.5C 363.391,199.557 362.391,199.89 361.5,200.5C 358.084,200.528 355.084,201.528 352.5,203.5C 352.167,203.5 351.833,203.5 351.5,203.5C 347.786,203.59 344.452,204.59 341.5,206.5C 332.371,208.033 323.371,210.033 314.5,212.5C 309.609,213.01 304.942,214.01 300.5,215.5C 206.786,231.776 113.12,231.442 19.5,214.5C 19.3334,201.829 19.5001,189.162 20,176.5C 20.4892,171.472 22.3226,167.138 25.5,163.5C 27.914,162.089 29.5806,160.089 30.5,157.5C 32.2368,155.45 34.2368,153.617 36.5,152C 40.5902,149.803 44.9236,148.303 49.5,147.5 Z"/></g>
<g><path style="opacity:1" fill="#fcdcaa" d="M 563.5,151.5 C 574.443,156.293 581.277,164.626 584,176.5C 584.5,190.829 584.667,205.163 584.5,219.5C 554.366,220.278 527.366,229.778 503.5,248C 486.492,265.183 468.159,280.683 448.5,294.5C 430.744,305.045 412.411,314.545 393.5,323C 372.75,330.267 351.75,336.1 330.5,340.5C 317.403,341.175 304.403,342.675 291.5,345C 250.086,346.049 209.753,340.216 170.5,327.5C 164.755,326.884 159.089,325.884 153.5,324.5C 153.082,323.778 152.416,323.278 151.5,323C 121.516,317.225 91.5156,316.059 61.5,319.5C 52.6114,321.34 43.6114,323.007 34.5,324.5C 29.382,325.429 24.382,326.762 19.5,328.5C 19.5,304.833 19.5,281.167 19.5,257.5C 20.4916,257.672 21.1583,257.338 21.5,256.5C 27.7616,255.092 34.0949,254.092 40.5,253.5C 47.1241,253.508 53.4574,252.508 59.5,250.5C 65.0748,249.548 70.7414,249.214 76.5,249.5C 92.5172,249.3 108.517,249.634 124.5,250.5C 128.21,252.136 132.21,252.802 136.5,252.5C 137.833,252.5 139.167,252.5 140.5,252.5C 149.912,254.903 159.579,256.569 169.5,257.5C 188.434,262.076 207.434,266.409 226.5,270.5C 231.004,272.308 235.67,273.808 240.5,275C 244.152,275.499 247.818,275.665 251.5,275.5C 253.167,275.5 254.833,275.5 256.5,275.5C 269.66,276.66 282.994,276.827 296.5,276C 302.384,275.685 308.051,274.851 313.5,273.5C 342.15,269.012 369.15,259.678 394.5,245.5C 408.167,237.67 421.167,228.837 433.5,219C 468.676,180.865 512.009,158.365 563.5,151.5 Z"/></g>
<g><path style="opacity:1" fill="#594f43" d="M 30.5,157.5 C 29.5806,160.089 27.914,162.089 25.5,163.5C 26.4194,160.911 28.086,158.911 30.5,157.5 Z"/></g>
<g><path style="opacity:1" fill="#ebedf0" d="M 67.5,166.5 C 70.4475,166.223 73.2809,166.556 76,167.5C 78.4008,176.202 80.9008,184.868 83.5,193.5C 86.3072,184.941 88.8072,176.274 91,167.5C 93.7191,166.556 96.5525,166.223 99.5,166.5C 96.1668,177.482 92.6668,188.482 89,199.5C 87.4747,200.72 85.6413,201.387 83.5,201.5C 81.5711,201.46 79.7378,201.127 78,200.5C 74.3924,189.179 70.8924,177.845 67.5,166.5 Z"/></g>
<g><path style="opacity:1" fill="#f8f9fa" d="M 177.5,172.5 C 176.549,173.919 176.216,175.585 176.5,177.5C 178.167,177.5 179.833,177.5 181.5,177.5C 181.5,178.833 181.5,180.167 181.5,181.5C 179.833,181.5 178.167,181.5 176.5,181.5C 175.51,187.645 175.177,193.978 175.5,200.5C 173.5,200.5 171.5,200.5 169.5,200.5C 169.666,194.158 169.5,187.825 169,181.5C 167.294,180.692 166.461,179.359 166.5,177.5C 167.833,177.5 169.167,177.5 170.5,177.5C 169.857,173.567 170.857,170.234 173.5,167.5C 176.728,166.586 180.061,166.253 183.5,166.5C 183.5,168.167 183.5,169.833 183.5,171.5C 181.265,171.205 179.265,171.539 177.5,172.5 Z"/></g>
<g><path style="opacity:1" fill="#f2f3f5" d="M 251.5,200.5 C 251.265,199.903 250.765,199.57 250,199.5C 246.025,201.22 241.859,201.887 237.5,201.5C 235.629,201.141 234.129,200.141 233,198.5C 228.734,190.38 229.901,183.214 236.5,177C 237.448,176.517 238.448,176.351 239.5,176.5C 242.57,176.368 245.57,176.701 248.5,177.5C 248.56,178.043 248.893,178.376 249.5,178.5C 250.489,174.893 250.823,171.226 250.5,167.5C 252.5,167.5 254.5,167.5 256.5,167.5C 256.5,178.5 256.5,189.5 256.5,200.5C 254.833,200.5 253.167,200.5 251.5,200.5 Z"/></g>
<g><path style="opacity:1" fill="#aab2c0" d="M 251.5,201.5 C 251.5,201.167 251.5,200.833 251.5,200.5C 253.167,200.5 254.833,200.5 256.5,200.5C 256.5,189.5 256.5,178.5 256.5,167.5C 254.5,167.5 252.5,167.5 250.5,167.5C 250.823,171.226 250.489,174.893 249.5,178.5C 248.893,178.376 248.56,178.043 248.5,177.5C 249.482,174.038 249.815,170.371 249.5,166.5C 252.448,166.223 255.281,166.556 258,167.5C 258.5,178.828 258.667,190.162 258.5,201.5C 256.167,201.5 253.833,201.5 251.5,201.5 Z"/></g>
<g><path style="opacity:1" fill="#a25722" d="M 441.5,167.5 C 440.514,169.408 438.848,170.408 436.5,170.5C 437.659,168.75 439.326,167.75 441.5,167.5 Z"/></g>
<g><path style="opacity:1" fill="#d4d8df" d="M 152.5,166.5 C 155.187,166.336 157.854,166.503 160.5,167C 161.423,169.041 161.756,171.208 161.5,173.5C 158.5,173.5 155.5,173.5 152.5,173.5C 152.5,171.167 152.5,168.833 152.5,166.5 Z"/></g>
<g><path style="opacity:1" fill="#2f4465" d="M 195.5,167.5 C 195.167,167.5 194.833,167.5 194.5,167.5C 192.052,166.527 189.385,166.194 186.5,166.5C 186.5,168.833 186.5,171.167 186.5,173.5C 189.167,173.5 191.833,173.5 194.5,173.5C 192.369,174.314 190.036,174.814 187.5,175C 190.036,175.186 192.369,175.686 194.5,176.5C 191.833,176.5 189.167,176.5 186.5,176.5C 186.5,184.833 186.5,193.167 186.5,201.5C 185.671,193.677 185.171,185.677 185,177.5C 184.667,177.167 184.333,176.833 184,176.5C 183.802,178.382 183.302,180.048 182.5,181.5C 182.5,179.833 182.5,178.167 182.5,176.5C 180.833,176.5 179.167,176.5 177.5,176.5C 177.5,175.167 177.5,173.833 177.5,172.5C 179.265,171.539 181.265,171.205 183.5,171.5C 183.5,169.833 183.5,168.167 183.5,166.5C 180.061,166.253 176.728,166.586 173.5,167.5C 173.167,167.5 172.833,167.5 172.5,167.5C 172.611,166.883 172.944,166.383 173.5,166C 181.167,165.333 188.833,165.333 196.5,166C 195.944,166.383 195.611,166.883 195.5,167.5 Z"/></g>
<g><path style="opacity:1" fill="#9da8b7" d="M 194.5,167.5 C 194.833,167.5 195.167,167.5 195.5,167.5C 195.795,169.735 195.461,171.735 194.5,173.5C 191.833,173.5 189.167,173.5 186.5,173.5C 186.5,171.167 186.5,168.833 186.5,166.5C 189.385,166.194 192.052,166.527 194.5,167.5 Z"/></g>
<g><path style="opacity:1" fill="#f9fafb" d="M 194.5,167.5 C 194.5,169.167 194.5,170.833 194.5,172.5C 192.167,172.5 189.833,172.5 187.5,172.5C 187.5,170.833 187.5,169.167 187.5,167.5C 189.833,167.5 192.167,167.5 194.5,167.5 Z"/></g>
<g><path style="opacity:1" fill="#bbc2cd" d="M 172.5,167.5 C 172.833,167.5 173.167,167.5 173.5,167.5C 170.857,170.234 169.857,173.567 170.5,177.5C 169.167,177.5 167.833,177.5 166.5,177.5C 166.461,179.359 167.294,180.692 169,181.5C 169.5,187.825 169.666,194.158 169.5,200.5C 171.5,200.5 173.5,200.5 175.5,200.5C 175.177,193.978 175.51,187.645 176.5,181.5C 176.5,188.167 176.5,194.833 176.5,201.5C 173.833,201.5 171.167,201.5 168.5,201.5C 168.5,195.167 168.5,188.833 168.5,182.5C 164.932,182.241 163.599,180.241 164.5,176.5C 165.833,176.5 167.167,176.5 168.5,176.5C 167.659,172.425 168.992,169.425 172.5,167.5 Z"/></g>
<g><path style="opacity:1" fill="#78869b" d="M 239.5,176.5 C 241.966,175.366 244.633,175.199 247.5,176C 248.056,176.383 248.389,176.883 248.5,177.5C 245.57,176.701 242.57,176.368 239.5,176.5 Z"/></g>
<g><path style="opacity:1" fill="#e4e7eb" d="M 126.5,190.5 C 120.5,190.5 114.5,190.5 108.5,190.5C 108.34,192.199 108.506,193.866 109,195.5C 109.671,196.252 110.504,196.586 111.5,196.5C 116.171,194.757 121.171,193.757 126.5,193.5C 123.446,201.857 117.446,204.69 108.5,202C 102.529,199.334 99.8627,194.667 100.5,188C 100.748,179.422 105.248,175.256 114,175.5C 123.316,176.235 127.482,181.235 126.5,190.5 Z"/></g>
<g><path style="opacity:1" fill="#fafbfc" d="M 142.5,184.5 C 140.896,185.287 140.229,186.62 140.5,188.5C 139.517,192.298 139.183,196.298 139.5,200.5C 137.5,200.5 135.5,200.5 133.5,200.5C 133.5,192.833 133.5,185.167 133.5,177.5C 135.167,177.5 136.833,177.5 138.5,177.5C 140.028,179.984 141.694,179.818 143.5,177C 145.134,176.506 146.801,176.34 148.5,176.5C 148.5,178.5 148.5,180.5 148.5,182.5C 145.99,182.054 143.99,182.72 142.5,184.5 Z"/></g>
<g><path style="opacity:1" fill="#e6e9ec" d="M 219.5,177.5 C 225.503,180.171 227.836,184.838 226.5,191.5C 220.5,191.5 214.5,191.5 208.5,191.5C 208.297,193.39 208.963,194.89 210.5,196C 215.323,195.109 220.323,194.609 225.5,194.5C 223.955,200.619 219.955,203.286 213.5,202.5C 207.093,203.076 202.759,200.409 200.5,194.5C 199.571,180.764 205.904,175.097 219.5,177.5 Z"/></g>
<g><path style="opacity:1" fill="#c4cad3" d="M 132.5,176.5 C 134.735,176.205 136.735,176.539 138.5,177.5C 136.833,177.5 135.167,177.5 133.5,177.5C 133.5,185.167 133.5,192.833 133.5,200.5C 135.5,200.5 137.5,200.5 139.5,200.5C 139.183,196.298 139.517,192.298 140.5,188.5C 140.5,192.833 140.5,197.167 140.5,201.5C 137.833,201.5 135.167,201.5 132.5,201.5C 132.5,193.167 132.5,184.833 132.5,176.5 Z"/></g>
<g><path style="opacity:1" fill="#97a2b2" d="M 142.5,184.5 C 143.99,182.72 145.99,182.054 148.5,182.5C 148.5,180.5 148.5,178.5 148.5,176.5C 146.801,176.34 145.134,176.506 143.5,177C 141.694,179.818 140.028,179.984 138.5,177.5C 140.1,178.512 141.434,178.012 142.5,176C 144.81,175.503 147.143,175.337 149.5,175.5C 149.5,178.167 149.5,180.833 149.5,183.5C 147.097,183.448 144.764,183.781 142.5,184.5 Z"/></g>
<g><path style="opacity:1" fill="#cfd4db" d="M 152.5,176.5 C 155.167,176.5 157.833,176.5 160.5,176.5C 160.5,184.833 160.5,193.167 160.5,201.5C 157.833,201.5 155.167,201.5 152.5,201.5C 152.5,193.167 152.5,184.833 152.5,176.5 Z"/></g>
<g><path style="opacity:1" fill="#fefefe" d="M 153.5,177.5 C 155.5,177.5 157.5,177.5 159.5,177.5C 159.5,185.167 159.5,192.833 159.5,200.5C 157.5,200.5 155.5,200.5 153.5,200.5C 153.5,192.833 153.5,185.167 153.5,177.5 Z"/></g>
<g><path style="opacity:1" fill="#808da1" d="M 194.5,176.5 C 195.833,184.833 195.833,193.167 194.5,201.5C 191.833,202.833 189.167,202.833 186.5,201.5C 186.5,193.167 186.5,184.833 186.5,176.5C 189.167,176.5 191.833,176.5 194.5,176.5 Z"/></g>
<g><path style="opacity:1" fill="#f4f5f7" d="M 194.5,201.5 C 192.167,201.5 189.833,201.5 187.5,201.5C 187.5,193.5 187.5,185.5 187.5,177.5C 189.833,177.5 192.167,177.5 194.5,177.5C 194.5,185.5 194.5,193.5 194.5,201.5 Z"/></g>
<g><path style="opacity:1" fill="#9e5622" d="M 421.5,177.5 C 419.824,179.834 417.491,180.834 414.5,180.5C 416.509,178.935 418.843,177.935 421.5,177.5 Z"/></g>
<g><path style="opacity:1" fill="#687890" d="M 110.5,180.5 C 112.857,180.337 115.19,180.503 117.5,181C 118.406,182.699 118.739,184.533 118.5,186.5C 115.167,186.5 111.833,186.5 108.5,186.5C 108.253,184.142 108.919,182.142 110.5,180.5 Z"/></g>
<g><path style="opacity:1" fill="#a2acba" d="M 219.5,177.5 C 205.904,175.097 199.571,180.764 200.5,194.5C 197.18,183.31 201.346,176.977 213,175.5C 214.833,175.667 216.667,175.833 218.5,176C 219.056,176.383 219.389,176.883 219.5,177.5 Z"/></g>
<g><path style="opacity:1" fill="#0f294f" d="M 111.5,181.5 C 115.241,180.599 117.241,181.932 117.5,185.5C 114.753,185.813 112.086,185.48 109.5,184.5C 110.193,183.482 110.859,182.482 111.5,181.5 Z"/></g>
<g><path style="opacity:1" fill="#22375b" d="M 210.5,180.5 C 215.206,179.881 217.873,181.881 218.5,186.5C 215.102,186.82 211.768,186.487 208.5,185.5C 209.174,183.805 209.841,182.138 210.5,180.5 Z"/></g>
<g><path style="opacity:1" fill="#495b79" d="M 249.5,192.5 C 250.583,184.067 247.416,181.734 240,185.5C 239.341,188.888 239.508,192.221 240.5,195.5C 239.883,195.389 239.383,195.056 239,194.5C 236.014,185.888 238.848,181.721 247.5,182C 250.573,185.107 251.239,188.607 249.5,192.5 Z"/></g>
<g><path style="opacity:1" fill="#77859b" d="M 177.5,172.5 C 177.5,173.833 177.5,175.167 177.5,176.5C 179.167,176.5 180.833,176.5 182.5,176.5C 182.5,178.167 182.5,179.833 182.5,181.5C 181.081,182.451 179.415,182.784 177.5,182.5C 177.823,189.022 177.49,195.355 176.5,201.5C 176.5,194.833 176.5,188.167 176.5,181.5C 178.167,181.5 179.833,181.5 181.5,181.5C 181.5,180.167 181.5,178.833 181.5,177.5C 179.833,177.5 178.167,177.5 176.5,177.5C 176.216,175.585 176.549,173.919 177.5,172.5 Z"/></g>
<g><path style="opacity:1" fill="#152d52" d="M 249.5,192.5 C 249.67,193.822 249.337,194.989 248.5,196C 245.779,196.602 243.113,196.435 240.5,195.5C 239.508,192.221 239.341,188.888 240,185.5C 247.416,181.734 250.583,184.067 249.5,192.5 Z"/></g>
<g><path style="opacity:1" fill="#a35822" d="M 414.5,180.5 C 412.109,183.917 408.775,185.25 404.5,184.5C 407.54,182.654 410.873,181.321 414.5,180.5 Z"/></g>
<g><path style="opacity:1" fill="#ba5f1b" d="M 404.5,185.5 C 401.73,187.941 398.397,189.274 394.5,189.5C 397.309,187.103 400.642,185.77 404.5,185.5 Z"/></g>
<g><path style="opacity:1" fill="#8491a4" d="M 126.5,190.5 C 121.025,191.489 115.358,191.822 109.5,191.5C 109.392,193.514 110.058,195.18 111.5,196.5C 110.504,196.586 109.671,196.252 109,195.5C 108.506,193.866 108.34,192.199 108.5,190.5C 114.5,190.5 120.5,190.5 126.5,190.5 Z"/></g>
<g><path style="opacity:1" fill="#9f5622" d="M 389.5,190.5 C 387.165,193.165 384.165,194.498 380.5,194.5C 383.088,192.408 386.088,191.075 389.5,190.5 Z"/></g>
<g><path style="opacity:1" fill="#965324" d="M 380.5,194.5 C 375.5,196.943 370.166,198.61 364.5,199.5C 369.5,197.057 374.834,195.39 380.5,194.5 Z"/></g>
<g><path style="opacity:1" fill="#75839a" d="M 251.5,200.5 C 251.5,200.833 251.5,201.167 251.5,201.5C 246.679,202.597 242.013,202.597 237.5,201.5C 241.859,201.887 246.025,201.22 250,199.5C 250.765,199.57 251.265,199.903 251.5,200.5 Z"/></g>
<g><path style="opacity:1" fill="#965324" d="M 361.5,200.5 C 358.855,202.31 355.855,203.31 352.5,203.5C 355.084,201.528 358.084,200.528 361.5,200.5 Z"/></g>
<g><path style="opacity:1" fill="#435574" d="M 132.5,176.5 C 132.5,184.833 132.5,193.167 132.5,201.5C 135.167,201.5 137.833,201.5 140.5,201.5C 138.012,203.388 135.012,204.055 131.5,203.5C 131.173,194.318 131.507,185.318 132.5,176.5 Z"/></g>
<g><path style="opacity:1" fill="#ad5b1e" d="M 351.5,203.5 C 351.03,204.693 350.03,205.36 348.5,205.5C 346.182,205.997 343.848,206.33 341.5,206.5C 344.452,204.59 347.786,203.59 351.5,203.5 Z"/></g>
<g><path style="opacity:1" fill="#bb5f1b" d="M 314.5,212.5 C 314.389,213.117 314.056,213.617 313.5,214C 309.23,215.075 304.897,215.575 300.5,215.5C 304.942,214.01 309.609,213.01 314.5,212.5 Z"/></g>
<g><path style="opacity:1" fill="#f78526" d="M 584.5,219.5 C 584.5,223.5 584.5,227.5 584.5,231.5C 574.72,231.08 565.053,231.914 555.5,234C 534.667,240.804 515.667,251.137 498.5,265C 487.27,275.072 475.936,284.905 464.5,294.5C 463.833,294.833 463.167,295.167 462.5,295.5C 457.637,295.819 452.97,295.486 448.5,294.5C 468.159,280.683 486.492,265.183 503.5,248C 527.366,229.778 554.366,220.278 584.5,219.5 Z"/></g>
<g><path style="opacity:1" fill="#fab340" d="M 584.5,231.5 C 584.5,238.5 584.5,245.5 584.5,252.5C 561.036,272.721 533.703,285.221 502.5,290C 489.944,292.482 477.277,293.982 464.5,294.5C 475.936,284.905 487.27,275.072 498.5,265C 515.667,251.137 534.667,240.804 555.5,234C 565.053,231.914 574.72,231.08 584.5,231.5 Z"/></g>
<g><path style="opacity:1" fill="#f35805" d="M 76.5,249.5 C 70.7414,249.214 65.0748,249.548 59.5,250.5C 52.9201,250.74 46.5867,251.74 40.5,253.5C 34.0949,254.092 27.7616,255.092 21.5,256.5C 19.631,254.365 18.9644,251.698 19.5,248.5C 45.1272,246.058 70.7939,245.892 96.5,248C 89.654,248.172 82.9874,248.672 76.5,249.5 Z"/></g>
<g><path style="opacity:1" fill="#f9a96a" d="M 59.5,250.5 C 53.4574,252.508 47.1241,253.508 40.5,253.5C 46.5867,251.74 52.9201,250.74 59.5,250.5 Z"/></g>
<g><path style="opacity:1" fill="#faaf68" d="M 124.5,250.5 C 128.79,250.198 132.79,250.864 136.5,252.5C 132.21,252.802 128.21,252.136 124.5,250.5 Z"/></g>
<g><path style="opacity:1" fill="#faac5f" d="M 140.5,252.5 C 150.472,253.159 160.139,254.826 169.5,257.5C 159.579,256.569 149.912,254.903 140.5,252.5 Z"/></g>
<g><path style="opacity:1" fill="#fccc80" d="M 584.5,252.5 C 584.827,290.906 584.494,329.239 583.5,367.5C 582.209,367.263 581.209,367.596 580.5,368.5C 570.216,372.095 559.883,375.595 549.5,379C 538.538,381.493 527.538,383.659 516.5,385.5C 507.236,385.947 498.236,387.28 489.5,389.5C 471.182,390.758 452.849,391.758 434.5,392.5C 389.83,392.496 345.164,392.163 300.5,391.5C 246.19,388.099 191.857,387.933 137.5,391C 97.4325,395.699 59.4325,406.866 23.5,424.5C 22.391,424.557 21.391,424.89 20.5,425.5C 19.502,396.671 19.1686,367.671 19.5,338.5C 19.5,338.167 19.5,337.833 19.5,337.5C 28.7037,335.693 37.7037,333.193 46.5,330C 55.7848,328.376 65.1181,327.042 74.5,326C 107.845,324.274 141.012,325.774 174,330.5C 174.833,330.333 175.667,330.167 176.5,330C 174.277,329.434 172.277,328.6 170.5,327.5C 209.753,340.216 250.086,346.049 291.5,345C 304.403,342.675 317.403,341.175 330.5,340.5C 331.449,341.152 332.615,341.486 334,341.5C 380.345,335.069 423.179,319.736 462.5,295.5C 463.167,295.167 463.833,294.833 464.5,294.5C 477.277,293.982 489.944,292.482 502.5,290C 533.703,285.221 561.036,272.721 584.5,252.5 Z"/></g>
<g><path style="opacity:1" fill="#fcbd79" d="M 226.5,270.5 C 235.111,271.556 243.445,273.222 251.5,275.5C 247.818,275.665 244.152,275.499 240.5,275C 235.67,273.808 231.004,272.308 226.5,270.5 Z"/></g>
<g><path style="opacity:1" fill="#faa959" d="M 313.5,273.5 C 308.051,274.851 302.384,275.685 296.5,276C 282.994,276.827 269.66,276.66 256.5,275.5C 275.546,275.858 294.546,275.191 313.5,273.5 Z"/></g>
<g><path style="opacity:1" fill="#fbbd65" d="M 19.5,257.5 C 19.5,281.167 19.5,304.833 19.5,328.5C 24.382,326.762 29.382,325.429 34.5,324.5C 29.8541,326.977 24.8541,328.644 19.5,329.5C 18.1667,305.5 18.1667,281.5 19.5,257.5 Z"/></g>
<g><path style="opacity:1" fill="#f99b4a" d="M 448.5,294.5 C 452.97,295.486 457.637,295.819 462.5,295.5C 423.179,319.736 380.345,335.069 334,341.5C 332.615,341.486 331.449,341.152 330.5,340.5C 351.75,336.1 372.75,330.267 393.5,323C 412.411,314.545 430.744,305.045 448.5,294.5 Z"/></g>
<g><path style="opacity:1" fill="#fbbe7f" d="M 153.5,324.5 C 123.079,318.606 92.4126,316.94 61.5,319.5C 91.5156,316.059 121.516,317.225 151.5,323C 152.416,323.278 153.082,323.778 153.5,324.5 Z"/></g>
<g><path style="opacity:1" fill="#f99745" d="M 153.5,324.5 C 159.089,325.884 164.755,326.884 170.5,327.5C 172.277,328.6 174.277,329.434 176.5,330C 175.667,330.167 174.833,330.333 174,330.5C 141.012,325.774 107.845,324.274 74.5,326C 65.1181,327.042 55.7848,328.376 46.5,330C 37.7037,333.193 28.7037,335.693 19.5,337.5C 19.5,334.833 19.5,332.167 19.5,329.5C 24.8541,328.644 29.8541,326.977 34.5,324.5C 43.6114,323.007 52.6114,321.34 61.5,319.5C 92.4126,316.94 123.079,318.606 153.5,324.5 Z"/></g>
<g><path style="opacity:1" fill="#fbba54" d="M 19.5,338.5 C 19.1686,367.671 19.502,396.671 20.5,425.5C 20.5,425.833 20.5,426.167 20.5,426.5C 19.1673,412.182 18.5006,397.516 18.5,382.5C 18.5001,367.663 18.8334,352.996 19.5,338.5 Z"/></g>
<g><path style="opacity:1" fill="#f77304" d="M 580.5,368.5 C 581.209,367.596 582.209,367.263 583.5,367.5C 584.498,399.662 584.832,431.996 584.5,464.5C 580.214,463.293 575.88,462.293 571.5,461.5C 533.593,450.386 494.926,443.386 455.5,440.5C 447.391,438.932 439.058,438.098 430.5,438C 407.833,437.333 385.167,437.333 362.5,438C 349.303,438.665 336.303,439.832 323.5,441.5C 299.056,444.056 274.723,447.389 250.5,451.5C 289.265,441.974 325.932,427.474 360.5,408C 361.833,405.333 363.833,403.333 366.5,402C 381.16,402.368 395.827,403.035 410.5,404C 432.833,404.667 455.167,404.667 477.5,404C 498.762,401.248 520.096,398.915 541.5,397C 555.823,394.164 569.49,389.664 582.5,383.5C 583.494,378.544 583.827,373.544 583.5,368.5C 582.5,368.5 581.5,368.5 580.5,368.5 Z"/></g>
<g><path style="opacity:1" fill="#faa456" d="M 516.5,385.5 C 508.105,387.746 499.439,389.08 490.5,389.5C 490.167,389.5 489.833,389.5 489.5,389.5C 498.236,387.28 507.236,385.947 516.5,385.5 Z"/></g>
<g><path style="opacity:1" fill="#f78828" d="M 300.5,391.5 C 309.324,392.33 318.324,392.83 327.5,393C 363.165,393.5 398.832,393.667 434.5,393.5C 414.671,394.332 394.671,394.832 374.5,395C 368.911,397.624 363.577,400.458 358.5,403.5C 359.602,401.908 358.935,401.075 356.5,401C 314.852,397.763 273.186,394.763 231.5,392C 200.025,390.416 168.692,391.749 137.5,396C 125.447,399.957 113.113,402.957 100.5,405C 84.0418,410.894 68.0418,417.894 52.5,426C 50.3825,427.049 48.7158,428.549 47.5,430.5C 42.1843,428.446 36.851,426.28 31.5,424C 28.8428,423.825 26.1761,423.992 23.5,424.5C 59.4325,406.866 97.4325,395.699 137.5,391C 191.857,387.933 246.19,388.099 300.5,391.5 Z"/></g>
<g><path style="opacity:1" fill="#fab340" d="M 358.5,403.5 C 347.452,409.021 336.119,414.021 324.5,418.5C 311.346,423.325 298.346,428.325 285.5,433.5C 205.68,461.024 126.347,460.024 47.5,430.5C 48.7158,428.549 50.3825,427.049 52.5,426C 68.0418,417.894 84.0418,410.894 100.5,405C 113.113,402.957 125.447,399.957 137.5,396C 168.692,391.749 200.025,390.416 231.5,392C 273.186,394.763 314.852,397.763 356.5,401C 358.935,401.075 359.602,401.908 358.5,403.5 Z"/></g>
<g><path style="opacity:1" fill="#faac5b" d="M 300.5,391.5 C 345.164,392.163 389.83,392.496 434.5,392.5C 434.5,392.833 434.5,393.167 434.5,393.5C 398.832,393.667 363.165,393.5 327.5,393C 318.324,392.83 309.324,392.33 300.5,391.5 Z"/></g>
<g><path style="opacity:1" fill="#f78839" d="M 489.5,389.5 C 489.833,389.5 490.167,389.5 490.5,389.5C 472.077,392.122 453.41,393.455 434.5,393.5C 434.5,393.167 434.5,392.833 434.5,392.5C 452.849,391.758 471.182,390.758 489.5,389.5 Z"/></g>
<g><path style="opacity:1" fill="#f35702" d="M 580.5,368.5 C 581.5,368.5 582.5,368.5 583.5,368.5C 583.827,373.544 583.494,378.544 582.5,383.5C 569.49,389.664 555.823,394.164 541.5,397C 520.096,398.915 498.762,401.248 477.5,404C 455.167,404.667 432.833,404.667 410.5,404C 395.827,403.035 381.16,402.368 366.5,402C 363.833,403.333 361.833,405.333 360.5,408C 325.932,427.474 289.265,441.974 250.5,451.5C 249.081,452.451 247.415,452.784 245.5,452.5C 209.985,457.687 174.318,458.854 138.5,456C 121.63,454.077 104.964,451.077 88.5,447C 73.6687,442.553 59.0021,438.053 44.5,433.5C 42.8333,433.667 41.1667,433.833 39.5,434C 32.9342,438.747 26.2676,443.247 19.5,447.5C 19.2045,440.412 19.5379,433.412 20.5,426.5C 20.5,426.167 20.5,425.833 20.5,425.5C 21.391,424.89 22.391,424.557 23.5,424.5C 26.1761,423.992 28.8428,423.825 31.5,424C 36.851,426.28 42.1843,428.446 47.5,430.5C 126.347,460.024 205.68,461.024 285.5,433.5C 297.309,430.175 308.976,426.342 320.5,422C 322.093,421.051 323.426,419.885 324.5,418.5C 336.119,414.021 347.452,409.021 358.5,403.5C 363.577,400.458 368.911,397.624 374.5,395C 394.671,394.832 414.671,394.332 434.5,393.5C 453.41,393.455 472.077,392.122 490.5,389.5C 499.439,389.08 508.105,387.746 516.5,385.5C 527.538,383.659 538.538,381.493 549.5,379C 559.883,375.595 570.216,372.095 580.5,368.5 Z"/></g>
<g><path style="opacity:1" fill="#f67a1b" d="M 324.5,418.5 C 323.426,419.885 322.093,421.051 320.5,422C 308.976,426.342 297.309,430.175 285.5,433.5C 298.346,428.325 311.346,423.325 324.5,418.5 Z"/></g>
<g><path style="opacity:1" fill="#f77304" d="M 245.5,452.5 C 221.243,457.65 197.243,463.65 173.5,470.5C 169.838,470.723 166.505,471.723 163.5,473.5C 155.779,474.924 148.446,477.257 141.5,480.5C 135.834,481.39 130.5,483.057 125.5,485.5C 122.284,485.345 119.617,486.345 117.5,488.5C 114.834,488.933 112.168,489.433 109.5,490C 108.944,490.383 108.611,490.883 108.5,491.5C 100.337,492.998 92.6701,495.664 85.5,499.5C 63.7055,507.397 42.3722,516.397 21.5,526.5C 19.5089,500.521 18.8423,474.188 19.5,447.5C 26.2676,443.247 32.9342,438.747 39.5,434C 41.1667,433.833 42.8333,433.667 44.5,433.5C 59.0021,438.053 73.6687,442.553 88.5,447C 104.964,451.077 121.63,454.077 138.5,456C 174.318,458.854 209.985,457.687 245.5,452.5 Z"/></g>
<g><path style="opacity:1" fill="#fbfbfc" d="M 455.5,440.5 C 494.926,443.386 533.593,450.386 571.5,461.5C 575.502,463.61 579.835,464.943 584.5,465.5C 584.96,495.209 584.46,524.875 583,554.5C 578.402,569.267 568.568,578.267 553.5,581.5C 384.145,581.828 214.812,581.495 45.5,580.5C 29.8852,575.546 21.2186,564.879 19.5,548.5C 19.2045,541.412 19.5379,534.412 20.5,527.5C 21.1667,527.5 21.5,527.167 21.5,526.5C 42.3722,516.397 63.7055,507.397 85.5,499.5C 93.5128,497.608 101.179,494.941 108.5,491.5C 108.611,490.883 108.944,490.383 109.5,490C 112.168,489.433 114.834,488.933 117.5,488.5C 120.397,487.871 123.064,486.871 125.5,485.5C 131.166,484.61 136.5,482.943 141.5,480.5C 148.446,477.257 155.779,474.924 163.5,473.5C 167.162,473.277 170.495,472.277 173.5,470.5C 197.243,463.65 221.243,457.65 245.5,452.5C 247.415,452.784 249.081,452.451 250.5,451.5C 274.723,447.389 299.056,444.056 323.5,441.5C 367.474,437.935 411.474,437.602 455.5,440.5 Z"/></g>
<g><path style="opacity:1" fill="#fedbbf" d="M 455.5,440.5 C 411.474,437.602 367.474,437.935 323.5,441.5C 336.303,439.832 349.303,438.665 362.5,438C 385.167,437.333 407.833,437.333 430.5,438C 439.058,438.098 447.391,438.932 455.5,440.5 Z"/></g>
<g><path style="opacity:1" fill="#fcc292" d="M 173.5,470.5 C 170.495,472.277 167.162,473.277 163.5,473.5C 166.505,471.723 169.838,470.723 173.5,470.5 Z"/></g>
<g><path style="opacity:1" fill="#4f627e" d="M 358.5,488.5 C 355.075,488.367 354.742,489.033 357.5,490.5C 354.162,490.065 351.162,490.732 348.5,492.5C 346.817,488.795 345.984,484.795 346,480.5C 345.333,489.5 345.333,498.5 346,507.5C 346.601,505.641 347.434,505.308 348.5,506.5C 347.533,507.806 346.199,508.473 344.5,508.5C 344.5,498.833 344.5,489.167 344.5,479.5C 345.5,479.5 346.5,479.5 347.5,479.5C 347.5,482.833 347.5,486.167 347.5,489.5C 350.156,488.842 352.822,488.175 355.5,487.5C 356.726,487.52 357.726,487.853 358.5,488.5 Z"/></g>
<g><path style="opacity:1" fill="#fdd2ae" d="M 141.5,480.5 C 136.5,482.943 131.166,484.61 125.5,485.5C 130.5,483.057 135.834,481.39 141.5,480.5 Z"/></g>
<g><path style="opacity:1" fill="#6a7991" d="M 179.5,480.5 C 180.209,479.596 181.209,479.263 182.5,479.5C 182.825,487.352 182.492,495.018 181.5,502.5C 182.13,494.757 181.463,487.424 179.5,480.5 Z"/></g>
<g><path style="opacity:1" fill="#374c6d" d="M 234.5,480.5 C 235.5,480.5 236.5,480.5 237.5,480.5C 237.5,481.5 237.5,482.5 237.5,483.5C 236.5,483.5 235.5,483.5 234.5,483.5C 234.5,482.5 234.5,481.5 234.5,480.5 Z"/></g>
<g><path style="opacity:1" fill="#526380" d="M 510.5,479.5 C 511.833,479.5 513.167,479.5 514.5,479.5C 514.5,480.833 514.5,482.167 514.5,483.5C 513.167,483.5 511.833,483.5 510.5,483.5C 510.5,482.167 510.5,480.833 510.5,479.5 Z"/></g>
<g><path style="opacity:1" fill="#fcc191" d="M 125.5,485.5 C 123.064,486.871 120.397,487.871 117.5,488.5C 119.617,486.345 122.284,485.345 125.5,485.5 Z"/></g>
<g><path style="opacity:1" fill="#738298" d="M 257.5,489.5 C 256.884,490.202 256.884,491.202 257.5,492.5C 255.18,490.774 252.513,490.107 249.5,490.5C 251.292,489.691 253.292,489.191 255.5,489C 245.659,488.009 241.325,492.509 242.5,502.5C 240.022,491.14 244.688,486.307 256.5,488C 257.056,488.383 257.389,488.883 257.5,489.5 Z"/></g>
<g><path style="opacity:1" fill="#7d8b9f" d="M 191.5,503.5 C 190.834,498.651 190.167,493.651 189.5,488.5C 188.253,494.523 188.253,500.523 189.5,506.5C 188.883,506.389 188.383,506.056 188,505.5C 187.501,499.509 187.334,493.509 187.5,487.5C 188.833,487.5 190.167,487.5 191.5,487.5C 191.5,492.833 191.5,498.167 191.5,503.5 Z"/></g>
<g><path style="opacity:1" fill="#1b3459" d="M 204.5,508.5 C 203.833,508.5 203.167,508.5 202.5,508.5C 202.371,506.784 202.038,505.117 201.5,503.5C 201.5,503.167 201.5,502.833 201.5,502.5C 202.166,497.983 202.833,493.317 203.5,488.5C 204.497,495.134 204.83,501.8 204.5,508.5 Z"/></g>
<g><path style="opacity:1" fill="#6f7f95" d="M 204.5,508.5 C 204.83,501.8 204.497,495.134 203.5,488.5C 202.833,493.317 202.166,497.983 201.5,502.5C 201.5,497.5 201.5,492.5 201.5,487.5C 202.833,487.5 204.167,487.5 205.5,487.5C 205.825,494.687 205.491,501.687 204.5,508.5 Z"/></g>
<g><path style="opacity:1" fill="#9ea8b8" d="M 269.5,488.5 C 267.541,494.75 266.874,501.416 267.5,508.5C 266.509,501.687 266.175,494.687 266.5,487.5C 267.791,487.263 268.791,487.596 269.5,488.5 Z"/></g>
<g><path style="opacity:1" fill="#62738b" d="M 395.5,490.5 C 394.778,490.082 394.278,489.416 394,488.5C 393.5,495.158 393.334,501.825 393.5,508.5C 393.167,508.5 392.833,508.5 392.5,508.5C 392.5,501.5 392.5,494.5 392.5,487.5C 393.5,487.5 394.5,487.5 395.5,487.5C 395.5,488.5 395.5,489.5 395.5,490.5 Z"/></g>
<g><path style="opacity:1" fill="#566783" d="M 414.5,496.5 C 410.283,496.785 408.117,494.785 408,490.5C 407.506,492.134 407.34,493.801 407.5,495.5C 405.155,489.65 407.322,486.984 414,487.5C 416.547,487.762 419.047,488.262 421.5,489C 422.38,490.356 422.714,491.856 422.5,493.5C 419.439,493.413 416.773,492.413 414.5,490.5C 411.307,490.188 410.14,491.522 411,494.5C 412.302,495.085 413.469,495.751 414.5,496.5 Z"/></g>
<g><path style="opacity:1" fill="#718096" d="M 473.5,487.5 C 474.791,487.263 475.791,487.596 476.5,488.5C 474.558,493.056 473.892,498.056 474.5,503.5C 473.512,498.36 473.179,493.026 473.5,487.5 Z"/></g>
<g><path style="opacity:1" fill="#c2c8d2" d="M 473.5,487.5 C 474.884,486.199 476.384,486.199 478,487.5C 478.333,493.167 478.667,498.833 479,504.5C 480.699,505.406 482.533,505.739 484.5,505.5C 482.712,506.622 480.712,506.789 478.5,506C 477.874,505.25 477.374,504.416 477,503.5C 476.501,498.511 476.334,493.511 476.5,488.5C 475.791,487.596 474.791,487.263 473.5,487.5 Z"/></g>
<g><path style="opacity:1" fill="#334869" d="M 474.5,503.5 C 473.892,498.056 474.558,493.056 476.5,488.5C 476.334,493.511 476.501,498.511 477,503.5C 477.374,504.416 477.874,505.25 478.5,506C 480.712,506.789 482.712,506.622 484.5,505.5C 485.458,505.047 486.292,504.381 487,503.5C 487.499,498.177 487.666,492.844 487.5,487.5C 488.5,487.5 489.5,487.5 490.5,487.5C 490.5,494.5 490.5,501.5 490.5,508.5C 486.232,508.076 481.899,507.909 477.5,508C 475.859,506.871 474.859,505.371 474.5,503.5 Z"/></g>
<g><path style="opacity:1" fill="#6a7a92" d="M 499.5,488.5 C 497.541,494.75 496.874,501.416 497.5,508.5C 496.509,501.687 496.175,494.687 496.5,487.5C 497.791,487.263 498.791,487.596 499.5,488.5 Z"/></g>
<g><path style="opacity:1" fill="#2d4264" d="M 511.5,488.5 C 512.5,488.5 513.5,488.5 514.5,488.5C 514.5,495.167 514.5,501.833 514.5,508.5C 513.5,508.5 512.5,508.5 511.5,508.5C 511.5,501.833 511.5,495.167 511.5,488.5 Z"/></g>
<g><path style="opacity:1" fill="#233b5f" d="M 191.5,503.5 C 191.833,504.167 192.167,504.833 192.5,505.5C 194.631,506.314 196.964,506.814 199.5,507C 198.944,507.383 198.611,507.883 198.5,508.5C 195.162,508.935 192.162,508.268 189.5,506.5C 188.253,500.523 188.253,494.523 189.5,488.5C 190.167,493.651 190.834,498.651 191.5,503.5 Z"/></g>
<g><path style="opacity:1" fill="#21385d" d="M 234.5,487.5 C 235.5,487.5 236.5,487.5 237.5,487.5C 237.5,494.5 237.5,501.5 237.5,508.5C 236.5,508.5 235.5,508.5 234.5,508.5C 234.5,501.5 234.5,494.5 234.5,487.5 Z"/></g>
<g><path style="opacity:1" fill="#909bad" d="M 272.5,488.5 C 274.265,487.539 276.265,487.205 278.5,487.5C 278.5,488.833 278.5,490.167 278.5,491.5C 275.812,491.166 273.479,491.832 271.5,493.5C 272.16,490.351 274.16,488.851 277.5,489C 275.866,488.506 274.199,488.34 272.5,488.5 Z"/></g>
<g><path style="opacity:1" fill="#273e61" d="M 507.5,490.5 C 504.348,489.959 501.848,490.959 500,493.5C 499.501,498.489 499.334,503.489 499.5,508.5C 498.833,508.5 498.167,508.5 497.5,508.5C 496.874,501.416 497.541,494.75 499.5,488.5C 499.56,489.043 499.893,489.376 500.5,489.5C 502.51,487.829 504.843,487.162 507.5,487.5C 507.5,488.5 507.5,489.5 507.5,490.5 Z"/></g>
<g><path style="opacity:1" fill="#304366" d="M 521.5,482.5 C 522.5,482.5 523.5,482.5 524.5,482.5C 524.5,484.167 524.5,485.833 524.5,487.5C 526.167,487.5 527.833,487.5 529.5,487.5C 529.5,488.5 529.5,489.5 529.5,490.5C 527.833,490.5 526.167,490.5 524.5,490.5C 524.5,495.833 524.5,501.167 524.5,506.5C 525.978,506.238 527.311,506.571 528.5,507.5C 526.051,508.91 523.884,508.576 522,506.5C 521.501,501.177 521.334,495.844 521.5,490.5C 520.167,490.5 518.833,490.5 517.5,490.5C 517.5,489.5 517.5,488.5 517.5,487.5C 518.833,487.5 520.167,487.5 521.5,487.5C 521.5,485.833 521.5,484.167 521.5,482.5 Z"/></g>
<g><path style="opacity:1" fill="#374b6c" d="M 269.5,488.5 C 270.5,488.5 271.5,488.5 272.5,488.5C 274.199,488.34 275.866,488.506 277.5,489C 274.16,488.851 272.16,490.351 271.5,493.5C 270.513,498.305 270.179,503.305 270.5,508.5C 269.5,508.5 268.5,508.5 267.5,508.5C 266.874,501.416 267.541,494.75 269.5,488.5 Z"/></g>
<g><path style="opacity:1" fill="#243b5f" d="M 403.5,490.5 C 400.348,489.959 397.848,490.959 396,493.5C 396.118,498.933 395.285,503.933 393.5,508.5C 393.334,501.825 393.5,495.158 394,488.5C 394.278,489.416 394.778,490.082 395.5,490.5C 397.545,488.016 400.212,487.016 403.5,487.5C 403.5,488.5 403.5,489.5 403.5,490.5 Z"/></g>
<g><path style="opacity:1" fill="#314568" d="M 442.5,503.5 C 443.376,503.369 444.043,503.702 444.5,504.5C 443.807,505.518 443.141,506.518 442.5,507.5C 435.968,509.832 430.802,508.165 427,502.5C 424.766,492.07 428.933,487.237 439.5,488C 444.707,489.581 447.041,493.081 446.5,498.5C 440.833,498.5 435.167,498.5 429.5,498.5C 430.334,505.104 434.001,507.271 440.5,505C 441.044,504.283 441.711,503.783 442.5,503.5 Z"/></g>
<g><path style="opacity:1" fill="#f0f1f4" d="M 442.5,493.5 C 440.952,494.794 438.952,495.461 436.5,495.5C 434.048,495.461 432.048,494.794 430.5,493.5C 431.692,491.078 433.692,490.078 436.5,490.5C 439.308,490.078 441.308,491.078 442.5,493.5 Z"/></g>
<g><path style="opacity:1" fill="#25395e" d="M 216.5,487.5 C 221.223,486.553 225.056,487.886 228,491.5C 228.499,497.157 228.666,502.824 228.5,508.5C 227.5,508.5 226.5,508.5 225.5,508.5C 225.666,502.824 225.499,497.157 225,491.5C 221.435,489.947 218.101,490.28 215,492.5C 214.501,497.823 214.334,503.156 214.5,508.5C 213.5,508.5 212.5,508.5 211.5,508.5C 211.5,501.833 211.5,495.167 211.5,488.5C 212.822,488.33 213.989,488.663 215,489.5C 215.717,488.956 216.217,488.289 216.5,487.5 Z"/></g>
<g><path style="opacity:1" fill="#8c98aa" d="M 430.5,493.5 C 432.048,494.794 434.048,495.461 436.5,495.5C 438.952,495.461 440.952,494.794 442.5,493.5C 443.404,494.209 443.737,495.209 443.5,496.5C 438.833,496.5 434.167,496.5 429.5,496.5C 429.263,495.209 429.596,494.209 430.5,493.5 Z"/></g>
<g><path style="opacity:1" fill="#fdc191" d="M 108.5,491.5 C 101.179,494.941 93.5128,497.608 85.5,499.5C 92.6701,495.664 100.337,492.998 108.5,491.5 Z"/></g>
<g><path style="opacity:1" fill="#293d62" d="M 374.5,487.5 C 382.667,486.739 387.001,490.405 387.5,498.5C 382.167,498.5 376.833,498.5 371.5,498.5C 371.32,504.82 374.32,507.32 380.5,506C 388.1,501.455 388.766,502.121 382.5,508C 370.825,508.995 366.325,503.828 369,492.5C 370.107,489.887 371.94,488.22 374.5,487.5 Z"/></g>
<g><path style="opacity:1" fill="#98a3b3" d="M 383.5,493.5 C 384.404,494.209 384.737,495.209 384.5,496.5C 379.968,496.818 375.634,496.485 371.5,495.5C 375.971,496.089 379.971,495.423 383.5,493.5 Z"/></g>
<g><path style="opacity:1" fill="#e5e8ec" d="M 383.5,493.5 C 379.971,495.423 375.971,496.089 371.5,495.5C 372.293,490.224 375.293,488.391 380.5,490C 382.426,490.422 383.426,491.589 383.5,493.5 Z"/></g>
<g><path style="opacity:1" fill="#2d3f64" d="M 302.5,479.5 C 309.527,477.85 314.527,480.183 317.5,486.5C 317.167,487.167 316.833,487.833 316.5,488.5C 312.184,482.431 306.517,480.931 299.5,484C 296.193,489.908 295.693,496.075 298,502.5C 303.968,506.794 309.635,506.461 315,501.5C 315.483,500.552 315.649,499.552 315.5,498.5C 316.5,498.5 317.5,498.5 318.5,498.5C 317.912,503.267 315.245,506.434 310.5,508C 303.849,510.007 298.682,508.173 295,502.5C 290.084,492.081 292.584,484.415 302.5,479.5 Z"/></g>
<g><path style="opacity:1" fill="#abb4c1" d="M 403.5,490.5 C 400.958,491.039 398.792,492.372 397,494.5C 396.501,499.489 396.334,504.489 396.5,509.5C 394.901,509.768 393.568,509.434 392.5,508.5C 392.833,508.5 393.167,508.5 393.5,508.5C 395.285,503.933 396.118,498.933 396,493.5C 397.848,490.959 400.348,489.959 403.5,490.5 Z"/></g>
<g><path style="opacity:1" fill="#9ca6b6" d="M 507.5,490.5 C 504.958,491.039 502.792,492.372 501,494.5C 500.826,499.351 500.326,504.018 499.5,508.5C 499.334,503.489 499.501,498.489 500,493.5C 501.848,490.959 504.348,489.959 507.5,490.5 Z"/></g>
<g><path style="opacity:1" fill="#a7b0bd" d="M 325.5,498.5 C 328.623,502.83 329.623,507.497 328.5,512.5C 327.907,507.728 326.907,503.061 325.5,498.5 Z"/></g>
<g><path style="opacity:1" fill="#26395f" d="M 455.5,487.5 C 458.85,487.335 462.183,487.502 465.5,488C 469.308,494.131 468.308,494.798 462.5,490C 458.74,488.824 455.907,489.99 454,493.5C 453.262,497.261 453.595,500.928 455,504.5C 456.126,505.944 457.626,506.61 459.5,506.5C 462.507,505.153 465.507,503.82 468.5,502.5C 468.67,503.822 468.337,504.989 467.5,506C 455.203,511.049 449.703,506.882 451,493.5C 452.332,491.34 453.832,489.34 455.5,487.5 Z"/></g>
<g><path style="opacity:1" fill="#2a4063" d="M 249.5,490.5 C 246.264,491.794 244.931,494.294 245.5,498C 246.393,507.02 250.56,508.854 258,503.5C 258.81,499.642 258.643,495.976 257.5,492.5C 256.884,491.202 256.884,490.202 257.5,489.5C 264.07,495.471 264.07,501.637 257.5,508C 250.912,509.917 245.912,508.084 242.5,502.5C 241.325,492.509 245.659,488.009 255.5,489C 253.292,489.191 251.292,489.691 249.5,490.5 Z"/></g>
<g><path style="opacity:1" fill="#eff1f3" d="M 249.5,490.5 C 252.513,490.107 255.18,490.774 257.5,492.5C 258.643,495.976 258.81,499.642 258,503.5C 250.56,508.854 246.393,507.02 245.5,498C 244.931,494.294 246.264,491.794 249.5,490.5 Z"/></g>
<g><path style="opacity:1" fill="#33486a" d="M 337.5,497.5 C 334.987,502.547 332.987,507.88 331.5,513.5C 329.787,515.85 327.453,516.85 324.5,516.5C 324.5,515.5 324.5,514.5 324.5,513.5C 326.099,513.768 327.432,513.434 328.5,512.5C 329.623,507.497 328.623,502.83 325.5,498.5C 324.428,494.699 323.095,491.032 321.5,487.5C 322.822,487.33 323.989,487.663 325,488.5C 326.667,493.5 328.333,498.5 330,503.5C 330.414,503.957 330.914,504.291 331.5,504.5C 334.181,499.468 336.014,494.135 337,488.5C 338.011,487.663 339.178,487.33 340.5,487.5C 339.899,490.968 338.899,494.301 337.5,497.5 Z"/></g>
<g><path style="opacity:1" fill="#2b4064" d="M 348.5,492.5 C 346.836,497.355 347.503,501.855 350.5,506C 357.62,507.608 360.954,504.774 360.5,497.5C 360.988,494.389 359.988,492.056 357.5,490.5C 354.742,489.033 355.075,488.367 358.5,488.5C 364.713,492.673 366.213,498.339 363,505.5C 358.315,508.943 353.482,509.276 348.5,506.5C 347.434,505.308 346.601,505.641 346,507.5C 345.333,498.5 345.333,489.5 346,480.5C 345.984,484.795 346.817,488.795 348.5,492.5 Z"/></g>
<g><path style="opacity:1" fill="#eff1f3" d="M 357.5,490.5 C 359.988,492.056 360.988,494.389 360.5,497.5C 360.954,504.774 357.62,507.608 350.5,506C 347.503,501.855 346.836,497.355 348.5,492.5C 351.162,490.732 354.162,490.065 357.5,490.5 Z"/></g>
<g><path style="opacity:1" fill="#717f97" d="M 201.5,503.5 C 202.038,505.117 202.371,506.784 202.5,508.5C 201.167,508.5 199.833,508.5 198.5,508.5C 198.611,507.883 198.944,507.383 199.5,507C 196.964,506.814 194.631,506.314 192.5,505.5C 195.838,505.935 198.838,505.268 201.5,503.5 Z"/></g>
<g><path style="opacity:1" fill="#8994a8" d="M 442.5,503.5 C 443.209,502.596 444.209,502.263 445.5,502.5C 446.084,505.285 445.084,506.952 442.5,507.5C 443.141,506.518 443.807,505.518 444.5,504.5C 444.043,503.702 443.376,503.369 442.5,503.5 Z"/></g>
<g><path style="opacity:1" fill="#374a6c" d="M 179.5,480.5 C 181.463,487.424 182.13,494.757 181.5,502.5C 180.758,504.426 179.758,506.259 178.5,508C 170.769,510.657 166.103,508.157 164.5,500.5C 165.833,500.5 167.167,500.5 168.5,500.5C 168.286,502.144 168.62,503.644 169.5,505C 172.669,505.978 175.503,505.478 178,503.5C 178.171,495.656 178.671,487.989 179.5,480.5 Z"/></g>
<g><path style="opacity:1" fill="#284063" d="M 414.5,496.5 C 418.622,497.04 421.289,499.206 422.5,503C 421.197,507.329 418.197,509.162 413.5,508.5C 410.175,508.725 407.842,507.392 406.5,504.5C 407,504.167 407.5,503.833 408,503.5C 410.662,506.195 413.828,507.028 417.5,506C 419.363,504.582 419.863,502.749 419,500.5C 416.34,499.166 413.506,498.332 410.5,498C 409.058,497.623 408.058,496.79 407.5,495.5C 407.34,493.801 407.506,492.134 408,490.5C 408.117,494.785 410.283,496.785 414.5,496.5 Z"/></g>
<g><path style="opacity:1" fill="#253a5f" d="M 531.5,488.5 C 533.311,488.572 534.644,489.405 535.5,491C 536.749,495.662 538.415,500.162 540.5,504.5C 542.764,499.541 544.931,494.541 547,489.5C 547.893,488.289 548.726,488.289 549.5,489.5C 546.543,498.177 543.209,506.677 539.5,515C 537.421,515.808 535.421,515.641 533.5,514.5C 536.411,514.124 538.411,512.624 539.5,510C 536.149,503.101 533.482,495.934 531.5,488.5 Z"/></g>
<g><path style="opacity:1" fill="#adb6c2" d="M 337.5,497.5 C 337.601,503.766 335.601,509.099 331.5,513.5C 332.987,507.88 334.987,502.547 337.5,497.5 Z"/></g>
<g><path style="opacity:1" fill="#3b4e6e" d="M 254.5,523.5 C 255.5,523.5 256.5,523.5 257.5,523.5C 257.5,533.167 257.5,542.833 257.5,552.5C 256.5,552.5 255.5,552.5 254.5,552.5C 254.5,542.833 254.5,533.167 254.5,523.5 Z"/></g>
<g><path style="opacity:1" fill="#24385d" d="M 483.5,541.5 C 480.167,541.5 476.833,541.5 473.5,541.5C 473.5,545.167 473.5,548.833 473.5,552.5C 472.5,552.5 471.5,552.5 470.5,552.5C 470.5,542.833 470.5,533.167 470.5,523.5C 475.511,523.334 480.511,523.501 485.5,524C 492.197,527.797 493.197,532.797 488.5,539C 486.922,540.094 485.255,540.928 483.5,541.5 Z"/></g>
<g><path style="opacity:1" fill="#f8f8fa" d="M 484.5,526.5 C 487.387,528.718 488.221,531.718 487,535.5C 485.871,537.141 484.371,538.141 482.5,538.5C 479.833,538.5 477.167,538.5 474.5,538.5C 474.5,534.5 474.5,530.5 474.5,526.5C 477.833,526.5 481.167,526.5 484.5,526.5 Z"/></g>
<g><path style="opacity:1" fill="#334868" d="M 531.5,523.5 C 531.334,532.839 531.5,542.173 532,551.5C 532.174,546.649 532.674,541.982 533.5,537.5C 533.5,542.5 533.5,547.5 533.5,552.5C 532.5,552.5 531.5,552.5 530.5,552.5C 530.173,542.652 530.506,532.986 531.5,523.5 Z"/></g>
<g><path style="opacity:1" fill="#8f9bad" d="M 484.5,526.5 C 481.167,526.5 477.833,526.5 474.5,526.5C 474.5,530.5 474.5,534.5 474.5,538.5C 477.167,538.5 479.833,538.5 482.5,538.5C 479.713,539.477 476.713,539.81 473.5,539.5C 473.5,534.833 473.5,530.167 473.5,525.5C 477.371,525.185 481.038,525.518 484.5,526.5 Z"/></g>
<g><path style="opacity:1" fill="#fccd84" d="M 20.5,527.5 C 19.5379,534.412 19.2045,541.412 19.5,548.5C 18.8348,545.183 18.5014,541.683 18.5,538C 18.5123,534.098 19.179,530.598 20.5,527.5 Z"/></g>
<g><path style="opacity:1" fill="#1e345b" d="M 413.5,537.5 C 413.5,538.833 413.5,540.167 413.5,541.5C 408.156,541.666 402.823,541.499 397.5,541C 402.155,540.501 406.821,540.334 411.5,540.5C 411.768,538.901 411.434,537.568 410.5,536.5C 406.113,532.231 402.113,532.565 398.5,537.5C 397.778,537.918 397.278,538.584 397,539.5C 396.833,539 396.667,538.5 396.5,538C 397.414,536.594 398.08,535.094 398.5,533.5C 398.611,532.883 398.944,532.383 399.5,532C 402.5,531.333 405.5,531.333 408.5,532C 411.079,533.076 412.746,534.909 413.5,537.5 Z"/></g>
<g><path style="opacity:1" fill="#193057" d="M 531.5,523.5 C 533.26,526.701 534.094,530.367 534,534.5C 538.426,530.624 542.926,530.624 547.5,534.5C 547.829,540.206 547.495,545.872 546.5,551.5C 545.833,546.015 545.167,540.681 544.5,535.5C 540.122,532.396 536.455,533.063 533.5,537.5C 532.674,541.982 532.174,546.649 532,551.5C 531.5,542.173 531.334,532.839 531.5,523.5 Z"/></g>
<g><path style="opacity:1" fill="#293d61" d="M 382.5,531.5 C 384.124,531.36 385.29,532.027 386,533.5C 388.135,531.722 390.635,531.055 393.5,531.5C 393.5,532.5 393.5,533.5 393.5,534.5C 390.635,534.055 388.135,534.722 386,536.5C 385.501,541.823 385.334,547.156 385.5,552.5C 384.5,552.5 383.5,552.5 382.5,552.5C 382.5,545.5 382.5,538.5 382.5,531.5 Z"/></g>
<g><path style="opacity:1" fill="#e8eaee" d="M 410.5,536.5 C 410.5,537.5 410.5,538.5 410.5,539.5C 406.029,540.089 402.029,539.423 398.5,537.5C 402.113,532.565 406.113,532.231 410.5,536.5 Z"/></g>
<g><path style="opacity:1" fill="#6c7b93" d="M 302.5,533.5 C 303.833,533.5 305.167,533.5 306.5,533.5C 306.5,538.833 306.5,544.167 306.5,549.5C 305.513,544.695 305.179,539.695 305.5,534.5C 304.209,534.737 303.209,534.404 302.5,533.5 Z"/></g>
<g><path style="opacity:1" fill="#919dae" d="M 313.5,533.5 C 312.432,534.434 311.099,534.768 309.5,534.5C 309.5,539.167 309.5,543.833 309.5,548.5C 308.513,543.695 308.179,538.695 308.5,533.5C 310.167,533.5 311.833,533.5 313.5,533.5 Z"/></g>
<g><path style="opacity:1" fill="#1f365b" d="M 313.5,533.5 C 311.833,533.5 310.167,533.5 308.5,533.5C 308.179,538.695 308.513,543.695 309.5,548.5C 310.919,549.451 312.585,549.784 314.5,549.5C 314.5,550.5 314.5,551.5 314.5,552.5C 311.058,553.172 308.391,552.172 306.5,549.5C 306.5,544.167 306.5,538.833 306.5,533.5C 305.167,533.5 303.833,533.5 302.5,533.5C 303.183,531.824 304.517,531.157 306.5,531.5C 307.167,524.833 307.833,524.833 308.5,531.5C 310.781,531.077 312.448,531.744 313.5,533.5 Z"/></g>
<g><path style="opacity:1" fill="#adb5c2" d="M 337.5,527.5 C 333.816,532.6 332.816,538.267 334.5,544.5C 333.883,544.389 333.383,544.056 333,543.5C 332.333,539.5 332.333,535.5 333,531.5C 333.748,529.249 335.248,527.916 337.5,527.5 Z"/></g>
<g><path style="opacity:1" fill="#20365a" d="M 518.5,526.5 C 519.5,526.5 520.5,526.5 521.5,526.5C 521.5,528.167 521.5,529.833 521.5,531.5C 528.167,532.167 528.167,532.833 521.5,533.5C 521.5,538.833 521.5,544.167 521.5,549.5C 523.167,549.5 524.833,549.5 526.5,549.5C 526.5,550.5 526.5,551.5 526.5,552.5C 523.348,553.041 520.848,552.041 519,549.5C 518.501,544.177 518.334,538.844 518.5,533.5C 514.5,532.833 514.5,532.167 518.5,531.5C 518.5,529.833 518.5,528.167 518.5,526.5 Z"/></g>
<g><path style="opacity:1" fill="#75839a" d="M 511.5,535.5 C 512.489,540.975 512.822,546.642 512.5,552.5C 511.209,552.737 510.209,552.404 509.5,551.5C 511.446,546.604 512.113,541.271 511.5,535.5 Z"/></g>
<g><path style="opacity:1" fill="#78869b" d="M 209.5,531.5 C 209.17,538.2 209.503,544.866 210.5,551.5C 211.167,546.349 211.834,541.349 212.5,536.5C 212.5,541.833 212.5,547.167 212.5,552.5C 211.167,552.5 209.833,552.5 208.5,552.5C 208.175,545.313 208.509,538.313 209.5,531.5 Z"/></g>
<g><path style="opacity:1" fill="#1c3157" d="M 209.5,531.5 C 210.756,531.904 211.923,532.571 213,533.5C 217.479,530.666 221.645,530.999 225.5,534.5C 226.457,540.439 226.79,546.439 226.5,552.5C 225.5,552.5 224.5,552.5 223.5,552.5C 223.666,546.824 223.499,541.157 223,535.5C 219.181,532.721 215.681,533.054 212.5,536.5C 211.834,541.349 211.167,546.349 210.5,551.5C 209.503,544.866 209.17,538.2 209.5,531.5 Z"/></g>
<g><path style="opacity:1" fill="#2a3e63" d="M 245.5,550.5 C 245.249,547.71 245.249,544.71 245.5,541.5C 242.171,541.215 239.171,541.882 236.5,543.5C 235.307,543.97 234.64,544.97 234.5,546.5C 234.52,547.726 234.853,548.726 235.5,549.5C 237.5,550.167 239.5,550.833 241.5,551.5C 233.993,554.146 230.826,551.479 232,543.5C 232.374,542.584 232.874,541.75 233.5,541C 237.491,540.358 241.491,539.858 245.5,539.5C 245.133,533.844 242.133,532.011 236.5,534C 235.491,536.172 233.824,537.338 231.5,537.5C 231.561,534.27 233.228,532.437 236.5,532C 240.624,530.944 244.29,531.778 247.5,534.5C 248.833,540.167 248.833,545.833 247.5,551.5C 246.817,551.137 246.15,550.804 245.5,550.5 Z"/></g>
<g><path style="opacity:1" fill="#22355b" d="M 443.5,531.5 C 445.124,531.36 446.29,532.027 447,533.5C 449.135,531.722 451.635,531.055 454.5,531.5C 454.5,532.5 454.5,533.5 454.5,534.5C 451.348,533.959 448.848,534.959 447,537.5C 446.501,542.489 446.334,547.489 446.5,552.5C 445.5,552.5 444.5,552.5 443.5,552.5C 443.5,545.5 443.5,538.5 443.5,531.5 Z"/></g>
<g><path style="opacity:1" fill="#748398" d="M 547.5,534.5 C 548.49,540.31 548.823,546.31 548.5,552.5C 547.167,552.5 545.833,552.5 544.5,552.5C 544.5,546.833 544.5,541.167 544.5,535.5C 545.167,540.681 545.833,546.015 546.5,551.5C 547.495,545.872 547.829,540.206 547.5,534.5 Z"/></g>
<g><path style="opacity:1" fill="#172b54" d="M 373.5,549.5 C 373.5,548.5 373.5,547.5 373.5,546.5C 373.5,545.167 373.5,543.833 373.5,542.5C 373.5,541.5 373.5,540.5 373.5,539.5C 373.133,533.844 370.133,532.011 364.5,534C 363.287,536.326 361.954,536.659 360.5,535C 361.609,532.072 363.776,530.905 367,531.5C 370.735,531.201 373.735,532.534 376,535.5C 376.499,541.157 376.666,546.824 376.5,552.5C 375.5,552.5 374.5,552.5 373.5,552.5C 373.5,551.5 373.5,550.5 373.5,549.5 Z"/></g>
<g><path style="opacity:1" fill="#495b79" d="M 398.5,533.5 C 398.08,535.094 397.414,536.594 396.5,538C 396.667,538.5 396.833,539 397,539.5C 397.278,538.584 397.778,537.918 398.5,537.5C 402.029,539.423 406.029,540.089 410.5,539.5C 410.5,538.5 410.5,537.5 410.5,536.5C 411.434,537.568 411.768,538.901 411.5,540.5C 406.821,540.334 402.155,540.501 397.5,541C 402.823,541.499 408.156,541.666 413.5,541.5C 413.5,540.167 413.5,538.833 413.5,537.5C 414.451,538.919 414.784,540.585 414.5,542.5C 409.167,542.5 403.833,542.5 398.5,542.5C 398.634,549.154 401.967,551.321 408.5,549C 410.004,547.212 411.671,546.712 413.5,547.5C 410.331,552.118 405.998,553.618 400.5,552C 395.407,547.983 393.574,542.816 395,536.5C 396.039,535.29 397.206,534.29 398.5,533.5 Z"/></g>
<g><path style="opacity:1" fill="#34486a" d="M 423.5,531.5 C 432.806,529.629 437.806,533.296 438.5,542.5C 433.167,542.5 427.833,542.5 422.5,542.5C 422.634,549.154 425.967,551.321 432.5,549C 433.772,546.739 435.438,546.239 437.5,547.5C 433.801,552.502 428.968,553.836 423,551.5C 416.944,544.563 417.111,537.896 423.5,531.5 Z"/></g>
<g><path style="opacity:1" fill="#748298" d="M 422.5,536.5 C 422.5,537.5 422.5,538.5 422.5,539.5C 426.5,539.5 430.5,539.5 434.5,539.5C 434.5,538.5 434.5,537.5 434.5,536.5C 435.434,537.568 435.768,538.901 435.5,540.5C 430.833,540.5 426.167,540.5 421.5,540.5C 421.232,538.901 421.566,537.568 422.5,536.5 Z"/></g>
<g><path style="opacity:1" fill="#e9ebee" d="M 434.5,536.5 C 434.5,537.5 434.5,538.5 434.5,539.5C 430.5,539.5 426.5,539.5 422.5,539.5C 422.5,538.5 422.5,537.5 422.5,536.5C 426.5,532.5 430.5,532.5 434.5,536.5 Z"/></g>
<g><path style="opacity:1" fill="#77859b" d="M 508.5,535.5 C 509.801,536.884 509.801,538.384 508.5,540C 505.086,540.297 501.753,540.964 498.5,542C 495.022,544.706 494.689,547.706 497.5,551C 500.167,551.667 502.833,551.667 505.5,551C 503.292,550.809 501.292,550.309 499.5,549.5C 502.059,549.802 504.393,549.468 506.5,548.5C 507.167,548.167 507.833,547.833 508.5,547.5C 509.11,548.391 509.443,549.391 509.5,550.5C 505.342,552.229 501.009,552.729 496.5,552C 493.634,548.057 493.968,544.39 497.5,541C 501.07,539.69 504.737,538.857 508.5,538.5C 508.5,537.5 508.5,536.5 508.5,535.5 Z"/></g>
<g><path style="opacity:1" fill="#1a3259" d="M 511.5,535.5 C 512.113,541.271 511.446,546.604 509.5,551.5C 509.5,551.167 509.5,550.833 509.5,550.5C 509.443,549.391 509.11,548.391 508.5,547.5C 508.5,547.167 508.5,546.833 508.5,546.5C 509.451,545.081 509.784,543.415 509.5,541.5C 506.059,541.301 502.726,541.801 499.5,543C 496.866,545.293 496.866,547.46 499.5,549.5C 501.292,550.309 503.292,550.809 505.5,551C 502.833,551.667 500.167,551.667 497.5,551C 494.689,547.706 495.022,544.706 498.5,542C 501.753,540.964 505.086,540.297 508.5,540C 509.801,538.384 509.801,536.884 508.5,535.5C 505.863,533.573 502.863,533.073 499.5,534C 498.663,535.011 498.33,536.178 498.5,537.5C 497.5,537.5 496.5,537.5 495.5,537.5C 495.241,534.52 496.574,532.687 499.5,532C 504.401,530.593 508.401,531.76 511.5,535.5 Z"/></g>
<g><path style="opacity:1" fill="#e7e9ed" d="M 373.5,542.5 C 373.5,543.833 373.5,545.167 373.5,546.5C 371.142,550.077 367.809,551.244 363.5,550C 362.577,547.959 362.244,545.792 362.5,543.5C 366.179,543.276 369.846,542.942 373.5,542.5 Z"/></g>
<g><path style="opacity:1" fill="#f7f8f9" d="M 508.5,546.5 C 508.5,546.833 508.5,547.167 508.5,547.5C 507.833,547.833 507.167,548.167 506.5,548.5C 504.167,548.5 501.833,548.5 499.5,548.5C 499.286,546.856 499.62,545.356 500.5,544C 503.063,542.921 505.729,542.421 508.5,542.5C 508.5,543.833 508.5,545.167 508.5,546.5 Z"/></g>
<g><path style="opacity:1" fill="#f0f2f4" d="M 235.5,549.5 C 234.853,548.726 234.52,547.726 234.5,546.5C 234.64,544.97 235.307,543.97 236.5,543.5C 239.167,543.167 241.833,542.833 244.5,542.5C 244.826,548.826 241.826,551.159 235.5,549.5 Z"/></g>
<g><path style="opacity:1" fill="#304668" d="M 261.5,531.5 C 262.675,531.281 263.675,531.614 264.5,532.5C 266.339,537.511 268.672,542.178 271.5,546.5C 273.79,542.077 275.79,537.411 277.5,532.5C 278.359,531.226 279.026,531.392 279.5,533C 276.89,540.404 274.39,547.904 272,555.5C 270.735,557.397 269.069,558.73 267,559.5C 266.167,559.167 265.333,558.833 264.5,558.5C 267.418,557.751 269.085,555.917 269.5,553C 266.545,545.973 263.879,538.806 261.5,531.5 Z"/></g>
<g><path style="opacity:1" fill="#a7b0be" d="M 483.5,541.5 C 480.713,542.477 477.713,542.81 474.5,542.5C 474.813,546.042 474.479,549.375 473.5,552.5C 473.5,548.833 473.5,545.167 473.5,541.5C 476.833,541.5 480.167,541.5 483.5,541.5 Z"/></g>
<g><path style="opacity:1" fill="#2a4063" d="M 204.5,548.5 C 204.728,550.355 204.061,551.188 202.5,551C 201.771,548.942 200.771,547.109 199.5,545.5C 194.684,544.35 189.684,544.184 184.5,545C 183.137,546.945 182.303,549.112 182,551.5C 180.989,552.337 179.822,552.67 178.5,552.5C 178.838,550.146 179.338,547.813 180,545.5C 183.577,539.019 186.577,532.353 189,525.5C 190.493,523.44 192.326,523.107 194.5,524.5C 197.542,532.728 200.875,540.728 204.5,548.5 Z"/></g>
<g><path style="opacity:1" fill="#808da2" d="M 196.5,537.5 C 197.931,538.78 198.598,540.447 198.5,542.5C 194.167,542.5 189.833,542.5 185.5,542.5C 185.263,541.209 185.596,540.209 186.5,539.5C 189.337,541.402 192.671,542.069 196.5,541.5C 196.5,540.167 196.5,538.833 196.5,537.5 Z"/></g>
<g><path style="opacity:1" fill="#e9ecef" d="M 196.5,537.5 C 196.5,538.833 196.5,540.167 196.5,541.5C 192.671,542.069 189.337,541.402 186.5,539.5C 187.811,535.545 189.644,531.879 192,528.5C 193.947,531.33 195.447,534.33 196.5,537.5 Z"/></g>
<g><path style="opacity:1" fill="#34486b" d="M 373.5,539.5 C 373.5,540.5 373.5,541.5 373.5,542.5C 369.846,542.942 366.179,543.276 362.5,543.5C 362.244,545.792 362.577,547.959 363.5,550C 367.809,551.244 371.142,550.077 373.5,546.5C 373.5,547.5 373.5,548.5 373.5,549.5C 369.938,552.447 365.938,553.114 361.5,551.5C 358.878,548.035 358.878,544.535 361.5,541C 365.418,539.844 369.418,539.344 373.5,539.5 Z"/></g>
<g><path style="opacity:1" fill="#2a3e63" d="M 337.5,527.5 C 335.248,527.916 333.748,529.249 333,531.5C 332.333,535.5 332.333,539.5 333,543.5C 333.383,544.056 333.883,544.389 334.5,544.5C 335.664,548.807 338.498,550.474 343,549.5C 347.915,549.654 350.748,547.321 351.5,542.5C 352.5,542.5 353.5,542.5 354.5,542.5C 352.939,549.552 348.439,552.885 341,552.5C 335.953,551.794 332.287,549.127 330,544.5C 327.635,535.976 329.802,529.143 336.5,524C 343.082,522.379 348.748,523.879 353.5,528.5C 354.429,529.689 354.762,531.022 354.5,532.5C 353.5,532.5 352.5,532.5 351.5,532.5C 351.548,529.708 350.215,527.875 347.5,527C 343.973,526.192 340.64,526.359 337.5,527.5 Z"/></g>
<g><path style="opacity:1" fill="#9da7b6" d="M 199.5,545.5 C 200.771,547.109 201.771,548.942 202.5,551C 204.061,551.188 204.728,550.355 204.5,548.5C 205.434,549.568 205.768,550.901 205.5,552.5C 200.984,552.519 198.984,550.186 199.5,545.5 Z"/></g>
<g><path style="opacity:1" fill="#b4bbc7" d="M 508.5,546.5 C 508.5,545.167 508.5,543.833 508.5,542.5C 505.729,542.421 503.063,542.921 500.5,544C 499.62,545.356 499.286,546.856 499.5,548.5C 501.833,548.5 504.167,548.5 506.5,548.5C 504.393,549.468 502.059,549.802 499.5,549.5C 496.866,547.46 496.866,545.293 499.5,543C 502.726,541.801 506.059,541.301 509.5,541.5C 509.784,543.415 509.451,545.081 508.5,546.5 Z"/></g>
<g><path style="opacity:1" fill="#6a7992" d="M 245.5,550.5 C 244.167,550.833 242.833,551.167 241.5,551.5C 239.5,550.833 237.5,550.167 235.5,549.5C 241.826,551.159 244.826,548.826 244.5,542.5C 241.833,542.833 239.167,543.167 236.5,543.5C 239.171,541.882 242.171,541.215 245.5,541.5C 245.249,544.71 245.249,547.71 245.5,550.5 Z"/></g>
<g><path style="opacity:1" fill="#304367" d="M 285.5,531.5 C 289.767,531.203 293.934,531.536 298,532.5C 299.241,533.877 299.408,535.21 298.5,536.5C 295.234,533.955 291.568,533.122 287.5,534C 286.167,535.667 286.167,537.333 287.5,539C 292.039,540.066 296.206,541.899 300,544.5C 299.98,550.176 296.98,552.843 291,552.5C 288.019,552.919 285.686,551.919 284,549.5C 283.251,548.365 283.417,547.365 284.5,546.5C 287.622,549.25 291.289,550.083 295.5,549C 296.991,546.978 296.658,545.312 294.5,544C 291.635,543.163 288.802,542.33 286,541.5C 282.971,538.23 282.804,534.897 285.5,531.5 Z"/></g>
<g><path style="opacity:1" fill="#fffcf8" d="M -0.5,559.5 C 4.04916,580.634 16.7158,593.967 37.5,599.5C 24.8333,599.5 12.1667,599.5 -0.5,599.5C -0.5,586.167 -0.5,572.833 -0.5,559.5 Z"/></g>
<g><path style="opacity:1" fill="#fffbf6" d="M 599.5,559.5 C 599.5,572.833 599.5,586.167 599.5,599.5C 586.167,599.5 572.833,599.5 559.5,599.5C 581.202,594.464 594.536,581.131 599.5,559.5 Z"/></g>
<g><path style="opacity:1" fill="#fde6c2" d="M 45.5,580.5 C 214.812,581.495 384.145,581.828 553.5,581.5C 385.334,582.666 217,582.833 48.5,582C 47.2625,581.768 46.2625,581.268 45.5,580.5 Z"/></g>
</svg>
