<?xml version="1.0" standalone="no"?>
<!DOCTYPE svg PUBLIC "-//W3C//DTD SVG 20010904//EN"
 "http://www.w3.org/TR/2001/REC-SVG-20010904/DTD/svg10.dtd">
<svg version="1.0" xmlns="http://www.w3.org/2000/svg"
 width="450.000000pt" height="450.000000pt" viewBox="0 0 450.000000 450.000000"
 preserveAspectRatio="xMidYMid meet">

<g transform="translate(0.000000,450.000000) scale(0.100000,-0.100000)"
fill="#000000" stroke="none">
<path d="M2130 4004 c-344 -42 -569 -133 -755 -306 -68 -63 -72 -65 -135 -72
-36 -4 -75 -14 -88 -22 -20 -13 -22 -21 -18 -82 3 -59 0 -76 -30 -145 -19 -43
-34 -83 -34 -90 0 -7 -9 -29 -19 -48 -23 -43 -41 -186 -41 -321 0 -98 3 -108
35 -126 16 -8 22 -27 30 -96 6 -48 8 -91 5 -96 -3 -5 -20 -10 -38 -12 -29 -2
-30 -3 -15 -20 9 -10 21 -18 27 -18 12 -1 48 -50 70 -96 15 -30 118 -514 110
-514 -3 0 -9 11 -14 25 -5 14 -20 29 -34 35 -21 8 -28 26 -61 167 -35 148 -73
268 -82 260 -2 -2 24 -132 57 -287 68 -317 79 -392 61 -414 -24 -29 49 -48 92
-24 12 7 31 11 43 10 33 -4 73 16 86 43 15 33 22 32 36 -8 15 -41 15 -43 0
-45 -118 -13 -329 -91 -435 -160 -69 -45 -73 -77 -12 -111 22 -13 38 -25 35
-28 -3 -3 -1 -14 5 -24 10 -19 2 -25 -26 -20 -5 1 7 -14 28 -35 20 -20 37 -39
37 -43 0 -16 -59 -9 -119 15 -120 49 -119 49 -126 1 -9 -59 12 -482 26 -539
l12 -47 43 25 43 25 -5 -23 c-3 -13 -6 -27 -7 -33 -2 -5 -7 -17 -12 -25 -8
-13 -7 -13 8 -1 9 7 15 17 12 21 -3 4 3 14 12 21 10 8 14 9 10 2 -4 -6 -3 -14
3 -18 6 -4 8 -11 4 -16 -3 -5 -9 -7 -14 -4 -4 3 -10 -2 -14 -10 -3 -8 -1 -17
4 -20 5 -3 9 -17 8 -30 -1 -13 -6 -21 -10 -19 -4 3 -5 11 -2 18 3 7 -3 19 -13
26 -15 12 -16 12 -6 0 19 -21 16 -34 -4 -19 -15 11 -16 11 -5 -1 17 -20 15
-33 -9 -64 -18 -23 -23 -25 -37 -14 -14 12 -14 10 -2 -12 12 -23 12 -24 -3
-11 -15 11 -17 11 -17 -1 0 -18 -45 -61 -66 -64 -9 -1 -17 -4 -18 -6 -1 -2
-20 -25 -41 -53 -22 -27 -39 -53 -38 -57 2 -5 -2 -7 -9 -5 -6 1 -17 -9 -25
-23 -7 -14 -13 -21 -13 -16 0 5 -13 -8 -30 -29 -16 -20 -27 -41 -24 -46 3 -5
2 -8 -3 -7 -4 1 -44 -34 -88 -78 -44 -43 -75 -72 -70 -64 6 9 2 7 -7 -3 -13
-13 -18 -15 -18 -6 0 11 -2 11 -9 -1 -6 -8 -7 -18 -4 -24 3 -5 1 -6 -6 -2 -6
4 -9 12 -6 17 3 5 -1 6 -9 3 -8 -3 -12 -12 -9 -20 3 -8 0 -14 -6 -14 -6 0 -8
-7 -5 -15 5 -13 231 -15 1946 -15 1724 0 1939 2 1928 15 -7 8 -9 15 -5 15 4 0
2 7 -5 15 -7 8 -9 15 -5 15 4 0 2 6 -4 13 -6 8 -8 17 -4 20 3 4 1 7 -6 7 -7 0
-11 6 -9 12 6 18 -52 77 -80 83 -12 2 -27 7 -32 10 -6 3 -10 0 -10 -7 0 -9 -3
-9 -10 2 -8 13 -10 13 -10 0 0 -10 -3 -11 -12 -2 -8 8 -17 8 -31 1 -11 -6 -17
-7 -14 -2 3 5 -7 7 -23 5 -19 -3 -27 -8 -23 -16 4 -7 1 -7 -8 1 -12 10 -18 10
-29 0 -7 -6 -10 -7 -7 -1 3 6 -4 10 -18 10 -18 0 -22 -5 -19 -21 3 -18 1 -17
-16 5 -11 14 -18 18 -14 9 6 -20 -11 -34 -22 -18 -5 8 -3 9 6 4 9 -5 11 -4 6
4 -6 8 -12 9 -20 2 -7 -6 -16 -8 -20 -4 -4 4 -4 0 -1 -9 4 -9 1 -19 -6 -24 -7
-4 -10 -3 -6 2 3 6 2 16 -4 24 -7 13 -9 12 -9 -2 0 -20 -20 -24 -36 -8 -7 7
-11 6 -11 -4 0 -8 3 -13 7 -11 4 2 7 -2 7 -9 0 -11 -4 -12 -18 -3 -10 6 -15
16 -11 22 3 5 -1 5 -9 -2 -8 -6 -29 -10 -47 -8 -33 3 -60 -22 -44 -40 4 -5 1
-5 -6 -1 -7 5 -18 18 -23 30 -8 18 -9 17 -5 -9 4 -27 3 -28 -10 -11 -7 10 -11
22 -9 26 3 4 -3 14 -12 21 -15 12 -16 12 -8 -1 5 -8 11 -24 12 -35 2 -17 0
-16 -13 5 -8 14 -13 17 -10 8 3 -10 0 -20 -6 -24 -6 -4 -8 -3 -4 4 3 6 -8 24
-26 41 -27 25 -30 32 -18 45 11 14 10 16 -4 10 -9 -3 -16 -11 -16 -18 0 -6 -5
-4 -10 4 -7 11 -4 17 8 22 13 6 11 7 -8 6 -31 -3 -53 10 -43 25 4 7 9 4 14 -9
6 -16 7 -15 6 7 0 14 -7 26 -14 26 -6 0 -10 -4 -7 -9 3 -4 2 -8 -3 -9 -4 0
-16 -2 -25 -4 -10 -2 -22 4 -28 13 -5 10 -10 12 -10 5 0 -7 -5 -13 -11 -13 -5
0 -8 3 -6 8 3 4 -1 13 -9 20 -12 10 -14 10 -14 -2 0 -20 -17 -29 -26 -15 -5 8
-3 9 6 4 8 -5 11 -3 8 5 -5 15 -35 22 -43 11 -2 -4 -18 -7 -35 -6 -16 1 -30
-2 -30 -7 0 -5 -9 -4 -20 2 -16 9 -22 8 -27 -5 -5 -13 -7 -14 -14 -3 -5 7 -9
8 -9 2 0 -6 -10 -10 -22 -9 -13 1 -29 -2 -35 -8 -7 -5 -13 -6 -13 -2 0 4 -8 1
-17 -6 -11 -9 -14 -10 -9 -2 5 9 2 11 -8 7 -9 -3 -13 -11 -9 -17 4 -6 1 -7 -8
-1 -27 17 -54 10 -60 -16 -4 -14 -7 60 -8 163 0 104 3 186 8 183 4 -3 28 4 51
15 24 12 132 52 239 91 108 38 224 80 259 93 85 34 117 32 187 -10 32 -20 62
-32 66 -28 14 15 29 113 24 155 -9 75 -12 218 -4 218 4 0 4 15 0 33 -4 17 -6
47 -6 65 1 17 -3 32 -7 32 -5 0 -6 5 -3 11 4 5 -1 19 -11 30 -15 16 -25 19
-63 13 -25 -4 -55 -11 -66 -17 -11 -6 -22 -12 -25 -12 -14 -2 -84 -44 -160
-95 -178 -120 -345 -217 -388 -225 -9 -2 -18 -4 -19 -5 -2 -2 -6 -3 -10 -5 -8
-2 -50 -18 -83 -32 -20 -8 -47 -16 -105 -30 -13 -3 -28 3 -40 16 -18 21 -18
22 29 65 47 44 112 84 216 132 97 45 185 88 190 94 9 10 135 70 146 70 6 0 21
12 35 26 28 31 110 93 192 146 75 50 76 72 6 128 -42 33 -54 38 -66 28 -12
-10 -13 -7 -7 16 6 24 4 27 -12 24 -11 -2 -39 4 -64 15 -25 10 -102 34 -172
51 l-127 33 -38 -33 c-21 -19 -44 -34 -50 -34 -7 0 -13 -5 -13 -11 0 -5 -4 -8
-10 -4 -5 3 -18 -3 -30 -15 -11 -11 -20 -17 -20 -14 0 4 -6 1 -13 -5 -8 -6
-17 -8 -20 -4 -4 3 -7 1 -7 -6 0 -7 -4 -10 -9 -6 -6 3 -14 -3 -20 -12 -8 -14
-10 -15 -11 -3 0 9 -3 11 -8 4 -4 -5 -23 -20 -44 -32 -20 -12 -38 -29 -41 -36
-9 -24 -98 -79 -182 -113 -92 -38 -136 -40 -264 -17 -47 8 -113 20 -146 25
-68 12 -157 48 -228 93 -37 24 -54 44 -76 91 -38 81 -44 120 -26 156 9 16 18
29 21 29 3 0 2 -6 -1 -12 -4 -7 2 -3 13 10 20 22 57 29 77 14 6 -4 10 -32 11
-62 0 -64 20 -106 73 -159 61 -61 121 -85 226 -89 110 -5 185 19 253 81 57 53
82 104 82 166 0 57 -23 82 -75 80 -22 -1 -24 -3 -9 -6 12 -2 30 -13 39 -23 16
-18 15 -19 -22 -26 -49 -10 -436 -10 -486 0 -33 6 -37 9 -26 22 11 13 37 15
163 10 135 -4 141 -4 52 4 -55 5 -106 12 -115 16 -9 4 -19 6 -24 6 -4 -1 -6 1
-5 5 2 5 0 8 -3 8 -3 0 -13 6 -22 14 -10 7 -17 10 -17 6 0 -5 -8 2 -19 13 -10
12 -22 18 -26 14 -5 -4 -5 1 -2 10 4 11 2 17 -6 15 -7 -1 -11 4 -9 11 1 8 -7
16 -18 19 -11 3 -17 10 -13 16 4 6 0 8 -10 4 -10 -4 -16 -2 -14 5 1 6 -4 13
-12 16 -9 3 -11 0 -7 -9 4 -8 1 -7 -5 2 -11 15 -14 15 -32 -5 -10 -11 -16 -16
-14 -11 3 6 -2 17 -11 25 -14 13 -15 12 -9 -2 4 -13 2 -15 -10 -11 -10 4 -14
2 -9 -5 3 -6 1 -14 -6 -18 -7 -4 -10 -3 -5 1 4 5 -1 18 -10 29 -15 17 -15 19
-1 8 12 -10 18 -10 24 -1 4 7 3 9 -4 5 -6 -3 -14 -2 -17 4 -5 8 -11 8 -20 0
-9 -7 -16 -6 -25 5 -7 9 -8 15 -2 15 6 0 13 -5 15 -10 3 -6 4 -5 3 2 -1 7 -12
14 -24 16 -12 2 -20 8 -17 13 4 5 -1 9 -10 9 -19 0 -45 23 -45 39 0 6 -6 10
-12 9 -7 -2 -12 5 -10 14 2 11 -3 18 -13 18 -9 0 -13 5 -10 10 7 12 -53 72
-65 65 -9 -5 -40 55 -40 77 0 8 -7 23 -16 34 -8 10 -12 13 -8 5 5 -10 3 -12
-5 -7 -7 5 -10 15 -7 23 4 9 1 22 -6 30 -6 8 -13 27 -13 41 -3 39 -8 55 -24
72 -13 13 -12 15 2 18 10 2 15 8 11 13 -3 5 -11 6 -17 3 -7 -4 -9 -4 -5 1 4 4
-13 31 -38 59 -45 49 -46 51 -39 101 16 125 24 144 73 180 32 23 51 31 62 25
8 -4 19 -8 23 -8 5 0 12 -4 15 -8 4 -4 1 -4 -7 1 -10 6 -12 4 -7 -4 5 -7 14
-10 22 -7 7 3 16 0 20 -6 4 -6 3 -8 -2 -5 -6 3 -16 2 -24 -4 -12 -7 -10 -9 7
-9 12 0 24 -4 27 -9 4 -5 -4 -7 -16 -4 -19 4 -20 3 -8 -6 11 -8 12 -11 2 -11
-7 0 -10 -5 -6 -11 4 -7 9 -7 13 -2 3 6 25 18 48 28 23 10 39 23 36 28 -3 6
-1 7 5 3 7 -4 91 23 187 59 97 36 245 90 330 120 85 30 196 75 247 99 131 64
259 96 378 97 53 0 113 -6 135 -13 38 -12 40 -16 56 -78 18 -69 16 -66 149
-172 80 -64 90 -90 97 -260 8 -212 -34 -633 -82 -816 -12 -48 -12 -55 3 -71 9
-10 22 -26 28 -36 7 -12 24 -19 50 -21 21 -1 52 -7 67 -13 35 -14 53 -14 77
-1 16 9 18 14 9 34 -10 21 -5 77 17 196 2 14 -3 6 -12 -17 -25 -67 -37 -56
-54 49 -7 44 -2 85 30 243 48 240 58 277 85 334 14 28 19 47 12 50 -30 11 -64
-93 -137 -419 -70 -312 -65 -299 -74 -215 -5 59 0 104 33 280 21 116 42 229
46 252 4 24 11 45 16 49 5 3 9 15 9 28 0 12 5 27 10 34 7 9 7 9 -2 2 -31 -26
-37 -11 -37 110 -1 145 -23 315 -56 445 -23 86 -25 107 -17 184 l9 86 26 -57
c39 -84 55 -159 76 -345 21 -182 27 -207 47 -199 26 10 37 -22 30 -92 -9 -93
-15 -112 -37 -112 -11 0 -19 -4 -19 -10 0 -5 13 -10 29 -10 26 0 29 4 40 57 6
31 11 72 11 90 0 29 5 36 30 44 36 13 38 26 6 38 -13 5 -27 18 -30 28 -4 10
-14 88 -22 173 -23 250 -64 375 -176 537 -162 234 -375 358 -723 418 -89 16
-328 27 -395 19z m387 -54 c296 -51 490 -144 626 -305 115 -134 194 -290 222
-439 17 -87 33 -356 20 -344 -4 4 -14 77 -21 163 -20 225 -43 304 -141 478
-134 239 -342 362 -723 428 -338 58 -793 -30 -1004 -195 -28 -22 -42 -29 -31
-17 11 12 52 44 92 71 222 148 629 216 960 160z m-157 -30 c24 -8 24 -8 -6 -9
-101 -3 -487 -94 -724 -170 -68 -22 -126 -39 -127 -37 -2 2 25 22 59 44 133
87 325 142 603 175 56 7 170 5 195 -3z m-1106 -705 c27 -12 36 -20 32 -33 -33
-107 -66 -356 -66 -500 0 -52 -3 -92 -7 -90 -27 13 -60 27 -74 31 -23 7 -47
170 -29 192 6 7 18 11 26 8 21 -8 30 27 48 195 16 146 26 212 31 212 1 0 19
-7 39 -15z m-30 -791 c8 -33 18 -81 22 -109 3 -27 8 -52 9 -55 2 -3 6 -25 10
-50 4 -25 8 -47 10 -50 1 -3 -1 -14 -4 -24 -9 -25 -37 53 -85 234 -19 74 -38
145 -42 157 -5 19 -1 18 29 -11 26 -25 40 -49 51 -92z m222 -56 c-1 -13 4 -31
13 -41 12 -14 12 -20 1 -30 -9 -8 -11 -8 -6 0 3 6 1 13 -6 15 -7 3 -13 23 -13
45 0 23 2 40 6 38 3 -3 6 -15 5 -27z m438 -1479 c16 -13 26 -30 26 -47 0 -26
0 -26 -35 12 -50 55 -45 77 9 35z m-1274 -613 c0 -2 -8 -10 -17 -17 -16 -13
-17 -12 -4 4 13 16 21 21 21 13z m2977 -158 c-3 -8 -6 -5 -6 6 -1 11 2 17 5
13 3 -3 4 -12 1 -19z m78 13 c3 -5 2 -12 -3 -15 -5 -3 -9 1 -9 9 0 17 3 19 12
6z"/>
<path d="M1855 2840 c6 -10 4 -12 -9 -7 -24 10 -110 -29 -100 -44 4 -7 3 -9
-3 -6 -15 9 -36 -19 -40 -53 -1 -16 -3 -33 -4 -37 -8 -48 35 -77 139 -94 l75
-12 -48 -41 -47 -42 3 -81 c4 -70 8 -85 28 -107 36 -38 102 -37 141 2 59 59
61 206 4 251 l-24 19 48 12 c65 18 119 46 132 69 15 30 12 81 -10 129 l-19 42
-104 0 c-58 0 -119 3 -137 7 -26 5 -31 3 -25 -7z m137 -419 c-5 -3 -12 -13
-15 -21 -4 -10 -6 -8 -6 8 -1 12 4 22 9 22 6 0 11 12 11 28 l2 27 4 -29 c3
-16 0 -32 -5 -35z"/>
<path d="M2386 2809 c-54 -64 -40 -152 26 -163 113 -19 333 -7 376 20 33 21
30 69 -7 103 -44 41 -119 60 -254 65 l-118 3 -23 -28z"/>
<path d="M2551 2546 c-35 -20 -50 -54 -51 -117 0 -95 64 -162 126 -129 37 20
54 60 54 125 0 64 -20 107 -57 124 -30 14 -42 13 -72 -3z m108 -103 c-1 -33
-2 -35 -8 -13 -4 14 -6 31 -3 38 8 22 12 13 11 -25z m-22 -45 c-3 -7 -5 -2 -5
12 0 14 2 19 5 13 2 -7 2 -19 0 -25z"/>
<path d="M918 2386 c-5 -24 6 -55 16 -46 2 3 6 18 8 34 4 36 -18 46 -24 12z"/>
<path d="M996 2366 c-18 -38 -18 -40 44 -326 20 -92 27 -146 20 -148 -16 -6
-12 -39 6 -46 13 -5 15 -15 11 -40 -5 -28 -1 -37 23 -55 35 -25 46 -26 54 -5
8 20 -3 82 -60 339 -44 204 -69 304 -77 311 -2 3 -12 -11 -21 -30z"/>
<path d="M3577 2098 c-4 -14 -2 -16 6 -10 7 5 19 11 27 14 10 3 8 6 -7 10 -15
4 -23 0 -26 -14z"/>
<path d="M2107 2034 c-47 -54 -38 -88 33 -124 51 -26 105 -25 160 3 35 17 45
27 45 47 0 22 -11 29 -95 62 -52 21 -101 38 -108 38 -6 0 -22 -12 -35 -26z"/>
<path d="M3465 2007 c-5 -17 -15 -27 -36 -31 -16 -3 -28 -9 -27 -13 1 -5 -6
-42 -16 -84 -18 -80 -18 -140 0 -146 6 -2 23 8 37 21 20 18 27 35 27 61 0 19
4 35 9 35 15 0 23 33 10 41 -9 5 -9 23 -2 71 11 64 9 91 -2 45z"/>
<path d="M887 604 c4 -12 3 -15 -5 -10 -8 5 -10 1 -5 -10 4 -10 2 -15 -4 -11
-5 3 -10 -1 -10 -10 0 -12 5 -11 19 7 20 25 22 36 8 45 -6 4 -7 -1 -3 -11z"/>
<path d="M799 512 c-8 -10 -19 -24 -24 -32 -8 -13 -7 -13 9 -1 16 13 41 51 34
51 -2 0 -10 -8 -19 -18z"/>
<path d="M3316 272 c-3 -5 1 -9 9 -9 8 0 12 4 9 9 -3 4 -7 8 -9 8 -2 0 -6 -4
-9 -8z"/>
<path d="M3436 191 c-9 -14 23 -36 35 -24 8 8 7 13 -2 18 -8 6 -10 4 -4 -5 5
-8 3 -11 -6 -8 -8 3 -13 11 -11 17 2 13 -5 15 -12 2z"/>
</g>
</svg>
