<?xml version="1.0" encoding="UTF-8"?>
<!DOCTYPE svg PUBLIC "-//W3C//DTD SVG 1.1//EN" "http://www.w3.org/Graphics/SVG/1.1/DTD/svg11.dtd">
<svg xmlns="http://www.w3.org/2000/svg" version="1.1" width="600px" height="600px" style="shape-rendering:geometricPrecision; text-rendering:geometricPrecision; image-rendering:optimizeQuality; fill-rule:evenodd; clip-rule:evenodd" xmlns:xlink="http://www.w3.org/1999/xlink">
<g><path style="opacity:0.004" fill="#00b5e8" d="M 44.5,-0.5 C 45.1667,-0.5 45.8333,-0.5 46.5,-0.5C 45.8333,0.833333 45.1667,0.833333 44.5,-0.5 Z"/></g>
<g><path style="opacity:0.985" fill="#04b4e7" d="M 54.5,-0.5 C 54.8333,-0.5 55.1667,-0.5 55.5,-0.5C 55.8333,0.833333 56.1667,0.833333 56.5,-0.5C 218.5,-0.5 380.5,-0.5 542.5,-0.5C 542.833,0.833333 543.167,0.833333 543.5,-0.5C 543.833,-0.5 544.167,-0.5 544.5,-0.5C 560.537,2.35254 574.203,9.68588 585.5,21.5C 585.5,22.1667 585.833,22.5 586.5,22.5C 588.265,25.7089 590.265,28.7089 592.5,31.5C 595.464,38.3906 597.797,45.3906 599.5,52.5C 599.5,222.167 599.5,391.833 599.5,561.5C 598.167,561.833 598.167,562.167 599.5,562.5C 599.5,562.833 599.5,563.167 599.5,563.5C 597.409,569.688 594.743,575.688 591.5,581.5C 590.833,581.5 590.5,581.833 590.5,582.5C 582.465,591.015 572.798,596.682 561.5,599.5C 561.167,599.5 560.833,599.5 560.5,599.5C 560.167,598.167 559.833,598.167 559.5,599.5C 386.167,599.5 212.833,599.5 39.5,599.5C 39.1667,598.167 38.8333,598.167 38.5,599.5C 38.1667,599.5 37.8333,599.5 37.5,599.5C 26.2015,596.682 16.5349,591.015 8.5,582.5C 8.5,581.833 8.16667,581.5 7.5,581.5C 4.25726,575.688 1.59059,569.688 -0.5,563.5C -0.5,563.167 -0.5,562.833 -0.5,562.5C 0.833333,562.167 0.833333,561.833 -0.5,561.5C -0.5,391.833 -0.5,222.167 -0.5,52.5C 1.61014,41.6055 5.94347,31.6055 12.5,22.5C 13.1667,22.5 13.5,22.1667 13.5,21.5C 24.7968,9.68588 38.4634,2.35254 54.5,-0.5 Z"/></g>
<g><path style="opacity:0.004" fill="#00b5e8" d="M 552.5,-0.5 C 553.167,-0.5 553.833,-0.5 554.5,-0.5C 553.833,0.833333 553.167,0.833333 552.5,-0.5 Z"/></g>
<g><path style="opacity:0.004" fill="#00b5e8" d="M 41.5,1.5 C 41.8966,0.474981 42.5632,0.308314 43.5,1C 42.9056,1.46434 42.2389,1.63101 41.5,1.5 Z"/></g>
<g><path style="opacity:0.004" fill="#00b5e8" d="M 555.5,1.5 C 555.897,0.474981 556.563,0.308314 557.5,1C 556.906,1.46434 556.239,1.63101 555.5,1.5 Z"/></g>
<g><path style="opacity:0.004" fill="#00b5e8" d="M 38.5,2.5 C 38.8966,1.47498 39.5632,1.30831 40.5,2C 39.9056,2.46434 39.2389,2.63101 38.5,2.5 Z"/></g>
<g><path style="opacity:0.004" fill="#00b5e8" d="M 560.5,2.5 C 559.761,2.63101 559.094,2.46434 558.5,2C 559.437,1.30831 560.103,1.47498 560.5,2.5 Z"/></g>
<g><path style="opacity:0.004" fill="#00b5e8" d="M 38.5,2.5 C 38.1034,3.52502 37.4368,3.69169 36.5,3C 37.0944,2.53566 37.7611,2.36899 38.5,2.5 Z"/></g>
<g><path style="opacity:0.004" fill="#00b5e8" d="M 560.5,2.5 C 561.239,2.36899 561.906,2.53566 562.5,3C 561.563,3.69169 560.897,3.52502 560.5,2.5 Z"/></g>
<g><path style="opacity:0.004" fill="#00b5e8" d="M 34.5,3.5 C 35.8333,4.16667 35.8333,4.16667 34.5,3.5 Z"/></g>
<g><path style="opacity:0.005" fill="#00b5e8" d="M 13.5,21.5 C 12.8333,21.5 12.5,21.8333 12.5,22.5C 11.2875,21.5029 11.4542,20.5029 13,19.5C 13.4643,20.0944 13.631,20.7611 13.5,21.5 Z"/></g>
<g><path style="opacity:0.005" fill="#00b5e8" d="M 586.5,22.5 C 585.833,22.5 585.5,22.1667 585.5,21.5C 585.747,19.0248 586.413,19.0248 587.5,21.5C 587.376,22.1067 587.043,22.44 586.5,22.5 Z"/></g>
<g><path style="opacity:1" fill="#fafdfe" d="M 112.5,24.5 C 114.39,24.2965 115.89,24.9632 117,26.5C 117.667,41.1667 117.667,55.8333 117,70.5C 115.267,72.6015 113.267,72.9348 111,71.5C 110.833,63.8333 110.667,56.1667 110.5,48.5C 110.532,40.2671 111.199,32.2671 112.5,24.5 Z"/></g>
<g><path style="opacity:1" fill="#fdfefe" d="M 197.5,24.5 C 199.722,24.178 201.556,24.8446 203,26.5C 203.667,41.1667 203.667,55.8333 203,70.5C 201.267,72.6015 199.267,72.9348 197,71.5C 196.183,55.7591 196.35,40.0924 197.5,24.5 Z"/></g>
<g><path style="opacity:1" fill="#066793" d="M 275.5,28.5 C 274.856,40.216 275.522,51.5493 277.5,62.5C 276.791,63.404 275.791,63.7373 274.5,63.5C 274.172,51.6547 274.505,39.988 275.5,28.5 Z"/></g>
<g><path style="opacity:1" fill="#066f9a" d="M 301.5,28.5 C 302.495,39.988 302.828,51.6547 302.5,63.5C 300.801,63.6602 299.134,63.4935 297.5,63C 296.748,62.3292 296.414,61.4959 296.5,60.5C 297.82,61.9418 299.486,62.6085 301.5,62.5C 301.5,51.1667 301.5,39.8333 301.5,28.5 Z"/></g>
<g><path style="opacity:1" fill="#066793" d="M 441.5,28.5 C 440.856,40.216 441.522,51.5493 443.5,62.5C 442.791,63.404 441.791,63.7373 440.5,63.5C 440.172,51.6547 440.505,39.988 441.5,28.5 Z"/></g>
<g><path style="opacity:1" fill="#0d4972" d="M 465.5,28.5 C 466.833,28.5 468.167,28.5 469.5,28.5C 469.5,29.8333 469.5,31.1667 469.5,32.5C 468.167,32.5 466.833,32.5 465.5,32.5C 465.5,31.1667 465.5,29.8333 465.5,28.5 Z"/></g>
<g><path style="opacity:0.004" fill="#00b5e8" d="M 593.5,31.5 C 593.167,31.5 592.833,31.5 592.5,31.5C 592.833,28.8333 593.167,28.8333 593.5,31.5 Z"/></g>
<g><path style="opacity:0.004" fill="#00b5e8" d="M 4.5,31.5 C 5.83333,32.1667 5.83333,32.1667 4.5,31.5 Z"/></g>
<g><path style="opacity:0.004" fill="#00b5e8" d="M 593.5,31.5 C 594.167,31.5 594.5,31.8333 594.5,32.5C 594.167,32.1667 593.833,31.8333 593.5,31.5 Z"/></g>
<g><path style="opacity:0.004" fill="#00b5e8" d="M 4.5,32.5 C 4.63101,33.2389 4.46434,33.9056 4,34.5C 3.30831,33.5632 3.47498,32.8966 4.5,32.5 Z"/></g>
<g><path style="opacity:0.004" fill="#00b5e8" d="M 594.5,32.5 C 595.525,32.8966 595.692,33.5632 595,34.5C 594.536,33.9056 594.369,33.2389 594.5,32.5 Z"/></g>
<g><path style="opacity:1" fill="#0d2a52" d="M 275.5,28.5 C 277.39,28.2965 278.89,28.9632 280,30.5C 286.333,39.8333 292.667,49.1667 299,58.5C 298.854,48.1165 299.687,38.1165 301.5,28.5C 301.5,39.8333 301.5,51.1667 301.5,62.5C 299.486,62.6085 297.82,61.9418 296.5,60.5C 291.572,51.6388 285.906,43.3054 279.5,35.5C 279.631,34.6236 279.298,33.9569 278.5,33.5C 277.502,43.1437 277.168,52.8104 277.5,62.5C 275.522,51.5493 274.856,40.216 275.5,28.5 Z"/></g>
<g><path style="opacity:0.004" fill="#00b5e8" d="M 2.5,35.5 C 3.83333,36.1667 3.83333,36.1667 2.5,35.5 Z"/></g>
<g><path style="opacity:0.004" fill="#00b5e8" d="M 595.5,35.5 C 596.833,36.1667 596.833,36.1667 595.5,35.5 Z"/></g>
<g><path style="opacity:1" fill="#057fad" d="M 279.5,35.5 C 278.833,44.5 278.167,53.5 277.5,62.5C 277.168,52.8104 277.502,43.1437 278.5,33.5C 279.298,33.9569 279.631,34.6236 279.5,35.5 Z"/></g>
<g><path style="opacity:1" fill="#0d335a" d="M 341.5,32.5 C 343.308,33.9179 343.975,35.9179 343.5,38.5C 351.5,39.1667 351.5,39.8333 343.5,40.5C 343.334,47.175 343.5,53.8417 344,60.5C 345.825,61.1029 347.659,61.7696 349.5,62.5C 346.104,64.1295 343.271,63.4629 341,60.5C 340.5,53.8417 340.334,47.175 340.5,40.5C 339.325,40.719 338.325,40.3857 337.5,39.5C 340.987,38.4912 342.32,36.1578 341.5,32.5 Z"/></g>
<g><path style="opacity:0.004" fill="#00b5e8" d="M 1.5,39.5 C 1.36899,38.7611 1.53566,38.0944 2,37.5C 2.69169,38.4368 2.52502,39.1034 1.5,39.5 Z"/></g>
<g><path style="opacity:0.004" fill="#00b5e8" d="M 596.5,37.5 C 597.525,37.8966 597.692,38.5632 597,39.5C 596.536,38.9056 596.369,38.2389 596.5,37.5 Z"/></g>
<g><path style="opacity:1" fill="#0e3760" d="M 316.5,37.5 C 319.518,37.3354 322.518,37.502 325.5,38C 327.522,40.0218 329.522,42.0218 331.5,44C 332.322,46.4339 332.656,48.9339 332.5,51.5C 325.833,51.5 319.167,51.5 312.5,51.5C 313.192,59.6723 317.526,62.5056 325.5,60C 332.105,55.2718 332.772,55.9384 327.5,62C 319.47,65.5978 313.636,63.4312 310,55.5C 307.719,47.7075 309.885,41.7075 316.5,37.5 Z"/></g>
<g><path style="opacity:1" fill="#0d2f58" d="M 510.5,37.5 C 515.561,36.6652 519.895,37.9986 523.5,41.5C 524.167,40.5 524.833,39.5 525.5,38.5C 526.665,47.8155 526.832,57.1489 526,66.5C 521.509,71.2591 516.009,72.7591 509.5,71C 506.941,69.6766 506.275,67.8433 507.5,65.5C 510.187,69.3137 513.853,70.4804 518.5,69C 523.383,67.4976 524.716,64.3309 522.5,59.5C 516.039,62.957 510.539,61.957 506,56.5C 502.94,48.9196 504.44,42.5863 510.5,37.5 Z"/></g>
<g><path style="opacity:0.004" fill="#00b5e8" d="M 1.5,39.5 C 1.63101,40.2389 1.46434,40.9056 1,41.5C 0.308314,40.5632 0.474981,39.8966 1.5,39.5 Z"/></g>
<g><path style="opacity:1" fill="#066e99" d="M 466.5,62.5 C 465.507,54.3501 465.174,46.0168 465.5,37.5C 466.833,37.5 468.167,37.5 469.5,37.5C 469.5,46.1667 469.5,54.8333 469.5,63.5C 468.209,63.7373 467.209,63.404 466.5,62.5 Z"/></g>
<g><path style="opacity:1" fill="#09557f" d="M 482.5,39.5 C 480.795,42.2869 479.628,41.9535 479,38.5C 478.5,46.4931 478.334,54.4931 478.5,62.5C 477.507,54.3501 477.174,46.0168 477.5,37.5C 479.322,37.8308 480.989,38.4975 482.5,39.5 Z"/></g>
<g><path style="opacity:1" fill="#f2fbfd" d="M 89.5,39.5 C 91.7925,39.2436 93.9592,39.5769 96,40.5C 96.6667,48.1667 96.6667,55.8333 96,63.5C 93.4082,64.9817 91.0749,64.6483 89,62.5C 88.2019,54.754 88.3686,47.0873 89.5,39.5 Z"/></g>
<g><path style="opacity:1" fill="#f6fcfe" d="M 133.5,38.5 C 135.722,38.178 137.556,38.8446 139,40.5C 139.831,48.1883 139.665,55.855 138.5,63.5C 136.031,65.0066 133.865,64.6732 132,62.5C 131.333,55.1667 131.333,47.8333 132,40.5C 132.717,39.9558 133.217,39.2891 133.5,38.5 Z"/></g>
<g><path style="opacity:1" fill="#f1fafd" d="M 175.5,39.5 C 177.792,39.2436 179.959,39.5769 182,40.5C 182.667,47.8333 182.667,55.1667 182,62.5C 179.925,64.6483 177.592,64.9817 175,63.5C 174.2,55.4211 174.367,47.4211 175.5,39.5 Z"/></g>
<g><path style="opacity:1" fill="#f9fdfe" d="M 218.5,40.5 C 220.467,40.2606 222.301,40.5939 224,41.5C 224.5,48.4921 224.666,55.4921 224.5,62.5C 222.718,64.6869 220.552,65.0203 218,63.5C 217.178,55.6554 217.344,47.9887 218.5,40.5 Z"/></g>
<g><path style="opacity:1" fill="#0d2c54" d="M 426.5,47.5 C 426.141,52.7486 425.141,57.7486 423.5,62.5C 423.169,54.4723 423.502,46.4723 424.5,38.5C 426.248,40.9935 427.914,40.8268 429.5,38C 431.473,37.5045 433.473,37.3379 435.5,37.5C 435.5,38.5 435.5,39.5 435.5,40.5C 429.812,39.531 426.812,41.8643 426.5,47.5 Z"/></g>
<g><path style="opacity:1" fill="#0c244b" d="M 466.5,62.5 C 466.169,54.4723 466.502,46.4723 467.5,38.5C 467.833,42.5 468.167,46.5 468.5,50.5C 468.491,54.893 467.824,58.893 466.5,62.5 Z"/></g>
<g><path style="opacity:0.004" fill="#00b5e8" d="M 597.5,40.5 C 598.833,41.1667 598.833,41.1667 597.5,40.5 Z"/></g>
<g><path style="opacity:1" fill="#00afe1" d="M 317.5,39.5 C 324.887,38.2602 328.887,41.2602 329.5,48.5C 323.833,48.5 318.167,48.5 312.5,48.5C 312.861,44.7781 314.528,41.7781 317.5,39.5 Z"/></g>
<g><path style="opacity:1" fill="#01addf" d="M 512.5,39.5 C 521.97,39.474 525.804,44.1407 524,53.5C 521.259,58.4186 517.092,60.2519 511.5,59C 507.695,54.9089 506.528,50.0755 508,44.5C 509.025,42.313 510.525,40.6464 512.5,39.5 Z"/></g>
<g><path style="opacity:1" fill="#c1ecf9" d="M 224.5,62.5 C 224.666,55.4921 224.5,48.4921 224,41.5C 222.301,40.5939 220.467,40.2606 218.5,40.5C 220.54,37.8661 222.707,37.8661 225,40.5C 225.822,48.0118 225.655,55.3451 224.5,62.5 Z"/></g>
<g><path style="opacity:0.004" fill="#00b5e8" d="M -0.5,43.5 C 0.833333,44.1667 0.833333,44.1667 -0.5,43.5 Z"/></g>
<g><path style="opacity:0.004" fill="#00b5e8" d="M 599.5,43.5 C 599.5,43.8333 599.5,44.1667 599.5,44.5C 598.83,44.0187 598.83,43.6853 599.5,43.5 Z"/></g>
<g><path style="opacity:1" fill="#0d3159" d="M 478.5,62.5 C 478.334,54.4931 478.5,46.4931 479,38.5C 479.628,41.9535 480.795,42.2869 482.5,39.5C 487.628,36.3918 492.294,37.0585 496.5,41.5C 497.464,48.4419 497.797,55.4419 497.5,62.5C 496.5,62.5 495.5,62.5 494.5,62.5C 494.666,55.825 494.5,49.1583 494,42.5C 489.291,38.2305 484.958,38.5639 481,43.5C 481.131,50.2455 480.298,56.5788 478.5,62.5 Z"/></g>
<g><path style="opacity:1" fill="#0d2e56" d="M 399.5,37.5 C 412.809,36.987 417.975,43.3203 415,56.5C 411.867,62.3265 407.034,64.4932 400.5,63C 392.607,58.0703 390.44,51.2369 394,42.5C 395.73,40.5981 397.563,38.9314 399.5,37.5 Z"/></g>
<g><path style="opacity:1" fill="#01aee1" d="M 400.5,39.5 C 405.039,38.9569 408.873,40.2902 412,43.5C 412.751,48.5715 412.418,53.5715 411,58.5C 404.195,63.5381 399.195,62.2048 396,54.5C 394.611,48.5097 396.111,43.5097 400.5,39.5 Z"/></g>
<g><path style="opacity:1" fill="#0d2b53" d="M 441.5,28.5 C 443.141,34.4469 444.141,40.7803 444.5,47.5C 447.686,44.4791 451.02,41.6458 454.5,39C 455.833,38.3333 457.167,38.3333 458.5,39C 454.471,42.0338 450.804,45.3672 447.5,49C 451.119,53.6219 455.119,57.9552 459.5,62C 458.5,62.6667 457.5,62.6667 456.5,62C 452.652,57.9844 448.652,54.1511 444.5,50.5C 443.509,54.4454 443.176,58.4454 443.5,62.5C 441.522,51.5493 440.856,40.216 441.5,28.5 Z"/></g>
<g><path style="opacity:1" fill="#07638f" d="M 426.5,47.5 C 426.5,52.8333 426.5,58.1667 426.5,63.5C 425.209,63.7373 424.209,63.404 423.5,62.5C 425.141,57.7486 426.141,52.7486 426.5,47.5 Z"/></g>
<g><path style="opacity:1" fill="#f8fdfe" d="M 68.5,49.5 C 70.4672,49.2606 72.3005,49.5939 74,50.5C 74.7991,55.0868 74.6324,59.5868 73.5,64C 71.5594,64.7429 69.7261,64.5762 68,63.5C 67.2266,58.7481 67.3932,54.0815 68.5,49.5 Z"/></g>
<g><path style="opacity:1" fill="#f0fafd" d="M 154.5,49.5 C 157.044,49.1043 159.211,49.771 161,51.5C 161.667,55.1667 161.667,58.8333 161,62.5C 158.925,64.6483 156.592,64.9817 154,63.5C 153.227,58.7481 153.393,54.0815 154.5,49.5 Z"/></g>
<g><path style="opacity:1" fill="#f2fbfd" d="M 240.5,49.5 C 242.722,49.178 244.556,49.8446 246,51.5C 246.796,55.7548 246.629,59.9215 245.5,64C 242.975,64.8959 240.808,64.3959 239,62.5C 237.978,57.8711 238.478,53.5377 240.5,49.5 Z"/></g>
<g><path style="opacity:1" fill="#0e365f" d="M 354.5,38.5 C 356.335,39.1223 357.502,40.4556 358,42.5C 359.469,47.9052 361.135,53.2385 363,58.5C 365.149,51.9023 366.982,45.2357 368.5,38.5C 370.167,38.5 371.833,38.5 373.5,38.5C 374.661,42.8259 375.828,47.1593 377,51.5C 377.748,53.3325 378.748,54.9991 380,56.5C 382.279,50.9402 384.279,45.2735 386,39.5C 386.893,38.2888 387.726,38.2888 388.5,39.5C 385.766,47.0745 383.433,54.7412 381.5,62.5C 380.167,62.5 378.833,62.5 377.5,62.5C 375.844,55.6967 373.677,49.03 371,42.5C 368.397,48.6434 366.397,54.9768 365,61.5C 363.644,62.3802 362.144,62.7135 360.5,62.5C 358.502,54.5063 356.502,46.5063 354.5,38.5 Z"/></g>
<g><path style="opacity:1" fill="#057ba8" d="M 384.5,81.5 C 385.495,92.988 385.828,104.655 385.5,116.5C 384.209,116.737 383.209,116.404 382.5,115.5C 384.478,104.549 385.144,93.216 384.5,81.5 Z"/></g>
<g><path style="opacity:1" fill="#f4fbfd" d="M 93.5,85.5 C 97.8461,85.3343 102.179,85.501 106.5,86C 107.435,88.3806 107.768,90.8806 107.5,93.5C 96.9313,90.1663 92.098,93.8329 93,104.5C 93.956,105.579 94.7894,106.745 95.5,108C 99.5369,108.607 103.537,108.44 107.5,107.5C 107.5,110.167 107.5,112.833 107.5,115.5C 94.6716,118.802 86.6716,114.135 83.5,101.5C 84.2291,98.145 85.0624,94.8117 86,91.5C 88.1141,88.8792 90.6141,86.8792 93.5,85.5 Z"/></g>
<g><path style="opacity:1" fill="#f5fcfe" d="M 141.5,85.5 C 146.167,85.5 150.833,85.5 155.5,85.5C 155.808,87.924 155.474,90.2573 154.5,92.5C 150.731,90.8231 147.398,91.3231 144.5,94C 144.645,94.772 144.978,95.4387 145.5,96C 149.719,96.7913 153.386,98.6246 156.5,101.5C 159.207,109.294 156.541,114.127 148.5,116C 144.514,116.499 140.514,116.666 136.5,116.5C 136.5,114.167 136.5,111.833 136.5,109.5C 140.514,109.666 144.514,109.499 148.5,109C 149.022,108.439 149.355,107.772 149.5,107C 145.249,104.351 141.083,101.518 137,98.5C 135.381,92.9676 136.881,88.6343 141.5,85.5 Z"/></g>
<g><path style="opacity:1" fill="#f4fbfe" d="M 175.5,85.5 C 179.846,85.3343 184.179,85.501 188.5,86C 189.435,88.3806 189.768,90.8806 189.5,93.5C 181.643,90.4505 176.309,92.7839 173.5,100.5C 174.059,103.285 175.392,105.618 177.5,107.5C 181.493,108.613 185.493,108.613 189.5,107.5C 189.777,110.448 189.444,113.281 188.5,116C 175.63,118.742 167.963,113.742 165.5,101C 165.471,93.552 168.804,88.3853 175.5,85.5 Z"/></g>
<g><path style="opacity:1" fill="#f6fcfe" d="M 207.5,85.5 C 211.514,85.3345 215.514,85.5012 219.5,86C 230.61,90.7358 233.443,98.5691 228,109.5C 218.517,118.713 209.183,118.713 200,109.5C 194.804,98.9859 197.304,90.9859 207.5,85.5 Z"/></g>
<g><path style="opacity:1" fill="#9ae1f5" d="M 118.5,115.5 C 117.506,105.681 117.173,95.6806 117.5,85.5C 120.5,85.5 123.5,85.5 126.5,85.5C 126.5,95.8333 126.5,106.167 126.5,116.5C 123.615,116.806 120.948,116.473 118.5,115.5 Z"/></g>
<g><path style="opacity:1" fill="#fcfefe" d="M 118.5,115.5 C 118.5,105.833 118.5,96.1667 118.5,86.5C 120.833,86.5 123.167,86.5 125.5,86.5C 125.5,96.1667 125.5,105.833 125.5,115.5C 123.167,115.5 120.833,115.5 118.5,115.5 Z"/></g>
<g><path style="opacity:1" fill="#0673a0" d="M 428.5,91.5 C 427.257,94.1063 425.924,94.1063 424.5,91.5C 423.502,99.4723 423.169,107.472 423.5,115.5C 422.507,107.35 422.174,99.0168 422.5,90.5C 424.565,90.5172 426.565,90.8505 428.5,91.5 Z"/></g>
<g><path style="opacity:1" fill="#01abdd" d="M 399.5,92.5 C 407.054,91.0764 411.054,94.0764 411.5,101.5C 406.167,101.5 400.833,101.5 395.5,101.5C 395.482,97.8707 396.816,94.8707 399.5,92.5 Z"/></g>
<g><path style="opacity:1" fill="#0d2f57" d="M 456.5,94.5 C 456.666,101.175 456.5,107.842 456,114.5C 455.828,108.319 455.328,102.319 454.5,96.5C 453.622,93.7133 451.622,92.38 448.5,92.5C 445.729,92.7562 443.562,94.0896 442,96.5C 441.5,102.825 441.334,109.158 441.5,115.5C 440.5,115.5 439.5,115.5 438.5,115.5C 438.666,108.492 438.5,101.492 438,94.5C 433.431,91.4392 429.431,92.1059 426,96.5C 426.131,103.246 425.298,109.579 423.5,115.5C 423.169,107.472 423.502,99.4723 424.5,91.5C 425.924,94.1063 427.257,94.1063 428.5,91.5C 433.326,89.5049 437.493,90.5049 441,94.5C 444.308,90.6729 448.474,89.5063 453.5,91C 455.063,91.7589 456.063,92.9256 456.5,94.5 Z"/></g>
<g><path style="opacity:1" fill="#29bae9" d="M 211.5,92.5 C 219.033,92.5289 222.533,96.1956 222,103.5C 216.527,110.143 211.194,110.143 206,103.5C 205.176,98.4818 207.009,94.8152 211.5,92.5 Z"/></g>
<g><path style="opacity:1" fill="#0d456e" d="M 395.5,104.5 C 401.645,103.51 407.978,103.177 414.5,103.5C 414.79,99.446 414.123,98.946 412.5,102C 406.651,102.818 400.985,102.652 395.5,101.5C 400.833,101.5 406.167,101.5 411.5,101.5C 411.054,94.0764 407.054,91.0764 399.5,92.5C 398.833,92.5 398.167,92.5 397.5,92.5C 403.618,89.2045 409.118,90.2045 414,95.5C 415.289,98.3508 415.789,101.351 415.5,104.5C 408.833,104.5 402.167,104.5 395.5,104.5 Z"/></g>
<g><path style="opacity:1" fill="#09507a" d="M 456.5,94.5 C 457.491,101.313 457.825,108.313 457.5,115.5C 456.5,115.5 455.5,115.5 454.5,115.5C 454.5,109.167 454.5,102.833 454.5,96.5C 455.328,102.319 455.828,108.319 456,114.5C 456.5,107.842 456.666,101.175 456.5,94.5 Z"/></g>
<g><path style="opacity:1" fill="#0d355e" d="M 483.5,97.5 C 482.442,99.8084 481.276,102.142 480,104.5C 479.982,102.203 480.149,99.8695 480.5,97.5C 481.162,95.5295 481.828,93.5295 482.5,91.5C 483.325,90.6143 484.325,90.281 485.5,90.5C 485.233,92.9653 484.566,95.2986 483.5,97.5 Z"/></g>
<g><path style="opacity:1" fill="#0e345c" d="M 284.5,81.5 C 286.467,81.2606 288.301,81.5939 290,82.5C 294.742,93.3115 298.909,104.311 302.5,115.5C 301.5,115.5 300.5,115.5 299.5,115.5C 298.929,112.523 297.929,109.69 296.5,107C 290.141,106.169 283.807,106.336 277.5,107.5C 276.694,110.446 275.361,113.112 273.5,115.5C 273.167,114.833 272.833,114.167 272.5,113.5C 277.107,103.007 281.107,92.3408 284.5,81.5 Z"/></g>
<g><path style="opacity:1" fill="#02a8da" d="M 286.5,85.5 C 288.335,86.1223 289.502,87.4556 290,89.5C 292.013,94.037 293.513,98.7037 294.5,103.5C 289.833,103.5 285.167,103.5 280.5,103.5C 280.34,101.801 280.506,100.134 281,98.5C 282.987,94.1959 284.821,89.8626 286.5,85.5 Z"/></g>
<g><path style="opacity:1" fill="#0c628e" d="M 480.5,97.5 C 480.149,99.8695 479.982,102.203 480,104.5C 481.276,102.142 482.442,99.8084 483.5,97.5C 482.827,102.01 481.661,106.343 480,110.5C 479.284,112.879 478.117,114.879 476.5,116.5C 477.874,112.896 478.707,109.229 479,105.5C 478.623,106.942 477.79,107.942 476.5,108.5C 477.462,104.605 478.796,100.939 480.5,97.5 Z"/></g>
<g><path style="opacity:1" fill="#0e345c" d="M 384.5,81.5 C 385.144,93.216 384.478,104.549 382.5,115.5C 382.719,114.325 382.386,113.325 381.5,112.5C 369.804,119.844 363.471,116.511 362.5,102.5C 363.685,90.9021 369.685,87.5688 380.5,92.5C 381.489,88.8927 381.823,85.226 381.5,81.5C 382.5,81.5 383.5,81.5 384.5,81.5 Z"/></g>
<g><path style="opacity:1" fill="#01afe2" d="M 369.5,92.5 C 379.923,92.127 383.756,97.127 381,107.5C 380.602,110.232 379.102,112.065 376.5,113C 373.833,113.667 371.167,113.667 368.5,113C 364.173,105.82 364.506,98.9865 369.5,92.5 Z"/></g>
<g><path style="opacity:1" fill="#0e3861" d="M 313.5,90.5 C 320.608,88.8913 325.608,91.2246 328.5,97.5C 327.5,97.5 326.5,97.5 325.5,97.5C 324.417,94.0217 321.917,92.355 318,92.5C 314.967,92.519 312.633,93.8523 311,96.5C 309.751,102.251 310.584,107.584 313.5,112.5C 319.056,114.582 323.556,113.248 327,108.5C 327.5,108.833 328,109.167 328.5,109.5C 325.363,115.648 320.363,117.815 313.5,116C 307.833,110.681 305.999,104.181 308,96.5C 309.36,93.9774 311.193,91.9774 313.5,90.5 Z"/></g>
<g><path style="opacity:1" fill="#0e355e" d="M 397.5,92.5 C 398.167,92.5 398.833,92.5 399.5,92.5C 396.816,94.8707 395.482,97.8707 395.5,101.5C 400.985,102.652 406.651,102.818 412.5,102C 414.123,98.946 414.79,99.446 414.5,103.5C 407.978,103.177 401.645,103.51 395.5,104.5C 396.033,112.197 400.033,115.03 407.5,113C 409.761,111.187 412.095,109.687 414.5,108.5C 413.789,112.382 411.456,114.882 407.5,116C 397.576,117.412 392.576,113.079 392.5,103C 392.175,98.441 393.842,94.941 397.5,92.5 Z"/></g>
<g><path style="opacity:1" fill="#0d3760" d="M 339.5,90.5 C 345.203,89.5566 350.203,90.89 354.5,94.5C 355.497,101.468 355.83,108.468 355.5,115.5C 353.857,115.52 352.524,114.853 351.5,113.5C 346.057,116.43 340.89,116.096 336,112.5C 334.404,106.083 336.904,102.249 343.5,101C 346.482,100.502 349.482,100.335 352.5,100.5C 352.447,93.1203 348.78,90.6203 341.5,93C 334.625,98.796 333.959,97.9627 339.5,90.5 Z"/></g>
<g><path style="opacity:1" fill="#03a4d5" d="M 345.5,102.5 C 347.833,102.5 350.167,102.5 352.5,102.5C 352.906,110.927 348.906,114.761 340.5,114C 336.574,110.856 336.574,107.689 340.5,104.5C 342.336,103.972 344.003,103.306 345.5,102.5 Z"/></g>
<g><path style="opacity:1" fill="#0d325a" d="M 476.5,108.5 C 477.79,107.942 478.623,106.942 479,105.5C 478.707,109.229 477.874,112.896 476.5,116.5C 475.83,119.338 474.496,121.838 472.5,124C 466.656,124.398 466.323,123.565 471.5,121.5C 472.265,119.705 472.932,117.872 473.5,116C 470.015,107.534 466.681,99.034 463.5,90.5C 464.675,90.281 465.675,90.6143 466.5,91.5C 469.17,98.1716 471.836,104.838 474.5,111.5C 475.425,110.643 476.092,109.643 476.5,108.5 Z"/></g>
<g><path style="opacity:1" fill="#285376" d="M 473.5,147.5 C 473.5,148.167 473.167,148.5 472.5,148.5C 330.126,148.17 187.793,148.503 45.5,149.5C 45.6107,148.883 45.944,148.383 46.5,148C 188.833,147.5 331.166,147.333 473.5,147.5 Z"/></g>
<g><path style="opacity:1" fill="#008bd8" d="M 553.5,147.5 C 542.828,147.333 532.161,147.5 521.5,148C 511.086,152.706 500.752,157.706 490.5,163C 469.691,176.804 451.024,193.138 434.5,212C 422.016,222.407 409.349,232.573 396.5,242.5C 395.227,243.257 395.227,243.923 396.5,244.5C 346.326,272.656 292.659,282.156 235.5,273C 212.916,267.416 190.249,262.082 167.5,257C 134.45,250.563 101.117,248.397 67.5,250.5C 68.6085,249.71 69.9419,249.21 71.5,249C 81.8333,248.667 92.1667,248.333 102.5,248C 75.1379,245.861 47.8045,246.028 20.5,248.5C 20.5,251.167 20.5,253.833 20.5,256.5C 21.8333,256.5 23.1667,256.5 24.5,256.5C 23.0813,257.451 21.4147,257.784 19.5,257.5C 19.5,243.167 19.5,228.833 19.5,214.5C 57.5016,221.379 95.8349,225.379 134.5,226.5C 145.662,227.167 156.995,227.5 168.5,227.5C 186.357,227.648 204.024,226.981 221.5,225.5C 287.922,221.605 351.588,207.105 412.5,182C 433.338,172.087 453.338,160.921 472.5,148.5C 473.167,148.5 473.5,148.167 473.5,147.5C 500.294,146.18 526.961,146.18 553.5,147.5 Z"/></g>
<g><path style="opacity:1" fill="#0279cf" d="M 553.5,147.5 C 556.429,148.538 559.429,149.704 562.5,151C 561.584,151.278 560.918,151.778 560.5,152.5C 559.833,152.5 559.167,152.5 558.5,152.5C 552.806,152.24 547.473,153.24 542.5,155.5C 498.616,165.45 461.616,187.283 431.5,221C 420.225,229.447 408.558,237.28 396.5,244.5C 395.227,243.923 395.227,243.257 396.5,242.5C 409.349,232.573 422.016,222.407 434.5,212C 451.024,193.138 469.691,176.804 490.5,163C 500.752,157.706 511.086,152.706 521.5,148C 532.161,147.5 542.828,147.333 553.5,147.5 Z"/></g>
<g><path style="opacity:1" fill="#0e274e" d="M 472.5,148.5 C 453.338,160.921 433.338,172.087 412.5,182C 351.588,207.105 287.922,221.605 221.5,225.5C 192.506,226.231 163.506,226.564 134.5,226.5C 95.8349,225.379 57.5016,221.379 19.5,214.5C 19.1675,201.483 19.5009,188.483 20.5,175.5C 24.1424,162.193 32.4757,153.526 45.5,149.5C 187.793,148.503 330.126,148.17 472.5,148.5 Z"/></g>
<g><path style="opacity:1" fill="#65d6f2" d="M 558.5,152.5 C 559.167,152.5 559.833,152.5 560.5,152.5C 564.331,152.249 567.664,153.416 570.5,156C 579.062,162.703 583.562,171.536 584,182.5C 584.5,194.829 584.667,207.162 584.5,219.5C 553.74,220.057 526.407,229.89 502.5,249C 485.774,265.91 467.774,281.077 448.5,294.5C 411.71,317.88 371.71,333.213 328.5,340.5C 280.478,347.874 233.145,344.874 186.5,331.5C 155.861,323.406 124.695,318.74 93,317.5C 68.5204,317.306 44.6871,320.973 21.5,328.5C 19.51,305.19 18.8433,281.524 19.5,257.5C 21.4147,257.784 23.0813,257.451 24.5,256.5C 38.6724,253.48 53.0057,251.48 67.5,250.5C 101.117,248.397 134.45,250.563 167.5,257C 190.249,262.082 212.916,267.416 235.5,273C 292.659,282.156 346.326,272.656 396.5,244.5C 408.558,237.28 420.225,229.447 431.5,221C 461.616,187.283 498.616,165.45 542.5,155.5C 548.061,155.044 553.394,154.044 558.5,152.5 Z"/></g>
<g><path style="opacity:1" fill="#36a7e1" d="M 558.5,152.5 C 553.394,154.044 548.061,155.044 542.5,155.5C 547.473,153.24 552.806,152.24 558.5,152.5 Z"/></g>
<g><path style="opacity:1" fill="#f9fafb" d="M 183.5,168.5 C 184.451,169.919 184.784,171.585 184.5,173.5C 181.941,173.198 179.607,173.532 177.5,174.5C 176.566,175.568 176.232,176.901 176.5,178.5C 178.5,178.5 180.5,178.5 182.5,178.5C 182.5,179.833 182.5,181.167 182.5,182.5C 180.5,182.5 178.5,182.5 176.5,182.5C 176.5,189.167 176.5,195.833 176.5,202.5C 174.167,202.5 171.833,202.5 169.5,202.5C 169.823,195.978 169.49,189.645 168.5,183.5C 167.5,183.5 166.5,183.5 165.5,183.5C 165.5,181.833 165.5,180.167 165.5,178.5C 166.833,178.5 168.167,178.5 169.5,178.5C 169.5,176.5 169.5,174.5 169.5,172.5C 173.335,168.825 178.001,167.491 183.5,168.5 Z"/></g>
<g><path style="opacity:1" fill="#f2f3f5" d="M 76.5,170.5 C 76.2594,172.898 76.9261,174.898 78.5,176.5C 78.5,176.833 78.5,177.167 78.5,177.5C 78.2594,179.898 78.9261,181.898 80.5,183.5C 80.4095,186.152 81.0762,188.485 82.5,190.5C 82.5,192.167 82.5,193.833 82.5,195.5C 83.5,195.5 84.5,195.5 85.5,195.5C 85.7038,192.482 86.0371,189.482 86.5,186.5C 88.1744,180.49 89.8411,174.49 91.5,168.5C 94.1667,168.5 96.8333,168.5 99.5,168.5C 96.1703,180.157 92.8369,191.824 89.5,203.5C 85.774,203.823 82.1073,203.489 78.5,202.5C 74.5196,191.237 70.8529,179.903 67.5,168.5C 71.0122,167.945 74.0122,168.612 76.5,170.5 Z"/></g>
<g><path style="opacity:1" fill="#eceef1" d="M 186.5,168.5 C 189.5,168.5 192.5,168.5 195.5,168.5C 195.5,170.5 195.5,172.5 195.5,174.5C 192.5,174.5 189.5,174.5 186.5,174.5C 186.5,172.5 186.5,170.5 186.5,168.5 Z"/></g>
<g><path style="opacity:1" fill="#8794a6" d="M 250.5,168.5 C 250.823,172.226 250.489,175.893 249.5,179.5C 248.893,179.376 248.56,179.043 248.5,178.5C 249.167,175.167 249.833,171.833 250.5,168.5 Z"/></g>
<g><path style="opacity:1" fill="#f1f3f5" d="M 250.5,168.5 C 252.833,168.5 255.167,168.5 257.5,168.5C 257.5,179.833 257.5,191.167 257.5,202.5C 255.5,202.5 253.5,202.5 251.5,202.5C 250.151,201.203 248.818,201.37 247.5,203C 234.298,204.793 228.798,198.96 231,185.5C 234.423,177.623 240.257,175.29 248.5,178.5C 248.56,179.043 248.893,179.376 249.5,179.5C 250.489,175.893 250.823,172.226 250.5,168.5 Z"/></g>
<g><path style="opacity:1" fill="#8d9aab" d="M 250.5,168.5 C 252.948,167.527 255.615,167.194 258.5,167.5C 258.5,179.5 258.5,191.5 258.5,203.5C 255.941,203.802 253.607,203.468 251.5,202.5C 253.5,202.5 255.5,202.5 257.5,202.5C 257.5,191.167 257.5,179.833 257.5,168.5C 255.167,168.5 252.833,168.5 250.5,168.5 Z"/></g>
<g><path style="opacity:1" fill="#a5aebc" d="M 183.5,168.5 C 178.001,167.491 173.335,168.825 169.5,172.5C 169.859,170.629 170.859,169.129 172.5,168C 176.358,167.19 180.024,167.357 183.5,168.5 Z"/></g>
<g><path style="opacity:1" fill="#e7e9ed" d="M 152.5,168.5 C 155.5,168.5 158.5,168.5 161.5,168.5C 161.5,170.5 161.5,172.5 161.5,174.5C 158.5,174.5 155.5,174.5 152.5,174.5C 152.5,172.5 152.5,170.5 152.5,168.5 Z"/></g>
<g><path style="opacity:1" fill="#909cad" d="M 76.5,170.5 C 78.0739,172.102 78.7406,174.102 78.5,176.5C 76.9261,174.898 76.2594,172.898 76.5,170.5 Z"/></g>
<g><path style="opacity:1" fill="#495a78" d="M 152.5,168.5 C 152.5,170.5 152.5,172.5 152.5,174.5C 155.5,174.5 158.5,174.5 161.5,174.5C 159.031,175.317 156.365,175.817 153.5,176C 156.036,176.186 158.369,176.686 160.5,177.5C 157.941,177.198 155.607,177.532 153.5,178.5C 153.5,186.833 153.5,195.167 153.5,203.5C 152.833,194.991 152.167,186.324 151.5,177.5C 150.832,179.969 150.165,182.302 149.5,184.5C 149.5,182.167 149.5,179.833 149.5,177.5C 147.5,177.5 145.5,177.5 143.5,177.5C 145.631,176.686 147.964,176.186 150.5,176C 151.123,173.393 151.79,170.893 152.5,168.5 Z"/></g>
<g><path style="opacity:1" fill="#edeff2" d="M 118.5,177.5 C 125.294,180.069 128.294,185.069 127.5,192.5C 121.5,192.5 115.5,192.5 109.5,192.5C 110.659,198.597 113.659,199.764 118.5,196C 121.146,195.503 123.813,195.336 126.5,195.5C 126.062,199.192 124.062,201.692 120.5,203C 104.379,205.88 98.2124,199.38 102,183.5C 102.377,182.058 103.21,181.058 104.5,180.5C 108.783,178.042 113.449,177.042 118.5,177.5 Z"/></g>
<g><path style="opacity:1" fill="#96a1b1" d="M 132.5,178.5 C 133.449,177.848 134.615,177.514 136,177.5C 137.681,177.608 138.848,178.275 139.5,179.5C 137.283,178.631 134.95,178.298 132.5,178.5 Z"/></g>
<g><path style="opacity:1" fill="#f4f5f7" d="M 143.5,177.5 C 145.5,177.5 147.5,177.5 149.5,177.5C 149.5,179.833 149.5,182.167 149.5,184.5C 146.03,183.875 143.196,184.875 141,187.5C 140.501,192.823 140.334,198.156 140.5,203.5C 137.833,203.5 135.167,203.5 132.5,203.5C 132.5,195.167 132.5,186.833 132.5,178.5C 134.95,178.298 137.283,178.631 139.5,179.5C 139.435,179.938 139.601,180.272 140,180.5C 141.039,179.29 142.206,178.29 143.5,177.5 Z"/></g>
<g><path style="opacity:1" fill="#929dae" d="M 169.5,172.5 C 169.5,174.5 169.5,176.5 169.5,178.5C 168.167,178.5 166.833,178.5 165.5,178.5C 166.209,177.596 167.209,177.263 168.5,177.5C 168.216,175.585 168.549,173.919 169.5,172.5 Z"/></g>
<g><path style="opacity:1" fill="#ebedf0" d="M 226.5,188.5 C 226.5,189.5 226.5,190.5 226.5,191.5C 220.31,191.177 214.31,191.51 208.5,192.5C 208.724,195.722 210.391,197.722 213.5,198.5C 215.319,198.658 216.652,197.991 217.5,196.5C 220.428,195.516 223.428,195.183 226.5,195.5C 225.789,199.382 223.456,201.882 219.5,203C 203.527,205.91 197.36,199.41 201,183.5C 203.758,178.577 207.925,176.577 213.5,177.5C 221.239,177.245 225.573,180.911 226.5,188.5 Z"/></g>
<g><path style="opacity:1" fill="#8a96a8" d="M 118.5,177.5 C 113.449,177.042 108.783,178.042 104.5,180.5C 105.453,178.39 107.119,177.223 109.5,177C 112.696,176.195 115.696,176.362 118.5,177.5 Z"/></g>
<g><path style="opacity:1" fill="#f9fafb" d="M 153.5,178.5 C 155.833,178.5 158.167,178.5 160.5,178.5C 160.5,186.833 160.5,195.167 160.5,203.5C 158.167,203.5 155.833,203.5 153.5,203.5C 153.5,195.167 153.5,186.833 153.5,178.5 Z"/></g>
<g><path style="opacity:1" fill="#8a96a9" d="M 186.5,177.5 C 189.5,177.5 192.5,177.5 195.5,177.5C 195.5,186.167 195.5,194.833 195.5,203.5C 192.5,203.5 189.5,203.5 186.5,203.5C 186.5,194.833 186.5,186.167 186.5,177.5 Z"/></g>
<g><path style="opacity:1" fill="#fcfcfc" d="M 187.5,178.5 C 189.833,178.5 192.167,178.5 194.5,178.5C 194.5,186.5 194.5,194.5 194.5,202.5C 192.167,202.5 189.833,202.5 187.5,202.5C 187.5,194.5 187.5,186.5 187.5,178.5 Z"/></g>
<g><path style="opacity:1" fill="#7a889d" d="M 153.5,178.5 C 155.607,177.532 157.941,177.198 160.5,177.5C 161.833,186.167 161.833,194.833 160.5,203.5C 160.5,195.167 160.5,186.833 160.5,178.5C 158.167,178.5 155.833,178.5 153.5,178.5 Z"/></g>
<g><path style="opacity:1" fill="#8e9aac" d="M 78.5,177.5 C 80.0739,179.102 80.7406,181.102 80.5,183.5C 78.9261,181.898 78.2594,179.898 78.5,177.5 Z"/></g>
<g><path style="opacity:1" fill="#172e54" d="M 210.5,182.5 C 214.224,181.773 216.891,183.106 218.5,186.5C 215.232,187.487 211.898,187.82 208.5,187.5C 208.392,185.486 209.058,183.82 210.5,182.5 Z"/></g>
<g><path style="opacity:1" fill="#192e54" d="M 241.5,183.5 C 244.365,183.055 246.865,183.722 249,185.5C 250.193,190.152 249.36,194.319 246.5,198C 239.749,197.397 237.249,193.563 239,186.5C 240.045,185.627 240.878,184.627 241.5,183.5 Z"/></g>
<g><path style="opacity:1" fill="#152d53" d="M 118.5,184.5 C 118.5,185.5 118.5,186.5 118.5,187.5C 114.988,188.055 111.988,187.388 109.5,185.5C 112.079,182.112 115.079,181.779 118.5,184.5 Z"/></g>
<g><path style="opacity:1" fill="#828fa2" d="M 80.5,183.5 C 81.9238,185.515 82.5905,187.848 82.5,190.5C 81.0762,188.485 80.4095,186.152 80.5,183.5 Z"/></g>
<g><path style="opacity:1" fill="#8b97a9" d="M 177.5,174.5 C 177.5,175.5 177.5,176.5 177.5,177.5C 179.5,177.5 181.5,177.5 183.5,177.5C 183.5,179.5 183.5,181.5 183.5,183.5C 181.5,183.5 179.5,183.5 177.5,183.5C 177.5,190.167 177.5,196.833 177.5,203.5C 174.5,203.5 171.5,203.5 168.5,203.5C 168.5,196.833 168.5,190.167 168.5,183.5C 169.49,189.645 169.823,195.978 169.5,202.5C 171.833,202.5 174.167,202.5 176.5,202.5C 176.5,195.833 176.5,189.167 176.5,182.5C 178.5,182.5 180.5,182.5 182.5,182.5C 182.5,181.167 182.5,179.833 182.5,178.5C 180.5,178.5 178.5,178.5 176.5,178.5C 176.232,176.901 176.566,175.568 177.5,174.5 Z"/></g>
<g><path style="opacity:1" fill="#8f9bad" d="M 118.5,184.5 C 119.434,185.568 119.768,186.901 119.5,188.5C 115.833,188.5 112.167,188.5 108.5,188.5C 108.263,187.209 108.596,186.209 109.5,185.5C 111.988,187.388 114.988,188.055 118.5,187.5C 118.5,186.5 118.5,185.5 118.5,184.5 Z"/></g>
<g><path style="opacity:1" fill="#acb5c2" d="M 226.5,188.5 C 227.434,189.568 227.768,190.901 227.5,192.5C 221.167,192.5 214.833,192.5 208.5,192.5C 214.31,191.51 220.31,191.177 226.5,191.5C 226.5,190.5 226.5,189.5 226.5,188.5 Z"/></g>
<g><path style="opacity:1" fill="#9fa9b8" d="M 86.5,186.5 C 86.0371,189.482 85.7038,192.482 85.5,195.5C 84.5,195.5 83.5,195.5 82.5,195.5C 82.5,193.833 82.5,192.167 82.5,190.5C 83.2679,191.263 83.7679,192.263 84,193.5C 84.3903,190.896 85.2237,188.562 86.5,186.5 Z"/></g>
<g><path style="opacity:1" fill="#039bdd" d="M 584.5,219.5 C 584.5,223.5 584.5,227.5 584.5,231.5C 563.062,231.034 543.062,236.2 524.5,247C 503.489,261.18 483.822,277.013 465.5,294.5C 464.609,295.11 463.609,295.443 462.5,295.5C 457.637,295.819 452.97,295.486 448.5,294.5C 467.774,281.077 485.774,265.91 502.5,249C 526.407,229.89 553.74,220.057 584.5,219.5 Z"/></g>
<g><path style="opacity:1" fill="#094679" d="M 221.5,225.5 C 204.024,226.981 186.357,227.648 168.5,227.5C 156.995,227.5 145.662,227.167 134.5,226.5C 163.506,226.564 192.506,226.231 221.5,225.5 Z"/></g>
<g><path style="opacity:1" fill="#0379cf" d="M 67.5,250.5 C 53.0057,251.48 38.6724,253.48 24.5,256.5C 23.1667,256.5 21.8333,256.5 20.5,256.5C 20.5,253.833 20.5,251.167 20.5,248.5C 47.8045,246.028 75.1379,245.861 102.5,248C 92.1667,248.333 81.8333,248.667 71.5,249C 69.9419,249.21 68.6085,249.71 67.5,250.5 Z"/></g>
<g><path style="opacity:1" fill="#32c8ee" d="M 582.5,367.5 C 534.043,384.478 484.043,392.811 432.5,392.5C 382.816,392.82 333.15,392.153 283.5,390.5C 241.343,387.658 199.01,387.158 156.5,389C 151.357,389.838 146.357,390.672 141.5,391.5C 100.732,395.24 62.0655,405.907 25.5,423.5C 23.8828,424.038 22.2161,424.371 20.5,424.5C 19.5245,395.865 19.1912,367.198 19.5,338.5C 20.791,338.737 21.791,338.404 22.5,337.5C 42.2661,330.78 62.5994,326.947 83.5,326C 117.283,323.996 150.783,326.163 184,332.5C 185.07,332.472 185.903,332.139 186.5,331.5C 233.145,344.874 280.478,347.874 328.5,340.5C 376.801,336.289 421.467,321.289 462.5,295.5C 463.609,295.443 464.609,295.11 465.5,294.5C 499.285,293.221 531.285,285.054 561.5,270C 569.38,264.888 576.713,259.055 583.5,252.5C 583.833,271.5 584.167,290.5 584.5,309.5C 584.488,329.051 583.821,348.384 582.5,367.5 Z"/></g>
<g><path style="opacity:1" fill="#1cade4" d="M 448.5,294.5 C 452.97,295.486 457.637,295.819 462.5,295.5C 421.467,321.289 376.801,336.289 328.5,340.5C 371.71,333.213 411.71,317.88 448.5,294.5 Z"/></g>
<g><path style="opacity:1" fill="#1daee4" d="M 186.5,331.5 C 185.903,332.139 185.07,332.472 184,332.5C 150.783,326.163 117.283,323.996 83.5,326C 62.5994,326.947 42.2661,330.78 22.5,337.5C 20.1565,334.927 19.8232,331.927 21.5,328.5C 44.6871,320.973 68.5204,317.306 93,317.5C 124.695,318.74 155.861,323.406 186.5,331.5 Z"/></g>
<g><path style="opacity:1" fill="#048cd9" d="M 583.5,367.5 C 584.83,399.669 584.83,432.003 583.5,464.5C 581.929,463.691 580.262,463.357 578.5,463.5C 570.605,461.943 562.939,459.609 555.5,456.5C 547.47,454.504 539.47,452.837 531.5,451.5C 522.641,448.236 513.308,446.236 503.5,445.5C 483.211,442.801 462.877,440.468 442.5,438.5C 428.031,436.988 413.364,436.321 398.5,436.5C 388.328,436.5 378.328,436.834 368.5,437.5C 359.983,437.732 351.65,438.399 343.5,439.5C 332.927,439.541 322.593,440.541 312.5,442.5C 302.683,443.72 293.016,445.053 283.5,446.5C 276.84,446.306 270.507,447.306 264.5,449.5C 262.708,449.366 261.042,449.699 259.5,450.5C 258.5,450.5 257.5,450.5 256.5,450.5C 278.982,443.614 301.315,435.781 323.5,427C 338.958,419.105 353.958,410.438 368.5,401C 393.295,402.212 418.129,403.045 443,403.5C 484.456,404.371 525.289,399.871 565.5,390C 571.497,387.724 577.497,385.557 583.5,383.5C 583.5,378.167 583.5,372.833 583.5,367.5 Z"/></g>
<g><path style="opacity:1" fill="#0faae3" d="M 283.5,390.5 C 261.161,390.244 238.828,390.077 216.5,390C 223.724,390.176 230.724,391.009 237.5,392.5C 216.843,391.713 196.177,391.38 175.5,391.5C 186.679,390.683 198.012,389.85 209.5,389C 203.833,388.833 198.167,388.667 192.5,388.5C 175.45,388.878 158.45,389.878 141.5,391.5C 146.357,390.672 151.357,389.838 156.5,389C 199.01,387.158 241.343,387.658 283.5,390.5 Z"/></g>
<g><path style="opacity:1" fill="#029cdd" d="M 175.5,391.5 C 130.519,393.888 88.5187,406.055 49.5,428C 48.7476,428.671 48.4142,429.504 48.5,430.5C 43.1039,428.643 37.7706,426.476 32.5,424C 30.1902,423.503 27.8568,423.337 25.5,423.5C 62.0655,405.907 100.732,395.24 141.5,391.5C 158.45,389.878 175.45,388.878 192.5,388.5C 198.167,388.667 203.833,388.833 209.5,389C 198.012,389.85 186.679,390.683 175.5,391.5 Z"/></g>
<g><path style="opacity:1" fill="#059dde" d="M 283.5,390.5 C 333.15,392.153 382.816,392.82 432.5,392.5C 414.004,393.332 395.338,393.832 376.5,394C 370.954,396.604 365.621,399.437 360.5,402.5C 361.953,401.175 361.619,400.342 359.5,400C 318.833,397.433 278.167,394.933 237.5,392.5C 230.724,391.009 223.724,390.176 216.5,390C 238.828,390.077 261.161,390.244 283.5,390.5 Z"/></g>
<g><path style="opacity:1" fill="#00b4e7" d="M 175.5,391.5 C 196.177,391.38 216.843,391.713 237.5,392.5C 278.167,394.933 318.833,397.433 359.5,400C 361.619,400.342 361.953,401.175 360.5,402.5C 323.252,420.32 284.585,434.487 244.5,445C 195.124,454.955 145.79,454.955 96.5,445C 80.2367,440.443 64.2367,435.609 48.5,430.5C 48.4142,429.504 48.7476,428.671 49.5,428C 88.5187,406.055 130.519,393.888 175.5,391.5 Z"/></g>
<g><path style="opacity:1" fill="#017ad0" d="M 582.5,367.5 C 582.833,367.5 583.167,367.5 583.5,367.5C 583.5,372.833 583.5,378.167 583.5,383.5C 577.497,385.557 571.497,387.724 565.5,390C 525.289,399.871 484.456,404.371 443,403.5C 418.129,403.045 393.295,402.212 368.5,401C 353.958,410.438 338.958,419.105 323.5,427C 301.315,435.781 278.982,443.614 256.5,450.5C 250.145,451.371 243.812,452.371 237.5,453.5C 187.094,460.633 137.094,458.466 87.5,447C 73.2806,441.371 58.7806,436.538 44,432.5C 35.833,436.655 28.1663,441.655 21,447.5C 20.5004,440.508 20.3337,433.508 20.5,426.5C 22.5652,426.047 24.2318,425.047 25.5,423.5C 27.8568,423.337 30.1902,423.503 32.5,424C 37.7706,426.476 43.1039,428.643 48.5,430.5C 64.2367,435.609 80.2367,440.443 96.5,445C 145.79,454.955 195.124,454.955 244.5,445C 284.585,434.487 323.252,420.32 360.5,402.5C 365.621,399.437 370.954,396.604 376.5,394C 395.338,393.832 414.004,393.332 432.5,392.5C 484.043,392.811 534.043,384.478 582.5,367.5 Z"/></g>
<g><path style="opacity:1" fill="#058cd9" d="M 20.5,426.5 C 20.3337,433.508 20.5004,440.508 21,447.5C 28.1663,441.655 35.833,436.655 44,432.5C 58.7806,436.538 73.2806,441.371 87.5,447C 137.094,458.466 187.094,460.633 237.5,453.5C 237.5,453.833 237.5,454.167 237.5,454.5C 235.901,454.232 234.568,454.566 233.5,455.5C 227.702,455.454 222.369,456.787 217.5,459.5C 208.46,461.344 199.46,463.344 190.5,465.5C 187.848,465.41 185.515,466.076 183.5,467.5C 177.113,468.678 170.78,470.178 164.5,472C 149.845,476.941 135.178,481.774 120.5,486.5C 117.654,486.552 115.32,487.552 113.5,489.5C 101.904,492.643 90.5708,496.476 79.5,501C 60.0373,509.199 40.7039,517.699 21.5,526.5C 20.7399,496.998 20.0732,467.331 19.5,437.5C 19.5013,433.651 19.8346,429.984 20.5,426.5 Z"/></g>
<g><path style="opacity:1" fill="#63b7e7" d="M 368.5,437.5 C 378.328,436.834 388.328,436.5 398.5,436.5C 413.364,436.321 428.031,436.988 442.5,438.5C 435.833,438.5 429.167,438.5 422.5,438.5C 404.674,437.503 386.674,437.17 368.5,437.5 Z"/></g>
<g><path style="opacity:1" fill="#c7e5f6" d="M 368.5,437.5 C 386.674,437.17 404.674,437.503 422.5,438.5C 396.159,438.378 369.826,438.711 343.5,439.5C 351.65,438.399 359.983,437.732 368.5,437.5 Z"/></g>
<g><path style="opacity:1" fill="#fdfdfe" d="M 422.5,438.5 C 429.167,438.5 435.833,438.5 442.5,438.5C 462.877,440.468 483.211,442.801 503.5,445.5C 512.652,447.768 521.986,449.768 531.5,451.5C 539.47,452.837 547.47,454.504 555.5,456.5C 562.939,459.609 570.605,461.943 578.5,463.5C 579.93,464.537 581.597,465.204 583.5,465.5C 583.801,494.858 583.468,524.192 582.5,553.5C 578.091,568.741 568.091,577.908 552.5,581C 384.833,581.667 217.167,581.667 49.5,581C 28.5126,574.813 18.5126,560.646 19.5,538.5C 19.5722,534.244 20.2389,530.244 21.5,526.5C 40.7039,517.699 60.0373,509.199 79.5,501C 90.5708,496.476 101.904,492.643 113.5,489.5C 116.157,489.065 118.491,488.065 120.5,486.5C 135.178,481.774 149.845,476.941 164.5,472C 170.78,470.178 177.113,468.678 183.5,467.5C 186.152,467.59 188.485,466.924 190.5,465.5C 199.46,463.344 208.46,461.344 217.5,459.5C 223.014,458.455 228.347,457.122 233.5,455.5C 234.568,454.566 235.901,454.232 237.5,454.5C 245.073,453.795 252.407,452.462 259.5,450.5C 261.042,449.699 262.708,449.366 264.5,449.5C 271.027,448.897 277.361,447.897 283.5,446.5C 293.016,445.053 302.683,443.72 312.5,442.5C 323.041,442.154 333.374,441.154 343.5,439.5C 369.826,438.711 396.159,438.378 422.5,438.5 Z"/></g>
<g><path style="opacity:1" fill="#a2d3f0" d="M 343.5,439.5 C 333.374,441.154 323.041,442.154 312.5,442.5C 322.593,440.541 332.927,439.541 343.5,439.5 Z"/></g>
<g><path style="opacity:1" fill="#89c7ec" d="M 283.5,446.5 C 277.361,447.897 271.027,448.897 264.5,449.5C 270.507,447.306 276.84,446.306 283.5,446.5 Z"/></g>
<g><path style="opacity:1" fill="#88c6ec" d="M 503.5,445.5 C 513.308,446.236 522.641,448.236 531.5,451.5C 521.986,449.768 512.652,447.768 503.5,445.5 Z"/></g>
<g><path style="opacity:1" fill="#97cdee" d="M 256.5,450.5 C 257.5,450.5 258.5,450.5 259.5,450.5C 252.407,452.462 245.073,453.795 237.5,454.5C 237.5,454.167 237.5,453.833 237.5,453.5C 243.812,452.371 250.145,451.371 256.5,450.5 Z"/></g>
<g><path style="opacity:1" fill="#b0d9f2" d="M 233.5,455.5 C 228.347,457.122 223.014,458.455 217.5,459.5C 222.369,456.787 227.702,455.454 233.5,455.5 Z"/></g>
<g><path style="opacity:1" fill="#8ddef4" d="M 583.5,465.5 C 584.664,493.997 584.83,522.664 584,551.5C 583.722,552.416 583.222,553.082 582.5,553.5C 583.468,524.192 583.801,494.858 583.5,465.5 Z"/></g>
<g><path style="opacity:1" fill="#95cdee" d="M 190.5,465.5 C 188.485,466.924 186.152,467.59 183.5,467.5C 185.515,466.076 187.848,465.41 190.5,465.5 Z"/></g>
<g><path style="opacity:1" fill="#8dc8ed" d="M 120.5,486.5 C 118.491,488.065 116.157,489.065 113.5,489.5C 115.32,487.552 117.654,486.552 120.5,486.5 Z"/></g>
<g><path style="opacity:1" fill="#b1b9c5" d="M 397.5,500.5 C 401.981,499.352 406.648,499.185 411.5,500C 412.416,500.278 413.082,500.778 413.5,501.5C 408.537,500.746 403.537,500.413 398.5,500.5C 398.167,500.5 397.833,500.5 397.5,500.5 Z"/></g>
<g><path style="opacity:1" fill="#2a3f61" d="M 228.5,500.5 C 228.334,510.172 228.5,519.839 229,529.5C 229.171,521.323 229.671,513.323 230.5,505.5C 230.5,513.833 230.5,522.167 230.5,530.5C 229.5,530.5 228.5,530.5 227.5,530.5C 227.173,520.319 227.506,510.319 228.5,500.5 Z"/></g>
<g><path style="opacity:1" fill="#50627e" d="M 249.5,500.5 C 250.494,510.319 250.827,520.319 250.5,530.5C 248.219,530.923 246.552,530.256 245.5,528.5C 246.708,529.234 248.041,529.567 249.5,529.5C 249.5,519.833 249.5,510.167 249.5,500.5 Z"/></g>
<g><path style="opacity:1" fill="#354a69" d="M 397.5,500.5 C 397.833,500.5 398.167,500.5 398.5,500.5C 398.5,510.167 398.5,519.833 398.5,529.5C 402.167,529.5 405.833,529.5 409.5,529.5C 405.702,530.483 401.702,530.817 397.5,530.5C 397.5,520.5 397.5,510.5 397.5,500.5 Z"/></g>
<g><path style="opacity:1" fill="#8b97a9" d="M 450.5,502.5 C 450.5,504.833 450.5,507.167 450.5,509.5C 446.995,509.694 446.662,510.694 449.5,512.5C 448.5,512.5 447.5,512.5 446.5,512.5C 446.5,511.167 446.5,509.833 446.5,508.5C 447.5,508.5 448.5,508.5 449.5,508.5C 449.205,506.265 449.539,504.265 450.5,502.5 Z"/></g>
<g><path style="opacity:1" fill="#8894a7" d="M 289.5,509.5 C 287.833,509.5 286.167,509.5 284.5,509.5C 283.833,502.833 283.167,502.833 282.5,509.5C 278.995,509.694 278.662,510.694 281.5,512.5C 280.5,512.5 279.5,512.5 278.5,512.5C 278.5,511.167 278.5,509.833 278.5,508.5C 279.5,508.5 280.5,508.5 281.5,508.5C 281.5,506.833 281.5,505.167 281.5,503.5C 282.833,503.5 284.167,503.5 285.5,503.5C 285.5,505.167 285.5,506.833 285.5,508.5C 287.099,508.232 288.432,508.566 289.5,509.5 Z"/></g>
<g><path style="opacity:1" fill="#96a0b1" d="M 336.5,508.5 C 333.579,508.283 330.913,508.949 328.5,510.5C 328.577,509.25 329.244,508.417 330.5,508C 332.712,507.211 334.712,507.378 336.5,508.5 Z"/></g>
<g><path style="opacity:1" fill="#162b54" d="M 453.5,512.5 C 452.833,518.014 452.167,523.681 451.5,529.5C 450.833,523.681 450.167,518.014 449.5,512.5C 446.662,510.694 446.995,509.694 450.5,509.5C 450.5,507.167 450.5,504.833 450.5,502.5C 452.391,499.828 455.058,498.828 458.5,499.5C 458.5,500.5 458.5,501.5 458.5,502.5C 456.833,502.5 455.167,502.5 453.5,502.5C 453.5,504.833 453.5,507.167 453.5,509.5C 455.167,509.5 456.833,509.5 458.5,509.5C 458.5,510.5 458.5,511.5 458.5,512.5C 456.833,512.5 455.167,512.5 453.5,512.5 Z"/></g>
<g><path style="opacity:1" fill="#1b2e57" d="M 336.5,508.5 C 338.754,509.415 340.754,510.748 342.5,512.5C 343.344,516.099 343.677,519.766 343.5,523.5C 341.213,530.383 336.546,532.716 329.5,530.5C 324.819,526.142 323.319,520.809 325,514.5C 325.66,512.676 326.827,511.343 328.5,510.5C 330.913,508.949 333.579,508.283 336.5,508.5 Z"/></g>
<g><path style="opacity:1" fill="#21335a" d="M 312.5,523.5 C 314.314,527.643 315.314,527.31 315.5,522.5C 315.366,520.708 315.699,519.042 316.5,517.5C 318.074,515.898 318.741,513.898 318.5,511.5C 318.948,509.535 319.948,509.202 321.5,510.5C 320.691,512.071 320.357,513.738 320.5,515.5C 318.589,519.233 317.256,523.233 316.5,527.5C 314.833,530.167 313.167,530.167 311.5,527.5C 310.142,522.741 308.475,518.074 306.5,513.5C 304.057,518.938 302.39,524.605 301.5,530.5C 299.856,530.714 298.356,530.38 297,529.5C 295.876,522.96 294.042,516.627 291.5,510.5C 292.651,509.269 293.817,509.269 295,510.5C 296.178,515.543 297.511,520.543 299,525.5C 301.051,520.681 302.718,515.681 304,510.5C 306.022,509.009 307.688,509.342 309,511.5C 310.477,515.43 311.644,519.43 312.5,523.5 Z"/></g>
<g><path style="opacity:1" fill="#f4f5f7" d="M 338.5,512.5 C 340.178,515.552 340.845,518.885 340.5,522.5C 339.375,528.092 336.042,529.926 330.5,528C 327.71,523.936 326.877,519.436 328,514.5C 330.994,511.38 334.494,510.714 338.5,512.5 Z"/></g>
<g><path style="opacity:1" fill="#172e55" d="M 353.5,514.5 C 352.834,519.349 352.167,524.349 351.5,529.5C 350.503,522.866 350.17,516.2 350.5,509.5C 354.154,509.058 357.821,508.724 361.5,508.5C 361.5,509.5 361.5,510.5 361.5,511.5C 358.058,510.828 355.391,511.828 353.5,514.5 Z"/></g>
<g><path style="opacity:1" fill="#738197" d="M 449.5,512.5 C 450.167,518.014 450.833,523.681 451.5,529.5C 452.167,523.681 452.833,518.014 453.5,512.5C 453.5,518.5 453.5,524.5 453.5,530.5C 452.167,530.5 450.833,530.5 449.5,530.5C 449.5,524.5 449.5,518.5 449.5,512.5 Z"/></g>
<g><path style="opacity:1" fill="#a3acbb" d="M 257.5,513.5 C 256.656,517.099 256.323,520.766 256.5,524.5C 255.359,521.36 255.192,518.027 256,514.5C 256.383,513.944 256.883,513.611 257.5,513.5 Z"/></g>
<g><path style="opacity:1" fill="#192e56" d="M 398.5,500.5 C 403.537,500.413 408.537,500.746 413.5,501.5C 420.269,505.98 422.436,512.313 420,520.5C 418.147,525.527 414.647,528.527 409.5,529.5C 405.833,529.5 402.167,529.5 398.5,529.5C 398.5,519.833 398.5,510.167 398.5,500.5 Z"/></g>
<g><path style="opacity:1" fill="#bac1cc" d="M 414.5,506.5 C 415.458,506.953 416.292,507.619 417,508.5C 417.814,513.02 417.647,517.354 416.5,521.5C 416.984,516.241 416.317,511.241 414.5,506.5 Z"/></g>
<g><path style="opacity:1" fill="#fbfbfc" d="M 401.5,503.5 C 404.187,503.336 406.854,503.503 409.5,504C 411.653,504.099 413.319,504.933 414.5,506.5C 416.317,511.241 416.984,516.241 416.5,521.5C 415.473,524.858 413.14,526.525 409.5,526.5C 406.833,526.5 404.167,526.5 401.5,526.5C 401.5,518.833 401.5,511.167 401.5,503.5 Z"/></g>
<g><path style="opacity:1" fill="#bcc3ce" d="M 401.5,503.5 C 401.5,511.167 401.5,518.833 401.5,526.5C 404.167,526.5 406.833,526.5 409.5,526.5C 406.713,527.477 403.713,527.81 400.5,527.5C 400.174,519.316 400.508,511.316 401.5,503.5 Z"/></g>
<g><path style="opacity:1" fill="#102851" d="M 502.5,513.5 C 502.828,518.875 502.495,524.208 501.5,529.5C 500.833,524.015 500.167,518.681 499.5,513.5C 498.508,511.974 497.008,511.307 495,511.5C 492.345,511.124 490.512,512.124 489.5,514.5C 488.834,519.349 488.167,524.349 487.5,529.5C 486.503,522.866 486.17,516.2 486.5,509.5C 488.695,510.608 490.695,510.441 492.5,509C 497.457,507.317 500.79,508.817 502.5,513.5 Z"/></g>
<g><path style="opacity:1" fill="#79879c" d="M 499.5,513.5 C 500.167,518.681 500.833,524.015 501.5,529.5C 502.495,524.208 502.828,518.875 502.5,513.5C 503.489,518.975 503.822,524.642 503.5,530.5C 502.167,530.5 500.833,530.5 499.5,530.5C 499.5,524.833 499.5,519.167 499.5,513.5 Z"/></g>
<g><path style="opacity:1" fill="#192c55" d="M 228.5,500.5 C 230.39,500.297 231.89,500.963 233,502.5C 237.931,510.033 242.598,517.699 247,525.5C 246.859,516.773 247.692,508.44 249.5,500.5C 249.5,510.167 249.5,519.833 249.5,529.5C 248.041,529.567 246.708,529.234 245.5,528.5C 240.522,520.666 235.689,512.666 231,504.5C 230.601,504.728 230.435,505.062 230.5,505.5C 229.671,513.323 229.171,521.323 229,529.5C 228.5,519.839 228.334,510.172 228.5,500.5 Z"/></g>
<g><path style="opacity:1" fill="#76849a" d="M 318.5,511.5 C 318.741,513.898 318.074,515.898 316.5,517.5C 316.259,515.102 316.926,513.102 318.5,511.5 Z"/></g>
<g><path style="opacity:1" fill="#8b96a9" d="M 338.5,512.5 C 339.458,512.953 340.292,513.619 341,514.5C 341.801,517.367 341.634,520.034 340.5,522.5C 340.845,518.885 340.178,515.552 338.5,512.5 Z"/></g>
<g><path style="opacity:1" fill="#22335b" d="M 439.5,526.5 C 442.457,524.975 443.124,525.642 441.5,528.5C 440.078,528.75 439.078,529.583 438.5,531C 435.438,531.741 432.438,531.575 429.5,530.5C 424.712,526.227 423.212,520.893 425,514.5C 428.213,508.355 433.046,506.855 439.5,510C 442.966,513.04 444.3,516.874 443.5,521.5C 438.167,521.5 432.833,521.5 427.5,521.5C 429.045,528.737 433.045,530.403 439.5,526.5 Z"/></g>
<g><path style="opacity:1" fill="#e5e8ec" d="M 429.5,511.5 C 432.941,511.301 436.274,511.801 439.5,513C 440.406,514.699 440.739,516.533 440.5,518.5C 436.167,518.5 431.833,518.5 427.5,518.5C 427.394,515.921 428.061,513.588 429.5,511.5 Z"/></g>
<g><path style="opacity:1" fill="#1b2c56" d="M 271.5,526.5 C 272.652,525.375 273.652,525.375 274.5,526.5C 272.833,527.5 271.5,528.833 270.5,530.5C 267.887,531.435 265.221,531.602 262.5,531C 260.294,528.963 258.294,526.797 256.5,524.5C 256.323,520.766 256.656,517.099 257.5,513.5C 262.419,507.198 267.919,506.864 274,512.5C 275.149,515.393 275.649,518.393 275.5,521.5C 270.167,521.5 264.833,521.5 259.5,521.5C 259.536,526.203 261.87,528.536 266.5,528.5C 268.455,528.276 270.121,527.609 271.5,526.5 Z"/></g>
<g><path style="opacity:1" fill="#eaecef" d="M 268.5,511.5 C 271.987,512.388 273.32,514.721 272.5,518.5C 268.167,518.5 263.833,518.5 259.5,518.5C 259.253,516.142 259.919,514.142 261.5,512.5C 263.764,511.781 266.097,511.448 268.5,511.5 Z"/></g>
<g><path style="opacity:1" fill="#596984" d="M 268.5,511.5 C 266.097,511.448 263.764,511.781 261.5,512.5C 262.312,511.007 263.645,510.34 265.5,510.5C 266.726,510.52 267.726,510.853 268.5,511.5 Z"/></g>
<g><path style="opacity:1" fill="#adb6c3" d="M 320.5,515.5 C 320.139,519.915 318.806,523.915 316.5,527.5C 317.256,523.233 318.589,519.233 320.5,515.5 Z"/></g>
<g><path style="opacity:1" fill="#7f8da1" d="M 486.5,509.5 C 486.17,516.2 486.503,522.866 487.5,529.5C 488.167,524.349 488.834,519.349 489.5,514.5C 489.5,519.833 489.5,525.167 489.5,530.5C 488.167,530.5 486.833,530.5 485.5,530.5C 485.175,523.313 485.509,516.313 486.5,509.5 Z"/></g>
<g><path style="opacity:1" fill="#79879c" d="M 342.5,512.5 C 343.117,512.611 343.617,512.944 344,513.5C 344.808,517.027 344.641,520.36 343.5,523.5C 343.677,519.766 343.344,516.099 342.5,512.5 Z"/></g>
<g><path style="opacity:1" fill="#7b899d" d="M 350.5,509.5 C 350.17,516.2 350.503,522.866 351.5,529.5C 352.167,524.349 352.834,519.349 353.5,514.5C 353.5,519.833 353.5,525.167 353.5,530.5C 352.167,530.5 350.833,530.5 349.5,530.5C 349.175,523.313 349.509,516.313 350.5,509.5 Z"/></g>
<g><path style="opacity:1" fill="#202f58" d="M 466.5,508.5 C 476.411,507.416 481.078,511.749 480.5,521.5C 475.167,521.5 469.833,521.5 464.5,521.5C 465.027,527.849 468.361,530.016 474.5,528C 475.916,525.735 477.916,524.569 480.5,524.5C 477.479,531.686 472.479,533.352 465.5,529.5C 459.957,522.193 460.29,515.193 466.5,508.5 Z"/></g>
<g><path style="opacity:1" fill="#eaecef" d="M 467.5,511.5 C 470.607,511.351 473.607,511.851 476.5,513C 477.406,514.699 477.739,516.533 477.5,518.5C 473.167,518.5 468.833,518.5 464.5,518.5C 464.15,515.547 465.15,513.213 467.5,511.5 Z"/></g>
<g><path style="opacity:1" fill="#202f58" d="M 533.5,508.5 C 543.411,507.416 548.078,511.749 547.5,521.5C 542.167,521.5 536.833,521.5 531.5,521.5C 532.027,527.849 535.361,530.016 541.5,528C 542.916,525.735 544.916,524.569 547.5,524.5C 544.479,531.686 539.479,533.352 532.5,529.5C 526.957,522.193 527.29,515.193 533.5,508.5 Z"/></g>
<g><path style="opacity:1" fill="#eaecef" d="M 534.5,511.5 C 537.607,511.351 540.607,511.851 543.5,513C 544.406,514.699 544.739,516.533 544.5,518.5C 540.167,518.5 535.833,518.5 531.5,518.5C 531.15,515.547 532.15,513.213 534.5,511.5 Z"/></g>
<g><path style="opacity:1" fill="#1a2955" d="M 364.5,500.5 C 365.5,500.5 366.5,500.5 367.5,500.5C 367.334,506.176 367.501,511.843 368,517.5C 370.833,515.333 373.333,512.833 375.5,510C 376.833,509.333 378.167,509.333 379.5,510C 376.458,512.842 373.458,515.676 370.5,518.5C 373.833,522.5 377.5,526.167 381.5,529.5C 380.635,530.583 379.635,530.749 378.5,530C 375.318,526.651 371.985,523.484 368.5,520.5C 367.513,523.768 367.18,527.102 367.5,530.5C 366.5,530.5 365.5,530.5 364.5,530.5C 364.5,520.5 364.5,510.5 364.5,500.5 Z"/></g>
<g><path style="opacity:1" fill="#7b889d" d="M 274.5,526.5 C 273.652,525.375 272.652,525.375 271.5,526.5C 271.62,525.414 272.287,524.747 273.5,524.5C 275.418,524.861 275.751,525.528 274.5,526.5 Z"/></g>
<g><path style="opacity:1" fill="#5d6e88" d="M 315.5,522.5 C 315.314,527.31 314.314,527.643 312.5,523.5C 313.117,523.611 313.617,523.944 314,524.5C 314.278,523.584 314.778,522.918 315.5,522.5 Z"/></g>
<g><path style="opacity:1" fill="#a2abba" d="M 441.5,528.5 C 443.124,525.642 442.457,524.975 439.5,526.5C 440.183,524.824 441.517,524.157 443.5,524.5C 443.843,526.483 443.176,527.817 441.5,528.5 Z"/></g>
<g><path style="opacity:1" fill="#21335b" d="M 512.5,508.5 C 517.039,507.957 520.873,509.29 524,512.5C 524.432,513.6 523.932,514.267 522.5,514.5C 519.29,511.778 515.624,510.944 511.5,512C 510.167,513.667 510.167,515.333 511.5,517C 514.833,518 518.167,519 521.5,520C 526.272,526.817 524.272,530.65 515.5,531.5C 511.406,531.406 508.739,529.406 507.5,525.5C 508.325,524.614 509.325,524.281 510.5,524.5C 510.237,527.734 511.737,529.068 515,528.5C 520.271,528.847 522.104,526.68 520.5,522C 517.899,521.08 515.232,520.413 512.5,520C 508.875,517.794 507.708,514.627 509,510.5C 510.302,509.915 511.469,509.249 512.5,508.5 Z"/></g>
<g><path style="opacity:1" fill="#7d899e" d="M 274.5,526.5 C 274.167,528.833 272.833,530.167 270.5,530.5C 271.5,528.833 272.833,527.5 274.5,526.5 Z"/></g>
<g><path style="opacity:1" fill="#25375d" d="M 289.5,509.5 C 289.5,510.5 289.5,511.5 289.5,512.5C 287.833,512.5 286.167,512.5 284.5,512.5C 284.334,517.511 284.501,522.511 285,527.5C 286.356,528.38 287.856,528.714 289.5,528.5C 289.5,529.5 289.5,530.5 289.5,531.5C 285.818,532.275 283.318,530.941 282,527.5C 281.501,522.511 281.334,517.511 281.5,512.5C 278.662,510.694 278.995,509.694 282.5,509.5C 283.167,502.833 283.833,502.833 284.5,509.5C 286.167,509.5 287.833,509.5 289.5,509.5 Z"/></g>
<g><path style="opacity:1" fill="#607189" d="M 311.5,527.5 C 313.167,530.167 314.833,530.167 316.5,527.5C 316.5,528.5 316.5,529.5 316.5,530.5C 314.833,530.5 313.167,530.5 311.5,530.5C 311.5,529.5 311.5,528.5 311.5,527.5 Z"/></g>
<g><path style="opacity:0.004" fill="#00b5e8" d="M -0.5,568.5 C 0.833333,569.167 0.833333,569.833 -0.5,570.5C -0.5,569.833 -0.5,569.167 -0.5,568.5 Z"/></g>
<g><path style="opacity:0.004" fill="#00b5e8" d="M 599.5,568.5 C 599.5,569.167 599.5,569.833 599.5,570.5C 598.167,569.833 598.167,569.167 599.5,568.5 Z"/></g>
<g><path style="opacity:0.004" fill="#00b5e8" d="M 1.5,573.5 C 0.474981,573.103 0.308314,572.437 1,571.5C 1.46434,572.094 1.63101,572.761 1.5,573.5 Z"/></g>
<g><path style="opacity:0.004" fill="#00b5e8" d="M 597.5,573.5 C 597.369,572.761 597.536,572.094 598,571.5C 598.692,572.437 598.525,573.103 597.5,573.5 Z"/></g>
<g><path style="opacity:0.004" fill="#00b5e8" d="M 1.5,573.5 C 2.33825,573.842 2.67158,574.508 2.5,575.5C 1.66175,575.158 1.32842,574.492 1.5,573.5 Z"/></g>
<g><path style="opacity:0.004" fill="#00b5e8" d="M 597.5,573.5 C 597.672,574.492 597.338,575.158 596.5,575.5C 596.328,574.508 596.662,573.842 597.5,573.5 Z"/></g>
<g><path style="opacity:0.004" fill="#00b5e8" d="M 2.5,575.5 C 3.33825,575.842 3.67158,576.508 3.5,577.5C 2.66175,577.158 2.32842,576.492 2.5,575.5 Z"/></g>
<g><path style="opacity:0.004" fill="#00b5e8" d="M 596.5,575.5 C 596.672,576.492 596.338,577.158 595.5,577.5C 595.328,576.508 595.662,575.842 596.5,575.5 Z"/></g>
<g><path style="opacity:0.004" fill="#00b5e8" d="M 3.5,577.5 C 4.83333,578.167 4.83333,578.167 3.5,577.5 Z"/></g>
<g><path style="opacity:0.004" fill="#00b5e8" d="M 595.5,577.5 C 594.833,578.167 594.833,578.167 595.5,577.5 Z"/></g>
<g><path style="opacity:0.004" fill="#00b5e8" d="M 7.5,581.5 C 8.16667,581.5 8.5,581.833 8.5,582.5C 8.2533,584.975 7.58664,584.975 6.5,582.5C 6.62358,581.893 6.95691,581.56 7.5,581.5 Z"/></g>
<g><path style="opacity:0.004" fill="#00b5e8" d="M 591.5,581.5 C 592.713,582.497 592.546,583.497 591,584.5C 590.536,583.906 590.369,583.239 590.5,582.5C 591.167,582.5 591.5,582.167 591.5,581.5 Z"/></g>
<g><path style="opacity:0.004" fill="#00b5e8" d="M 20.5,594.5 C 19.8333,593.167 19.8333,593.167 20.5,594.5 Z"/></g>
<g><path style="opacity:0.004" fill="#00b5e8" d="M 578.5,593.5 C 579.833,594.167 579.833,594.167 578.5,593.5 Z"/></g>
<g><path style="opacity:0.004" fill="#00b5e8" d="M 20.5,594.5 C 21.4916,594.328 22.1583,594.662 22.5,595.5C 21.5084,595.672 20.8417,595.338 20.5,594.5 Z"/></g>
<g><path style="opacity:0.004" fill="#00b5e8" d="M 576.5,595.5 C 576.842,594.662 577.508,594.328 578.5,594.5C 578.158,595.338 577.492,595.672 576.5,595.5 Z"/></g>
<g><path style="opacity:0.004" fill="#00b5e8" d="M 22.5,595.5 C 23.4916,595.328 24.1583,595.662 24.5,596.5C 23.5084,596.672 22.8417,596.338 22.5,595.5 Z"/></g>
<g><path style="opacity:0.004" fill="#00b5e8" d="M 574.5,596.5 C 574.842,595.662 575.508,595.328 576.5,595.5C 576.158,596.338 575.492,596.672 574.5,596.5 Z"/></g>
<g><path style="opacity:0.004" fill="#00b5e8" d="M 24.5,596.5 C 25.2389,596.369 25.9056,596.536 26.5,597C 25.5632,597.692 24.8966,597.525 24.5,596.5 Z"/></g>
<g><path style="opacity:0.004" fill="#00b5e8" d="M 574.5,596.5 C 574.103,597.525 573.437,597.692 572.5,597C 573.094,596.536 573.761,596.369 574.5,596.5 Z"/></g>
<g><path style="opacity:0.004" fill="#00b5e8" d="M 29.5,598.5 C 28.7611,598.631 28.0944,598.464 27.5,598C 28.4368,597.308 29.1034,597.475 29.5,598.5 Z"/></g>
<g><path style="opacity:0.004" fill="#00b5e8" d="M 569.5,598.5 C 569.897,597.475 570.563,597.308 571.5,598C 570.906,598.464 570.239,598.631 569.5,598.5 Z"/></g>
<g><path style="opacity:0.004" fill="#00b5e8" d="M 29.5,599.5 C 29.5,599.167 29.5,598.833 29.5,598.5C 30.4916,598.328 31.1583,598.662 31.5,599.5C 30.8333,599.5 30.1667,599.5 29.5,599.5 Z"/></g>
<g><path style="opacity:0.004" fill="#00b5e8" d="M 567.5,599.5 C 567.842,598.662 568.508,598.328 569.5,598.5C 569.5,598.833 569.5,599.167 569.5,599.5C 568.833,599.5 568.167,599.5 567.5,599.5 Z"/></g>
</svg>
