<?xml version="1.0" standalone="no"?>
<!DOCTYPE svg PUBLIC "-//W3C//DTD SVG 20010904//EN"
 "http://www.w3.org/TR/2001/REC-SVG-20010904/DTD/svg10.dtd">
<svg version="1.0" xmlns="http://www.w3.org/2000/svg"
 width="1920.000000pt" height="1920.000000pt" viewBox="0 0 1920.000000 1920.000000"
 preserveAspectRatio="xMidYMid meet">

<g transform="translate(0.000000,1920.000000) scale(0.100000,-0.100000)"
fill="#000000" stroke="none">
<path d="M14816 18199 c-2 -13 -10 -52 -17 -87 -12 -63 -29 -93 -29 -51 0 18
-3 20 -12 11 -9 -9 -14 -131 -19 -455 -4 -243 -10 -542 -12 -664 -3 -123 -1
-223 3 -223 4 0 16 19 26 43 15 35 18 38 22 20 2 -13 7 -23 11 -23 8 0 14 12
42 90 17 48 26 525 17 955 -4 187 -9 353 -11 368 -6 37 -15 44 -21 16z"/>
<path d="M8449 17984 c-9 -11 -166 -236 -348 -501 l-333 -482 2 -213 c0 -116
2 -213 3 -214 1 -1 49 26 107 60 360 216 606 359 615 359 5 0 162 -98 347
-217 186 -119 342 -216 347 -216 5 0 79 95 166 210 87 116 161 210 165 210 4
0 80 -78 170 -172 202 -214 225 -237 214 -218 -10 18 -923 1392 -928 1397 -2
2 -118 7 -257 10 -239 5 -255 4 -270 -13z"/>
<path d="M10851 16928 c-14 -36 -22 -134 -23 -258 0 -102 11 -188 48 -385 2
-11 6 -31 9 -45 2 -14 6 -34 7 -45 2 -11 7 -23 11 -26 4 -3 9 -22 10 -42 1
-21 5 -37 9 -37 3 0 5 -8 3 -17 -1 -10 0 -22 4 -28 3 -5 6 -12 7 -15 0 -3 3
-12 7 -20 12 -31 24 -86 21 -103 -1 -9 2 -15 7 -11 5 3 10 -2 10 -10 2 -20 3
-25 16 -57 6 -14 13 -39 16 -56 3 -17 10 -40 16 -52 7 -11 9 -21 5 -21 -3 0
-2 -6 4 -12 5 -7 13 -29 18 -48 4 -19 9 -42 11 -50 2 -8 5 -21 5 -27 1 -7 6
-13 11 -13 6 0 8 -3 4 -6 -3 -4 0 -19 9 -35 8 -16 12 -29 9 -29 -3 0 1 -13 9
-29 9 -16 12 -31 9 -35 -4 -3 -1 -6 6 -6 7 0 9 -4 6 -10 -3 -5 0 -10 7 -10 11
0 10 -2 0 -9 -11 -7 -11 -9 2 -14 9 -4 16 -10 15 -14 -1 -4 0 -10 1 -13 1 -3
3 -12 5 -20 13 -51 13 -60 4 -54 -6 3 -8 9 -5 12 3 3 -3 12 -14 19 -11 8 -18
19 -15 24 4 5 1 9 -6 9 -7 0 -4 7 7 15 18 13 18 14 -5 8 -17 -4 -22 -3 -17 5
4 7 1 12 -6 12 -9 0 -9 3 2 10 10 6 11 10 3 10 -7 0 -13 7 -13 15 0 7 -7 18
-16 23 -9 5 -15 12 -15 15 3 24 0 37 -9 32 -6 -4 -7 1 -3 11 4 10 2 15 -4 11
-5 -3 -10 -1 -10 6 -1 20 -39 97 -45 91 -3 -3 -6 1 -5 8 1 32 -4 49 -13 43 -6
-3 -7 1 -4 9 3 9 2 16 -3 16 -5 0 -10 10 -10 22 -1 13 -9 28 -18 34 -12 9 -13
13 -3 17 10 4 10 6 1 6 -7 1 -13 10 -13 21 0 11 -4 20 -10 20 -5 0 -6 7 -3 17
5 12 3 14 -8 8 -11 -7 -11 -5 1 10 12 15 12 17 1 10 -11 -6 -13 -4 -8 9 4 10
-1 24 -13 36 -12 12 -15 20 -7 20 9 0 8 3 -2 9 -7 5 -10 14 -7 20 4 6 0 14 -8
17 -9 3 -13 10 -10 15 3 5 0 9 -6 9 -6 0 -8 5 -5 10 3 6 1 10 -4 10 -6 0 -10
3 -9 8 4 14 -14 52 -24 52 -6 0 -9 3 -5 6 9 10 -32 86 -43 79 -6 -4 -10 -12
-10 -18 0 -7 4 -6 10 3 5 8 10 11 11 5 0 -5 2 -18 4 -28 3 -17 2 -17 -14 -3
-10 9 -21 13 -25 9 -4 -4 -3 5 3 20 6 15 8 28 6 28 -3 1 -11 2 -17 3 -7 1 -12
8 -10 16 3 12 1 12 -9 3 -10 -10 -16 -9 -31 4 -13 12 -21 13 -31 4 -8 -6 -16
-8 -19 -6 -3 3 -3 -6 0 -21 4 -21 2 -25 -9 -19 -11 6 -12 5 -1 -6 6 -7 12 -17
12 -23 0 -5 -9 1 -20 14 -24 28 -26 19 -4 -16 10 -14 13 -24 8 -23 -5 1 -16 1
-24 0 -13 -1 -13 -2 0 -11 13 -8 12 -10 -4 -10 -12 0 -16 -5 -12 -16 3 -9 6
-22 6 -30 0 -9 5 -12 12 -8 7 4 8 3 4 -4 -14 -23 82 -332 168 -542 125 -303
274 -534 490 -759 34 -34 165 -156 291 -270 363 -328 422 -398 460 -546 29
-116 35 -256 35 -871 l0 -620 98 -1 c53 -1 111 0 129 3 l32 5 -4 737 c-2 419
0 728 5 715 27 -66 33 -196 37 -815 l5 -648 38 0 c21 0 42 6 48 13 7 8 10 215
9 645 -1 347 2 632 7 632 4 0 6 7 3 15 -4 8 -1 17 5 21 6 4 8 3 4 -4 -3 -6 -2
-13 3 -17 9 -5 7 32 -4 62 -2 7 1 15 7 19 6 4 8 3 5 -3 -3 -5 0 -21 7 -34 7
-14 12 -32 10 -42 -1 -9 4 -21 12 -28 20 -17 17 -34 -3 -18 -16 13 -17 12 -4
-3 7 -10 17 -15 22 -12 5 3 9 -1 9 -8 0 -11 2 -10 9 0 6 11 9 9 14 -7 7 -28
-3 -34 -27 -14 -12 10 -16 11 -9 4 6 -7 9 -21 6 -30 -4 -14 -3 -14 6 -1 9 12
11 8 7 -18 -2 -19 -2 -31 2 -28 3 4 7 14 8 22 6 39 13 47 32 33 16 -13 16 -12
1 6 -17 20 -20 79 -5 103 4 7 4 11 -1 10 -4 -2 -8 2 -8 7 0 6 4 9 10 7 5 -2 7
0 2 4 -4 4 0 15 8 24 13 14 13 17 1 17 -8 0 -14 -5 -13 -11 1 -6 -6 -10 -16
-8 -9 2 -20 -4 -24 -13 -5 -13 -7 -14 -14 -3 -7 10 -9 10 -9 -2 0 -13 -1 -13
-10 0 -5 8 -10 20 -10 25 0 6 5 3 10 -5 5 -8 10 -12 11 -7 3 13 6 27 9 32 7
14 5 32 -4 45 -9 13 -8 13 5 3 16 -13 29 -8 29 9 0 5 -4 7 -8 4 -5 -3 -9 1 -9
9 0 8 4 12 9 9 4 -3 9 2 9 10 1 9 2 22 3 29 1 6 -2 18 -8 25 -5 7 -5 12 0 10
8 -3 16 6 13 15 -6 20 -5 36 2 31 5 -3 6 -11 2 -17 -5 -8 -2 -8 9 0 8 7 17 11
20 8 2 -3 5 2 5 10 0 10 -4 12 -13 5 -9 -8 -15 -2 -24 22 -7 18 -14 39 -15 46
-2 6 -13 33 -25 58 -12 25 -20 48 -16 51 3 4 7 3 7 0 3 -14 6 -23 24 -62 10
-22 18 -45 18 -52 0 -7 5 -9 10 -6 6 3 7 2 4 -4 -3 -5 1 -10 9 -10 9 0 11 4 5
10 -5 5 -7 17 -4 26 4 13 3 13 -5 2 -7 -10 -12 -6 -21 20 -6 19 -10 37 -8 40
4 12 -36 49 -46 42 -6 -4 -8 0 -4 11 4 10 3 15 -3 11 -9 -6 -14 8 -11 28 1 5
-3 6 -9 2 -6 -4 -5 -16 4 -34 12 -23 12 -28 1 -28 -7 0 -11 7 -7 15 3 10 1 13
-6 8 -8 -5 -10 -1 -5 10 5 12 3 15 -6 9 -10 -6 -11 -3 -2 13 7 14 8 23 1 27
-6 4 -7 11 -4 17 4 7 2 8 -4 4 -7 -4 -12 -2 -12 5 0 8 -5 5 -13 -5 -12 -16
-14 -16 -26 -2 -8 9 -10 16 -6 16 4 0 2 7 -5 15 -7 8 -16 12 -21 9 -5 -3 -9
-2 -8 3 3 20 -2 33 -13 31 -6 -2 -13 6 -15 17 l-3 20 9 -20 c8 -16 10 -16 10
-4 1 9 -6 22 -14 29 -8 7 -12 16 -9 21 3 5 0 8 -8 7 -7 -2 -12 3 -10 10 1 8
-2 11 -8 7 -6 -3 -8 -10 -6 -14 3 -4 -1 -8 -9 -8 -10 0 -11 5 -4 19 7 14 7 18
-3 16 -7 -2 -12 3 -10 10 1 8 -2 11 -8 7 -5 -3 -10 2 -11 12 0 11 -3 13 -6 5
-3 -7 2 -21 12 -32 13 -14 14 -20 3 -26 -7 -4 -10 -3 -5 1 4 5 0 16 -9 26 -9
10 -14 27 -12 37 4 13 -1 18 -19 20 -17 1 -22 -2 -17 -11 5 -8 3 -8 -9 2 -13
10 -14 17 -6 33 7 13 7 18 1 14 -6 -3 -12 -3 -15 1 -2 5 -2 3 -1 -4 2 -7 -1
-15 -7 -18 -5 -4 -9 -3 -8 2 4 25 -2 53 -11 48 -6 -4 -7 -12 -3 -18 4 -7 1 -7
-9 1 -18 14 -13 46 5 35 6 -4 7 -1 3 6 -5 7 -10 10 -13 7 -3 -3 -16 8 -30 25
-14 16 -30 26 -36 22 -7 -4 -8 0 -3 13 5 14 4 16 -5 7 -13 -13 -3 -36 13 -27
7 5 8 2 3 -6 -6 -9 -4 -11 5 -5 9 6 11 4 5 -5 -6 -9 -4 -11 5 -5 9 6 11 4 5
-5 -6 -10 -15 -5 -36 18 -29 32 -47 43 -33 20 5 -9 2 -9 -9 1 -18 14 -23 26
-8 16 5 -3 12 -1 16 5 4 6 11 8 16 5 5 -3 6 1 2 10 -5 13 -7 14 -14 3 -7 -10
-9 -8 -10 7 -1 11 -1 24 0 28 1 5 -3 6 -8 3 -5 -4 -8 -15 -6 -26 2 -12 0 -18
-4 -16 -5 3 -7 16 -7 28 3 28 -41 79 -60 71 -12 -4 -11 -8 3 -18 10 -7 22 -11
27 -8 5 4 6 0 1 -7 -5 -8 -4 -11 1 -7 6 3 11 -6 12 -21 l2 -27 -13 25 c-8 14
-20 24 -28 22 -8 -2 -11 0 -7 3 4 4 -2 15 -12 24 -15 12 -17 19 -9 31 9 12 10
11 4 -5 -5 -16 -4 -17 6 -8 10 10 9 16 -4 31 -9 10 -14 22 -10 26 5 4 1 6 -7
4 -9 -2 -14 3 -12 11 2 11 0 12 -11 3 -8 -7 -18 -8 -22 -4 -5 4 -5 -2 -2 -13
7 -20 7 -20 -8 -1 -8 11 -15 26 -15 33 0 7 -5 13 -11 13 -5 0 -7 -5 -3 -12 5
-7 3 -8 -5 -3 -17 10 1 27 22 20 9 -4 13 -13 10 -23 -5 -14 -3 -15 7 -5 12 11
10 16 -7 32 -11 11 -24 17 -29 13 -4 -4 -4 2 0 13 5 16 2 15 -14 -5 -16 -20
-19 -21 -14 -5 4 11 12 26 17 33 8 10 7 12 -3 10 -8 -2 -14 2 -15 9 0 6 -4 15
-8 20 -5 4 -7 4 -5 -2 1 -5 0 -10 -3 -10 -3 0 -13 -6 -22 -13 -14 -12 -15 -10
-11 13 3 16 1 24 -5 21 -5 -4 -12 -2 -16 4 -4 6 -11 7 -17 4 -7 -4 -7 0 0 12
5 11 7 26 5 34 -3 10 0 9 7 -3 6 -9 16 -14 22 -11 7 4 8 2 4 -5 -4 -6 -12 -9
-17 -6 -5 4 -9 2 -9 -4 0 -20 19 -21 30 -2 7 13 7 22 0 26 -5 3 -10 3 -10 -2
0 -4 -8 4 -17 17 -10 14 -17 28 -15 33 1 4 -1 6 -5 6 -21 -3 -24 3 -12 18 8 9
9 14 3 10 -11 -6 -29 19 -26 35 1 4 -7 5 -18 3 -24 -5 -50 29 -51 65 0 23 -1
23 -8 5 -5 -11 -7 -23 -5 -27 3 -4 1 -9 -4 -12 -4 -2 -7 15 -6 40 1 24 -2 42
-6 39 -5 -3 -7 -14 -5 -25 2 -12 0 -18 -6 -15 -5 4 -7 11 -4 16 4 5 1 9 -6 9
-8 0 -6 7 5 19 13 14 14 21 5 27 -7 4 -10 3 -5 -4 3 -6 2 -13 -4 -17 -5 -3
-10 1 -10 9 0 9 -5 15 -12 14 -7 -2 -12 2 -13 7 0 6 -5 17 -10 25 -5 8 -10 24
-11 36 0 12 -8 31 -17 44 -16 23 -13 50 5 50 6 0 4 -8 -3 -17 -11 -15 -10 -14
9 1 12 11 22 20 22 21 0 7 -38 0 -49 -9 -12 -9 -12 -8 -2 12 7 13 17 20 24 16
7 -4 8 -3 4 1 -12 13 -36 15 -44 3 -4 -7 -1 -8 8 -3 12 8 12 6 0 -8 -18 -23
-20 -21 -15 7 2 14 -1 28 -7 32 -7 4 -9 3 -5 -4 3 -6 2 -13 -3 -16 -5 -4 -8 2
-6 11 1 10 7 17 13 16 15 -3 23 25 10 33 -7 5 -8 2 -3 -6 6 -10 4 -12 -8 -7
-9 3 -18 1 -21 -6 -2 -7 -5 -7 -5 -1 -1 5 8 20 19 31 16 18 17 22 4 27 -8 3
-13 2 -10 -3 3 -5 -2 -15 -12 -22 -14 -11 -15 -11 -5 1 9 9 9 18 1 33 -8 16
-7 19 4 15 9 -4 14 1 14 12 0 10 -3 18 -6 18 -20 -2 -30 3 -25 12 4 6 12 7 18
3 7 -4 7 0 -1 10 -8 9 -10 22 -6 28 5 8 3 9 -5 5 -7 -5 -10 -14 -7 -22 3 -8 1
-14 -4 -14 -6 0 -10 5 -10 11 0 5 -4 8 -9 5 -11 -7 -8 21 4 31 4 5 5 1 0 -7
-5 -8 -4 -12 0 -7 5 4 10 14 11 23 2 14 0 13 -22 -1 -15 -9 -23 -11 -22 -4 2
6 -3 14 -11 17 -9 3 -11 0 -6 -8 5 -9 4 -11 -4 -6 -16 10 -3 29 16 22 8 -3 11
-2 8 3 -3 5 0 13 6 17 9 5 10 0 7 -14 -4 -12 -3 -20 2 -17 4 3 10 14 13 25 3
11 1 18 -4 14 -9 -5 -12 4 -12 39 0 10 -2 15 -5 12 -3 -2 -12 1 -21 8 -14 10
-14 10 -4 -4 10 -13 10 -16 -1 -16 -15 0 -16 14 -2 35 4 7 5 16 2 19 -3 3 -1
14 5 24 7 14 7 19 -2 17 -6 -2 -13 6 -16 17 -2 11 -5 25 -6 32 -2 7 -6 16 -10
19 -4 4 -1 14 6 22 9 13 9 14 0 8 -8 -4 -13 -2 -13 4 0 6 -6 8 -12 4 -7 -4 -4
3 7 17 11 13 16 21 11 17 -5 -4 -16 -2 -24 5 -11 8 -14 8 -9 0 4 -6 3 -14 -3
-18 -6 -4 -7 -12 -3 -18 4 -7 0 -6 -10 2 -18 14 -22 23 -9 18 6 -2 13 8 11 16
0 1 -2 13 -5 27 -3 18 -2 21 5 10 5 -8 7 -18 5 -22 -9 -15 3 -8 17 9 8 9 9 14
2 10 -12 -8 -36 47 -25 59 4 4 2 4 -4 1 -13 -7 -27 17 -16 27 11 12 11 36 -1
29 -7 -4 -8 0 -4 11 4 9 3 15 -3 11 -5 -3 -8 14 -7 39 1 24 -2 42 -6 39 -5 -3
-7 -19 -5 -35 3 -16 0 -31 -5 -35 -5 -3 -4 -9 3 -13 10 -6 10 -12 1 -26 -7
-11 -10 -12 -8 -4 2 8 -1 22 -8 30 -17 20 -27 78 -15 85 6 3 10 11 10 17 0 6
-7 5 -17 -3 -10 -7 -15 -9 -11 -5 4 5 3 15 -3 23 -6 7 -8 13 -4 13 3 0 -3 12
-14 26 -16 20 -18 30 -10 40 6 7 7 19 3 26 -5 10 -4 10 6 1 10 -9 10 -16 2
-26 -9 -10 -8 -18 2 -33 14 -18 15 -18 21 -1 4 9 12 17 18 17 5 0 2 -9 -8 -20
-10 -11 -13 -20 -7 -20 7 0 12 5 12 11 0 5 4 8 9 5 5 -4 8 2 7 11 -3 21 -26
30 -36 14 -4 -7 -6 4 -5 24 1 20 6 39 10 43 5 4 5 2 1 -5 -11 -19 11 -24 25
-6 8 9 9 14 3 10 -7 -4 -17 0 -24 8 -7 8 -9 15 -5 15 4 0 3 6 -2 13 -6 6 -9
20 -8 30 2 9 -1 14 -7 11 -6 -4 -9 11 -7 38 3 53 -6 74 -27 57 -18 -15 -18 -4
2 25 9 15 11 27 5 30 -5 4 -12 2 -16 -4 -3 -5 -11 -10 -17 -10 -7 0 -6 5 1 14
9 11 9 16 0 22 -7 4 -9 3 -6 -3 4 -6 -1 -17 -10 -24 -14 -12 -15 -11 -9 8 4
12 3 24 -1 26 -9 5 -13 -13 -15 -65 0 -15 -4 -26 -8 -23 -9 6 -7 -52 3 -61 4
-5 5 0 2 11 -5 15 -4 16 3 6 6 -8 12 -10 16 -3 4 6 -1 15 -10 20 -11 6 -13 11
-5 16 6 4 11 1 11 -6 0 -9 3 -9 10 2 9 13 10 13 11 0 1 -8 1 -19 0 -23 -1 -5
3 -6 8 -2 6 3 8 13 5 23 -5 16 -5 16 6 0 10 -17 10 -62 -2 -73 -3 -3 -11 2
-18 10 -11 13 -11 16 0 13 7 -2 14 2 17 9 7 19 -29 8 -47 -15 -10 -12 -19 -20
-21 -19 -3 1 2 -4 10 -10 11 -9 11 -13 2 -13 -7 0 -9 -5 -6 -10 4 -6 11 -7 17
-4 7 4 8 2 4 -5 -4 -6 -12 -9 -17 -6 -5 4 -9 0 -9 -7 0 -11 -2 -10 -9 0 -7 11
-9 11 -14 -1 -4 -11 2 -14 22 -12 17 1 28 -3 28 -11 0 -7 -5 -12 -11 -11 -6 1
-10 -3 -9 -10 1 -6 -4 -17 -12 -23 -18 -15 -23 -4 -27 50 -2 19 -6 38 -11 41
-4 3 -9 14 -12 25 -2 10 -9 38 -15 62 -6 24 -15 107 -21 185 -6 78 -11 148
-11 155 -2 18 -7 15 -17 -10z m193 -268 c-18 -29 -33 -25 -34 9 0 10 3 11 14
2 10 -9 15 -8 20 4 3 8 8 15 11 15 3 0 -2 -13 -11 -30z m-35 -25 c0 -5 -4 -3
-9 5 -5 8 -9 22 -9 30 0 16 17 -16 18 -35z m62 -45 c-1 -22 1 -45 6 -52 4 -7
8 -16 9 -20 1 -5 2 -9 4 -10 1 -2 3 -11 5 -21 3 -15 1 -16 -13 -5 -14 11 -15
10 -9 -5 4 -11 3 -16 -4 -12 -6 4 -8 13 -5 20 4 13 -24 46 -30 35 -1 -3 -6 -1
-11 4 -4 5 -3 6 3 3 19 -11 36 19 34 60 -3 50 -1 58 7 49 4 -4 6 -25 4 -46z
m100 -414 c-7 -9 -6 -19 4 -33 10 -14 12 -29 6 -49 l-8 -29 -5 27 c-3 17 -1
25 5 21 5 -3 7 0 5 8 -3 8 -14 13 -24 12 -10 -1 -13 0 -6 3 6 3 12 10 12 15 0
6 -6 7 -12 3 -7 -4 -5 2 5 13 9 11 14 23 10 28 -5 4 -2 5 5 1 9 -6 10 -12 3
-20z m-494 -8 c4 -7 8 -19 9 -26 2 -10 -1 -10 -12 -1 -7 6 -11 15 -8 20 3 5 0
9 -5 9 -14 0 -14 -23 -1 -36 7 -7 6 -11 -3 -11 -14 0 -19 21 -11 45 2 6 8 12
13 12 5 0 13 -6 18 -12z m57 -21 c4 4 4 -1 0 -12 -5 -11 -9 -14 -12 -7 -2 7
-7 10 -11 8 -4 -3 -8 1 -8 9 0 10 4 12 12 5 7 -5 15 -7 19 -3z m-130 -113 c3
-8 2 -12 -4 -9 -6 3 -10 10 -10 16 0 14 7 11 14 -7z m636 -38 c0 -2 -11 -6
-25 -8 -13 -3 -22 -1 -19 3 5 9 44 13 44 5z m7 -41 c7 -35 9 -41 17 -53 4 -7
3 -19 -4 -26 -7 -10 -8 -16 0 -19 6 -3 5 -4 -2 -3 -7 2 -14 18 -14 37 -2 55
-3 59 -15 59 -5 0 -7 -5 -3 -12 5 -7 3 -8 -6 -3 -10 6 -10 11 3 20 9 7 15 15
12 18 -3 4 -2 5 2 2 4 -3 8 -12 10 -20z m50 -165 c2 -25 -15 -36 -30 -21 -9 9
-7 11 8 6 19 -6 19 -6 2 8 -18 15 -18 15 0 20 10 3 18 5 18 6 1 0 1 -8 2 -19z
m190 -532 c-3 -8 -6 -5 -6 6 -1 11 2 17 5 13 3 -3 4 -12 1 -19z m117 -148 c2
0 2 10 -1 23 -5 20 -4 21 11 6 10 -9 18 -23 20 -32 1 -9 9 -24 19 -34 12 -14
13 -22 6 -33 -9 -13 -10 -12 -5 2 3 10 1 20 -4 23 -6 4 -10 0 -11 -7 0 -10 -2
-10 -6 0 -2 6 -10 9 -16 5 -7 -4 -5 2 3 12 14 17 13 18 -2 12 -11 -4 -17 -2
-15 5 1 7 -4 12 -10 13 -7 0 -13 3 -13 8 0 38 2 41 10 20 5 -13 11 -23 14 -23z
m149 -177 c-7 -2 -19 -2 -25 0 -7 3 -2 5 12 5 14 0 19 -2 13 -5z m116 -140
c-14 -16 -16 -16 -25 -1 -4 7 -3 8 4 4 7 -4 12 -1 12 9 0 9 -4 14 -8 11 -5 -3
-9 1 -9 9 0 13 3 12 19 -1 14 -13 15 -20 7 -31z m214 -208 c4 -8 3 -16 -1 -19
-4 -3 -9 4 -9 15 -2 23 3 25 10 4z m220 -231 c-4 -12 -8 -12 -18 3 -16 22 -8
38 10 23 8 -6 11 -18 8 -26z m126 -118 c9 -11 9 -16 0 -22 -8 -5 -9 -3 -4 6 6
10 4 12 -8 7 -11 -4 -14 -2 -10 9 6 17 8 17 22 0z m112 -509 c-6 -8 -8 -17 -4
-21 4 -3 8 -21 9 -38 2 -23 0 -28 -6 -18 -9 13 -10 13 -10 0 0 -9 -6 -5 -17
10 -20 29 -23 56 -5 52 7 -1 15 5 18 13 4 8 11 15 16 15 7 0 6 -5 -1 -13z"/>
<path d="M11056 16532 c-3 -5 4 -18 17 -28 21 -19 21 -19 7 0 -8 11 -13 21
-12 23 2 3 1 7 -1 9 -3 3 -8 1 -11 -4z"/>
<path d="M12504 13696 c3 -19 17 -37 26 -31 13 8 5 38 -12 41 -9 1 -15 -3 -14
-10z m23 -11 c0 -8 -4 -12 -9 -9 -5 3 -6 10 -3 15 9 13 12 11 12 -6z"/>
<path d="M10933 16535 c0 -8 4 -12 9 -9 5 3 6 10 3 15 -9 13 -12 11 -12 -6z"/>
<path d="M16683 16508 c-5 -7 -9 -24 -8 -38 0 -14 -3 -28 -7 -31 -11 -7 -31
-118 -25 -140 3 -12 1 -17 -6 -12 -6 4 -8 -2 -5 -15 4 -12 2 -20 -2 -17 -11 7
-23 -51 -14 -66 5 -8 3 -9 -6 -4 -10 6 -12 0 -8 -23 3 -19 0 -29 -5 -25 -6 4
-8 -3 -5 -15 4 -12 3 -20 -1 -18 -4 3 -13 -16 -20 -42 -29 -110 -119 -377
-168 -499 -91 -229 -162 -355 -336 -593 -38 -51 -240 -258 -317 -325 -82 -69
-360 -325 -415 -380 -135 -137 -181 -211 -201 -327 -15 -86 -20 -267 -29
-1046 -2 -233 -7 -427 -10 -432 -9 -15 6 -60 20 -60 10 0 13 101 12 508 0 768
16 953 97 1080 43 68 155 181 386 387 445 398 611 607 775 974 93 206 214 568
200 591 -3 6 -1 10 6 10 6 0 9 8 6 20 -3 10 0 21 6 23 6 2 11 20 11 40 0 20 4
37 9 37 5 0 7 9 4 20 -3 11 -1 20 3 20 5 0 9 8 10 18 4 68 6 79 14 75 5 -4 6
6 2 21 -3 14 -2 26 3 26 5 0 7 14 5 30 -3 17 -1 30 5 30 11 0 9 39 -3 58 -4 7
-2 10 6 7 10 -4 14 4 15 27 0 18 3 43 6 55 3 13 1 25 -4 29 -6 4 -6 11 2 20 6
8 9 14 6 14 -2 0 -9 -6 -14 -12z"/>
<path d="M10960 16460 c-9 -6 -10 -10 -3 -10 6 0 15 5 18 10 8 12 4 12 -15 0z"/>
<path d="M10950 16429 c0 -5 5 -7 10 -4 6 3 10 8 10 11 0 2 -4 4 -10 4 -5 0
-10 -5 -10 -11z"/>
<path d="M11120 16430 c-9 -6 -10 -10 -3 -10 6 0 15 5 18 10 8 12 4 12 -15 0z"/>
<path d="M11110 16350 c-14 -9 -13 -11 9 -14 18 -2 24 -16 14 -28 -12 -15 -5
-80 7 -73 5 3 5 19 0 35 -5 17 -5 32 1 35 11 7 6 48 -7 52 -5 1 -16 -2 -24 -7z"/>
<path d="M10670 16206 c0 -2 8 -10 18 -17 15 -13 16 -12 3 4 -13 16 -21 21
-21 13z"/>
<path d="M10576 16102 c-3 -5 1 -9 9 -9 8 0 12 4 9 9 -3 4 -7 8 -9 8 -2 0 -6
-4 -9 -8z"/>
<path d="M10511 15643 c6 -7 8 -13 3 -13 -4 0 -3 -5 4 -12 8 -8 8 -17 1 -30
-7 -13 -7 -18 3 -16 15 4 18 -22 4 -40 -6 -9 -6 -12 4 -10 7 2 15 -3 18 -11 3
-9 0 -11 -8 -6 -7 4 -5 -4 4 -18 22 -33 32 -81 14 -71 -8 5 -7 1 2 -11 8 -10
14 -20 13 -22 -2 -1 -1 -3 2 -3 3 0 8 0 11 0 4 0 1 7 -6 15 -10 12 -9 15 4 15
10 0 15 -4 11 -9 -3 -5 -1 -12 5 -16 5 -3 10 -12 10 -18 0 -7 -4 -6 -10 3 -8
13 -10 12 -10 -3 0 -12 -4 -16 -12 -11 -7 4 -5 -2 5 -13 9 -11 17 -26 17 -34
0 -8 5 -21 10 -29 8 -11 9 -7 4 15 -4 17 -11 35 -15 41 -5 6 -4 11 4 11 7 0
14 -11 15 -24 1 -13 7 -33 13 -45 8 -15 8 -19 0 -14 -6 4 -11 2 -11 -4 0 -6
-6 -8 -12 -4 -7 4 -5 -2 5 -13 9 -11 14 -23 11 -26 -4 -4 -2 -13 4 -20 7 -8 8
-18 4 -22 -4 -5 -1 -5 6 -1 7 4 10 11 7 16 -3 5 -2 11 2 13 5 3 9 -14 9 -36 2
-64 15 -97 37 -97 7 0 6 4 -3 10 -9 6 -10 10 -3 10 24 0 21 -17 -23 -124 -34
-82 -43 -117 -40 -145 3 -20 8 -76 11 -126 4 -49 9 -108 11 -130 3 -22 7 -69
9 -105 2 -36 4 -65 5 -65 1 0 4 -22 5 -50 2 -27 4 -50 5 -50 1 0 3 -17 4 -37
1 -20 5 -40 9 -44 12 -12 8 -26 -5 -18 -9 6 -9 3 0 -9 8 -9 11 -21 7 -27 -3
-5 0 -10 7 -10 9 0 9 -3 -2 -10 -13 -9 -13 -10 0 -10 13 0 13 -1 0 -10 -12 -7
-12 -10 -1 -10 9 0 11 -8 7 -26 -5 -19 -4 -24 6 -18 10 5 10 4 1 -6 -9 -10 -8
-19 5 -39 16 -25 16 -25 -1 -12 -15 12 -17 12 -11 -3 3 -9 11 -16 18 -16 6 0
4 -5 -4 -10 -10 -6 -11 -10 -2 -10 6 0 12 -7 12 -15 0 -8 -6 -15 -12 -16 -7 0
-4 -4 7 -9 13 -6 15 -9 5 -9 -13 -1 -13 -2 0 -11 13 -9 13 -10 0 -10 -13 0
-13 -1 0 -10 13 -9 13 -10 0 -10 -13 0 -13 -2 -1 -9 8 -5 15 -19 16 -30 1 -17
-1 -19 -14 -8 -14 10 -14 10 0 -8 9 -11 20 -27 24 -35 7 -12 6 -13 -6 -3 -13
11 -15 9 -14 -8 1 -11 8 -25 16 -30 12 -7 12 -9 -1 -9 -13 0 -13 -1 0 -10 8
-5 10 -10 4 -10 -6 0 -11 -7 -11 -15 0 -11 4 -12 13 -4 11 9 11 4 4 -21 -8
-27 -7 -30 5 -20 20 17 19 5 -1 -14 -14 -15 -14 -16 3 -17 16 0 16 -1 -2 -9
l-20 -9 20 0 c13 -1 16 -4 8 -9 -16 -10 -13 -54 3 -48 13 5 13 -11 1 -31 -5
-8 -3 -13 5 -13 9 0 9 -3 -2 -10 -13 -8 -13 -10 2 -10 14 0 16 17 17 153 0 83
4 477 7 874 l7 722 -125 188 c-69 104 -132 194 -141 202 -9 7 -15 17 -12 20 2
4 -2 8 -10 8 -11 0 -12 -4 -4 -14z m32 -50 c-4 -10 -2 -14 4 -10 11 7 12 -38
1 -48 -4 -4 -5 1 -4 12 2 10 -1 24 -7 31 -5 7 -7 15 -4 19 4 3 1 13 -6 22 -10
14 -10 14 5 3 10 -8 14 -20 11 -29z m30 -90 c-10 -3 -10 -10 -2 -26 10 -21 9
-21 -5 -3 -16 20 -13 37 7 35 9 0 9 -2 0 -6z m14 -68 c0 -8 -4 -12 -9 -9 -5 3
-6 10 -3 15 9 13 12 11 12 -6z m57 -208 c-2 -11 -6 -22 -10 -26 -4 -3 -5 1 -1
10 3 9 1 21 -4 26 -6 6 -4 10 5 10 9 0 13 -8 10 -20z m40 -116 c4 -5 3 -12 -2
-15 -5 -3 -9 0 -10 7 -1 7 -4 26 -7 42 -5 29 -5 29 4 3 5 -14 12 -31 15 -37z"/>
<path d="M11474 15436 c1 -8 5 -18 8 -22 4 -3 5 1 4 10 -1 8 -5 18 -8 22 -4 3
-5 -1 -4 -10z"/>
<path d="M11447 15424 c-3 -4 0 -16 7 -28 8 -11 12 -29 11 -38 -2 -9 3 -22 11
-29 8 -6 11 -16 7 -23 -3 -6 -2 -7 2 -3 5 4 10 20 12 35 2 23 1 24 -7 7 -8
-18 -9 -18 -9 5 -1 14 -8 35 -16 46 -8 12 -11 24 -8 28 3 3 4 6 1 6 -2 0 -7
-3 -11 -6z"/>
<path d="M11145 15321 c-3 -5 -2 -12 3 -15 5 -3 9 1 9 9 0 17 -3 19 -12 6z"/>
<path d="M11577 15189 c4 -13 8 -18 11 -10 2 7 -1 18 -6 23 -8 8 -9 4 -5 -13z"/>
<path d="M11716 14973 c-6 -14 -5 -15 5 -6 7 7 10 15 7 18 -3 3 -9 -2 -12 -12z"/>
<path d="M12340 14343 c0 -6 11 -24 24 -40 13 -15 24 -32 26 -38 4 -22 10 -17
8 8 -1 14 -7 25 -13 24 -5 -1 -8 5 -7 13 2 8 0 11 -4 7 -4 -4 -14 3 -21 15 -7
13 -12 18 -13 11z"/>
<path d="M1536 14091 c-14 -23 -23 -136 -12 -150 8 -11 8 -13 -1 -7 -7 4 -13
3 -13 -1 0 -5 6 -15 13 -22 7 -8 7 -11 1 -8 -7 4 -14 -3 -16 -18 -4 -16 -1
-22 6 -18 8 5 8 3 0 -8 -6 -8 -10 -32 -9 -54 1 -22 -2 -45 -7 -52 -5 -6 -5
-14 0 -17 10 -6 0 -71 -12 -83 -3 -4 -1 -12 5 -20 9 -10 8 -13 -2 -13 -11 0
-11 -2 1 -10 8 -5 10 -10 4 -10 -6 0 -9 -20 -8 -47 1 -27 -4 -54 -10 -62 -8
-11 -8 -13 1 -8 9 6 11 -34 7 -170 -2 -98 -6 -189 -7 -203 -1 -14 1 -35 5 -46
4 -12 4 -25 0 -28 -11 -11 -11 -36 0 -30 7 5 8 -6 3 -32 -4 -21 -7 -46 -6 -54
6 -64 -4 -815 -12 -827 -4 -6 -3 -14 1 -17 5 -3 8 -18 7 -33 -1 -15 3 -31 9
-35 7 -5 6 -8 -4 -8 -13 0 -13 -1 0 -10 8 -5 11 -10 5 -10 -6 0 -10 -95 -9
-267 0 -177 -3 -273 -10 -282 -8 -11 -8 -13 0 -8 8 4 11 -24 10 -97 0 -68 -4
-102 -11 -98 -6 4 -6 0 1 -9 5 -8 10 -49 10 -91 -1 -43 3 -78 7 -78 4 0 4 -8
-1 -17 -4 -10 -8 -104 -7 -210 1 -122 -2 -190 -8 -186 -6 4 -7 1 -2 -8 10 -15
13 -169 4 -169 -3 0 -4 -15 -1 -32 9 -88 8 -444 -2 -457 -7 -10 -7 -13 0 -9 7
5 10 -60 10 -208 -1 -135 -5 -214 -11 -214 -7 0 -6 -3 0 -8 13 -9 13 -125 0
-134 -6 -5 -6 -8 2 -8 6 0 10 -8 8 -17 -2 -10 -4 -18 -5 -18 -4 0 -2 -326 2
-331 4 -3 3 -17 -2 -30 -6 -15 -6 -26 1 -30 7 -4 6 -10 -1 -19 -8 -9 -8 -15 0
-20 6 -3 7 -12 3 -18 -4 -7 -8 -93 -9 -192 -1 -99 -3 -182 -4 -185 -1 -3 -1
-9 0 -15 7 -33 4 -95 -5 -99 -5 -2 -4 -5 3 -5 7 -1 11 -5 8 -10 -4 -6 -9 -381
-6 -451 1 -8 0 -373 -3 -810 -2 -437 0 -732 4 -655 3 77 9 298 13 490 3 193 8
397 11 455 2 58 7 240 10 405 3 165 7 372 10 460 3 88 7 282 10 430 13 601 32
813 81 888 47 72 116 86 479 95 l250 7 6 575 c6 624 6 622 67 800 67 196 164
352 310 499 148 148 321 257 504 317 48 15 84 32 81 37 -3 6 -1 7 5 3 15 -9
102 3 102 14 0 4 -17 4 -37 0 -20 -5 -44 -5 -53 0 -11 6 -21 5 -27 -1 -13 -13
-59 -7 -56 7 2 11 -44 11 -55 0 -3 -3 -14 2 -25 11 -11 10 -17 12 -13 6 4 -8
1 -13 -9 -13 -9 0 -14 4 -10 9 3 5 0 13 -6 17 -7 4 -9 3 -6 -3 4 -6 0 -16 -8
-23 -12 -10 -18 -10 -30 0 -12 10 -15 10 -15 0 0 -8 -8 -10 -21 -7 -12 3 -22
0 -26 -9 -5 -13 -9 -12 -26 3 -11 10 -17 13 -13 6 4 -7 -2 -17 -14 -23 -12 -6
-18 -16 -14 -23 4 -7 4 -9 -1 -5 -4 4 -15 2 -24 -4 -9 -7 -6 -1 7 14 13 14 20
28 15 30 -4 3 -3 4 3 2 6 -1 11 4 11 11 0 10 -5 11 -17 5 -10 -5 -21 -6 -25
-2 -5 4 -4 0 0 -8 8 -13 7 -13 -8 -1 -15 12 -17 11 -17 -13 0 -16 -4 -25 -10
-21 -6 4 -8 11 -5 16 4 5 1 9 -4 9 -6 0 -11 -4 -11 -9 0 -5 -11 -11 -25 -13
-13 -3 -23 -2 -20 2 2 3 -12 6 -30 6 -21 -1 -35 -6 -35 -13 0 -20 -29 -15 -42
7 -15 24 -28 26 -28 3 0 -14 -2 -14 -20 2 -11 10 -23 15 -27 12 -3 -4 -2 -7 2
-7 5 0 0 -7 -11 -16 -18 -14 -18 -15 6 -8 22 6 23 5 12 -9 -8 -9 -20 -13 -28
-10 -8 3 -14 -1 -14 -10 0 -13 -6 -14 -31 -7 -20 6 -39 6 -50 -1 -15 -7 -21
-6 -25 6 -5 13 -9 13 -22 3 -9 -7 -13 -8 -9 -2 4 6 -2 22 -13 34 -25 29 -26
38 -1 16 11 -10 22 -13 25 -8 7 12 48 3 58 -11 4 -6 13 -4 23 6 15 16 10 22
-17 18 -3 0 -9 13 -13 29 -4 17 -13 30 -21 30 -8 0 -14 9 -14 21 0 15 -5 19
-15 15 -8 -3 -15 -4 -15 -2 0 2 -7 21 -16 42 -11 27 -12 35 -3 27 7 -7 22 -13
34 -12 11 0 14 3 8 6 -7 2 -13 11 -13 19 0 8 -5 14 -11 14 -5 0 -7 -5 -3 -11
4 -7 -3 -6 -17 2 -13 7 -31 12 -40 11 -9 -2 -16 4 -16 12 0 8 5 14 10 13 5 -1
12 4 15 12 2 8 1 11 -4 8 -5 -3 -9 6 -9 19 0 13 3 24 8 24 4 0 7 -9 7 -20 0
-22 7 -25 30 -10 12 8 12 10 1 10 -11 0 -11 3 -1 15 7 8 16 13 19 10 4 -2 8 2
8 10 0 13 -3 13 -17 0 -15 -14 -19 -13 -35 5 -10 11 -14 20 -9 21 5 0 0 4 -11
8 -12 5 -23 4 -26 -2 -4 -5 -12 0 -18 12 -7 12 -8 21 -2 21 5 0 5 12 -2 30 -6
16 -16 29 -22 27 -6 -1 -23 10 -38 26 -16 15 -23 27 -18 27 5 0 13 -5 17 -11
5 -8 9 -8 14 1 4 7 13 9 19 5 9 -5 9 -10 0 -21 -7 -8 -7 -14 -1 -14 14 0 22
24 15 49 -3 12 2 32 11 46 9 14 12 25 6 25 -5 0 -15 -9 -22 -20 -7 -11 -18
-20 -25 -20 -16 0 -17 12 0 29 10 11 8 11 -11 2 -18 -10 -23 -9 -28 4 -3 8
-11 12 -17 8 -6 -3 -7 -1 -3 5 4 7 14 12 21 12 23 0 6 29 -20 36 -13 3 -26 12
-29 20 -4 12 -2 12 14 4 28 -15 25 2 -5 38 -15 18 -23 37 -19 46 5 12 0 16
-17 16 -21 1 -22 2 -6 11 9 5 17 14 17 19 0 13 -42 3 -52 -12 -5 -9 -8 -10 -8
-1 0 6 5 15 10 18 13 8 1 28 -14 22 -6 -2 -21 9 -34 24 -13 16 -19 29 -13 29
6 0 11 7 11 15 0 8 -6 15 -12 15 -10 0 -10 2 0 9 8 5 12 24 11 49 -3 36 -6 42
-25 42 -19 0 -22 5 -21 33 1 18 -4 37 -13 44 -12 10 -12 12 -1 13 8 0 19 8 26
17 11 15 10 20 -8 35 -14 12 -16 18 -6 18 8 0 10 3 4 8 -12 8 -17 25 -23 74
-2 21 -8 35 -13 32 -13 -8 -11 10 3 24 7 7 8 12 2 12 -12 0 -12 60 1 60 6 0 3
5 -6 10 -9 5 -16 20 -15 32 1 13 -2 25 -6 28 -11 8 -17 80 -6 74 6 -4 6 1 0
12 -6 11 -10 22 -11 27 -1 4 -1 10 -2 15 -1 4 0 21 1 37 1 17 0 28 -3 25 -8
-8 -15 -80 -8 -75 4 2 8 -2 8 -10 0 -8 -4 -15 -9 -15 -9 0 -10 1 -12 62 -1 26
-5 50 -9 54 -4 4 -2 13 4 21 9 10 8 13 0 13 -7 0 -10 4 -7 9 7 11 -28 43 -37
34 -4 -3 -15 4 -26 15 -20 24 -36 29 -26 10 4 -7 0 -6 -7 3 -11 13 -16 14 -25
4 -7 -7 -10 -16 -7 -19 2 -3 1 -4 -3 -1 -3 3 -13 -1 -22 -8 -14 -11 -15 -10
-1 8 8 11 18 22 21 25 4 3 1 11 -7 18 -8 7 -14 8 -14 3 0 -6 -6 -8 -14 -5 -17
6 -31 -12 -16 -21 5 -3 10 -1 10 5 0 6 5 8 10 5 6 -4 8 -10 5 -15 -8 -12 -44
-8 -42 5 1 5 -3 9 -9 8 -7 -1 -9 8 -6 23 3 19 1 23 -12 18 -9 -3 -16 -10 -16
-15 0 -6 -7 -6 -17 0 -10 5 -21 8 -25 8 -3 -1 -10 2 -15 7 -4 5 -3 7 2 3 6 -3
17 3 23 14 12 19 11 19 -10 8 -20 -11 -21 -10 -11 3 10 11 9 19 -5 39 -9 13
-17 38 -18 54 -1 17 -4 38 -8 47 -4 9 -5 21 -2 27 3 5 -5 23 -19 39 -13 16
-22 32 -19 35 3 3 -3 12 -15 19 -12 7 -21 22 -20 33 0 18 1 18 9 -2 11 -27 16
-28 24 -7 3 8 2 13 -3 10 -5 -3 -12 1 -15 10 -11 28 -6 39 9 20 9 -11 15 -14
15 -7 0 17 -27 43 -34 32z m2 -121 c-7 -11 -14 -17 -17 -15 -2 3 1 11 7 18 7
8 8 18 4 22 -4 5 -1 5 5 1 10 -5 10 -11 1 -26z m89 -205 c0 -8 -4 -12 -9 -9
-5 3 -6 10 -3 15 9 13 12 11 12 -6z m50 -92 c2 -6 -1 -14 -6 -18 -7 -4 -8 0
-4 11 4 11 3 15 -5 10 -6 -3 -13 -2 -16 3 -4 5 2 8 11 7 9 -2 19 -8 20 -13z
m157 -29 c3 -8 2 -12 -4 -9 -6 3 -10 10 -10 16 0 14 7 11 14 -7z m36 -28 c0
-2 -7 -9 -15 -16 -13 -11 -14 -10 -9 4 5 14 24 23 24 12z m65 -75 c3 -5 2 -12
-3 -15 -5 -3 -9 1 -9 9 0 17 3 19 12 6z m245 -961 c0 -5 -5 -10 -11 -10 -5 0
-7 5 -4 10 3 6 8 10 11 10 2 0 4 -4 4 -10z m50 -64 c0 -9 -40 -13 -46 -5 -3 5
6 9 20 9 14 0 26 -2 26 -4z m20 -57 c0 -5 -4 -7 -10 -4 -5 3 -10 1 -10 -6 0
-7 -3 -10 -6 -6 -8 7 4 27 17 27 5 0 9 -5 9 -11z m5 -89 c3 -5 1 -10 -4 -10
-6 0 -11 5 -11 10 0 6 2 10 4 10 3 0 8 -4 11 -10z m-81 -32 c-4 -6 1 -17 10
-23 14 -11 14 -14 2 -18 -9 -4 -16 2 -20 15 -5 21 0 38 10 38 3 0 2 -5 -2 -12z
m126 -122 c0 -2 -7 -7 -16 -10 -8 -3 -12 -2 -9 4 6 10 25 14 25 6z m30 0 c0
-3 -4 -8 -10 -11 -5 -3 -10 -1 -10 4 0 6 5 11 10 11 6 0 10 -2 10 -4z m-157
-51 c-3 -9 -8 -14 -10 -11 -3 3 -2 9 2 15 9 16 15 13 8 -4z m172 -15 c-3 -5
-10 -10 -16 -10 -5 0 -9 5 -9 10 0 6 7 10 16 10 8 0 12 -4 9 -10z m62 -42 c-2
-12 4 -31 14 -41 10 -11 17 -33 16 -54 -1 -31 -2 -33 -14 -17 -10 14 -10 20 0
27 9 7 9 10 0 14 -7 2 -13 11 -13 19 0 8 -6 14 -14 14 -22 0 -25 23 -7 42 21
22 21 22 18 -4z m-17 -68 c8 -5 11 -10 5 -10 -5 0 -17 5 -25 10 -8 5 -10 10
-5 10 6 0 17 -5 25 -10z m-47 -15 c6 -15 -10 -32 -20 -21 -4 3 -1 6 7 6 10 0
10 3 0 15 -7 9 -8 15 -2 15 5 0 12 -7 15 -15z m-89 -74 c-6 -6 -11 1 -18 29
l-7 25 15 -25 c8 -14 12 -27 10 -29z m898 4 c20 1 25 -2 20 -13 -4 -11 -2 -13
9 -6 20 12 38 14 44 4 3 -5 -4 -7 -15 -5 -11 2 -24 -3 -30 -13 -5 -9 -10 -12
-10 -5 0 7 -9 10 -20 8 -12 -2 -23 2 -27 10 -3 8 -8 13 -12 10 -4 -2 -8 2 -8
10 0 9 5 11 11 6 6 -4 23 -7 38 -6z m-89 -13 c4 9 6 9 6 1 2 -20 -16 -24 -30
-5 -13 15 -12 16 3 4 13 -10 17 -10 21 0z m-643 -62 c6 0 10 -5 10 -11 0 -8
-5 -8 -15 1 -8 7 -15 9 -15 4 0 -10 -29 28 -30 39 0 4 9 -2 20 -13 11 -11 25
-20 30 -20z m278 17 c-1 -2 4 -12 12 -23 11 -14 11 -16 0 -7 -11 10 -18 9 -34
-5 -16 -13 -18 -13 -8 -1 6 9 8 19 4 23 -4 4 0 6 8 4 9 -2 14 3 12 12 -2 8 -1
12 3 8 4 -3 5 -8 3 -11z m-38 -22 c0 -2 -6 -8 -13 -14 -10 -8 -14 -7 -14 2 0
8 6 14 14 14 7 0 13 -1 13 -2z"/>
<path d="M1565 14000 c3 -5 8 -10 11 -10 2 0 4 5 4 10 0 6 -5 10 -11 10 -5 0
-7 -4 -4 -10z"/>
<path d="M12560 13999 c0 -5 5 -7 10 -4 6 3 10 8 10 11 0 2 -4 4 -10 4 -5 0
-10 -5 -10 -11z"/>
<path d="M12566 13939 c2 -4 0 -10 -5 -13 -5 -4 -8 -14 -6 -24 1 -9 -1 -27 -6
-39 -8 -22 3 -26 29 -9 11 6 10 11 -2 25 -12 13 -13 20 -4 29 7 7 8 12 4 12
-5 0 -3 6 3 13 8 10 7 14 -4 14 -8 0 -12 -4 -9 -8z m9 -68 c3 -5 1 -12 -5 -16
-5 -3 -10 1 -10 9 0 18 6 21 15 7z"/>
<path d="M12535 13810 c-17 -19 -14 -25 10 -20 6 1 6 -2 2 -7 -5 -4 -13 -8
-19 -8 -6 0 -12 -8 -14 -17 -2 -14 1 -15 17 -5 20 12 21 15 22 45 1 9 6 20 12
24 7 5 6 8 -1 8 -6 0 -19 -9 -29 -20z"/>
<path d="M1739 13703 c-13 -16 -12 -17 4 -4 16 13 21 21 13 21 -2 0 -10 -8
-17 -17z"/>
<path d="M12566 13618 c3 -5 10 -6 15 -3 13 9 11 12 -6 12 -8 0 -12 -4 -9 -9z"/>
<path d="M12553 13565 c0 -8 4 -12 9 -9 5 3 6 10 3 15 -9 13 -12 11 -12 -6z"/>
<path d="M12533 13483 c0 -9 4 -10 14 -2 7 6 13 12 13 14 0 1 -6 2 -13 2 -8 0
-14 -6 -14 -14z"/>
<path d="M10770 13455 c6 -16 6 -26 -1 -31 -7 -4 -7 -10 0 -18 7 -8 7 -16 0
-23 -6 -6 -5 -10 3 -10 10 0 13 16 13 54 0 36 -4 53 -12 53 -9 0 -10 -7 -3
-25z"/>
<path d="M12525 13451 c-3 -5 -2 -12 3 -15 5 -3 9 1 9 9 0 17 -3 19 -12 6z"/>
<path d="M12552 13429 c2 -7 -2 -13 -9 -14 -16 0 -26 -12 -15 -19 5 -3 17 3
26 13 12 13 14 21 6 26 -6 3 -9 1 -8 -6z"/>
<path d="M10765 13350 c-3 -6 1 -7 9 -4 18 7 21 14 7 14 -6 0 -13 -4 -16 -10z"/>
<path d="M10782 13310 c0 -19 2 -27 5 -17 2 9 2 25 0 35 -3 9 -5 1 -5 -18z"/>
<path d="M12549 13183 c-13 -16 -12 -17 4 -4 9 7 17 15 17 17 0 8 -8 3 -21
-13z"/>
<path d="M12556 13098 c3 -5 10 -6 15 -3 13 9 11 12 -6 12 -8 0 -12 -4 -9 -9z"/>
<path d="M12544 13076 c1 -9 7 -21 14 -28 19 -19 -16 -52 -37 -36 -13 10 -14
10 -3 -2 6 -8 12 -18 12 -23 0 -4 -6 -5 -12 -1 -10 6 -10 5 -1 -8 7 -8 9 -19
5 -23 -4 -5 -1 -5 6 -1 7 4 10 11 7 15 -2 5 2 17 11 27 14 18 15 18 9 -6 -14
-55 -17 -60 -28 -53 -9 5 -9 3 -1 -8 12 -16 12 -29 1 -47 -5 -7 -5 -11 0 -10
4 2 8 -1 8 -7 0 -5 -3 -9 -6 -8 -3 1 -6 -4 -6 -12 0 -8 3 -13 6 -12 3 1 6 -2
6 -8 0 -5 -4 -9 -8 -7 -5 1 -6 -2 -2 -8 5 -8 11 -7 21 1 16 13 19 -2 3 -18 -8
-8 -8 -13 1 -18 8 -5 6 -13 -7 -28 -18 -22 -18 -22 3 -5 13 12 20 29 19 50 -1
18 4 44 11 58 6 14 9 31 6 39 -2 8 0 11 5 8 5 -3 9 5 9 18 0 14 -2 22 -5 19
-4 -3 -6 -10 -6 -16 0 -6 -10 -12 -22 -14 -16 -3 -20 1 -18 14 2 9 4 21 4 25
1 5 5 6 10 3 5 -3 14 1 20 8 9 11 9 16 0 22 -7 4 -9 3 -5 -4 3 -6 2 -14 -4
-17 -7 -4 -9 6 -6 32 2 21 5 38 6 38 1 0 3 8 5 17 2 10 -2 16 -8 15 -6 -1 -11
3 -12 10 0 6 -3 14 -7 18 -3 4 -5 0 -4 -9z m24 -222 c-6 -13 -15 -21 -20 -18
-5 3 -4 12 2 19 8 10 8 15 -1 20 -8 6 -8 10 2 16 19 12 29 -10 17 -37z"/>
<path d="M12533 13035 c0 -8 4 -12 9 -9 5 3 6 10 3 15 -9 13 -12 11 -12 -6z"/>
<path d="M12580 12801 c0 -6 4 -13 10 -16 6 -3 7 1 4 9 -7 18 -14 21 -14 7z"/>
<path d="M12579 12683 c-13 -16 -12 -17 4 -4 9 7 17 15 17 17 0 8 -8 3 -21
-13z"/>
<path d="M12529 12646 c5 -6 7 -19 6 -28 -2 -10 2 -21 8 -25 7 -3 9 -2 4 2 -4
5 1 17 10 27 14 15 14 19 3 16 -8 -2 -14 2 -13 8 1 6 -5 11 -12 11 -9 0 -11
-4 -6 -11z"/>
<path d="M12569 12613 c-13 -16 -12 -17 4 -4 16 13 21 21 13 21 -2 0 -10 -8
-17 -17z"/>
<path d="M2260 12566 c0 -9 5 -16 10 -16 6 0 10 4 10 9 0 6 -4 13 -10 16 -5 3
-10 -1 -10 -9z"/>
<path d="M2284 12524 c-4 -10 -9 -23 -12 -29 -3 -5 1 -5 8 2 7 6 20 9 29 5 14
-5 14 -4 1 14 -8 10 -16 21 -17 23 -1 2 -6 -5 -9 -15z"/>
<path d="M2330 12519 c0 -5 5 -7 10 -4 6 3 10 8 10 11 0 2 -4 4 -10 4 -5 0
-10 -5 -10 -11z"/>
<path d="M2371 12414 c0 -11 3 -14 6 -6 3 7 2 16 -1 19 -3 4 -6 -2 -5 -13z"/>
<path d="M2340 12405 c0 -8 2 -15 4 -15 2 0 6 7 10 15 3 8 1 15 -4 15 -6 0
-10 -7 -10 -15z"/>
<path d="M2338 12374 c-10 -10 4 -44 18 -44 8 0 14 3 14 8 -1 12 -27 42 -32
36z"/>
<path d="M2434 12165 c-4 -8 -11 -12 -18 -8 -6 4 -5 0 2 -9 8 -9 20 -14 29
-11 8 3 19 0 24 -8 7 -11 9 -11 9 -1 0 8 -9 16 -19 19 -12 3 -17 11 -14 19 3
8 2 14 -1 14 -4 0 -9 -7 -12 -15z"/>
<path d="M2615 11970 c-3 -5 -1 -10 4 -10 6 0 11 5 11 10 0 6 -2 10 -4 10 -3
0 -8 -4 -11 -10z"/>
<path d="M3417 11968 c-7 -5 -1 -8 13 -8 14 0 31 4 39 9 10 7 6 9 -13 8 -15
-1 -33 -5 -39 -9z"/>
<path d="M3508 11973 c12 -2 30 -2 40 0 9 3 -1 5 -23 4 -22 0 -30 -2 -17 -4z"/>
<path d="M2570 11946 c0 -2 7 -6 15 -10 8 -3 15 -1 15 4 0 6 -7 10 -15 10 -8
0 -15 -2 -15 -4z"/>
<path d="M2468 11913 c7 -3 16 -2 19 1 4 3 -2 6 -13 5 -11 0 -14 -3 -6 -6z"/>
<path d="M8750 10825 c-7 -9 -19 -14 -26 -11 -8 3 -20 -1 -28 -9 -8 -8 -17
-15 -20 -15 -12 0 -124 -92 -143 -118 -11 -15 -65 -79 -119 -143 -55 -64 -124
-148 -154 -188 -61 -81 -150 -191 -213 -265 -23 -27 -53 -64 -67 -82 -44 -58
-184 -228 -215 -260 -181 -188 -239 -247 -268 -266 -76 -51 -137 -100 -137
-110 0 -6 -6 -8 -14 -5 -8 3 -25 -4 -39 -16 -34 -30 -87 -58 -98 -51 -5 3 -9
-2 -9 -10 0 -9 -11 -18 -25 -22 -14 -3 -29 -12 -33 -19 -6 -12 -26 -19 -87
-30 -11 -2 -46 -9 -78 -15 -32 -6 -71 -9 -87 -6 -17 2 -30 0 -30 -5 0 -4 -6
-6 -14 -3 -8 3 -17 0 -22 -7 -5 -8 -3 -10 6 -4 9 5 11 4 6 -4 -4 -6 -12 -8
-19 -4 -19 11 -69 14 -62 3 4 -6 -2 -7 -17 -2 -30 11 -60 4 -51 -11 4 -7 -1
-6 -10 2 -12 10 -17 10 -17 2 0 -8 -6 -6 -16 4 -13 12 -26 15 -58 9 -22 -3
-45 -9 -51 -12 -17 -10 -35 -11 -29 -1 3 5 11 6 17 3 7 -4 9 -3 5 1 -10 10
-70 11 -86 1 -7 -4 -12 -3 -12 3 0 6 -7 8 -15 5 -8 -4 -13 -9 -10 -13 2 -4 -2
-8 -10 -8 -8 0 -12 5 -9 11 3 6 -2 2 -12 -9 -13 -15 -15 -16 -11 -3 7 20 -10
27 -43 18 -14 -4 -33 -3 -44 3 -14 7 -16 6 -11 -4 6 -8 4 -10 -5 -4 -15 9
-101 14 -95 6 2 -3 -8 -6 -21 -6 -13 0 -24 5 -24 11 0 7 -20 9 -57 7 -66 -6
-84 -6 -133 -3 -19 1 -47 0 -62 -3 -16 -2 -28 -1 -28 3 0 4 -15 5 -32 1 -35
-8 -61 -4 -54 8 7 11 -78 0 -93 -13 -12 -9 -13 -8 -6 4 7 12 6 13 -7 3 -8 -7
-18 -10 -21 -6 -4 3 -15 0 -24 -8 -16 -13 -17 -12 -4 3 11 15 11 19 -4 24 -10
4 -21 1 -25 -6 -7 -11 -12 -11 -26 1 -15 12 -16 12 -9 0 6 -10 4 -12 -5 -6
-20 12 -170 13 -170 1 0 -6 -5 -5 -12 2 -16 16 -31 15 -22 0 5 -9 2 -8 -9 1
-10 8 -20 11 -24 8 -3 -4 -12 -2 -20 4 -9 9 -13 8 -13 0 0 -8 -5 -9 -19 -1
-14 7 -22 7 -26 0 -5 -8 -11 -7 -21 1 -9 7 -14 8 -14 1 0 -10 -57 -8 -68 3 -3
2 -11 0 -17 -5 -9 -8 -14 -6 -19 6 -5 14 -9 14 -22 3 -18 -15 -47 -22 -39 -9
6 10 -24 17 -48 12 -10 -2 -14 -8 -10 -15 5 -8 2 -8 -9 0 -8 7 -18 10 -21 6
-4 -3 -13 0 -21 6 -10 8 -16 9 -21 1 -3 -5 -11 -10 -16 -10 -6 0 -8 3 -6 8 7
10 -235 9 -250 -1 -7 -5 -13 -4 -13 1 0 11 -43 8 -62 -4 -19 -12 -39 -14 -32
-3 3 5 9 7 14 4 5 -3 11 -2 13 2 3 5 -33 8 -79 8 -46 0 -84 4 -84 9 0 5 -6 4
-13 -3 -10 -8 -17 -7 -27 2 -10 10 -11 9 -5 -3 8 -13 7 -13 -8 -1 -9 7 -17 9
-17 3 0 -5 -9 -8 -20 -5 -12 3 -20 0 -20 -8 0 -8 -4 -7 -13 5 -14 19 -51 12
-41 -8 3 -6 -1 -3 -9 7 -17 20 -83 24 -90 5 -4 -10 -6 -10 -6 0 -1 19 -62 15
-78 -5 -8 -10 -12 -13 -9 -6 4 8 -9 15 -36 21 -46 9 -71 6 -62 -9 3 -5 10 -6
16 -3 7 4 8 2 4 -5 -6 -8 -12 -9 -20 -2 -7 6 -16 8 -19 4 -4 -3 -17 2 -29 13
-21 19 -21 19 -14 0 5 -16 4 -17 -8 -7 -8 7 -19 10 -24 8 -4 -3 -14 -2 -22 3
-9 5 -19 5 -27 -2 -9 -7 -13 -7 -13 1 0 13 -22 10 -32 -4 -5 -6 -8 -5 -8 3 0
6 -9 12 -21 12 -11 0 -17 -5 -14 -10 4 -6 11 -7 17 -4 7 5 8 2 4 -5 -6 -9 -13
-8 -27 5 -11 10 -28 15 -43 12 -14 -3 -23 -1 -20 3 3 5 0 9 -5 9 -6 0 -11 -3
-11 -7 0 -5 -18 -8 -39 -8 -22 0 -37 3 -34 8 7 12 -32 8 -46 -5 -11 -11 -12
-10 -7 0 6 9 1 11 -21 7 -48 -10 -82 -11 -77 -3 3 4 1 8 -5 8 -5 0 -13 -5 -16
-10 -4 -6 -12 -7 -18 -3 -11 7 -33 9 -47 3 -16 -6 -50 -5 -50 1 0 9 -13 9
-142 9 -21 0 -41 0 -45 1 -5 1 -12 1 -18 -1 -5 -1 -46 0 -90 1 -44 1 -108 2
-142 3 -35 0 -63 3 -63 6 0 3 -91 6 -203 7 -111 2 -247 7 -302 11 -55 5 -148
8 -207 8 -59 -1 -104 3 -101 8 3 5 0 6 -8 4 -8 -3 -30 1 -49 9 -67 27 -140 -1
-140 -54 0 -17 -4 -22 -12 -17 -8 5 -7 0 2 -11 9 -11 10 -16 3 -11 -9 5 -13 0
-14 -16 0 -13 -2 -32 -4 -43 -15 -84 -28 -191 -30 -250 -6 -133 -15 -381 -20
-550 -3 -93 -7 -240 -10 -325 -3 -85 -7 -263 -10 -395 -4 -218 -9 -419 -20
-805 -4 -156 -15 -562 -20 -795 -12 -470 -16 -593 -20 -730 -3 -82 -7 -260
-10 -395 -3 -135 -7 -310 -9 -390 -3 -80 -7 -257 -10 -395 -4 -137 -9 -313
-12 -390 -3 -77 -7 -196 -9 -265 -2 -69 -7 -152 -9 -185 -8 -91 -18 -198 -21
-215 -1 -8 -6 -40 -10 -70 -4 -30 -9 -64 -11 -75 -2 -11 -6 -31 -9 -45 -3 -14
-9 -40 -15 -59 -5 -19 -7 -38 -4 -42 3 -5 1 -9 -4 -9 -5 0 -9 -6 -9 -13 0 -7
-10 -34 -23 -60 -20 -40 -26 -45 -43 -36 -21 12 -21 6 9 -114 12 -52 98 -193
137 -225 7 -6 56 -28 108 -48 163 -64 129 -63 2591 -64 l2187 0 32 -48 c83
-121 209 -261 509 -566 277 -281 436 -423 519 -463 52 -26 65 -28 177 -28
l121 0 79 40 c43 22 186 102 317 178 131 76 299 168 372 204 118 59 136 66
158 56 63 -29 119 -185 242 -676 48 -188 95 -360 104 -382 51 -115 170 -144
661 -161 201 -7 262 1 85 11 -293 16 -415 36 -415 68 0 10 30 9 280 -13 74 -7
331 -10 630 -9 278 1 510 1 515 0 6 -2 -3 -9 -20 -16 -42 -19 -9 -18 49 1 26
9 63 32 82 50 38 39 52 82 153 455 113 420 173 584 232 633 l30 25 56 -24 c77
-34 288 -154 543 -309 277 -167 281 -169 440 -164 79 2 132 8 145 16 19 12 18
12 -5 6 -57 -17 -100 -6 -178 44 -333 213 -678 405 -814 452 -35 12 -66 27
-70 33 -8 13 -40 5 -151 -37 -72 -28 -136 -33 -155 -14 -21 21 59 72 145 92
12 2 32 10 45 17 13 7 36 13 51 12 15 0 25 2 23 5 -7 7 20 32 36 32 7 0 33 10
58 21 85 39 104 34 115 -32 8 -46 -15 -29 277 -202 101 -60 221 -133 268 -162
267 -168 350 -193 467 -140 30 14 60 24 65 23 10 -4 -64 -77 -112 -111 -14
-10 -7 -8 15 4 122 68 491 405 748 684 121 131 234 272 225 280 -2 3 -29 -23
-58 -58 -92 -105 -465 -469 -622 -604 -52 -46 -146 -105 -204 -129 -51 -21
-91 -24 -136 -8 -21 7 -38 11 -38 9 0 -3 -9 4 -20 15 -11 11 -30 20 -42 20
-12 0 -18 3 -15 7 9 9 -31 36 -42 28 -5 -3 -13 0 -17 6 -5 8 -3 9 7 4 21 -12
0 7 -45 40 -22 16 -36 22 -32 14 4 -8 1 -6 -7 3 -8 10 -17 15 -20 11 -4 -3 -7
-1 -7 6 0 6 -11 16 -25 21 -14 5 -25 15 -25 21 0 7 -3 10 -6 6 -3 -3 -11 -2
-18 4 -30 25 -87 58 -81 47 4 -7 1 -6 -7 2 -23 27 -68 51 -81 44 -7 -4 -9 -4
-5 1 10 11 -39 48 -53 39 -7 -4 -9 -3 -6 3 4 6 -15 21 -41 34 -26 13 -60 32
-76 43 -20 13 -27 15 -22 5 4 -7 -1 -3 -12 10 -10 13 -24 21 -30 17 -6 -3 -14
-1 -18 5 -5 8 -3 9 6 4 9 -5 11 -4 6 3 -4 7 -15 12 -24 13 -10 0 -12 3 -5 6
10 3 10 7 0 18 -7 7 -15 11 -19 8 -4 -2 -5 4 -1 13 4 11 3 15 -4 11 -14 -9
-11 11 5 40 8 14 9 24 2 28 -6 4 -7 11 -4 17 5 7 2 8 -7 2 -8 -4 -20 -9 -27
-10 -8 -2 -21 -6 -30 -10 -9 -4 -21 -8 -27 -9 -33 -8 -126 -48 -130 -56 -4 -5
-12 -9 -19 -9 -8 0 -31 -8 -52 -17 -22 -9 -41 -17 -44 -18 -3 0 -14 -6 -25
-12 -11 -5 -51 -21 -90 -33 -38 -12 -76 -27 -82 -33 -7 -5 -13 -6 -13 -2 0 4
-7 2 -15 -5 -8 -7 -15 -10 -15 -6 0 3 -16 0 -35 -8 -19 -8 -35 -12 -35 -9 0 3
-8 -1 -18 -10 -10 -10 -21 -15 -23 -12 -3 2 -33 -4 -66 -14 -34 -10 -64 -16
-67 -13 -3 3 -6 0 -6 -6 0 -6 -6 -9 -14 -6 -13 5 -29 -10 -32 -31 -1 -6 6 -12
15 -13 20 -2 41 -7 61 -14 24 -9 103 -31 123 -35 30 -5 76 -32 86 -51 5 -9 7
-37 4 -62 -5 -49 -55 -258 -72 -303 -6 -16 -11 -39 -11 -53 0 -13 -15 -77 -34
-142 -19 -64 -37 -133 -41 -152 -13 -67 -45 -163 -71 -211 -21 -37 -36 -52
-73 -67 -101 -43 -142 -47 -481 -46 -465 0 -676 13 -810 48 -99 26 -126 42
-150 88 -24 46 -27 54 -65 223 -14 61 -33 146 -44 190 -10 44 -30 134 -45 200
-14 66 -31 134 -36 152 -17 50 -17 128 -1 147 21 25 64 45 108 51 21 3 72 13
113 22 41 9 77 17 80 17 13 2 53 36 42 36 -7 0 -32 9 -55 21 -35 17 -85 32
-179 54 -9 2 -26 9 -37 15 -11 6 -51 21 -88 34 -192 68 -452 183 -560 248 -35
21 -66 38 -70 38 -5 1 -26 9 -48 20 -50 24 -55 24 -55 3 0 -15 2 -16 10 -3 6
9 10 10 10 3 0 -6 -4 -15 -10 -18 -5 -3 7 -37 29 -79 40 -76 57 -141 39 -152
-5 -3 -7 -15 -5 -26 5 -16 3 -17 -9 -7 -12 10 -13 9 -8 -4 6 -16 -28 -42 -40
-29 -4 3 -4 -1 -1 -10 4 -9 1 -19 -6 -24 -8 -5 -10 -3 -5 7 4 8 1 6 -7 -3 -8
-10 -17 -15 -20 -11 -4 3 -7 -2 -7 -12 0 -10 -3 -15 -7 -12 -3 4 -12 -1 -20
-11 -9 -10 -11 -11 -7 -2 6 12 3 11 -16 -3 -14 -9 -35 -22 -48 -27 -13 -6 -20
-14 -17 -20 4 -6 -1 -7 -11 -3 -13 5 -15 3 -9 -7 5 -8 4 -11 -3 -7 -15 10 -43
-3 -35 -16 4 -6 1 -7 -6 -2 -7 4 -23 -3 -39 -16 -14 -13 -22 -17 -17 -9 6 9
-1 4 -14 -10 -13 -14 -20 -19 -16 -12 6 11 3 12 -14 3 -11 -7 -21 -16 -21 -22
0 -6 -4 -8 -9 -4 -5 3 -13 0 -17 -6 -4 -7 -3 -9 4 -5 6 3 13 2 16 -3 4 -5 -5
-8 -19 -6 -14 1 -23 0 -20 -3 7 -7 -36 -36 -55 -37 -25 0 -80 -38 -80 -55 0
-13 -1 -13 -10 0 -8 13 -10 13 -10 -1 0 -9 -8 -23 -17 -30 -11 -10 -14 -10 -9
-1 5 9 1 11 -16 8 -13 -3 -25 -5 -28 -6 -3 -2 -9 -2 -13 -1 -5 1 -6 -3 -2 -9
3 -5 1 -10 -5 -10 -6 0 -8 -4 -5 -10 3 -5 0 -7 -9 -4 -8 3 -21 2 -28 -2 -7 -5
-19 -9 -27 -11 -7 -1 -18 -6 -23 -11 -16 -16 -96 6 -155 44 -107 68 -188 141
-521 469 -360 354 -434 419 -497 429 -51 9 -95 26 -95 37 0 5 -5 9 -11 9 -5 0
-7 -5 -3 -12 4 -7 3 -8 -5 -4 -9 6 -9 11 1 24 7 9 9 13 3 10 -5 -3 -16 0 -23
8 -10 11 -10 14 0 14 10 0 10 2 1 8 -10 6 -9 14 1 34 8 15 12 29 9 31 -7 8 54
47 62 39 5 -4 5 -1 1 6 -6 10 -11 11 -24 0 -15 -10 -15 -10 -4 2 7 8 17 16 23
16 5 1 15 2 22 3 8 1 7 4 -3 11 -13 8 -12 10 3 10 9 0 17 4 17 10 0 5 10 19
23 31 12 12 16 19 10 15 -9 -5 -11 -2 -7 8 3 9 10 14 14 11 4 -2 16 5 26 18
19 21 19 21 -1 7 -19 -14 -19 -14 -6 3 7 9 20 17 28 17 8 0 11 5 7 11 -3 6 10
26 30 45 20 19 33 34 29 34 -3 0 4 9 17 20 13 11 20 20 17 20 -3 0 5 12 18 26
14 15 25 31 25 36 0 5 5 6 12 2 6 -4 8 -3 5 3 -4 5 8 25 26 43 18 19 25 30 17
26 -8 -5 -1 3 15 18 17 14 26 25 20 26 -5 0 11 19 35 42 25 23 36 36 25 28
-16 -11 -15 -9 3 11 13 13 40 47 61 75 21 28 52 67 69 85 18 19 32 37 32 41 0
11 61 78 70 78 4 0 30 -18 56 -41 47 -39 147 -97 189 -110 27 -8 27 21 -1 76
-73 140 -100 195 -115 235 -55 146 -111 275 -138 314 -35 50 -86 78 -176 96
-33 7 -64 16 -70 20 -5 4 -28 11 -50 15 -22 5 -47 10 -55 13 -8 2 -25 5 -37 6
-11 0 -20 3 -18 6 2 3 -8 10 -21 17 -13 6 -26 7 -29 2 -6 -9 -11 -7 -73 24
-18 9 -30 12 -26 5 5 -7 3 -8 -7 -2 -16 10 -44 16 -76 17 -13 1 -23 4 -23 7 0
3 -15 7 -32 8 -18 2 -46 5 -63 8 -16 3 -34 7 -40 8 -5 1 -16 6 -24 10 -11 7
-12 6 -6 -5 7 -11 6 -12 -6 -3 -22 17 -58 23 -63 10 -2 -6 -5 -3 -5 8 -1 15
-4 16 -16 6 -13 -11 -14 -10 -9 6 4 10 4 16 -1 12 -4 -4 -15 -2 -23 5 -13 10
-14 9 -8 -1 4 -7 -9 -3 -29 8 -20 11 -34 17 -31 12 3 -5 -1 -9 -8 -9 -9 0 -12
7 -8 16 5 14 3 14 -10 3 -13 -10 -18 -10 -24 -1 -4 8 -3 9 4 5 7 -4 12 -5 12
-2 0 2 -16 14 -36 27 -20 12 -49 40 -65 61 -27 38 -28 39 -33 16 -10 -49 -30
-203 -28 -210 1 -5 -4 -8 -10 -8 -9 0 -8 -4 2 -10 11 -7 11 -10 2 -10 -7 0
-11 -4 -8 -9 3 -5 -3 -11 -14 -14 -11 -3 -20 -11 -19 -19 0 -10 2 -10 6 0 2 6
12 12 21 12 15 -1 15 -2 -1 -11 -10 -6 -14 -16 -10 -22 3 -7 -3 -3 -15 7 -12
11 -22 16 -22 11 0 -4 -7 -2 -15 5 -8 7 -15 18 -15 24 0 7 4 6 9 -2 7 -11 9
-10 14 3 4 9 3 14 -2 11 -4 -3 -16 3 -26 14 -10 11 -24 20 -31 20 -16 0 -25
28 -19 58 2 13 0 20 -6 17 -5 -4 -6 -11 -3 -17 4 -7 2 -8 -5 -4 -6 4 -8 12 -5
18 4 6 7 28 8 49 2 31 -1 36 -12 27 -7 -6 -12 -7 -11 -2 1 5 0 11 -1 14 -8 20
-5 110 4 110 6 0 4 5 -4 10 -13 9 -13 10 0 11 10 0 8 3 -5 9 l-20 9 20 1 c18
1 19 1 2 11 -13 8 -15 14 -7 29 6 10 6 21 2 24 -10 6 -9 57 1 73 4 6 1 14 -5
16 -10 4 -10 6 0 6 6 1 12 6 12 12 0 5 -4 8 -9 5 -10 -7 -9 20 2 30 4 4 2 13
-4 20 -7 8 -7 14 1 19 8 5 7 11 -2 23 -10 12 -10 14 0 8 6 -4 12 -2 12 3 0 6
-6 11 -12 11 -9 0 -8 4 2 10 13 9 13 10 0 10 -12 0 -12 2 -1 9 9 6 10 11 2 15
-7 4 -7 15 -1 31 6 16 5 25 -3 29 -9 3 -8 5 1 5 7 1 10 6 6 13 -10 15 -11 67
-1 61 4 -2 7 0 7 6 0 5 -6 12 -12 14 -7 3 -4 6 7 7 18 0 18 2 4 10 -15 9 -15
14 -4 47 9 27 10 42 3 51 -8 8 -7 12 3 12 12 0 12 2 1 9 -8 4 -14 12 -14 16 0
4 6 12 14 16 11 7 11 9 -1 9 -10 0 -11 3 -2 14 9 11 9 16 0 21 -8 6 -7 10 2
16 11 7 11 9 -1 9 -13 0 -13 1 0 10 8 5 10 10 4 10 -6 0 -10 12 -9 28 1 15 -3
33 -8 40 -7 9 -6 11 4 7 11 -4 14 7 12 57 -1 37 3 68 10 77 9 12 9 13 0 7 -7
-4 -13 -2 -13 3 0 6 6 11 13 11 9 0 8 3 -2 9 -11 7 -11 9 0 14 11 4 11 6 1 6
-10 1 -10 6 -2 21 7 14 7 20 0 20 -17 0 -11 61 10 104 29 59 74 85 218 122 70
18 244 63 387 100 400 102 533 151 605 222 19 19 28 31 20 28 -8 -4 -4 1 9 11
14 10 30 24 35 31 6 7 19 21 29 30 9 9 17 26 17 39 0 12 4 24 9 27 4 3 7 -6 5
-19 -1 -14 2 -27 6 -30 5 -3 7 4 5 16 -3 17 -1 19 10 9 13 -11 30 1 18 14 -12
11 -11 33 1 34 6 1 21 3 33 5 57 8 110 94 97 157 -4 19 -7 38 -6 41 2 9 -136
279 -152 299 -6 8 -18 29 -26 45 -8 17 -19 37 -26 45 -6 8 -37 65 -69 125 -31
61 -69 125 -84 144 -14 18 -30 40 -36 49 -12 20 -54 55 -74 63 -18 7 -66 -14
-98 -44 -13 -11 -23 -17 -23 -12 0 4 -9 -4 -21 -19 -15 -19 -24 -24 -33 -16
-7 5 -16 7 -19 3 -4 -3 -7 -2 -7 3 0 5 -11 10 -25 10 -38 3 -78 32 -70 52 3 9
3 13 -1 9 -12 -11 -34 14 -34 38 0 73 281 394 637 727 233 218 344 310 421
349 61 30 69 31 190 32 99 1 135 -3 165 -16 21 -9 156 -88 300 -175 424 -257
535 -317 567 -307 27 9 74 85 110 178 33 84 147 473 220 747 48 183 64 217
112 242 75 39 140 42 773 42 602 0 871 -10 947 -36 53 -18 89 -48 109 -92 10
-23 45 -151 77 -286 75 -306 144 -557 183 -664 29 -81 79 -156 103 -156 38 0
245 110 626 333 280 164 261 157 410 157 110 0 131 -3 175 -24 94 -44 222
-153 479 -411 314 -315 523 -552 571 -649 36 -71 32 -113 -16 -207 -22 -43
-43 -79 -45 -79 -6 0 8 32 28 65 19 32 24 65 9 65 -16 0 -55 -42 -92 -100 -53
-81 -219 -375 -219 -387 0 -5 -9 -20 -20 -33 -20 -23 -27 -46 -12 -36 5 3 9
-1 9 -9 0 -8 -5 -13 -11 -12 -6 1 -10 -4 -9 -10 2 -7 -2 -13 -9 -13 -6 0 -8
-3 -5 -7 4 -3 -1 -11 -10 -18 -11 -8 -14 -18 -9 -31 7 -18 8 -18 21 1 8 11 19
26 25 33 6 7 8 17 4 24 -4 6 -3 8 3 5 6 -4 13 2 16 13 3 11 11 20 19 20 10 0
9 -3 -2 -10 -8 -5 -11 -10 -7 -10 5 0 0 -15 -11 -32 -84 -141 -162 -316 -162
-365 0 -54 35 -126 78 -159 52 -40 248 -105 660 -218 173 -48 331 -95 352
-106 68 -35 110 -108 131 -230 6 -36 13 -234 16 -440 5 -369 -4 -621 -28 -794
-10 -69 -13 -76 -23 -57 -7 12 -14 19 -17 17 -5 -5 -39 -13 -62 -15 -5 -1 -6
-5 -3 -10 6 -10 -19 -9 -29 1 -3 3 -29 -1 -57 -9 -29 -7 -62 -13 -73 -13 -12
0 -27 -6 -34 -12 -9 -8 -11 -8 -8 -2 5 9 -3 9 -31 2 -20 -5 -46 -11 -57 -13
-11 -2 -20 -4 -20 -5 0 -2 -37 -11 -52 -12 -7 -1 -13 -4 -13 -7 0 -3 -10 -7
-22 -7 -34 -2 -78 -14 -101 -25 -12 -7 -17 -7 -13 -1 8 14 -67 -9 -76 -23 -5
-6 -8 -5 -8 3 0 7 -5 10 -10 7 -6 -4 -8 -10 -5 -15 3 -4 -5 -6 -17 -2 -12 3
-19 1 -15 -5 3 -5 0 -10 -8 -10 -8 0 -12 4 -9 9 7 11 -4 10 -29 -4 -12 -7 -32
-11 -45 -9 -13 1 -30 -3 -39 -11 -14 -11 -16 -11 -8 2 5 9 -1 7 -15 -5 -14
-12 -20 -14 -15 -5 8 13 7 13 -8 1 -9 -7 -17 -10 -17 -5 0 5 -10 -2 -21 -16
-11 -14 -17 -18 -13 -11 4 8 -7 4 -26 -9 -18 -13 -31 -19 -27 -13 18 29 -76
-32 -106 -69 -52 -64 -203 -387 -193 -413 6 -15 9 -15 40 3 41 24 42 23 75
-63 32 -83 120 -248 279 -525 158 -275 192 -343 192 -387 l0 -33 1453 1 c1705
0 1875 5 2096 63 l134 35 79 78 79 78 44 140 c24 77 49 173 55 213 16 98 26
306 29 547 2 235 8 528 17 890 4 143 7 376 8 517 1 142 5 258 9 258 5 0 5 4 2
10 -3 5 -6 67 -5 137 3 221 1 283 -6 295 -4 6 -3 8 3 5 11 -7 10 61 -2 133 -4
26 -3 31 4 20 9 -13 11 -13 11 2 0 9 -4 19 -8 22 -11 6 -6 167 5 175 11 8 12
131 1 125 -12 -7 -10 204 2 226 7 13 7 21 0 25 -6 4 -8 25 -6 48 3 23 6 169 8
325 1 156 6 286 10 288 5 3 5 10 2 16 -6 10 -6 170 1 518 1 69 6 449 10 845 4
396 8 730 8 743 1 12 5 22 10 22 4 0 6 4 3 9 -3 4 -6 66 -6 137 0 71 0 136 0
144 0 8 -2 93 -4 187 -3 127 -1 171 8 166 6 -3 2 3 -8 15 -16 18 -16 22 -4 22
12 0 15 11 14 44 0 24 -5 42 -9 39 -5 -3 -3 5 5 17 11 18 11 22 -5 31 -11 6
-17 20 -15 32 1 12 -1 27 -5 34 -5 7 1 21 13 33 11 11 20 30 20 43 0 32 -23
78 -36 73 -6 -3 -18 1 -25 7 -10 10 -11 9 -2 -3 6 -8 9 -32 7 -53 -2 -21 1
-35 5 -32 5 3 12 -2 15 -11 3 -8 2 -12 -3 -9 -5 3 -13 0 -17 -6 -4 -8 -3 -9 4
-5 7 4 12 1 12 -9 0 -9 -4 -14 -9 -11 -5 4 -7 -3 -4 -14 3 -12 0 -20 -6 -20
-7 0 -9 -4 -6 -10 3 -5 1 -10 -6 -10 -7 0 -9 -3 -6 -6 4 -4 14 -1 24 7 9 8 14
9 10 2 -4 -6 -4 -14 1 -17 11 -6 9 -63 -3 -73 -4 -5 -5 -2 -1 5 4 6 2 12 -4
12 -6 0 -13 -7 -16 -15 -4 -8 -11 -12 -18 -9 -6 3 -2 -2 9 -11 20 -17 19 -17
-7 -11 -17 4 -28 2 -28 -4 0 -5 3 -9 8 -9 26 4 41 -2 35 -17 -5 -13 -7 -13
-14 -2 -6 9 -9 6 -9 -10 0 -14 4 -21 11 -16 6 3 3 -8 -6 -26 -9 -17 -14 -37
-12 -44 3 -7 -1 -13 -8 -13 -15 0 -14 12 4 47 11 23 10 23 -10 -3 -16 -21 -24
-25 -34 -17 -10 9 -16 6 -25 -12 -10 -21 -10 -21 3 -6 13 17 15 17 31 0 19
-22 21 -43 4 -60 -7 -7 -8 -12 -2 -12 5 0 10 -10 11 -21 2 -21 1 -21 -13 -3
-15 19 -15 19 -10 0 6 -16 4 -17 -9 -6 -9 7 -12 16 -8 19 4 3 15 15 23 26 8
11 10 17 6 13 -5 -4 -16 -2 -25 4 -9 7 -13 8 -9 4 10 -11 -11 -38 -23 -30 -5
3 -9 -2 -9 -11 0 -10 -5 -13 -12 -9 -6 4 -8 3 -4 -4 3 -6 15 -9 26 -7 12 2 21
-3 25 -15 4 -11 13 -17 24 -15 10 2 18 -3 18 -11 0 -8 -3 -12 -5 -9 -3 3 -12
-1 -20 -8 -11 -8 -14 -8 -9 0 9 14 -9 27 -40 29 -17 1 -20 -4 -17 -22 4 -21 2
-23 -20 -14 -30 11 -48 -7 -53 -52 -3 -27 10 -33 13 -7 1 5 3 17 4 27 1 13 4
11 11 -8 8 -23 8 -22 4 6 -3 28 -1 31 15 27 11 -3 17 -9 14 -14 -3 -5 0 -8 6
-7 7 2 14 -5 15 -15 7 -37 14 -29 10 10 -3 30 0 40 11 40 8 0 14 -3 15 -6 6
-35 4 -61 -5 -61 -6 0 -5 -4 2 -9 8 -4 13 -11 13 -15 -1 -3 2 -6 7 -6 11 0 9
34 -3 42 -6 5 -6 8 2 8 7 0 11 6 9 13 -1 6 -1 9 1 4 3 -4 8 -5 13 -2 9 5 8
-13 -1 -30 -3 -5 -5 -22 -4 -37 0 -15 -3 -24 -7 -22 -4 3 -8 1 -8 -4 0 -5 -10
-9 -22 -8 -11 0 -23 -6 -25 -14 -3 -9 -1 -11 4 -5 10 12 55 16 48 4 -3 -4 -1
-10 5 -14 6 -4 8 -11 5 -16 -4 -5 -2 -9 4 -9 10 0 9 -25 -2 -36 -12 -12 -8
-44 6 -44 8 0 9 -3 1 -8 -6 -4 -10 -15 -8 -25 1 -10 -2 -14 -9 -10 -7 4 -8 0
-4 -11 4 -10 3 -15 -3 -11 -6 3 -11 0 -12 -7 0 -7 -2 -18 -2 -23 -1 -6 -11
-23 -23 -38 -17 -22 -22 -24 -27 -11 -3 8 -2 12 3 9 6 -3 6 7 1 25 -5 16 -6
30 -3 30 3 0 0 6 -6 13 -6 8 -8 17 -4 20 3 4 2 7 -4 7 -12 0 -23 -24 -22 -48
0 -14 2 -13 9 3 9 21 11 16 15 -36 1 -15 5 -34 8 -43 4 -9 4 -16 1 -16 -3 0
-10 14 -16 30 -8 25 -13 28 -24 19 -8 -6 -11 -16 -7 -22 4 -6 1 -7 -6 -3 -9 6
-8 12 4 26 9 10 14 24 10 30 -11 18 3 58 25 70 16 9 18 7 15 -10 -2 -11 1 -20
7 -20 5 0 8 7 5 15 -4 8 -2 17 3 20 6 4 10 -4 11 -17 1 -23 1 -23 8 2 l8 25 4
-25 5 -25 5 27 c4 19 3 25 -5 21 -8 -5 -8 -3 0 8 6 8 10 24 9 36 -1 13 3 20 9
16 6 -4 5 1 -3 10 -10 13 -11 20 -2 31 9 11 8 15 -4 20 -11 4 -14 2 -9 -6 5
-8 2 -9 -10 -5 -15 6 -16 5 -2 -15 14 -19 13 -24 -10 -54 -17 -22 -32 -31 -45
-29 -11 2 -17 0 -15 -4 3 -5 -2 -16 -12 -24 -16 -15 -18 -15 -18 2 0 11 6 17
12 14 14 -5 7 34 -7 43 -5 3 -5 13 1 24 7 13 7 21 0 25 -6 4 -7 13 -1 23 12
24 3 42 -17 35 -13 -4 -14 -3 -4 5 15 10 15 21 0 39 -5 7 -6 22 -2 35 6 21 6
22 -12 8 -18 -14 -18 -14 -5 3 7 9 10 17 5 17 -4 0 -3 5 4 12 16 16 16 41 0
32 -10 -6 -10 -4 0 7 14 15 16 33 3 24 -5 -3 -13 0 -17 6 -4 7 -3 9 3 6 9 -6
24 15 24 33 0 3 7 12 15 22 12 12 12 18 3 24 -7 4 -10 3 -5 -4 3 -6 2 -13 -4
-17 -5 -3 -10 -1 -10 4 0 6 -5 11 -11 11 -8 0 -8 -4 0 -13 8 -10 7 -18 -3 -32
-11 -16 -13 -13 -10 24 2 29 -1 39 -9 34 -9 -5 -9 -3 -1 8 6 8 14 21 18 29 3
8 4 5 2 -7 -2 -13 0 -23 5 -23 5 0 9 4 9 9 0 5 3 16 6 24 4 12 -1 15 -20 13
-15 -2 -29 1 -32 6 -3 4 0 7 7 6 6 -2 14 3 17 11 2 8 0 11 -5 8 -5 -3 -9 5 -9
18 0 13 3 22 6 20 3 -2 12 5 18 16 12 18 11 19 -7 9 -19 -10 -20 -8 -12 12 12
32 4 69 -18 85 -13 8 -17 21 -14 35 4 19 3 20 -7 8 -10 -13 -11 -12 -6 3 3 10
6 24 6 30 0 7 5 6 11 -3 9 -12 10 -12 5 3 -3 10 -6 21 -6 23 0 3 -4 3 -9 0 -5
-4 -8 2 -6 11 1 10 -2 24 -8 31 -6 7 -6 12 -1 11 22 -4 23 3 8 29 -15 26 -15
26 1 7 16 -18 17 -18 11 -2 -3 10 -6 28 -6 38 0 11 -4 18 -9 14 -5 -3 -13 0
-17 6 -4 8 -3 9 4 5 7 -4 12 -3 12 3 0 5 -4 13 -10 16 -5 3 -10 12 -10 18 0 7
4 6 10 -3 8 -13 10 -12 10 3 0 9 -4 17 -8 17 -7 0 -9 6 -14 61 -2 14 -9 33
-16 42 -10 12 -11 21 -2 36 8 17 8 21 -3 21 -9 0 -13 -10 -12 -28 1 -18 -3
-29 -11 -29 -9 0 -10 5 -3 18 16 30 10 35 -12 9 -15 -18 -18 -19 -11 -5 7 13
7 27 1 40 -10 20 -10 20 5 1 14 -18 21 -15 17 7 -1 5 4 5 10 1 8 -4 9 -3 5 4
-4 7 -17 10 -29 8 -12 -3 -26 -5 -30 -5 -5 -1 -5 -7 0 -13 11 -19 12 -37 2
-44 -5 -3 -9 -2 -8 3 1 4 0 11 -1 16 -1 4 -4 21 -5 37 -1 17 -3 37 -4 45 0 8
-6 14 -13 13 -7 -2 -12 2 -13 9 0 17 -15 29 -15 12 -1 -8 -8 -2 -16 14 -15 28
-30 38 -21 14 3 -8 -1 -14 -8 -14 -7 0 -12 7 -11 16 1 9 -4 15 -11 14 -8 -2
-10 4 -6 14 5 12 3 14 -7 8 -9 -5 -11 -4 -6 4 4 6 12 9 17 6 5 -4 9 -2 9 3 0
17 -13 22 -27 10 -11 -9 -15 -7 -20 10 -3 12 -9 20 -13 17 -5 -3 -12 0 -16 6
-4 7 -3 9 2 6 6 -3 16 -2 24 4 12 7 10 9 -8 9 -12 0 -25 -7 -29 -16 -5 -13 -7
-13 -14 -2 -5 7 -13 13 -18 13 -5 0 -19 13 -31 28 -15 19 -28 26 -40 22 -14
-5 -91 18 -96 28 0 1 -8 -4 -17 -12 -9 -7 -14 -18 -10 -25 4 -6 -1 -5 -10 3
-9 7 -16 21 -16 30 1 13 2 13 6 -2 2 -9 9 -15 14 -11 6 4 5 11 -2 20 -10 13
-15 12 -34 -6 -20 -19 -23 -19 -29 -5 -4 10 -2 14 6 9 7 -4 8 -3 4 5 -6 9 -14
8 -33 -4 -14 -10 -23 -13 -19 -7 3 5 -1 13 -10 16 -12 5 -15 2 -10 -11 4 -10
4 -14 0 -10 -4 4 -13 2 -21 -5 -8 -6 -13 -7 -12 -2 5 29 -2 37 -16 18 -13 -16
-14 -16 -9 -1 7 19 -12 24 -19 5 -4 -10 -6 -10 -6 1 -1 8 -8 4 -21 -10 -11
-13 -19 -19 -18 -14 2 6 0 10 -3 10 -3 0 -13 6 -22 13 -8 7 -18 9 -21 4 -6
-11 -46 -10 -63 1 -7 5 -18 5 -25 1 -7 -4 -8 -3 -4 4 4 7 2 12 -3 12 -6 0 -11
-6 -11 -12 0 -7 -5 -5 -11 5 -11 19 -29 23 -29 6 0 -5 5 -7 12 -3 6 4 8 3 5
-4 -8 -12 -24 -11 -52 5 -26 14 -45 6 -38 -15 4 -13 2 -12 -10 3 -11 13 -16
15 -17 6 0 -10 -3 -11 -14 -2 -11 9 -16 9 -22 0 -5 -8 -3 -9 6 -4 9 6 11 4 6
-4 -6 -9 -13 -8 -27 5 -15 13 -19 14 -19 3 0 -11 -2 -12 -9 -1 -4 8 -17 12
-27 10 -11 -2 -18 2 -17 9 2 7 -4 10 -12 7 -8 -4 -15 -11 -15 -18 0 -6 -4 -5
-10 4 -7 12 -12 11 -30 -5 -12 -11 -21 -15 -20 -10 5 22 -1 30 -22 32 -13 0
-35 3 -50 6 -19 3 -28 0 -28 -9 0 -18 -17 -27 -26 -13 -4 8 -3 9 4 5 7 -4 12
-1 12 6 0 15 -47 18 -69 4 -10 -6 -12 -5 -7 2 11 19 -5 14 -20 -5 -8 -11 -13
-13 -14 -5 0 6 -5 12 -11 12 -5 0 -7 -6 -3 -12 5 -9 2 -9 -9 1 -9 7 -17 10
-17 5 0 -5 -4 -4 -8 3 -13 20 -68 21 -56 1 6 -10 4 -10 -7 0 -16 15 -39 16
-39 1 0 -5 5 -7 12 -3 7 4 8 3 4 -5 -10 -15 -26 -4 -26 17 -1 15 -2 15 -11 -1
-9 -15 -13 -16 -26 -6 -12 10 -19 10 -35 0 -11 -7 -17 -8 -13 -2 6 11 -7 15
-34 12 -8 -2 -10 2 -5 10 4 8 3 10 -5 5 -9 -6 -9 -11 0 -22 10 -12 14 -12 20
-2 6 9 9 9 9 1 0 -16 -17 -26 -25 -13 -4 6 -11 8 -16 5 -5 -4 -9 -1 -9 6 0 9
-3 9 -14 0 -10 -9 -16 -9 -21 -1 -5 8 -15 6 -32 -5 -15 -10 -22 -12 -18 -4 6
9 3 11 -8 6 -12 -4 -14 -2 -10 11 5 13 4 15 -8 6 -16 -12 -29 -12 -48 0 -10 6
-12 5 -7 -2 4 -7 3 -12 -2 -12 -5 0 -14 10 -21 23 -6 12 -10 14 -7 5 3 -9 -2
-19 -10 -22 -9 -3 -12 -1 -9 4 4 6 -3 9 -15 7 -12 -2 -25 -9 -30 -16 -6 -11
-8 -11 -12 0 -5 16 -136 23 -155 8 -7 -7 -14 -6 -18 1 -3 5 -11 10 -16 10 -6
0 -8 -4 -5 -8 10 -17 -37 -5 -50 12 -12 17 -13 17 -23 -2 -6 -11 -8 -22 -6
-26 3 -3 2 -3 -2 0 -4 3 -8 11 -8 17 0 13 -7 17 -31 17 -9 0 -12 -5 -8 -12 6
-10 4 -10 -7 0 -20 18 -33 15 -18 -5 11 -15 9 -14 -9 1 -22 19 -23 19 -37 0
-11 -14 -14 -15 -9 -3 9 27 -13 31 -32 7 -9 -13 -14 -16 -12 -8 4 11 -3 15
-28 16 -21 0 -31 -3 -27 -10 4 -6 -3 -2 -15 8 -21 18 -23 18 -41 2 -14 -13
-21 -14 -27 -5 -5 8 -3 10 6 4 9 -5 11 -4 6 4 -6 9 -11 9 -21 1 -10 -8 -14 -7
-18 2 -3 11 -8 11 -26 0 -12 -7 -21 -8 -21 -2 0 5 -5 10 -11 10 -5 0 -7 -6 -3
-12 6 -10 5 -10 -7 -1 -12 10 -18 10 -29 0 -10 -9 -11 -9 -6 1 4 6 3 12 -2 12
-17 0 -22 -13 -10 -29 11 -13 -5 -3 -42 28 -3 2 4 1 15 -3 13 -5 17 -4 10 3
-20 20 -65 17 -65 -4 0 -8 -5 -15 -11 -15 -5 0 -8 4 -5 9 3 5 -1 11 -9 15 -8
3 -17 0 -21 -6 -5 -7 -2 -8 6 -3 9 6 11 4 6 -4 -6 -9 -12 -9 -24 2 -18 16 -82
19 -82 5 0 -5 4 -7 9 -3 5 3 12 1 15 -4 10 -16 -20 -6 -38 12 -20 20 -33 22
-38 5 -2 -6 -12 -12 -21 -14 -9 -1 -15 2 -11 7 3 5 10 7 15 4 5 -4 9 -1 9 5 0
7 -8 9 -19 5 -11 -3 -22 -1 -26 5 -7 12 -25 4 -25 -12 0 -5 6 -8 13 -5 8 3 14
-1 14 -8 0 -10 -6 -11 -16 -6 -9 5 -24 7 -34 6 -10 -2 -14 1 -11 7 5 7 2 8 -7
2 -21 -13 -39 -14 -39 -1 0 7 -5 5 -10 -3 -8 -12 -10 -12 -10 -1 0 11 -3 11
-17 0 -10 -9 -14 -9 -10 -2 6 9 -7 12 -48 12 -31 -1 -59 2 -62 5 -3 3 -12 -2
-20 -12 -8 -9 -12 -11 -8 -4 7 13 -21 12 -44 -2 -10 -7 -12 -6 -6 4 6 10 4 12
-7 7 -9 -3 -21 0 -28 6 -8 7 -10 7 -7 1 3 -6 0 -11 -8 -11 -8 0 -12 4 -10 8 3
4 -2 10 -11 13 -11 4 -15 2 -11 -7 3 -9 -2 -13 -18 -13 -13 1 -27 5 -31 9 -4
3 3 4 15 2 12 -2 19 0 16 6 -4 5 -15 9 -26 9 -17 0 -24 -11 -20 -34 1 -5 -5
-4 -13 3 -9 7 -22 11 -30 8 -7 -3 -28 3 -45 14 -31 19 -32 19 -21 0 13 -25 -5
-39 -18 -14 -11 18 -42 27 -42 11 0 -6 -6 -5 -15 2 -12 10 -18 10 -32 -1 -11
-10 -14 -10 -9 -1 11 18 -39 16 -54 -3 -10 -12 -15 -13 -28 -3 -8 7 -18 11
-21 10 -3 -2 -15 -8 -26 -14 -19 -8 -19 -8 -2 5 17 14 16 15 -3 20 -11 3 -23
0 -27 -5 -4 -7 -1 -8 8 -3 8 5 10 4 6 0 -10 -12 -37 -15 -37 -5 0 16 -41 22
-57 8 -10 -8 -14 -8 -10 -1 4 6 3 14 -3 18 -5 3 -10 -1 -10 -9 0 -8 -4 -18
-10 -21 -5 -3 -8 0 -5 7 4 9 -4 13 -25 13 -16 1 -30 -3 -30 -8 0 -5 -6 -4 -14
2 -11 9 -17 8 -29 -4 -9 -8 -17 -10 -19 -5 -2 6 -17 12 -33 14 -17 2 -43 7
-58 11 -23 6 -31 3 -43 -14 -15 -21 -34 -20 -34 2 0 8 3 8 9 -2 5 -7 11 -9 14
-4 3 5 -3 17 -14 26 -10 9 -19 12 -19 6 0 -5 -4 -7 -10 -4 -5 3 -10 -2 -10
-12 0 -10 -3 -14 -8 -8 -4 6 -13 10 -19 9 -7 -1 -22 -2 -34 -3 -11 0 -18 -5
-14 -10 12 -21 -15 -20 -29 1 -15 21 -21 18 -16 -7 1 -5 -2 -6 -7 -2 -4 5 -9
13 -9 18 -3 22 -6 23 -14 4 -8 -19 -9 -19 -9 -1 -1 20 -1 20 -17 0 -8 -10 -12
-12 -8 -4 6 12 3 11 -12 -2 -17 -14 -22 -15 -44 -3 -14 8 -21 14 -17 15 5 0
17 -5 28 -10 13 -7 19 -7 19 0 0 12 4 11 -127 15 -57 2 -101 -1 -98 -5 3 -5 1
-12 -5 -15 -6 -4 -10 -3 -9 2 4 22 -2 32 -17 26 -13 -5 -13 -7 -2 -14 9 -6 9
-9 1 -9 -6 0 -15 5 -18 11 -5 7 -14 4 -26 -7 -10 -9 -19 -14 -19 -9 0 4 -8 1
-17 -6 -16 -13 -17 -12 -4 3 7 10 17 15 22 12 5 -3 9 0 9 5 0 14 -6 14 -31 1
-10 -6 -19 -7 -19 -2 0 5 -7 9 -15 9 -12 0 -12 -3 -3 -16 7 -9 1 -6 -12 5 -14
12 -31 19 -37 17 -20 -7 -15 -23 5 -17 13 5 14 4 3 -4 -9 -6 -22 -5 -39 4 -18
9 -31 10 -44 3 -10 -5 -18 -7 -18 -3 0 3 -8 0 -17 -7 -10 -8 -14 -9 -10 -2 4
6 3 14 -3 18 -5 3 -10 1 -10 -5 0 -6 -5 -8 -10 -5 -6 4 -8 11 -5 16 4 5 2 9
-3 9 -6 0 -13 -7 -16 -16 -4 -9 -9 -14 -13 -11 -3 4 -12 2 -20 -5 -7 -6 -16
-8 -20 -4 -3 3 -1 6 6 6 7 0 9 5 6 10 -5 8 -11 8 -20 0 -10 -8 -15 -8 -21 1
-4 8 -3 9 4 5 7 -4 12 -3 12 2 0 5 -13 9 -30 10 -16 0 -30 -4 -30 -9 0 -5 -7
-9 -16 -9 -9 0 -13 -5 -9 -12 4 -7 -6 1 -21 17 -22 24 -27 26 -22 10 4 -17 0
-21 -18 -21 -12 0 -20 4 -18 8 3 5 10 5 16 2 6 -4 8 -2 4 4 -8 13 -46 12 -65
-2 -12 -9 -13 -8 -6 3 6 11 3 13 -16 8 -13 -4 -28 -7 -32 -7 -5 0 -5 -6 -1
-12 4 -7 -2 -4 -14 6 -22 19 -22 19 -44 0 -19 -16 -20 -16 -9 -1 12 15 11 17
-5 14 -11 -1 -24 -6 -30 -10 -7 -4 -14 -1 -17 7 -6 15 -31 16 -44 1 -5 -4 -1
-5 7 0 8 5 12 4 7 0 -10 -12 -38 -15 -31 -4 3 5 -2 9 -11 9 -9 0 -13 -4 -10
-10 8 -13 -27 0 -38 14 -5 6 -6 0 -3 -14 3 -14 3 -20 0 -13 -3 7 -13 9 -22 6
-15 -4 -15 -3 -2 6 12 9 10 11 -12 11 -16 0 -28 -5 -28 -11 0 -8 -4 -8 -13 -1
-12 10 -29 12 -95 11 -14 0 -20 -5 -16 -12 3 -7 -2 -3 -10 7 -10 13 -16 15
-16 7 0 -10 -3 -11 -14 -2 -11 9 -16 9 -22 0 -5 -8 -3 -9 6 -4 9 5 11 4 6 -4
-5 -7 -12 -9 -19 -3 -16 11 -57 13 -57 2 0 -5 9 -7 20 -5 12 2 18 0 15 -6 -4
-5 -11 -7 -16 -4 -5 4 -9 0 -10 -7 0 -7 -5 -3 -11 10 -11 22 -48 31 -48 12 0
-5 8 -7 18 -4 13 5 14 4 3 -4 -10 -7 -26 -6 -50 2 -37 14 -61 11 -73 -8 -5 -7
-8 -6 -8 3 0 11 -3 11 -17 0 -16 -12 -17 -12 -6 2 7 9 9 20 5 25 -4 4 1 2 11
-5 10 -8 17 -9 17 -3 0 6 -6 12 -12 15 -18 5 -48 -4 -48 -15 0 -5 5 -6 12 -2
7 5 8 3 4 -5 -6 -9 -13 -8 -27 5 -18 16 -19 16 -28 -7 -6 -15 -10 -18 -10 -8
-1 19 -38 32 -48 17 -4 -7 -1 -8 7 -3 9 6 11 4 5 -5 -6 -10 -11 -9 -22 5 -9
14 -13 15 -13 4 -1 -10 -3 -9 -11 4 -10 17 -12 17 -37 -1 -29 -21 -60 -21 -73
0 -6 9 -9 9 -9 1 0 -6 -9 -10 -20 -8 -11 2 -20 -1 -20 -6 0 -6 -8 -3 -17 7
-15 15 -18 15 -27 1 -8 -13 -12 -12 -29 7 -17 19 -18 19 -12 2 6 -20 6 -20
-16 0 -12 10 -19 13 -15 7 4 -7 4 -13 -1 -14 -4 0 -20 -2 -36 -4 -15 -2 -25 0
-23 4 3 3 -4 7 -15 7 -14 0 -19 -5 -16 -18 3 -10 1 -16 -4 -12 -5 3 -9 11 -9
18 0 15 -67 16 -89 2 -10 -7 -12 -6 -6 4 6 10 3 12 -12 8 -11 -3 -28 -1 -38 5
-13 7 -16 6 -11 -2 4 -6 3 -11 -3 -11 -5 0 -12 4 -15 8 -9 16 -49 6 -57 -14
-7 -18 -8 -18 -8 1 -1 16 -3 17 -11 5 -5 -8 -20 -15 -35 -16 -14 0 -23 1 -21
4 3 2 -1 11 -9 18 -15 15 -26 18 -24 7 1 -5 1 -15 0 -23 -2 -10 -5 -8 -11 6
-6 16 -15 20 -34 17 -15 -3 -23 -10 -19 -16 3 -6 1 -7 -5 -3 -7 4 -12 2 -12
-6 0 -7 -7 -2 -16 10 -16 23 -34 29 -34 11 0 -5 6 -7 13 -3 8 5 8 3 -2 -9 -12
-16 -15 -15 -42 4 -16 11 -29 17 -29 13 0 -3 -7 -1 -15 6 -15 12 -20 4 -16
-22 2 -13 -6 -9 -20 9 -10 11 -10 14 -1 9 6 -4 12 -2 12 3 0 14 -13 14 -28 -1
-16 -16 -44 -20 -35 -5 3 7 -3 4 -14 -6 -16 -14 -23 -15 -29 -6 -4 8 -3 10 4
5 7 -4 12 -3 12 3 0 5 -9 9 -20 8 -11 -1 -19 -6 -16 -12 2 -7 -2 -12 -9 -12
-7 0 -11 6 -8 12 2 8 -8 14 -27 17 -20 3 -29 1 -27 -6 3 -8 -11 -12 -38 -12
-24 0 -42 3 -39 7 2 4 -4 10 -13 13 -18 7 -35 -12 -25 -29 4 -6 1 -6 -9 1 -8
6 -28 10 -46 9 -17 0 -30 3 -27 7 2 4 20 5 39 4 19 -2 33 0 30 4 -3 5 -23 7
-45 6 -30 -2 -40 1 -40 11 0 10 -6 13 -17 8 -10 -4 -42 -7 -70 -7 -42 0 -53
-3 -54 -17 0 -10 -2 -11 -6 -3 -2 6 -11 12 -18 12 -7 0 -16 -6 -18 -12 -3 -8
-6 -6 -6 5 -1 20 -31 23 -31 3 0 -8 -4 -18 -10 -21 -5 -3 -7 0 -4 8 10 26 -18
32 -38 7 -10 -12 -18 -18 -18 -13 0 5 5 14 11 20 8 8 7 13 -2 18 -7 5 -10 4
-6 -2 9 -15 -37 -25 -65 -14 -27 10 -51 4 -42 -11 4 -7 2 -8 -5 -4 -6 4 -9 11
-6 16 7 12 -22 17 -92 15 -45 -1 -64 3 -68 12 -2 8 -10 11 -16 8 -16 -11 -78
-11 -76 -1 3 16 -20 17 -33 1z m205 -34 c-9 -8 -36 -10 -30 -2 2 4 11 8 20 8
8 0 13 -3 10 -6z m59 -2 c3 -3 -5 -5 -19 -5 -13 0 -22 3 -19 7 4 8 30 6 38 -2z
m426 -24 c0 -6 -3 -6 -8 0 -8 12 -44 14 -52 4 -3 -4 -11 -1 -17 7 -11 11 -7
12 22 10 21 -3 35 1 35 8 0 6 5 4 10 -4 5 -8 10 -19 10 -25z m-109 2 c-10 -9
-11 -8 -5 6 3 10 9 15 12 12 3 -3 0 -11 -7 -18z m722 -18 c-8 -8 -13 -7 -18 2
-5 8 -4 10 3 5 7 -4 12 -2 12 5 0 7 3 9 7 6 4 -4 2 -12 -4 -18z m737 18 c0 -2
-10 -12 -22 -23 l-23 -19 19 23 c18 21 26 27 26 19z m-412 -24 c-13 -16 -22
-17 -12 -1 5 8 2 9 -10 5 -9 -4 -15 -3 -11 2 3 6 14 9 25 8 14 -1 16 -4 8 -14z
m23 -6 c-10 -9 -11 -8 -5 6 3 10 9 15 12 12 3 -3 0 -11 -7 -18z m1530 -4 c13
-16 12 -17 -3 -4 -17 13 -22 21 -14 21 2 0 10 -8 17 -17z m509 1 c0 -8 -19
-13 -24 -6 -3 5 1 9 9 9 8 0 15 -2 15 -3z m36 -6 c4 -7 4 -10 -1 -6 -4 4 -15
2 -24 -5 -14 -11 -14 -10 -2 6 16 20 18 21 27 5z m78 -4 c3 -8 2 -12 -4 -9 -6
3 -10 10 -10 16 0 14 7 11 14 -7z m299 -4 c-3 -12 -8 -19 -11 -16 -5 6 5 36
12 36 2 0 2 -9 -1 -20z m1554 -35 c0 -8 -4 -12 -9 -9 -5 3 -6 10 -3 15 9 13
12 11 12 -6z m752 -29 c-8 -8 -60 -15 -55 -8 2 4 17 9 32 10 15 1 25 0 23 -2z
m551 -11 c0 -2 -7 -5 -15 -9 -9 -3 -15 0 -15 9 0 9 6 12 15 9 8 -4 15 -7 15
-9z m-145 -13 c-3 -3 -11 0 -18 7 -9 10 -8 11 6 5 10 -3 15 -9 12 -12z m370 9
c3 -5 2 -12 -3 -15 -5 -3 -9 1 -9 9 0 17 3 19 12 6z m852 -68 c0 -9 -4 -10
-14 -2 -7 6 -13 12 -13 14 0 1 6 2 13 2 8 0 14 -6 14 -14z m63 -20 c0 5 5 5
10 2 6 -4 8 -11 4 -16 -7 -12 -34 8 -34 25 0 6 5 4 10 -4 5 -8 10 -11 10 -7z
m47 5 c13 -21 12 -35 -3 -35 -8 0 -12 2 -9 5 2 3 0 13 -6 23 -11 21 5 27 18 7z
m199 -191 c1 -9 -2 -15 -7 -11 -5 3 -7 9 -4 14 3 4 0 11 -5 13 -6 3 -5 4 1 3
7 -1 13 -10 15 -19z m29 -6 c3 -5 2 -12 -3 -15 -5 -3 -9 1 -9 9 0 17 3 19 12
6z m133 -156 c-3 -3 -9 2 -12 12 -6 14 -5 15 5 6 7 -7 10 -15 7 -18z m-6 -25
c19 -34 19 -34 0 -11 -15 19 -21 21 -24 10 -3 -8 -3 -4 -2 8 2 12 -1 24 -6 26
-7 4 -7 5 0 4 6 -1 20 -18 32 -37z m394 -222 c1 -15 -3 -25 -7 -22 -4 2 -6 11
-2 20 3 9 0 14 -7 12 -7 -2 -15 4 -17 12 -4 12 -3 12 5 1 6 -8 12 -9 16 -3 3
6 2 13 -4 17 -5 3 -10 12 -10 18 1 23 24 -28 26 -55z m-312 -164 c3 -8 2 -12
-4 -9 -6 3 -10 10 -10 16 0 14 7 11 14 -7z m176 -257 c0 -2 -10 -12 -22 -23
l-23 -19 19 23 c18 21 26 27 26 19z m-25 -86 c-9 -8 -36 -10 -30 -2 2 4 11 8
20 8 8 0 13 -3 10 -6z m-114 -184 c-10 -9 -11 -8 -5 6 3 10 9 15 12 12 3 -3 0
-11 -7 -18z m126 -77 c-4 -23 -12 -33 -32 -36 -10 -2 -8 6 7 27 26 34 29 35
25 9z m-7511 -15 c3 -14 11 -25 16 -25 6 0 4 -8 -3 -17 -10 -11 -10 -14 -1 -9
6 4 12 3 12 -3 0 -20 -23 -23 -37 -5 -8 10 -19 19 -26 19 -14 0 -17 7 -17 40
0 20 5 25 25 25 18 0 26 -7 31 -25z m-4861 -3 c-3 -3 -11 0 -18 7 -9 10 -8 11
6 5 10 -3 15 -9 12 -12z m4765 -18 c0 -14 -4 -23 -9 -20 -5 3 -7 15 -4 26 7
28 13 25 13 -6z m-3965 7 c-9 -8 -36 -10 -30 -2 2 4 11 8 20 8 8 0 13 -3 10
-6z m138 -4 c-3 -5 -11 -6 -18 -3 -7 2 -16 2 -19 -2 -4 -3 -17 -7 -29 -9 -17
-2 -19 -1 -7 6 8 5 17 8 21 5 4 -2 10 -1 13 4 2 4 14 8 25 8 11 0 17 -4 14 -9z
m4054 7 c-3 -3 -12 -4 -19 -1 -8 3 -5 6 6 6 11 1 17 -2 13 -5z m-467 -30 c0
-2 -7 -4 -15 -4 -8 0 -15 4 -15 10 0 5 7 7 15 4 8 -4 15 -8 15 -10z m282 -24
c3 -10 21 -15 57 -16 32 0 56 -6 61 -14 7 -11 11 -11 24 -1 11 10 16 10 16 2
0 -6 -10 -16 -22 -22 -21 -9 -21 -9 4 -4 20 4 31 0 42 -17 l15 -22 22 28 c37
47 59 64 84 64 19 0 22 -5 19 -25 -4 -21 -2 -24 16 -18 17 5 21 3 18 -11 -2
-9 3 -19 10 -21 9 -4 11 3 8 22 -3 15 -2 25 1 21 3 -3 13 0 22 6 9 7 13 8 9 4
-4 -5 -3 -15 2 -21 8 -9 6 -14 -5 -18 -12 -5 -10 -11 10 -33 14 -15 22 -30 19
-35 -3 -5 3 -9 12 -9 10 0 14 -3 11 -7 -4 -3 -17 -1 -30 5 -12 5 -37 13 -56
16 -27 5 -32 3 -27 -9 6 -17 -8 -18 -39 -5 l-20 9 20 0 c16 1 17 3 6 10 -8 5
-20 7 -26 5 -8 -3 -12 5 -11 22 0 15 -5 28 -12 30 -7 1 -8 0 -3 -2 6 -3 7 -12
4 -20 -3 -7 -9 -11 -14 -8 -12 7 -11 -3 1 -27 8 -15 7 -19 -4 -19 -7 0 -16 -7
-19 -15 -5 -11 -12 -12 -37 -4 -16 6 -30 17 -30 25 0 8 -4 14 -10 14 -5 0 -10
-6 -10 -14 0 -8 -9 -12 -22 -11 -13 1 -30 3 -37 4 -12 1 -12 4 -3 13 15 15 15
28 1 28 -5 0 -7 -5 -4 -11 4 -5 -7 -15 -24 -22 -17 -6 -31 -14 -31 -18 0 -4
-9 -5 -20 -2 -15 4 -19 11 -15 24 9 26 -4 24 -39 -6 -20 -17 -33 -22 -41 -15
-6 5 -15 7 -18 3 -4 -3 -7 -2 -7 4 0 6 -9 9 -20 6 -15 -4 -19 -2 -14 10 6 17
-11 18 -35 2 -10 -5 -16 -4 -19 3 -2 6 -10 8 -17 6 -11 -5 -12 0 -5 25 6 23 5
35 -6 45 -8 8 -14 21 -14 28 1 8 8 4 19 -9 14 -16 21 -19 30 -10 6 6 11 7 11
3 0 -4 13 6 29 23 27 29 31 30 40 14 8 -14 12 -16 22 -5 7 6 23 12 36 12 13 0
26 7 29 15 5 11 8 12 18 2 7 -7 15 -19 18 -27z m230 -16 c-5 -40 -17 -50 -44
-36 -16 7 -18 11 -7 11 10 1 19 13 23 32 8 40 32 34 28 -7z m-412 11 c-15 -17
-40 -20 -40 -4 0 6 7 9 15 6 8 -4 17 -2 20 3 4 6 9 10 12 10 3 0 0 -7 -7 -15z
m-60 -54 c0 -6 -5 -13 -10 -16 -6 -4 -8 -10 -5 -14 2 -5 -8 -13 -23 -20 -24
-10 -25 -10 -9 2 9 8 17 24 17 36 0 12 6 21 15 21 8 0 15 -4 15 -9z m7791
-106 c1 6 1 13 0 18 -2 12 6 8 20 -10 8 -9 9 -14 3 -10 -7 4 -17 0 -23 -7 -8
-10 -9 -16 -1 -21 5 -3 10 -1 10 4 0 21 16 11 17 -11 1 -13 -1 -18 -5 -12 -4
6 -15 10 -25 8 -9 -1 -15 2 -11 7 3 5 0 9 -6 9 -7 0 -10 7 -6 18 5 15 4 15 -8
-2 -14 -17 -15 -17 -12 10 2 16 4 31 5 34 1 3 10 -6 21 -20 11 -14 20 -20 21
-15z m-3958 -2260 c-3 -9 -8 -14 -10 -11 -3 3 -2 9 2 15 9 16 15 13 8 -4z
m-31 -52 c-10 -16 -22 -36 -25 -45 -4 -10 -12 -18 -19 -17 -10 0 -10 2 0 6 6
2 12 9 12 15 0 11 39 68 46 68 3 0 -3 -12 -14 -27z m-47 -81 c-6 -4 -16 -18
-22 -32 -6 -14 -12 -19 -12 -12 -1 20 18 52 32 52 8 0 8 -3 2 -8z m-70 -120
c-5 -4 -19 -24 -29 -44 -11 -21 -24 -38 -29 -38 -6 0 -4 8 5 18 8 9 19 29 26
45 6 15 17 27 24 27 8 0 9 -3 3 -8z m-131 -177 c-4 -8 -8 -15 -10 -15 -2 0 -4
7 -4 15 0 8 4 15 10 15 5 0 7 -7 4 -15z m-7424 -2310 c9 -11 9 -15 1 -15 -7 0
-9 -4 -6 -10 10 -16 -1 -11 -16 7 -10 11 -10 14 -1 9 6 -4 12 -3 12 3 0 5 -8
12 -17 14 -15 4 -15 5 -2 6 9 0 22 -6 29 -14z m500 -121 c256 -74 425 -130
478 -160 23 -14 42 -26 42 -27 0 -19 -229 21 -465 80 -236 58 -284 73 -317 96
-27 18 -37 54 -20 71 12 13 77 -1 282 -60z m7870 -30 c18 -18 -24 -58 -81 -76
-59 -19 -155 -44 -319 -82 -232 -53 -266 -60 -310 -61 -25 0 -48 -4 -52 -10
-4 -5 -8 0 -8 11 0 16 12 28 47 44 26 12 59 24 73 26 14 3 48 11 75 19 112 33
271 77 290 81 11 2 70 17 130 33 114 29 138 32 155 15z m-5408 -2045 c20 -10
42 -19 48 -19 6 0 48 -17 93 -38 45 -22 99 -44 118 -51 20 -6 44 -20 53 -30
15 -17 15 -19 0 -32 -29 -24 -120 -16 -201 19 -69 29 -76 30 -154 22 -74 -7
-96 -15 -233 -83 -194 -97 -360 -188 -364 -199 -2 -4 -7 -8 -12 -8 -10 0 -159
-87 -242 -141 -160 -104 -183 -103 -306 16 -47 46 -83 87 -79 91 4 4 15 0 24
-8 43 -38 107 -61 168 -60 79 1 105 4 105 15 0 4 5 5 10 2 6 -3 10 -1 10 6 0
7 3 9 6 6 8 -7 58 19 88 45 10 10 22 16 25 13 8 -4 103 50 97 56 -2 2 11 15
28 29 17 13 25 17 17 7 -16 -20 -9 -23 11 -4 7 6 52 32 101 57 48 24 87 48 87
52 0 4 6 7 13 6 6 -2 11 3 9 10 -1 8 2 10 8 7 6 -4 20 1 31 11 10 9 19 14 19
10 0 -4 22 5 50 21 27 15 50 31 50 36 0 4 6 7 13 7 6 0 23 9 37 20 14 11 32
20 41 20 17 0 51 32 95 87 23 29 30 32 62 27 20 -3 53 -15 74 -25z m2075 -154
c0 -8 -4 -12 -9 -9 -5 3 -6 10 -3 15 9 13 12 11 12 -6z m-3000 -260 c0 -8 -4
-12 -9 -9 -5 3 -6 10 -3 15 9 13 12 11 12 -6z"/>
<path d="M9947 9183 c-13 -12 -7 -23 13 -23 13 0 18 5 14 15 -7 16 -17 19 -27
8z"/>
<path d="M9864 9085 c1 -11 -6 -25 -14 -32 -12 -9 -13 -14 -2 -24 10 -11 12
-10 12 4 0 9 5 17 10 17 10 0 14 -14 11 -35 -1 -5 5 -2 13 8 9 12 15 14 18 6
3 -8 9 -6 21 5 13 14 14 20 4 30 -6 8 -14 10 -17 5 -9 -13 -48 1 -53 20 -3 10
-4 9 -3 -4z"/>
<path d="M10206 9084 c-4 -9 -4 -19 -2 -21 8 -8 26 8 26 23 0 19 -16 18 -24
-2z"/>
<path d="M9800 9034 c0 -6 7 -19 15 -30 8 -10 14 -14 14 -9 0 6 -6 19 -14 29
-8 11 -15 15 -15 10z"/>
<path d="M10260 9026 c0 -9 5 -16 10 -16 6 0 10 4 10 9 0 6 -4 13 -10 16 -5 3
-10 -1 -10 -9z"/>
<path d="M10115 8990 c3 -5 11 -10 16 -10 6 0 7 5 4 10 -3 6 -11 10 -16 10 -6
0 -7 -4 -4 -10z"/>
<path d="M9590 10782 c0 -5 7 -9 15 -9 8 0 12 4 9 9 -3 4 -9 8 -15 8 -5 0 -9
-4 -9 -8z"/>
<path d="M9911 10777 c2 -1 12 -9 22 -16 15 -12 17 -12 11 3 -3 9 -13 16 -22
16 -8 0 -13 -1 -11 -3z"/>
<path d="M10141 10767 c-8 -10 -7 -14 4 -14 8 0 15 6 15 14 0 7 -2 13 -4 13
-2 0 -9 -6 -15 -13z"/>
<path d="M10706 10761 c9 -9 34 -9 34 -1 0 5 -9 8 -20 7 -10 -1 -17 -3 -14 -6z"/>
<path d="M11855 10750 c3 -5 8 -10 11 -10 2 0 4 5 4 10 0 6 -5 10 -11 10 -5 0
-7 -4 -4 -10z"/>
<path d="M11990 10752 c0 -5 7 -9 15 -9 8 0 15 4 15 9 0 4 -7 8 -15 8 -8 0
-15 -4 -15 -8z"/>
<path d="M12086 10752 c-3 -5 1 -9 9 -9 8 0 12 4 9 9 -3 4 -7 8 -9 8 -2 0 -6
-4 -9 -8z"/>
<path d="M13323 10717 c-3 -7 -3 -9 2 -5 4 4 14 3 21 -3 7 -6 15 -6 18 -1 3 6
-3 12 -14 15 -11 3 -23 0 -27 -6z"/>
<path d="M15316 10672 c-3 -5 1 -9 9 -9 8 0 12 4 9 9 -3 4 -7 8 -9 8 -2 0 -6
-4 -9 -8z"/>
<path d="M15375 10660 c3 -5 8 -10 11 -10 2 0 4 5 4 10 0 6 -5 10 -11 10 -5 0
-7 -4 -4 -10z"/>
<path d="M16495 10610 c3 -5 8 -10 11 -10 2 0 4 5 4 10 0 6 -5 10 -11 10 -5 0
-7 -4 -4 -10z"/>
<path d="M17120 10526 c0 -2 8 -10 18 -17 15 -13 16 -12 3 4 -13 16 -21 21
-21 13z"/>
<path d="M17020 10494 c0 -8 5 -12 10 -9 6 4 8 11 5 16 -9 14 -15 11 -15 -7z"/>
<path d="M17050 10501 c0 -6 5 -13 10 -16 6 -4 8 -15 5 -25 -3 -10 -1 -21 5
-25 7 -4 10 0 8 11 -2 13 4 19 20 20 46 3 48 4 32 14 -8 5 -19 5 -25 0 -7 -6
-15 -2 -23 11 -13 20 -32 26 -32 10z"/>
<path d="M17098 10428 c9 -16 18 -24 20 -18 2 5 8 10 13 10 6 0 8 -4 4 -9 -3
-5 -1 -12 5 -16 6 -4 8 -11 4 -16 -3 -5 -2 -9 3 -8 21 4 34 -2 27 -12 -3 -6 0
-15 7 -20 22 -14 36 -10 17 5 -10 7 -15 16 -12 19 3 3 -3 12 -15 19 -12 7 -21
21 -21 30 0 16 -17 23 -42 19 -4 0 -5 5 -2 12 3 8 -2 14 -10 14 -13 0 -13 -4
2 -29z"/>
<path d="M17120 10449 c0 -5 5 -7 10 -4 6 3 10 8 10 11 0 2 -4 4 -10 4 -5 0
-10 -5 -10 -11z"/>
<path d="M17160 10426 c0 -23 16 -27 17 -5 1 10 -2 19 -8 19 -5 0 -9 -6 -9
-14z"/>
<path d="M17626 10238 c3 -5 10 -6 15 -3 13 9 11 12 -6 12 -8 0 -12 -4 -9 -9z"/>
<path d="M17631 10205 c0 -5 4 -19 8 -29 7 -19 8 -19 13 2 4 12 2 20 -2 17 -5
-3 -11 1 -13 7 -3 7 -5 9 -6 3z"/>
<path d="M17636 10139 c2 -4 -2 -10 -8 -12 -10 -4 -10 -6 0 -6 8 -1 10 -6 6
-13 -4 -8 -3 -10 2 -5 5 5 9 12 9 15 0 4 3 12 7 18 4 6 1 11 -7 11 -8 0 -12
-4 -9 -8z"/>
<path d="M17620 10075 c-7 -9 -8 -15 -2 -15 6 0 13 6 16 13 4 6 4 2 2 -11 -2
-12 0 -20 4 -17 5 3 11 -5 13 -17 3 -14 4 -10 4 10 -2 41 -19 58 -37 37z"/>
<path d="M17570 9891 c0 -7 -4 -10 -8 -7 -5 3 -9 -2 -9 -10 0 -13 2 -13 16 0
8 9 12 19 8 22 -4 4 -7 2 -7 -5z"/>
<path d="M17315 9840 c3 -5 8 -10 11 -10 2 0 4 5 4 10 0 6 -5 10 -11 10 -5 0
-7 -4 -4 -10z"/>
<path d="M17540 9811 c0 -7 -5 -9 -10 -6 -6 4 -9 1 -8 -7 2 -7 -2 -12 -9 -11
-12 2 -12 -23 0 -32 4 -3 5 -2 2 2 -3 3 5 17 17 30 12 12 18 26 15 30 -4 3 -7
1 -7 -6z"/>
<path d="M17600 9798 c0 -12 3 -18 7 -14 11 10 12 36 2 36 -5 0 -9 -10 -9 -22z"/>
<path d="M17579 9798 c-5 -18 -6 -38 -1 -34 7 8 12 36 6 36 -2 0 -4 -1 -5 -2z"/>
<path d="M17547 9759 c4 -13 8 -18 11 -10 2 7 -1 18 -6 23 -8 8 -9 4 -5 -13z"/>
<path d="M17433 9655 c0 -8 4 -12 9 -9 5 3 6 10 3 15 -9 13 -12 11 -12 -6z"/>
<path d="M17374 9485 c1 -26 16 -36 16 -10 0 8 0 18 1 22 0 4 -4 9 -9 11 -6 2
-9 -8 -8 -23z"/>
<path d="M17400 9352 c-17 -8 -18 -17 -6 -44 5 -10 12 -15 17 -12 15 9 10 -6
-7 -23 -10 -11 -12 -19 -5 -26 6 -6 7 -16 1 -28 -11 -20 1 -32 35 -36 11 -1
14 1 8 3 -7 3 -13 10 -13 15 0 6 4 8 8 5 15 -9 12 42 -3 54 -12 10 -15 9 -15
-4 0 -10 5 -14 11 -10 8 4 8 1 1 -12 -5 -11 -12 -26 -14 -34 -3 -8 -5 4 -4 28
0 23 6 46 12 50 7 5 6 15 -3 32 -7 14 -13 19 -13 12 0 -7 -5 -10 -11 -7 -7 5
-4 14 7 26 18 20 18 21 -6 11z"/>
<path d="M17510 9241 c0 -6 4 -13 10 -16 6 -3 7 1 4 9 -7 18 -14 21 -14 7z"/>
<path d="M3880 9220 c0 -5 5 -10 11 -10 5 0 7 5 4 10 -3 6 -8 10 -11 10 -2 0
-4 -4 -4 -10z"/>
<path d="M17460 9100 c-1 -8 -1 -19 0 -25 1 -5 3 -16 3 -23 1 -23 20 6 23 35
2 18 0 23 -5 14 -7 -11 -9 -11 -14 0 -4 11 -6 11 -7 -1z"/>
<path d="M9959 7406 c-2 -2 -35 -6 -74 -10 -38 -3 -95 -10 -125 -15 -30 -6
-73 -13 -95 -16 -107 -15 -367 -93 -515 -153 -75 -31 -211 -99 -220 -111 -3
-3 -12 -7 -20 -9 -21 -5 -118 -63 -145 -88 -13 -12 -26 -19 -29 -16 -3 3 -6 0
-6 -6 0 -7 -7 -12 -15 -12 -8 0 -15 -4 -15 -10 0 -5 -7 -10 -15 -10 -8 0 -15
-4 -15 -9 0 -5 -10 -12 -22 -15 -26 -7 -98 -71 -98 -87 0 -5 -5 -7 -12 -3 -8
5 -9 2 -4 -11 5 -14 4 -16 -7 -6 -17 13 -40 -7 -35 -30 2 -9 -4 -13 -16 -11
-12 2 -16 -1 -10 -9 5 -9 2 -10 -11 -5 -16 6 -16 4 -4 -11 9 -10 9 -14 2 -10
-14 9 -73 -43 -73 -64 0 -11 -2 -11 -10 1 -8 13 -10 12 -10 -3 0 -10 -4 -15
-10 -12 -5 3 -10 -1 -10 -9 0 -8 -5 -18 -12 -22 -7 -5 -8 -3 -3 6 6 9 4 11 -4
6 -7 -5 -10 -14 -7 -22 3 -9 0 -11 -12 -7 -9 3 -14 3 -10 -1 4 -5 -6 -21 -22
-36 -16 -15 -26 -31 -23 -34 4 -3 -1 -6 -11 -6 -9 0 -14 -4 -11 -10 3 -5 0
-10 -7 -10 -7 0 -26 -20 -41 -44 -15 -24 -39 -51 -53 -61 -13 -9 -22 -20 -19
-25 4 -6 -1 -10 -10 -10 -9 0 -14 -4 -11 -9 3 -5 -1 -11 -9 -15 -8 -3 -15 -12
-15 -21 0 -8 -5 -15 -12 -15 -6 0 -9 -3 -5 -6 6 -6 -2 -18 -43 -61 -14 -15
-18 -22 -10 -17 9 5 6 0 -7 -11 -13 -12 -23 -26 -23 -33 0 -7 -5 -12 -11 -12
-5 0 -15 -13 -20 -30 -6 -16 -15 -30 -19 -30 -4 0 -24 -33 -44 -72 -21 -40
-54 -104 -76 -143 -21 -38 -38 -72 -37 -75 0 -3 -7 -21 -16 -40 -89 -189 -179
-507 -213 -749 -20 -143 -30 -552 -16 -661 6 -47 16 -123 22 -170 26 -200 112
-486 213 -705 287 -623 845 -1143 1475 -1374 285 -105 526 -149 849 -158 454
-12 825 69 1230 268 436 214 821 556 1109 987 116 172 248 449 308 647 15 50
34 112 42 139 9 27 22 86 29 130 8 45 21 113 29 151 33 158 47 535 26 735 -16
145 -56 341 -101 489 -37 124 -133 368 -164 416 -7 11 -32 56 -55 100 -199
371 -547 735 -924 967 -110 68 -314 173 -391 201 -22 8 -76 29 -120 47 -104
41 -300 93 -450 119 -66 12 -131 24 -145 27 -29 6 -524 16 -531 10z m539 -297
c420 -58 813 -223 1151 -482 403 -310 703 -722 856 -1177 56 -167 88 -310 115
-509 68 -517 -58 -1121 -318 -1521 -20 -30 -41 -60 -47 -66 -30 -33 -54 -64
-48 -64 3 0 -8 -13 -25 -29 -16 -16 -28 -32 -24 -35 3 -3 -2 -6 -11 -6 -10 0
-17 -4 -17 -10 0 -12 -170 -185 -213 -217 -17 -13 -28 -23 -24 -23 10 0 -72
-66 -198 -160 -55 -41 -101 -78 -103 -82 -2 -5 -8 -8 -14 -8 -5 0 -43 -23 -84
-50 -41 -28 -77 -50 -80 -50 -3 0 -64 -29 -135 -65 -71 -35 -129 -62 -129 -60
0 2 -32 -9 -71 -26 -59 -24 -110 -41 -161 -55 -5 -1 -10 -3 -13 -4 -3 -1 -9
-4 -15 -5 -5 -1 -11 -3 -12 -5 -6 -4 -44 -11 -65 -12 -13 0 -23 -3 -23 -7 0
-4 -8 -7 -17 -8 -10 0 -36 -4 -58 -7 -22 -4 -49 -9 -60 -11 -11 -2 -31 -6 -45
-9 -24 -5 -39 -7 -175 -23 -122 -14 -492 -7 -550 11 -12 3 -67 14 -110 20 -16
3 -41 7 -55 10 -14 3 -41 7 -61 10 -20 3 -48 10 -63 15 -14 6 -26 7 -26 4 0
-4 -5 -2 -12 5 -7 7 -23 12 -35 12 -13 0 -37 7 -52 15 -16 8 -31 11 -35 8 -3
-4 -6 -2 -6 4 0 10 -46 28 -62 25 -5 -1 -8 3 -8 8 0 5 -3 9 -7 8 -14 -3 -77
14 -98 28 -11 7 -40 20 -65 30 -25 9 -57 25 -71 35 -14 10 -32 19 -40 21 -8 2
-20 10 -27 18 -12 13 -13 13 -6 0 7 -13 6 -13 -10 0 -10 8 -26 19 -36 25 -63
35 -181 110 -215 135 -22 17 -53 38 -69 48 -15 9 -53 41 -85 69 -31 29 -59 53
-62 53 -9 0 -279 271 -279 279 0 4 -18 27 -41 51 -70 77 -205 281 -278 422
-39 74 -71 140 -71 146 0 7 -9 31 -20 55 -61 132 -141 436 -154 587 -4 36 -9
76 -12 90 -11 43 -13 351 -3 440 24 226 58 368 142 595 73 199 263 513 401
665 390 429 780 670 1286 794 119 30 319 60 450 69 110 7 373 -5 508 -24z
m-1871 -214 c0 -8 -3 -13 -5 -10 -3 3 -12 -1 -21 -7 -10 -8 -9 -4 3 10 23 26
23 26 23 7z m-107 -85 c0 -5 -5 -10 -11 -10 -5 0 -7 5 -4 10 3 6 8 10 11 10 2
0 4 -4 4 -10z"/>
<path d="M10128 6364 c-2 -1 -41 -5 -88 -8 -112 -7 -159 -15 -193 -31 -15 -8
-25 -10 -22 -5 6 9 -28 1 -77 -19 -16 -6 -28 -8 -28 -5 0 2 -10 -1 -22 -8 -13
-7 -27 -13 -33 -13 -5 0 -9 -8 -7 -17 1 -9 -3 -20 -9 -24 -8 -5 -10 -2 -5 7 4
8 1 6 -6 -3 -11 -15 -13 -15 -26 0 -7 9 -11 11 -7 4 10 -19 -15 -45 -30 -32
-10 8 -15 8 -21 -1 -5 -8 -3 -9 6 -4 9 5 11 4 6 -4 -6 -9 -11 -9 -22 0 -11 9
-15 8 -20 -5 -3 -9 -11 -13 -17 -9 -6 4 -8 0 -5 -9 4 -8 0 -15 -8 -15 -7 0
-11 5 -8 11 3 6 -1 3 -9 -6 -8 -10 -17 -15 -20 -11 -4 3 -7 1 -7 -5 0 -7 -6
-11 -12 -10 -7 2 -12 -2 -11 -8 1 -6 -4 -11 -12 -11 -8 0 -11 5 -8 11 3 6 -6
0 -22 -14 -16 -14 -25 -18 -21 -10 4 8 -2 4 -14 -10 -12 -14 -19 -18 -15 -10
4 8 -3 4 -15 -10 -12 -14 -19 -18 -15 -10 4 8 -1 6 -9 -4 -9 -11 -16 -16 -16
-11 0 5 -7 0 -16 -11 -8 -10 -13 -12 -9 -4 4 8 -1 6 -9 -4 -9 -11 -16 -16 -16
-10 0 5 -5 1 -11 -8 -5 -10 -15 -18 -20 -18 -14 0 -145 -107 -233 -190 -72
-68 -181 -201 -212 -260 -11 -19 -29 -49 -42 -67 -33 -46 -89 -172 -128 -286
-139 -409 -108 -861 88 -1290 174 -382 500 -696 857 -827 103 -38 288 -86 361
-94 30 -3 64 -7 75 -10 39 -7 180 -19 215 -17 35 2 99 21 155 46 17 7 59 23
95 35 212 72 435 185 580 293 182 137 311 254 405 368 49 58 113 147 131 179
10 19 22 38 27 41 29 22 147 314 172 428 3 12 8 31 11 44 8 33 15 78 17 114 1
18 4 33 7 33 3 0 6 15 7 33 1 17 4 47 6 64 3 18 1 30 -3 28 -5 -3 -7 3 -5 12
2 10 4 18 5 18 1 0 3 35 5 78 1 49 -2 77 -8 77 -6 0 -3 6 8 13 14 11 15 16 5
22 -9 6 -11 4 -5 -5 5 -8 4 -11 -3 -7 -10 7 -11 32 0 42 10 11 -3 69 -20 90
-14 16 -14 18 -1 7 13 -9 16 -9 16 3 0 8 -5 15 -10 15 -6 0 -7 3 -4 7 4 3 1
13 -6 21 -7 10 -8 13 -1 9 9 -5 9 4 2 36 -5 23 -12 53 -14 67 -3 13 -11 31
-17 39 -10 12 -9 13 3 6 12 -7 13 -6 3 6 -6 8 -14 27 -17 43 -3 15 -10 34 -17
42 -6 8 -8 14 -4 14 5 0 0 10 -11 22 -10 12 -14 18 -7 15 6 -4 -2 20 -18 53
-16 33 -29 65 -29 70 0 6 -5 10 -12 10 -6 0 -9 3 -5 6 5 6 -15 41 -87 150 -41
61 -192 239 -242 285 -50 45 -185 144 -274 199 -146 92 -358 172 -545 206 -22
4 -42 8 -45 9 -42 11 -295 27 -302 19z m-318 -60 c0 -8 -19 -13 -24 -6 -3 5 1
9 9 9 8 0 15 -2 15 -3z m-34 -16 c4 -7 3 -10 -1 -5 -5 4 -20 -3 -33 -15 -14
-13 -22 -18 -18 -11 3 6 2 14 -4 18 -9 6 -15 -8 -11 -29 1 -5 -4 -4 -12 3 -12
9 -16 9 -19 -1 -3 -8 -7 -6 -11 5 -3 9 -3 16 1 15 4 -1 16 3 27 9 11 6 28 9
37 8 10 -2 20 1 24 6 7 12 11 11 20 -3z m586 -315 l3 -138 59 -7 c144 -18 275
-70 381 -151 145 -110 233 -271 271 -495 9 -51 14 -95 12 -98 -3 -2 -150 -5
-329 -6 l-324 -3 -6 37 c-7 45 -39 118 -51 118 -5 0 -7 -71 -6 -157 l3 -157
120 -46 c269 -104 387 -175 481 -288 101 -123 141 -230 151 -407 9 -176 -22
-311 -103 -441 -115 -186 -320 -305 -566 -330 l-68 -6 0 -134 0 -134 -90 0
c-65 0 -90 3 -91 13 0 6 0 69 1 140 l1 127 -34 0 c-89 0 -274 68 -376 138 -67
46 -156 138 -203 211 -23 36 -46 69 -51 72 -5 3 -8 9 -8 13 3 24 -1 36 -10 31
-6 -4 -9 0 -7 10 4 21 -32 30 -44 12 -5 -7 -6 0 -4 15 3 15 0 31 -6 34 -6 4
-9 3 -6 -2 9 -15 -7 -47 -25 -50 -10 -1 -15 2 -11 7 3 5 10 7 15 4 15 -10 10
41 -5 54 -16 14 -23 5 -20 -26 0 -12 -2 -21 -6 -18 -4 2 -6 18 -5 34 1 17 -2
28 -7 25 -5 -3 -7 -12 -6 -19 2 -8 -1 -14 -7 -14 -13 -1 -14 20 -1 39 10 13 9
13 -8 0 -18 -14 -19 -13 -13 2 3 10 3 20 -2 22 -4 3 -8 0 -8 -7 0 -7 -4 -21
-8 -32 -5 -16 -5 -17 4 -5 8 12 10 11 8 -7 -1 -15 -5 -19 -13 -13 -6 6 -13 7
-16 4 -3 -3 -9 0 -14 7 -5 8 -3 10 6 4 10 -6 11 -4 5 11 -4 10 -7 27 -7 36 0
10 -3 20 -9 23 -5 4 -6 -2 -2 -12 6 -15 4 -16 -9 -6 -8 7 -18 10 -21 6 -13
-12 -7 13 6 27 10 12 9 12 -4 2 -9 -6 -20 -8 -24 -4 -5 4 -2 -4 7 -18 8 -14
21 -25 28 -25 8 0 14 -6 16 -13 1 -7 0 -8 -3 -2 -3 8 -9 8 -18 0 -9 -7 -16 -6
-26 6 -8 10 -12 18 -10 18 2 1 -1 19 -7 41 -5 22 -13 59 -16 83 l-6 42 92 1
c51 1 109 3 128 4 19 1 181 4 360 5 l325 3 6 -36 c8 -48 38 -114 55 -121 12
-4 14 22 14 147 l0 153 -72 23 c-115 37 -306 118 -357 151 -50 31 -153 131
-197 190 -14 19 -38 60 -54 91 -31 60 -57 89 -57 64 0 -8 5 -11 10 -8 6 3 7 1
3 -6 -9 -14 -26 -5 -26 14 0 8 -4 16 -9 19 -5 4 -7 -4 -5 -16 2 -13 2 -17 -2
-10 -3 6 -10 12 -15 12 -6 0 -7 -6 -3 -12 4 -7 -2 -5 -13 5 -11 9 -23 14 -26
10 -13 -12 -7 13 6 26 7 8 7 11 1 8 -7 -4 -17 -1 -23 7 -9 11 -46 15 -46 6 0
-1 -8 -3 -18 -5 -9 -2 -15 1 -12 5 3 5 1 11 -5 15 -6 4 -8 10 -5 15 3 4 -3 14
-13 21 -16 13 -16 13 -2 -5 14 -18 13 -19 -2 -13 -13 4 -16 2 -11 -11 3 -9 -3
-6 -13 8 -26 35 -32 254 -10 358 31 146 124 293 239 379 127 94 259 140 466
164 63 7 109 15 103 17 -8 2 -9 9 -2 22 7 13 7 21 0 25 -5 3 -10 12 -10 18 0
9 2 9 8 0 5 -8 11 -3 19 13 10 21 10 24 -2 14 -10 -8 -15 -8 -21 1 -4 7 -3 9
3 6 7 -4 11 2 11 16 0 20 7 58 12 65 2 1 3 6 4 12 0 5 10 16 21 24 l20 15 -20
8 c-23 9 64 18 202 21 l82 2 3 -137z m-1101 -1076 c-10 -9 -11 -8 -5 6 3 10 9
15 12 12 3 -3 0 -11 -7 -18z m97 -10 c7 -5 10 -13 6 -18 -4 -6 -10 -6 -18 0
-7 6 -15 9 -18 6 -2 -3 -5 1 -5 9 0 15 14 16 35 3z m80 -958 c-3 -8 -7 -3 -11
10 -4 17 -3 21 5 13 5 -5 8 -16 6 -23z m66 -45 c3 -8 2 -12 -4 -9 -6 3 -10 10
-10 16 0 14 7 11 14 -7z"/>
<path d="M10062 6041 c0 -3 -1 -8 -2 -11 -1 -3 -3 -12 -5 -20 -2 -8 -6 -24
-10 -35 -6 -19 -6 -19 5 -2 7 11 13 25 14 32 1 7 7 19 14 27 9 12 9 15 -3 15
-7 0 -14 -3 -13 -6z"/>
<path d="M10162 5253 c-21 -8 -42 -60 -42 -103 0 -45 17 -85 49 -114 21 -19
21 -19 21 10 0 16 3 71 6 122 5 94 2 100 -34 85z"/>
<path d="M9296 4917 c3 -10 9 -15 12 -12 3 3 0 11 -7 18 -10 9 -11 8 -5 -6z"/>
<path d="M9396 4871 c-4 -5 -2 -12 3 -15 5 -4 12 -2 15 3 4 5 2 12 -3 15 -5 4
-12 2 -15 -3z"/>
<path d="M10380 4125 c0 -144 6 -152 64 -81 38 45 45 80 25 119 -15 29 -49 66
-71 78 -17 9 -18 1 -18 -116z"/>
<path d="M9332 3990 c0 -14 2 -19 5 -12 2 6 2 18 0 25 -3 6 -5 1 -5 -13z"/>
<path d="M9583 6225 c0 -8 4 -12 9 -9 5 3 6 10 3 15 -9 13 -12 11 -12 -6z"/>
<path d="M6475 7059 c-4 -6 -5 -12 -2 -15 2 -3 7 2 10 11 7 17 1 20 -8 4z"/>
<path d="M6506 6998 c3 -5 10 -6 15 -3 13 9 11 12 -6 12 -8 0 -12 -4 -9 -9z"/>
<path d="M6555 6991 c-3 -5 -2 -12 3 -15 5 -3 9 1 9 9 0 17 -3 19 -12 6z"/>
<path d="M1453 6265 c0 -44 2 -61 4 -37 2 23 2 59 0 80 -2 20 -4 1 -4 -43z"/>
<path d="M13206 6213 c-6 -14 -5 -15 5 -6 7 7 10 15 7 18 -3 3 -9 -2 -12 -12z"/>
<path d="M7135 6050 c-3 -5 -2 -10 4 -10 5 0 13 5 16 10 3 6 2 10 -4 10 -5 0
-13 -4 -16 -10z"/>
<path d="M1441 5984 c0 -11 3 -14 6 -6 3 7 2 16 -1 19 -3 4 -6 -2 -5 -13z"/>
<path d="M5780 4001 c0 -6 4 -13 10 -16 6 -3 7 1 4 9 -7 18 -14 21 -14 7z"/>
<path d="M5859 3913 c-13 -16 -12 -17 4 -4 16 13 21 21 13 21 -2 0 -10 -8 -17
-17z"/>
<path d="M1332 3186 c-15 -33 -15 -53 -2 -61 6 -4 10 -3 9 2 -1 4 1 20 5 35
11 39 3 55 -12 24z"/>
<path d="M10698 373 c6 -2 18 -2 25 0 6 3 1 5 -13 5 -14 0 -19 -2 -12 -5z"/>
<path d="M10603 363 c9 -2 25 -2 35 0 9 3 1 5 -18 5 -19 0 -27 -2 -17 -5z"/>
<path d="M9963 353 c9 -2 25 -2 35 0 9 3 1 5 -18 5 -19 0 -27 -2 -17 -5z"/>
<path d="M10293 353 c15 -2 37 -2 50 0 12 2 0 4 -28 4 -27 0 -38 -2 -22 -4z"/>
<path d="M10438 353 c7 -3 16 -2 19 1 4 3 -2 6 -13 5 -11 0 -14 -3 -6 -6z"/>
</g>
</svg>
