<?xml version="1.0" encoding="UTF-8"?>
<!DOCTYPE svg PUBLIC "-//W3C//DTD SVG 1.1//EN" "http://www.w3.org/Graphics/SVG/1.1/DTD/svg11.dtd">
<svg xmlns="http://www.w3.org/2000/svg" version="1.1" width="600px" height="600px" style="shape-rendering:geometricPrecision; text-rendering:geometricPrecision; image-rendering:optimizeQuality; fill-rule:evenodd; clip-rule:evenodd" xmlns:xlink="http://www.w3.org/1999/xlink">
<g><path style="opacity:1" fill="#fbfdfe" d="M -0.5,-0.5 C 17.8333,-0.5 36.1667,-0.5 54.5,-0.5C 54.5,-0.166667 54.5,0.166667 54.5,0.5C 50.6243,1.04348 46.9577,2.04348 43.5,3.5C 17.3965,12.2626 2.72985,30.2626 -0.5,57.5C -0.5,38.1667 -0.5,18.8333 -0.5,-0.5 Z"/></g>
<g><path style="opacity:1" fill="#e8f7fc" d="M 54.5,0.5 C 54.5,0.166667 54.5,-0.166667 54.5,-0.5C 236.167,-0.5 417.833,-0.5 599.5,-0.5C 599.5,18.8333 599.5,38.1667 599.5,57.5C 595.618,28.7689 579.618,10.2689 551.5,2C 549.19,1.50335 546.857,1.33669 544.5,1.5C 381.334,0.500342 218.001,0.167008 54.5,0.5 Z"/></g>
<g><path style="opacity:1" fill="#27bae9" d="M 54.5,0.5 C 218.001,0.167008 381.334,0.500342 544.5,1.5C 381.166,1.33333 217.833,1.5 54.5,2C 50.8296,2.54822 47.1629,3.04822 43.5,3.5C 46.9577,2.04348 50.6243,1.04348 54.5,0.5 Z"/></g>
<g><path style="opacity:1" fill="#0ab4e7" d="M 544.5,1.5 C 546.857,1.33669 549.19,1.50335 551.5,2C 579.618,10.2689 595.618,28.7689 599.5,57.5C 599.5,224.5 599.5,391.5 599.5,558.5C 595.686,579.486 583.352,592.652 562.5,598C 388.834,598.5 215.167,598.667 41.5,598.5C 17.8743,595.231 3.87431,581.898 -0.5,558.5C -0.5,391.5 -0.5,224.5 -0.5,57.5C 2.72985,30.2626 17.3965,12.2626 43.5,3.5C 47.1629,3.04822 50.8296,2.54822 54.5,2C 217.833,1.5 381.166,1.33333 544.5,1.5 Z"/></g>
<g><path style="opacity:1" fill="#f1fafd" d="M 111.5,24.5 C 113.936,24.317 116.103,24.9837 118,26.5C 118.667,41.1667 118.667,55.8333 118,70.5C 114.755,73.5119 112.088,73.1786 110,69.5C 109.333,55.1667 109.333,40.8333 110,26.5C 110.717,25.9558 111.217,25.2891 111.5,24.5 Z"/></g>
<g><path style="opacity:1" fill="#f6fcfe" d="M 197.5,24.5 C 199.722,24.178 201.556,24.8446 203,26.5C 203.667,41.1667 203.667,55.8333 203,70.5C 201.267,72.6015 199.267,72.9348 197,71.5C 196.183,55.7591 196.35,40.0924 197.5,24.5 Z"/></g>
<g><path style="opacity:1" fill="#094e78" d="M 278.5,29.5 C 277.5,29.5 276.5,29.5 275.5,29.5C 275.5,40.5 275.5,51.5 275.5,62.5C 274.505,51.3456 274.172,40.0123 274.5,28.5C 276.099,28.2322 277.432,28.5655 278.5,29.5 Z"/></g>
<g><path style="opacity:1" fill="#0d4e78" d="M 465.5,28.5 C 466.833,28.5 468.167,28.5 469.5,28.5C 469.5,29.8333 469.5,31.1667 469.5,32.5C 468.167,32.5 466.833,32.5 465.5,32.5C 465.5,31.1667 465.5,29.8333 465.5,28.5 Z"/></g>
<g><path style="opacity:1" fill="#0488b7" d="M 299.5,28.5 C 299.666,38.5056 299.5,48.5056 299,58.5C 297.905,57.3066 297.072,55.9733 296.5,54.5C 298.155,46.048 299.155,37.3813 299.5,28.5 Z"/></g>
<g><path style="opacity:1" fill="#0e365f" d="M 315.5,37.5 C 326.575,35.8466 332.242,40.5133 332.5,51.5C 325.833,51.5 319.167,51.5 312.5,51.5C 313.205,59.4911 317.538,62.3244 325.5,60C 327.306,59.1904 328.806,58.0238 330,56.5C 330.5,56.6667 331,56.8333 331.5,57C 324.94,65.4986 318.107,65.6653 311,57.5C 307.803,49.5245 309.303,42.8578 315.5,37.5 Z"/></g>
<g><path style="opacity:1" fill="#0e2e57" d="M 399.5,37.5 C 412.334,36.8367 417.501,42.8367 415,55.5C 411.834,62.0057 406.667,64.5057 399.5,63C 390.173,54.3324 390.173,45.8324 399.5,37.5 Z"/></g>
<g><path style="opacity:1" fill="#0c294f" d="M 466.5,38.5 C 467.824,42.107 468.491,46.107 468.5,50.5C 468.167,54.5 467.833,58.5 467.5,62.5C 466.502,54.5277 466.169,46.5277 466.5,38.5 Z"/></g>
<g><path style="opacity:1" fill="#0e335c" d="M 484.5,37.5 C 489.334,36.5902 493.334,37.9235 496.5,41.5C 497.497,48.4684 497.83,55.4684 497.5,62.5C 496.5,62.5 495.5,62.5 494.5,62.5C 494.666,55.4921 494.5,48.4921 494,41.5C 489.08,38.4869 484.746,39.1536 481,43.5C 480.5,49.8246 480.334,56.1579 480.5,62.5C 479.5,62.5 478.5,62.5 477.5,62.5C 477.169,54.4723 477.502,46.4723 478.5,38.5C 479.251,39.376 479.751,40.376 480,41.5C 481.397,39.9297 482.897,38.5964 484.5,37.5 Z"/></g>
<g><path style="opacity:1" fill="#f6fcfe" d="M 94.5,39.5 C 95.1174,39.6107 95.6174,39.944 96,40.5C 96.6667,48.1667 96.6667,55.8333 96,63.5C 93.4485,65.0203 91.2818,64.6869 89.5,62.5C 89.3337,55.4921 89.5004,48.4921 90,41.5C 91.1096,39.9632 92.6096,39.2965 94.5,39.5 Z"/></g>
<g><path style="opacity:1" fill="#f2fafd" d="M 133.5,38.5 C 135.722,38.178 137.556,38.8446 139,40.5C 139.667,47.8333 139.667,55.1667 139,62.5C 136.667,65.1667 134.333,65.1667 132,62.5C 131.333,55.1667 131.333,47.8333 132,40.5C 132.717,39.9558 133.217,39.2891 133.5,38.5 Z"/></g>
<g><path style="opacity:1" fill="#f5fcfe" d="M 181.5,41.5 C 181.5,48.5 181.5,55.5 181.5,62.5C 179.718,64.6869 177.552,65.0203 175,63.5C 174.333,55.8333 174.333,48.1667 175,40.5C 177.611,37.7566 179.778,38.09 181.5,41.5 Z"/></g>
<g><path style="opacity:1" fill="#fcfefe" d="M 224.5,62.5 C 222.5,65.1667 220.5,65.1667 218.5,62.5C 218.334,55.4921 218.5,48.4921 219,41.5C 220.667,40.1667 222.333,40.1667 224,41.5C 224.5,48.4921 224.666,55.4921 224.5,62.5 Z"/></g>
<g><path style="opacity:1" fill="#00b0e2" d="M 400.5,39.5 C 410.928,39.1585 414.761,44.1585 412,54.5C 411.654,56.8477 410.487,58.6811 408.5,60C 402.966,61.7869 398.799,60.2869 396,55.5C 394.316,49.1146 395.816,43.7813 400.5,39.5 Z"/></g>
<g><path style="opacity:1" fill="#01aee0" d="M 317.5,39.5 C 324.896,38.1821 328.896,41.1821 329.5,48.5C 323.833,48.5 318.167,48.5 312.5,48.5C 312.061,44.2848 313.727,41.2848 317.5,39.5 Z"/></g>
<g><path style="opacity:1" fill="#0e325a" d="M 429.5,37.5 C 431.5,37.5 433.5,37.5 435.5,37.5C 435.5,38.5 435.5,39.5 435.5,40.5C 432.03,39.8748 429.196,40.8748 427,43.5C 426.5,49.8246 426.334,56.1579 426.5,62.5C 425.5,62.5 424.5,62.5 423.5,62.5C 423.5,54.5 423.5,46.5 423.5,38.5C 424.93,38.4208 426.264,38.7542 427.5,39.5C 428.522,39.1445 429.189,38.4778 429.5,37.5 Z"/></g>
<g><path style="opacity:1" fill="#86daf4" d="M 94.5,39.5 C 92.6096,39.2965 91.1096,39.9632 90,41.5C 89.5004,48.4921 89.3337,55.4921 89.5,62.5C 88.3448,55.3451 88.1782,48.0118 89,40.5C 90.6779,38.4468 92.5112,38.1134 94.5,39.5 Z"/></g>
<g><path style="opacity:1" fill="#cceefa" d="M 224.5,62.5 C 224.666,55.4921 224.5,48.4921 224,41.5C 222.333,40.1667 220.667,40.1667 219,41.5C 218.5,48.4921 218.334,55.4921 218.5,62.5C 217.345,55.3451 217.178,48.0118 218,40.5C 220.333,37.8333 222.667,37.8333 225,40.5C 225.822,48.0118 225.655,55.3451 224.5,62.5 Z"/></g>
<g><path style="opacity:1" fill="#76d5f2" d="M 181.5,41.5 C 182.82,44.428 183.486,47.7614 183.5,51.5C 183.333,54.8333 183.167,58.1667 183,61.5C 182.617,62.056 182.117,62.3893 181.5,62.5C 181.5,55.5 181.5,48.5 181.5,41.5 Z"/></g>
<g><path style="opacity:1" fill="#0e335b" d="M 340.5,31.5 C 341.5,31.5 342.5,31.5 343.5,31.5C 343.5,33.8333 343.5,36.1667 343.5,38.5C 351.5,39.1667 351.5,39.8333 343.5,40.5C 343.5,47.1667 343.5,53.8333 343.5,60.5C 345.833,60.5 348.167,60.5 350.5,60.5C 350.5,61.5 350.5,62.5 350.5,63.5C 346.713,64.1856 343.546,63.1856 341,60.5C 340.5,53.8417 340.334,47.175 340.5,40.5C 336.5,39.8333 336.5,39.1667 340.5,38.5C 340.5,36.1667 340.5,33.8333 340.5,31.5 Z"/></g>
<g><path style="opacity:1" fill="#0d274f" d="M 299.5,28.5 C 301.478,39.4507 302.144,50.784 301.5,62.5C 300.178,62.67 299.011,62.3366 298,61.5C 291.724,51.5582 285.057,41.8915 278,32.5C 278.146,42.8835 277.313,52.8835 275.5,62.5C 275.5,51.5 275.5,40.5 275.5,29.5C 276.5,29.5 277.5,29.5 278.5,29.5C 285.211,37.228 291.211,45.5613 296.5,54.5C 297.072,55.9733 297.905,57.3066 299,58.5C 299.5,48.5056 299.666,38.5056 299.5,28.5 Z"/></g>
<g><path style="opacity:1" fill="#f3fbfd" d="M 68.5,49.5 C 70.4672,49.2606 72.3005,49.5939 74,50.5C 74.7991,55.0868 74.6324,59.5868 73.5,64C 71.5594,64.7429 69.7261,64.5762 68,63.5C 67.2266,58.7481 67.3932,54.0815 68.5,49.5 Z"/></g>
<g><path style="opacity:1" fill="#effafd" d="M 154.5,49.5 C 157.044,49.1043 159.211,49.771 161,51.5C 161.978,55.9002 161.478,60.0669 159.5,64C 157.251,64.8632 155.418,64.3632 154,62.5C 153.232,58.0804 153.398,53.7471 154.5,49.5 Z"/></g>
<g><path style="opacity:1" fill="#eef9fd" d="M 239.5,49.5 C 242.044,49.1043 244.211,49.771 246,51.5C 246.667,55.1667 246.667,58.8333 246,62.5C 243.667,65.1667 241.333,65.1667 239,62.5C 238.232,58.0804 238.398,53.7471 239.5,49.5 Z"/></g>
<g><path style="opacity:1" fill="#0e2e57" d="M 440.5,28.5 C 441.5,28.5 442.5,28.5 443.5,28.5C 443.334,34.8421 443.5,41.1754 444,47.5C 447.127,44.1396 450.627,41.3063 454.5,39C 455.833,38.3333 457.167,38.3333 458.5,39C 454.48,42.3572 450.48,45.6906 446.5,49C 451.446,52.9433 456.113,57.2766 460.5,62C 459.056,62.7805 457.723,62.6139 456.5,61.5C 452.616,57.4018 448.45,53.7351 444,50.5C 443.501,54.4862 443.334,58.4862 443.5,62.5C 442.5,62.5 441.5,62.5 440.5,62.5C 440.5,51.1667 440.5,39.8333 440.5,28.5 Z"/></g>
<g><path style="opacity:1" fill="#0d315a" d="M 354.5,38.5 C 356.335,39.1223 357.502,40.4556 358,42.5C 359.486,47.9536 361.152,53.287 363,58.5C 365.145,51.9012 366.978,45.2345 368.5,38.5C 370.167,38.5 371.833,38.5 373.5,38.5C 375.174,44.8592 377.007,51.1926 379,57.5C 382.244,51.6022 384.411,45.2688 385.5,38.5C 386.5,38.5 387.5,38.5 388.5,38.5C 386.626,46.3358 384.293,54.0024 381.5,61.5C 380.311,62.4287 378.978,62.762 377.5,62.5C 375.658,56.1391 373.658,49.8057 371.5,43.5C 370.201,44.09 369.368,45.09 369,46.5C 367.599,51.5353 366.099,56.5353 364.5,61.5C 363.311,62.4287 361.978,62.762 360.5,62.5C 358.302,54.5672 356.302,46.5672 354.5,38.5 Z"/></g>
<g><path style="opacity:1" fill="#0d2c55" d="M 509.5,37.5 C 512.85,37.335 516.183,37.5017 519.5,38C 521.286,38.7845 522.786,39.9512 524,41.5C 524.249,40.376 524.749,39.376 525.5,38.5C 526.665,47.8155 526.832,57.1489 526,66.5C 521.096,71.6838 515.262,72.8505 508.5,70C 506.393,68.7365 505.393,66.9032 505.5,64.5C 506.5,64.5 507.5,64.5 508.5,64.5C 508.724,68.5482 510.891,70.2149 515,69.5C 522.334,69.6759 524.834,66.3426 522.5,59.5C 518.364,61.4474 514.03,61.9474 509.5,61C 502.853,53.0977 502.853,45.2644 509.5,37.5 Z"/></g>
<g><path style="opacity:1" fill="#00afe2" d="M 511.5,39.5 C 521.821,38.6546 525.987,43.3213 524,53.5C 521.456,58.799 517.29,60.6323 511.5,59C 509.951,57.786 508.785,56.286 508,54.5C 506.461,48.6931 507.628,43.6931 511.5,39.5 Z"/></g>
<g><path style="opacity:1" fill="#09537d" d="M 384.5,81.5 C 385.495,92.6544 385.828,103.988 385.5,115.5C 384.167,115.5 382.833,115.5 381.5,115.5C 381.737,114.209 381.404,113.209 380.5,112.5C 380.56,111.957 380.893,111.624 381.5,111.5C 382.167,112.5 382.833,113.5 383.5,114.5C 384.499,103.52 384.832,92.5202 384.5,81.5 Z"/></g>
<g><path style="opacity:1" fill="#f1fafd" d="M 96.5,84.5 C 100.179,84.7244 103.846,85.0578 107.5,85.5C 107.5,88.1667 107.5,90.8333 107.5,93.5C 101.951,91.4078 97.1179,92.4078 93,96.5C 92.1002,107.418 96.9336,111.084 107.5,107.5C 107.5,110.167 107.5,112.833 107.5,115.5C 89.8512,118.35 82.3512,111.017 85,93.5C 87.6834,88.922 91.5168,85.922 96.5,84.5 Z"/></g>
<g><path style="opacity:1" fill="#f1fafd" d="M 118.5,85.5 C 121.167,85.5 123.833,85.5 126.5,85.5C 126.5,95.5 126.5,105.5 126.5,115.5C 123.833,115.5 121.167,115.5 118.5,115.5C 118.5,105.5 118.5,95.5 118.5,85.5 Z"/></g>
<g><path style="opacity:1" fill="#f2fafd" d="M 144.5,84.5 C 148.5,84.8333 152.5,85.1667 156.5,85.5C 156.808,87.924 156.474,90.2573 155.5,92.5C 152.227,91.4149 148.894,91.2483 145.5,92C 144.167,93.3333 144.167,94.6667 145.5,96C 152.37,96.2465 156.704,99.5798 158.5,106C 157.613,112.292 153.946,115.625 147.5,116C 144.5,116.667 141.5,116.667 138.5,116C 136.709,113.894 136.042,111.394 136.5,108.5C 140.382,109.637 144.216,109.637 148,108.5C 148.781,107.056 148.614,105.723 147.5,104.5C 137.715,102.914 134.549,97.5805 138,88.5C 140.013,86.7518 142.18,85.4185 144.5,84.5 Z"/></g>
<g><path style="opacity:1" fill="#f3fbfd" d="M 178.5,84.5 C 182.215,84.423 185.881,84.7564 189.5,85.5C 189.5,88.1667 189.5,90.8333 189.5,93.5C 185.537,92.56 181.537,92.3933 177.5,93C 171.946,98.4333 172.279,103.433 178.5,108C 182.203,108.579 185.869,108.412 189.5,107.5C 189.813,110.247 189.48,112.914 188.5,115.5C 179.154,118.573 171.987,115.907 167,107.5C 163.426,95.981 167.259,88.3143 178.5,84.5 Z"/></g>
<g><path style="opacity:1" fill="#f3fbfd" d="M 210.5,84.5 C 226.2,84.6873 232.367,92.354 229,107.5C 222.638,116.398 214.471,118.564 204.5,114C 195.235,104.968 195.235,95.968 204.5,87C 206.611,86.1553 208.611,85.322 210.5,84.5 Z"/></g>
<g><path style="opacity:1" fill="#0e3059" d="M 463.5,90.5 C 464.5,90.5 465.5,90.5 466.5,90.5C 469.03,97.5842 471.864,104.584 475,111.5C 477.055,105.058 479.388,98.7245 482,92.5C 483.471,90.1282 484.637,90.1282 485.5,92.5C 480.92,101.404 477.42,110.738 475,120.5C 473.067,123.649 470.234,124.982 466.5,124.5C 466.5,123.5 466.5,122.5 466.5,121.5C 471.027,122.474 473.36,120.641 473.5,116C 469.484,107.774 466.151,99.2739 463.5,90.5 Z"/></g>
<g><path style="opacity:1" fill="#25b8e9" d="M 209.5,92.5 C 217.538,91.3943 221.705,94.7276 222,102.5C 218.827,108.77 214.16,110.103 208,106.5C 204.607,101.409 205.107,96.7424 209.5,92.5 Z"/></g>
<g><path style="opacity:1" fill="#057eac" d="M 454.5,94.5 C 455.167,101.012 455.833,107.679 456.5,114.5C 457.496,108.537 457.829,102.537 457.5,96.5C 458.49,102.645 458.823,108.978 458.5,115.5C 457.167,115.5 455.833,115.5 454.5,115.5C 454.5,108.5 454.5,101.5 454.5,94.5 Z"/></g>
<g><path style="opacity:1" fill="#0d2a52" d="M 457.5,96.5 C 457.829,102.537 457.496,108.537 456.5,114.5C 455.833,107.679 455.167,101.012 454.5,94.5C 450.109,91.5683 445.943,91.9017 442,95.5C 441.5,102.158 441.334,108.825 441.5,115.5C 440.5,115.5 439.5,115.5 438.5,115.5C 438.666,108.492 438.5,101.492 438,94.5C 435.503,92.5218 432.669,92.0218 429.5,93C 427.393,94.2635 426.393,96.0968 426.5,98.5C 425.833,103.681 425.167,109.015 424.5,114.5C 423.502,106.528 423.169,98.5277 423.5,90.5C 424.859,91.0065 425.859,92.0065 426.5,93.5C 431.641,87.9344 436.474,88.2678 441,94.5C 441.956,93.4214 442.789,92.2547 443.5,91C 446.833,90.3333 450.167,90.3333 453.5,91C 455.746,92.2568 457.079,94.0901 457.5,96.5 Z"/></g>
<g><path style="opacity:1" fill="#0676a3" d="M 423.5,90.5 C 423.169,98.5277 423.502,106.528 424.5,114.5C 425.167,109.015 425.833,103.681 426.5,98.5C 426.5,104.167 426.5,109.833 426.5,115.5C 425.167,115.5 423.833,115.5 422.5,115.5C 422.174,106.983 422.507,98.6499 423.5,90.5 Z"/></g>
<g><path style="opacity:1" fill="#0d2952" d="M 312.5,90.5 C 316.182,90.3347 319.848,90.5014 323.5,91C 326.534,92.1912 328.201,94.3579 328.5,97.5C 327.5,97.5 326.5,97.5 325.5,97.5C 325.863,95.0885 324.863,93.5885 322.5,93C 313.87,90.8107 309.536,94.144 309.5,103C 310.24,113.591 315.407,116.424 325,111.5C 325.483,110.552 325.649,109.552 325.5,108.5C 326.675,108.281 327.675,108.614 328.5,109.5C 327.699,112.133 326.033,113.967 323.5,115C 309.754,115.887 304.587,109.387 308,95.5C 309.707,93.9625 311.207,92.2959 312.5,90.5 Z"/></g>
<g><path style="opacity:1" fill="#0d2f57" d="M 285.5,81.5 C 287.167,81.5 288.833,81.5 290.5,81.5C 294.703,92.775 298.703,104.108 302.5,115.5C 301.325,115.719 300.325,115.386 299.5,114.5C 298.805,111.72 297.805,109.053 296.5,106.5C 290.167,105.167 283.833,105.167 277.5,106.5C 276.199,109.427 275.199,112.427 274.5,115.5C 273.325,115.719 272.325,115.386 271.5,114.5C 275.793,103.273 280.459,92.2734 285.5,81.5 Z"/></g>
<g><path style="opacity:1" fill="#02a7d9" d="M 287.5,84.5 C 288.937,88.004 290.604,91.504 292.5,95C 293.687,97.7236 294.353,100.557 294.5,103.5C 289.5,103.5 284.5,103.5 279.5,103.5C 281.87,97.088 284.536,90.7547 287.5,84.5 Z"/></g>
<g><path style="opacity:1" fill="#0d2c54" d="M 384.5,81.5 C 384.832,92.5202 384.499,103.52 383.5,114.5C 382.833,113.5 382.167,112.5 381.5,111.5C 380.893,111.624 380.56,111.957 380.5,112.5C 379.691,113.469 378.691,114.302 377.5,115C 367.681,116.987 362.681,112.82 362.5,102.5C 363.955,90.0544 370.122,87.0544 381,93.5C 381.499,89.5138 381.666,85.5138 381.5,81.5C 382.5,81.5 383.5,81.5 384.5,81.5 Z"/></g>
<g><path style="opacity:1" fill="#00b0e3" d="M 369.5,92.5 C 380.001,92.1199 383.834,97.1199 381,107.5C 379.02,112.906 375.186,114.739 369.5,113C 364.261,106.197 364.261,99.3637 369.5,92.5 Z"/></g>
<g><path style="opacity:1" fill="#0d2b54" d="M 398.5,90.5 C 405.159,88.9887 410.326,90.9887 414,96.5C 414.497,98.8098 414.663,101.143 414.5,103.5C 408.167,103.5 401.833,103.5 395.5,103.5C 395.547,111.717 399.547,114.883 407.5,113C 409.5,112.333 410.833,111 411.5,109C 412.332,108.312 412.998,108.479 413.5,109.5C 412.699,112.133 411.033,113.967 408.5,115C 395.782,116.269 390.615,110.436 393,97.5C 394.316,94.6925 396.15,92.3592 398.5,90.5 Z"/></g>
<g><path style="opacity:1" fill="#01abdd" d="M 399.5,92.5 C 407.344,90.7298 411.344,93.7298 411.5,101.5C 406.167,101.5 400.833,101.5 395.5,101.5C 395.34,99.8008 395.506,98.1341 396,96.5C 397.376,95.2949 398.542,93.9616 399.5,92.5 Z"/></g>
<g><path style="opacity:1" fill="#0d2d56" d="M 339.5,90.5 C 343.514,90.3345 347.514,90.5012 351.5,91C 353,91.8333 354.167,93 355,94.5C 355.831,101.192 355.664,107.858 354.5,114.5C 353.749,113.624 353.249,112.624 353,111.5C 348.865,115.191 344.031,116.358 338.5,115C 335.384,112.039 334.717,108.539 336.5,104.5C 341.184,100.952 346.517,99.619 352.5,100.5C 352.945,97.6354 352.278,95.1354 350.5,93C 347.167,92.3333 343.833,92.3333 340.5,93C 338.963,94.1096 338.297,95.6096 338.5,97.5C 337.5,97.5 336.5,97.5 335.5,97.5C 335.961,94.6967 337.295,92.3634 339.5,90.5 Z"/></g>
<g><path style="opacity:1" fill="#01acde" d="M 344.5,102.5 C 347.167,102.5 349.833,102.5 352.5,102.5C 353.805,109.734 350.805,113.401 343.5,113.5C 339.893,114.053 337.893,112.553 337.5,109C 338.436,105.227 340.769,103.061 344.5,102.5 Z"/></g>
<g><path style="opacity:1" fill="#008bd8" d="M 525.5,146.5 C 507.501,154.668 490.168,164.168 473.5,175C 459.175,187.325 445.509,200.325 432.5,214C 419.855,223.972 407.189,233.972 394.5,244C 393.262,244.69 393.262,245.19 394.5,245.5C 358.424,265.684 319.59,276.017 278,276.5C 264.062,276.612 250.229,275.445 236.5,273C 202.577,263.949 168.244,256.949 133.5,252C 111.538,249.511 89.5385,249.011 67.5,250.5C 68.6085,249.71 69.9419,249.21 71.5,249C 80.8333,248.667 90.1667,248.333 99.5,248C 73.1201,245.859 46.7867,246.025 20.5,248.5C 19.9552,236.992 19.9552,225.658 20.5,214.5C 111.535,230.885 202.868,231.719 294.5,217C 357.783,206.666 416.45,184.666 470.5,151C 471.71,149.961 472.71,148.794 473.5,147.5C 490.756,146.515 508.09,146.181 525.5,146.5 Z"/></g>
<g><path style="opacity:1" fill="#0278cf" d="M 525.5,146.5 C 536.549,146.15 547.549,146.65 558.5,148C 560.228,149.726 562.228,151.059 564.5,152C 561.635,152.183 558.969,152.683 556.5,153.5C 515.478,159.847 479.478,176.681 448.5,204C 432.885,221.137 414.885,234.971 394.5,245.5C 393.262,245.19 393.262,244.69 394.5,244C 407.189,233.972 419.855,223.972 432.5,214C 445.509,200.325 459.175,187.325 473.5,175C 490.168,164.168 507.501,154.668 525.5,146.5 Z"/></g>
<g><path style="opacity:1" fill="#0e274d" d="M 473.5,147.5 C 472.71,148.794 471.71,149.961 470.5,151C 416.45,184.666 357.783,206.666 294.5,217C 202.868,231.719 111.535,230.885 20.5,214.5C 20.3334,201.496 20.5001,188.496 21,175.5C 25.2909,162.539 33.7909,153.372 46.5,148C 188.833,147.5 331.166,147.333 473.5,147.5 Z"/></g>
<g><path style="opacity:1" fill="#65d6f2" d="M 556.5,153.5 C 560.182,153.335 563.848,153.501 567.5,154C 576.734,161.296 582.234,170.796 584,182.5C 584.5,194.829 584.667,207.162 584.5,219.5C 579.968,219.182 575.634,219.515 571.5,220.5C 536.055,225.055 506.722,240.888 483.5,268C 471.858,277.497 459.858,286.331 447.5,294.5C 411.126,318.074 371.459,333.407 328.5,340.5C 278.735,347.641 229.735,344.308 181.5,330.5C 151.872,322.475 121.705,318.142 91,317.5C 67.1759,317.332 44.0092,320.999 21.5,328.5C 20.1677,317.186 19.501,305.52 19.5,293.5C 19.5097,281.426 19.843,269.426 20.5,257.5C 35.9071,253.525 51.5738,251.192 67.5,250.5C 89.5385,249.011 111.538,249.511 133.5,252C 168.244,256.949 202.577,263.949 236.5,273C 250.229,275.445 264.062,276.612 278,276.5C 319.59,276.017 358.424,265.684 394.5,245.5C 414.885,234.971 432.885,221.137 448.5,204C 479.478,176.681 515.478,159.847 556.5,153.5 Z"/></g>
<g><path style="opacity:1" fill="#a7afbd" d="M 161.5,169.5 C 158.833,169.5 156.167,169.5 153.5,169.5C 153.5,171.167 153.5,172.833 153.5,174.5C 156.167,174.5 158.833,174.5 161.5,174.5C 158.713,175.477 155.713,175.81 152.5,175.5C 152.5,173.167 152.5,170.833 152.5,168.5C 155.713,168.19 158.713,168.523 161.5,169.5 Z"/></g>
<g><path style="opacity:1" fill="#a6aebc" d="M 186.5,168.5 C 189.5,168.5 192.5,168.5 195.5,168.5C 195.5,170.833 195.5,173.167 195.5,175.5C 192.5,175.5 189.5,175.5 186.5,175.5C 186.5,173.167 186.5,170.833 186.5,168.5 Z"/></g>
<g><path style="opacity:1" fill="#f3f4f6" d="M 177.5,174.5 C 176.566,175.568 176.232,176.901 176.5,178.5C 178.833,178.5 181.167,178.5 183.5,178.5C 183.5,180.167 183.5,181.833 183.5,183.5C 181.167,183.5 178.833,183.5 176.5,183.5C 176.5,190.167 176.5,196.833 176.5,203.5C 174.167,203.5 171.833,203.5 169.5,203.5C 169.5,196.833 169.5,190.167 169.5,183.5C 168.167,183.5 166.833,183.5 165.5,183.5C 165.5,181.833 165.5,180.167 165.5,178.5C 166.833,178.5 168.167,178.5 169.5,178.5C 169.5,176.5 169.5,174.5 169.5,172.5C 170.29,171.206 171.29,170.039 172.5,169C 176.486,168.501 180.486,168.334 184.5,168.5C 184.799,170.604 184.466,172.604 183.5,174.5C 181.357,173.246 179.357,173.246 177.5,174.5 Z"/></g>
<g><path style="opacity:1" fill="#bdc2cd" d="M 251.5,202.5 C 253.5,202.5 255.5,202.5 257.5,202.5C 257.5,191.5 257.5,180.5 257.5,169.5C 255.5,169.5 253.5,169.5 251.5,169.5C 251.813,173.042 251.479,176.375 250.5,179.5C 250.5,175.833 250.5,172.167 250.5,168.5C 253.167,168.5 255.833,168.5 258.5,168.5C 258.5,180.167 258.5,191.833 258.5,203.5C 255.941,203.802 253.607,203.468 251.5,202.5 Z"/></g>
<g><path style="opacity:1" fill="#eceef1" d="M 67.5,168.5 C 70.5,168.5 73.5,168.5 76.5,168.5C 77.777,177.361 80.4436,185.694 84.5,193.5C 87.3018,185.292 89.6352,176.959 91.5,168.5C 94.1667,168.5 96.8333,168.5 99.5,168.5C 96.5744,180.277 93.2411,191.944 89.5,203.5C 85.5,203.5 81.5,203.5 77.5,203.5C 74.3235,191.795 70.9902,180.128 67.5,168.5 Z"/></g>
<g><path style="opacity:1" fill="#f0f1f4" d="M 251.5,202.5 C 251.265,201.903 250.765,201.57 250,201.5C 238.261,207.148 231.761,203.315 230.5,190C 230.524,184.615 232.857,180.615 237.5,178C 241.984,177.269 246.318,177.769 250.5,179.5C 251.479,176.375 251.813,173.042 251.5,169.5C 253.5,169.5 255.5,169.5 257.5,169.5C 257.5,180.5 257.5,191.5 257.5,202.5C 255.5,202.5 253.5,202.5 251.5,202.5 Z"/></g>
<g><path style="opacity:1" fill="#f3f4f6" d="M 161.5,169.5 C 161.5,171.167 161.5,172.833 161.5,174.5C 158.833,174.5 156.167,174.5 153.5,174.5C 153.5,172.833 153.5,171.167 153.5,169.5C 156.167,169.5 158.833,169.5 161.5,169.5 Z"/></g>
<g><path style="opacity:1" fill="#f7f8f9" d="M 187.5,169.5 C 189.833,169.5 192.167,169.5 194.5,169.5C 194.5,171.167 194.5,172.833 194.5,174.5C 192.167,174.5 189.833,174.5 187.5,174.5C 187.5,172.833 187.5,171.167 187.5,169.5 Z"/></g>
<g><path style="opacity:1" fill="#707e95" d="M 169.5,172.5 C 169.5,174.5 169.5,176.5 169.5,178.5C 168.167,178.5 166.833,178.5 165.5,178.5C 166.209,177.596 167.209,177.263 168.5,177.5C 168.216,175.585 168.549,173.919 169.5,172.5 Z"/></g>
<g><path style="opacity:1" fill="#b8bec9" d="M 149.5,177.5 C 149.802,180.059 149.468,182.393 148.5,184.5C 148.5,182.5 148.5,180.5 148.5,178.5C 146.097,178.448 143.764,178.781 141.5,179.5C 141.611,178.883 141.944,178.383 142.5,178C 144.81,177.503 147.143,177.337 149.5,177.5 Z"/></g>
<g><path style="opacity:1" fill="#546681" d="M 177.5,174.5 C 177.5,175.5 177.5,176.5 177.5,177.5C 179.735,177.205 181.735,177.539 183.5,178.5C 181.167,178.5 178.833,178.5 176.5,178.5C 176.232,176.901 176.566,175.568 177.5,174.5 Z"/></g>
<g><path style="opacity:1" fill="#edeff2" d="M 127.5,192.5 C 121.167,192.5 114.833,192.5 108.5,192.5C 108.263,193.791 108.596,194.791 109.5,195.5C 110.392,197.714 112.058,198.714 114.5,198.5C 116.355,198.66 117.688,197.993 118.5,196.5C 120.833,196.5 123.167,196.5 125.5,196.5C 125.5,197.833 125.5,199.167 125.5,200.5C 119.681,204.686 113.348,205.52 106.5,203C 100.07,196.738 98.9033,189.571 103,181.5C 107.785,177.627 113.285,176.46 119.5,178C 125.619,180.809 128.286,185.642 127.5,192.5 Z"/></g>
<g><path style="opacity:1" fill="#fafbfc" d="M 148.5,184.5 C 146.585,184.216 144.919,184.549 143.5,185.5C 142.167,186.167 141.167,187.167 140.5,188.5C 139.514,192.97 139.181,197.637 139.5,202.5C 137.5,202.5 135.5,202.5 133.5,202.5C 133.5,194.833 133.5,187.167 133.5,179.5C 135.621,179.325 137.621,179.659 139.5,180.5C 140.167,180.167 140.833,179.833 141.5,179.5C 143.764,178.781 146.097,178.448 148.5,178.5C 148.5,180.5 148.5,182.5 148.5,184.5 Z"/></g>
<g><path style="opacity:1" fill="#e9ebee" d="M 218.5,196.5 C 221.388,195.99 223.721,196.656 225.5,198.5C 225.586,199.496 225.252,200.329 224.5,201C 216.573,206.006 209.073,205.506 202,199.5C 196.615,183.891 202.115,176.724 218.5,178C 224.911,180.644 227.911,185.478 227.5,192.5C 221.167,192.5 214.833,192.5 208.5,192.5C 209.816,198.668 213.149,200.001 218.5,196.5 Z"/></g>
<g><path style="opacity:1" fill="#ced1da" d="M 139.5,180.5 C 137.621,179.659 135.621,179.325 133.5,179.5C 133.5,187.167 133.5,194.833 133.5,202.5C 135.5,202.5 137.5,202.5 139.5,202.5C 139.181,197.637 139.514,192.97 140.5,188.5C 140.5,193.5 140.5,198.5 140.5,203.5C 137.833,203.5 135.167,203.5 132.5,203.5C 132.5,195.167 132.5,186.833 132.5,178.5C 135.388,177.99 137.721,178.656 139.5,180.5 Z"/></g>
<g><path style="opacity:1" fill="#bdc3cd" d="M 153.5,178.5 C 156.167,178.5 158.833,178.5 161.5,178.5C 161.5,186.833 161.5,195.167 161.5,203.5C 158.833,203.5 156.167,203.5 153.5,203.5C 153.5,195.167 153.5,186.833 153.5,178.5 Z"/></g>
<g><path style="opacity:1" fill="#fcfcfc" d="M 154.5,179.5 C 156.5,179.5 158.5,179.5 160.5,179.5C 160.5,187.167 160.5,194.833 160.5,202.5C 158.5,202.5 156.5,202.5 154.5,202.5C 154.5,194.833 154.5,187.167 154.5,179.5 Z"/></g>
<g><path style="opacity:1" fill="#cbd0d9" d="M 187.5,178.5 C 190.167,178.5 192.833,178.5 195.5,178.5C 195.5,186.833 195.5,195.167 195.5,203.5C 192.833,203.5 190.167,203.5 187.5,203.5C 187.5,195.167 187.5,186.833 187.5,178.5 Z"/></g>
<g><path style="opacity:1" fill="#fefffe" d="M 188.5,179.5 C 190.167,179.5 191.833,179.5 193.5,179.5C 193.5,187.167 193.5,194.833 193.5,202.5C 191.833,202.5 190.167,202.5 188.5,202.5C 188.5,194.833 188.5,187.167 188.5,179.5 Z"/></g>
<g><path style="opacity:1" fill="#555e7c" d="M 117.5,183.5 C 115.05,183.298 112.717,183.631 110.5,184.5C 111.152,183.275 112.319,182.608 114,182.5C 115.385,182.514 116.551,182.848 117.5,183.5 Z"/></g>
<g><path style="opacity:1" fill="#0e234c" d="M 117.5,183.5 C 117.833,184.167 118.167,184.833 118.5,185.5C 117.486,186.765 115.986,187.431 114,187.5C 112.014,187.431 110.514,186.765 109.5,185.5C 109.5,184.833 109.833,184.5 110.5,184.5C 112.717,183.631 115.05,183.298 117.5,183.5 Z"/></g>
<g><path style="opacity:1" fill="#576782" d="M 149.5,177.5 C 150.473,179.948 150.806,182.615 150.5,185.5C 148.167,185.5 145.833,185.5 143.5,185.5C 144.919,184.549 146.585,184.216 148.5,184.5C 149.468,182.393 149.802,180.059 149.5,177.5 Z"/></g>
<g><path style="opacity:1" fill="#51637f" d="M 183.5,183.5 C 181.735,184.461 179.735,184.795 177.5,184.5C 177.823,191.022 177.49,197.355 176.5,203.5C 176.5,196.833 176.5,190.167 176.5,183.5C 178.833,183.5 181.167,183.5 183.5,183.5 Z"/></g>
<g><path style="opacity:1" fill="#1b2d54" d="M 241.5,183.5 C 249.576,183.71 252.243,187.71 249.5,195.5C 245.571,199.797 242.071,199.464 239,194.5C 237.812,190.259 238.645,186.592 241.5,183.5 Z"/></g>
<g><path style="opacity:1" fill="#818ea2" d="M 165.5,183.5 C 166.833,183.5 168.167,183.5 169.5,183.5C 169.5,190.167 169.5,196.833 169.5,203.5C 168.51,197.355 168.177,191.022 168.5,184.5C 167.209,184.737 166.209,184.404 165.5,183.5 Z"/></g>
<g><path style="opacity:1" fill="#1d2f56" d="M 210.5,182.5 C 215.11,182.12 217.776,184.12 218.5,188.5C 215.167,188.5 211.833,188.5 208.5,188.5C 208.253,186.142 208.919,184.142 210.5,182.5 Z"/></g>
<g><path style="opacity:1" fill="#4f607c" d="M 109.5,185.5 C 110.514,186.765 112.014,187.431 114,187.5C 115.986,187.431 117.486,186.765 118.5,185.5C 119.404,186.209 119.737,187.209 119.5,188.5C 115.833,188.5 112.167,188.5 108.5,188.5C 108.263,187.209 108.596,186.209 109.5,185.5 Z"/></g>
<g><path style="opacity:1" fill="#526480" d="M 127.5,192.5 C 121.265,192.853 115.265,193.853 109.5,195.5C 108.596,194.791 108.263,193.791 108.5,192.5C 114.833,192.5 121.167,192.5 127.5,192.5 Z"/></g>
<g><path style="opacity:1" fill="#8793a5" d="M 118.5,196.5 C 121.287,195.523 124.287,195.19 127.5,195.5C 127.598,197.553 126.931,199.22 125.5,200.5C 125.5,199.167 125.5,197.833 125.5,196.5C 123.167,196.5 120.833,196.5 118.5,196.5 Z"/></g>
<g><path style="opacity:1" fill="#8793a5" d="M 218.5,196.5 C 220.948,195.527 223.615,195.194 226.5,195.5C 226.737,196.791 226.404,197.791 225.5,198.5C 223.721,196.656 221.388,195.99 218.5,196.5 Z"/></g>
<g><path style="opacity:1" fill="#049bdd" d="M 571.5,220.5 C 575.833,220.5 580.167,220.5 584.5,220.5C 584.5,224.167 584.5,227.833 584.5,231.5C 565.414,231.149 547.414,235.316 530.5,244C 520.32,249.587 510.654,255.921 501.5,263C 489.603,273.738 477.603,284.238 465.5,294.5C 464.609,295.11 463.609,295.443 462.5,295.5C 457.305,295.821 452.305,295.487 447.5,294.5C 459.858,286.331 471.858,277.497 483.5,268C 506.722,240.888 536.055,225.055 571.5,220.5 Z"/></g>
<g><path style="opacity:1" fill="#0278cf" d="M 67.5,250.5 C 51.5738,251.192 35.9071,253.525 20.5,257.5C 20.5,254.5 20.5,251.5 20.5,248.5C 46.7867,246.025 73.1201,245.859 99.5,248C 90.1667,248.333 80.8333,248.667 71.5,249C 69.9419,249.21 68.6085,249.71 67.5,250.5 Z"/></g>
<g><path style="opacity:1" fill="#32c8ee" d="M 581.5,367.5 C 545.013,380.765 507.346,388.598 468.5,391C 456.501,391.591 444.501,392.091 432.5,392.5C 397.165,392.667 361.832,392.5 326.5,392C 282.852,389.963 239.185,388.463 195.5,387.5C 144.661,387.689 95.3277,396.189 47.5,413C 40.58,415.963 33.9134,419.13 27.5,422.5C 25.7162,422.893 24.0495,423.559 22.5,424.5C 21.0689,424.119 20.2355,423.119 20,421.5C 19.5,393.835 19.3334,366.169 19.5,338.5C 22.0101,338.946 24.0101,338.28 25.5,336.5C 60.4302,326.479 96.0968,322.979 132.5,326C 148.279,326.92 163.945,328.753 179.5,331.5C 180.416,331.457 181.083,331.124 181.5,330.5C 229.735,344.308 278.735,347.641 328.5,340.5C 330.966,341.634 333.633,341.801 336.5,341C 381.788,334.365 423.788,319.198 462.5,295.5C 463.609,295.443 464.609,295.11 465.5,294.5C 497.227,293.122 527.561,285.955 556.5,273C 565.732,267.88 574.065,261.547 581.5,254C 582.448,253.517 583.448,253.351 584.5,253.5C 584.5,291.167 584.5,328.833 584.5,366.5C 583.209,366.263 582.209,366.596 581.5,367.5 Z"/></g>
<g><path style="opacity:1" fill="#1cade4" d="M 447.5,294.5 C 452.305,295.487 457.305,295.821 462.5,295.5C 423.788,319.198 381.788,334.365 336.5,341C 333.633,341.801 330.966,341.634 328.5,340.5C 371.459,333.407 411.126,318.074 447.5,294.5 Z"/></g>
<g><path style="opacity:1" fill="#1cade4" d="M 181.5,330.5 C 181.083,331.124 180.416,331.457 179.5,331.5C 163.945,328.753 148.279,326.92 132.5,326C 96.0968,322.979 60.4302,326.479 25.5,336.5C 23.8828,337.038 22.2161,337.371 20.5,337.5C 20.2641,334.391 20.5975,331.391 21.5,328.5C 44.0092,320.999 67.1759,317.332 91,317.5C 121.705,318.142 151.872,322.475 181.5,330.5 Z"/></g>
<g><path style="opacity:1" fill="#038cd9" d="M 584.5,382.5 C 584.5,409.833 584.5,437.167 584.5,464.5C 583.167,464.5 581.833,464.5 580.5,464.5C 560.586,458.688 540.586,453.188 520.5,448C 493.351,443.185 466.018,440.019 438.5,438.5C 410.676,436.048 382.676,435.881 354.5,438C 346.617,438.197 338.95,439.031 331.5,440.5C 323.953,440.406 316.62,441.072 309.5,442.5C 297.242,443.252 285.242,444.918 273.5,447.5C 269.36,447.529 265.36,448.196 261.5,449.5C 261.577,448.25 262.244,447.417 263.5,447C 282.431,442.361 300.764,436.361 318.5,429C 335.937,419.875 353.103,410.375 370,400.5C 415.141,404.228 460.308,404.395 505.5,401C 532.936,398.926 559.269,392.76 584.5,382.5 Z"/></g>
<g><path style="opacity:1" fill="#039bdd" d="M 432.5,392.5 C 413.671,393.332 394.671,393.832 375.5,394C 371.139,396.512 366.806,399.012 362.5,401.5C 318.881,397.12 274.881,393.62 230.5,391C 184.077,387.582 138.744,392.916 94.5,407C 78.5211,412.661 63.1878,419.661 48.5,428C 47.4019,428.77 47.4019,429.603 48.5,430.5C 41.5998,427.549 34.5998,424.882 27.5,422.5C 33.9134,419.13 40.58,415.963 47.5,413C 95.3277,396.189 144.661,387.689 195.5,387.5C 239.185,388.463 282.852,389.963 326.5,392C 361.832,392.5 397.165,392.667 432.5,392.5 Z"/></g>
<g><path style="opacity:1" fill="#00b4e7" d="M 362.5,401.5 C 316.506,423.666 268.506,439.833 218.5,450C 186.841,454.65 155.175,454.65 123.5,450C 98.0475,445.22 73.0475,438.72 48.5,430.5C 47.4019,429.603 47.4019,428.77 48.5,428C 63.1878,419.661 78.5211,412.661 94.5,407C 138.744,392.916 184.077,387.582 230.5,391C 274.881,393.62 318.881,397.12 362.5,401.5 Z"/></g>
<g><path style="opacity:1" fill="#0178cf" d="M 581.5,367.5 C 582.5,367.5 583.5,367.5 584.5,367.5C 584.5,372.5 584.5,377.5 584.5,382.5C 559.269,392.76 532.936,398.926 505.5,401C 460.308,404.395 415.141,404.228 370,400.5C 353.103,410.375 335.937,419.875 318.5,429C 300.764,436.361 282.431,442.361 263.5,447C 262.244,447.417 261.577,448.25 261.5,449.5C 256.816,451.451 251.816,452.451 246.5,452.5C 199.428,459.593 152.428,459.093 105.5,451C 104.328,450.581 103.328,449.915 102.5,449C 94.7736,447.484 87.107,445.818 79.5,444C 67.8389,439.945 56.1723,435.779 44.5,431.5C 35.7937,435.848 27.7937,441.181 20.5,447.5C 19.9194,439.559 20.5861,431.892 22.5,424.5C 24.0495,423.559 25.7162,422.893 27.5,422.5C 34.5998,424.882 41.5998,427.549 48.5,430.5C 73.0475,438.72 98.0475,445.22 123.5,450C 155.175,454.65 186.841,454.65 218.5,450C 268.506,439.833 316.506,423.666 362.5,401.5C 366.806,399.012 371.139,396.512 375.5,394C 394.671,393.832 413.671,393.332 432.5,392.5C 444.501,392.091 456.501,391.591 468.5,391C 507.346,388.598 545.013,380.765 581.5,367.5 Z"/></g>
<g><path style="opacity:1" fill="#028cd9" d="M 246.5,452.5 C 213.016,459.454 180.016,468.121 147.5,478.5C 140.833,479.724 134.499,481.724 128.5,484.5C 91.8959,496.145 56.2293,510.145 21.5,526.5C 20.5022,500.339 20.1688,474.005 20.5,447.5C 27.7937,441.181 35.7937,435.848 44.5,431.5C 56.1723,435.779 67.8389,439.945 79.5,444C 87.107,445.818 94.7736,447.484 102.5,449C 103.328,449.915 104.328,450.581 105.5,451C 152.428,459.093 199.428,459.593 246.5,452.5 Z"/></g>
<g><path style="opacity:1" fill="#d6ebf8" d="M 438.5,438.5 C 402.805,438.059 367.138,438.725 331.5,440.5C 338.95,439.031 346.617,438.197 354.5,438C 382.676,435.881 410.676,436.048 438.5,438.5 Z"/></g>
<g><path style="opacity:1" fill="#fcfdfd" d="M 438.5,438.5 C 466.018,440.019 493.351,443.185 520.5,448C 540.586,453.188 560.586,458.688 580.5,464.5C 580.5,464.833 580.5,465.167 580.5,465.5C 581.209,466.404 582.209,466.737 583.5,466.5C 583.5,494.5 583.5,522.5 583.5,550.5C 579.808,566.694 569.808,576.86 553.5,581C 384.833,581.667 216.167,581.667 47.5,581C 33.595,576.761 24.7617,567.594 21,553.5C 20.1965,544.422 20.3631,535.422 21.5,526.5C 56.2293,510.145 91.8959,496.145 128.5,484.5C 135.167,483.276 141.501,481.276 147.5,478.5C 180.016,468.121 213.016,459.454 246.5,452.5C 251.816,452.451 256.816,451.451 261.5,449.5C 265.36,448.196 269.36,447.529 273.5,447.5C 285.731,446.579 297.731,444.913 309.5,442.5C 316.62,441.072 323.953,440.406 331.5,440.5C 367.138,438.725 402.805,438.059 438.5,438.5 Z"/></g>
<g><path style="opacity:1" fill="#c7e3f6" d="M 309.5,442.5 C 297.731,444.913 285.731,446.579 273.5,447.5C 285.242,444.918 297.242,443.252 309.5,442.5 Z"/></g>
<g><path style="opacity:1" fill="#d5f1fa" d="M 580.5,465.5 C 581.833,465.5 583.167,465.5 584.5,465.5C 584.831,494.005 584.498,522.338 583.5,550.5C 583.5,522.5 583.5,494.5 583.5,466.5C 582.209,466.737 581.209,466.404 580.5,465.5 Z"/></g>
<g><path style="opacity:1" fill="#d4d7de" d="M 410.5,475.5 C 403.167,475.5 395.833,475.5 388.5,475.5C 388.5,476.5 388.5,477.5 388.5,478.5C 391.5,478.5 394.5,478.5 397.5,478.5C 397.5,487.5 397.5,496.5 397.5,505.5C 396.507,497.016 396.174,488.349 396.5,479.5C 393.5,479.5 390.5,479.5 387.5,479.5C 387.5,477.833 387.5,476.167 387.5,474.5C 395.352,474.175 403.018,474.508 410.5,475.5 Z"/></g>
<g><path style="opacity:1" fill="#1c2c53" d="M 410.5,475.5 C 410.5,476.5 410.5,477.5 410.5,478.5C 407.167,478.5 403.833,478.5 400.5,478.5C 400.5,487.5 400.5,496.5 400.5,505.5C 399.5,505.5 398.5,505.5 397.5,505.5C 397.5,496.5 397.5,487.5 397.5,478.5C 394.5,478.5 391.5,478.5 388.5,478.5C 388.5,477.5 388.5,476.5 388.5,475.5C 395.833,475.5 403.167,475.5 410.5,475.5 Z"/></g>
<g><path style="opacity:1" fill="#1e2b54" d="M 268.5,482.5 C 267.048,484.848 266.382,487.514 266.5,490.5C 266.507,492.369 266.84,494.036 267.5,495.5C 268.034,501.196 271.201,503.862 277,503.5C 282.117,503.04 285.284,500.373 286.5,495.5C 287.5,495.5 288.5,495.5 289.5,495.5C 287.105,504.041 281.439,507.541 272.5,506C 266.13,502.595 263.13,497.262 263.5,490C 264.219,476.967 270.885,472.3 283.5,476C 285.017,477.685 286.684,479.185 288.5,480.5C 289.246,481.736 289.579,483.07 289.5,484.5C 288.5,484.5 287.5,484.5 286.5,484.5C 285.533,479.422 282.367,477.088 277,477.5C 274.747,477.631 272.581,478.131 270.5,479C 269.177,479.816 268.511,480.983 268.5,482.5 Z"/></g>
<g><path style="opacity:1" fill="#bfdff5" d="M 147.5,478.5 C 141.501,481.276 135.167,483.276 128.5,484.5C 134.499,481.724 140.833,479.724 147.5,478.5 Z"/></g>
<g><path style="opacity:1" fill="#1d2853" d="M 342.5,501.5 C 342.611,502.117 342.944,502.617 343.5,503C 346.696,503.805 349.696,503.638 352.5,502.5C 353.167,502.167 353.833,501.833 354.5,501.5C 355.652,500.375 356.652,500.375 357.5,501.5C 350.518,508.765 344.352,508.099 339,499.5C 336.325,488.525 340.492,483.358 351.5,484C 356.827,486.487 359.16,490.653 358.5,496.5C 352.833,496.5 347.167,496.5 341.5,496.5C 341.366,498.292 341.699,499.958 342.5,501.5 Z"/></g>
<g><path style="opacity:1" fill="#19244f" d="M 373.5,483.5 C 373.5,484.5 373.5,485.5 373.5,486.5C 371.901,486.232 370.568,486.566 369.5,487.5C 368.167,488.167 367.167,489.167 366.5,490.5C 365.674,494.982 365.174,499.649 365,504.5C 364.18,497.986 364.347,491.653 365.5,485.5C 366.908,487.86 368.241,487.526 369.5,484.5C 370.568,483.566 371.901,483.232 373.5,483.5 Z"/></g>
<g><path style="opacity:1" fill="#19244f" d="M 447.5,483.5 C 447.5,484.5 447.5,485.5 447.5,486.5C 445.901,486.232 444.568,486.566 443.5,487.5C 442.167,488.167 441.167,489.167 440.5,490.5C 439.674,494.982 439.174,499.649 439,504.5C 438.18,497.986 438.347,491.653 439.5,485.5C 440.908,487.86 442.241,487.526 443.5,484.5C 444.568,483.566 445.901,483.232 447.5,483.5 Z"/></g>
<g><path style="opacity:1" fill="#1d2c54" d="M 334.5,498.5 C 333.283,501.067 331.616,503.4 329.5,505.5C 325.606,506.986 322.106,506.319 319,503.5C 317.951,505.107 316.451,505.773 314.5,505.5C 314.5,495.5 314.5,485.5 314.5,475.5C 315.833,475.5 317.167,475.5 318.5,475.5C 318.177,479.226 318.511,482.893 319.5,486.5C 325.388,482.181 330.221,483.181 334,489.5C 334.498,492.482 334.665,495.482 334.5,498.5 Z"/></g>
<g><path style="opacity:1" fill="#677289" d="M 365.5,484.5 C 366.702,485.405 368.036,485.405 369.5,484.5C 368.241,487.526 366.908,487.86 365.5,485.5C 365.5,485.167 365.5,484.833 365.5,484.5 Z"/></g>
<g><path style="opacity:1" fill="#aeb5c2" d="M 373.5,483.5 C 374.434,484.568 374.768,485.901 374.5,487.5C 372.833,487.5 371.167,487.5 369.5,487.5C 370.568,486.566 371.901,486.232 373.5,486.5C 373.5,485.5 373.5,484.5 373.5,483.5 Z"/></g>
<g><path style="opacity:1" fill="#384768" d="M 426.5,484.5 C 424.801,484.34 423.134,484.506 421.5,485C 423.058,485.21 424.391,485.71 425.5,486.5C 423.585,486.216 421.919,486.549 420.5,487.5C 419.833,487.833 419.167,488.167 418.5,488.5C 417.602,487.842 416.602,487.176 415.5,486.5C 416.757,483.177 416.757,479.844 415.5,476.5C 414.167,485.833 414.167,495.167 415.5,504.5C 416.167,499.683 416.834,495.017 417.5,490.5C 417.5,495.5 417.5,500.5 417.5,505.5C 416.167,505.5 414.833,505.5 413.5,505.5C 413.5,495.5 413.5,485.5 413.5,475.5C 414.833,475.5 416.167,475.5 417.5,475.5C 417.177,479.226 417.511,482.893 418.5,486.5C 420.65,483.479 423.316,482.812 426.5,484.5 Z"/></g>
<g><path style="opacity:1" fill="#677289" d="M 439.5,484.5 C 440.702,485.405 442.036,485.405 443.5,484.5C 442.241,487.526 440.908,487.86 439.5,485.5C 439.5,485.167 439.5,484.833 439.5,484.5 Z"/></g>
<g><path style="opacity:1" fill="#aeb5c2" d="M 447.5,483.5 C 448.434,484.568 448.768,485.901 448.5,487.5C 446.833,487.5 445.167,487.5 443.5,487.5C 444.568,486.566 445.901,486.232 447.5,486.5C 447.5,485.5 447.5,484.5 447.5,483.5 Z"/></g>
<g><path style="opacity:1" fill="#212f56" d="M 505.5,503.5 C 504.448,505.256 502.781,505.923 500.5,505.5C 500.217,504.711 499.717,504.044 499,503.5C 498.827,497.984 498.327,492.651 497.5,487.5C 495.952,487.179 495.285,486.179 495.5,484.5C 496.5,484.5 497.5,484.5 498.5,484.5C 498.5,482.833 498.5,481.167 498.5,479.5C 499.5,479.5 500.5,479.5 501.5,479.5C 501.5,481.167 501.5,482.833 501.5,484.5C 502.833,484.5 504.167,484.5 505.5,484.5C 505.5,485.5 505.5,486.5 505.5,487.5C 504.167,487.5 502.833,487.5 501.5,487.5C 501.5,492.833 501.5,498.167 501.5,503.5C 502.833,503.5 504.167,503.5 505.5,503.5 Z"/></g>
<g><path style="opacity:1" fill="#eeeff2" d="M 321.5,486.5 C 325.684,485.704 328.85,487.037 331,490.5C 333.613,499.476 330.446,503.642 321.5,503C 317.521,497.433 317.521,491.933 321.5,486.5 Z"/></g>
<g><path style="opacity:1" fill="#e7e9ed" d="M 344.5,486.5 C 347.649,486.211 350.649,486.711 353.5,488C 355.155,489.444 355.822,491.278 355.5,493.5C 350.833,493.5 346.167,493.5 341.5,493.5C 341.15,490.547 342.15,488.213 344.5,486.5 Z"/></g>
<g><path style="opacity:1" fill="#b0b7c4" d="M 268.5,482.5 C 267.8,486.798 267.467,491.131 267.5,495.5C 266.84,494.036 266.507,492.369 266.5,490.5C 266.382,487.514 267.048,484.848 268.5,482.5 Z"/></g>
<g><path style="opacity:1" fill="#717c94" d="M 475.5,486.5 C 475.167,487.833 474.833,489.167 474.5,490.5C 473.147,488.872 473.481,487.538 475.5,486.5 Z"/></g>
<g><path style="opacity:1" fill="#b4bbc7" d="M 497.5,487.5 C 498.327,492.651 498.827,497.984 499,503.5C 499.717,504.044 500.217,504.711 500.5,505.5C 499.504,505.586 498.671,505.252 498,504.5C 497.501,498.843 497.334,493.176 497.5,487.5 Z"/></g>
<g><path style="opacity:1" fill="#9fa7b7" d="M 420.5,487.5 C 421.919,486.549 423.585,486.216 425.5,486.5C 426.458,486.953 427.292,487.619 428,488.5C 428.499,494.157 428.666,499.824 428.5,505.5C 427.673,500.349 427.173,495.016 427,489.5C 425.211,487.771 423.044,487.104 420.5,487.5 Z"/></g>
<g><path style="opacity:1" fill="#06214a" d="M 418.5,488.5 C 418.167,489.167 417.833,489.833 417.5,490.5C 416.834,495.017 416.167,499.683 415.5,504.5C 414.167,495.167 414.167,485.833 415.5,476.5C 416.757,479.844 416.757,483.177 415.5,486.5C 416.602,487.176 417.602,487.842 418.5,488.5 Z"/></g>
<g><path style="opacity:1" fill="#29395e" d="M 426.5,484.5 C 428.371,484.859 429.871,485.859 431,487.5C 431.499,493.491 431.666,499.491 431.5,505.5C 430.5,505.5 429.5,505.5 428.5,505.5C 428.666,499.824 428.499,494.157 428,488.5C 427.292,487.619 426.458,486.953 425.5,486.5C 424.391,485.71 423.058,485.21 421.5,485C 423.134,484.506 424.801,484.34 426.5,484.5 Z"/></g>
<g><path style="opacity:1" fill="#334364" d="M 365.5,484.5 C 365.5,484.833 365.5,485.167 365.5,485.5C 364.347,491.653 364.18,497.986 365,504.5C 365.174,499.649 365.674,494.982 366.5,490.5C 366.5,495.5 366.5,500.5 366.5,505.5C 365.5,505.5 364.5,505.5 363.5,505.5C 362.872,498.087 363.539,491.087 365.5,484.5 Z"/></g>
<g><path style="opacity:1" fill="#334364" d="M 439.5,484.5 C 439.5,484.833 439.5,485.167 439.5,485.5C 438.347,491.653 438.18,497.986 439,504.5C 439.174,499.649 439.674,494.982 440.5,490.5C 440.5,495.5 440.5,500.5 440.5,505.5C 439.5,505.5 438.5,505.5 437.5,505.5C 436.872,498.087 437.539,491.087 439.5,484.5 Z"/></g>
<g><path style="opacity:1" fill="#1f2c55" d="M 305.5,502.5 C 303.537,506.145 301.537,509.811 299.5,513.5C 298.167,513.5 296.833,513.5 295.5,513.5C 295.5,512.5 295.5,511.5 295.5,510.5C 298.524,510.825 300.191,509.492 300.5,506.5C 298.114,499.395 295.447,492.395 292.5,485.5C 293.325,484.614 294.325,484.281 295.5,484.5C 297.365,490.259 299.532,495.926 302,501.5C 304.748,496.09 306.582,490.423 307.5,484.5C 308.5,484.5 309.5,484.5 310.5,484.5C 308.429,490.38 306.763,496.38 305.5,502.5 Z"/></g>
<g><path style="opacity:1" fill="#8e99ab" d="M 357.5,501.5 C 356.652,500.375 355.652,500.375 354.5,501.5C 354.62,500.414 355.287,499.747 356.5,499.5C 358.418,499.861 358.751,500.528 357.5,501.5 Z"/></g>
<g><path style="opacity:1" fill="#8e99ab" d="M 468.5,501.5 C 467.652,500.375 466.652,500.375 465.5,501.5C 465.62,500.414 466.287,499.747 467.5,499.5C 469.418,499.861 469.751,500.528 468.5,501.5 Z"/></g>
<g><path style="opacity:1" fill="#3e4b6c" d="M 476.5,495.5 C 474.774,497.82 474.107,500.487 474.5,503.5C 473.371,501.372 473.204,499.039 474,496.5C 474.671,495.748 475.504,495.414 476.5,495.5 Z"/></g>
<g><path style="opacity:1" fill="#aab0be" d="M 342.5,501.5 C 345.764,502.324 349.098,502.658 352.5,502.5C 349.696,503.638 346.696,503.805 343.5,503C 342.944,502.617 342.611,502.117 342.5,501.5 Z"/></g>
<g><path style="opacity:1" fill="#aeb5c1" d="M 334.5,498.5 C 334.759,502.237 333.093,504.57 329.5,505.5C 331.616,503.4 333.283,501.067 334.5,498.5 Z"/></g>
<g><path style="opacity:1" fill="#182550" d="M 454.5,501.5 C 454.611,502.117 454.944,502.617 455.5,503C 458.367,503.801 461.034,503.634 463.5,502.5C 464.167,502.167 464.833,501.833 465.5,501.5C 466.652,500.375 467.652,500.375 468.5,501.5C 461.837,508.753 456.004,508.086 451,499.5C 449.642,493.969 450.809,489.135 454.5,485C 464.182,482.5 469.182,486.334 469.5,496.5C 464.167,496.5 458.833,496.5 453.5,496.5C 453.366,498.292 453.699,499.958 454.5,501.5 Z"/></g>
<g><path style="opacity:1" fill="#a6acbb" d="M 454.5,501.5 C 457.43,502.299 460.43,502.632 463.5,502.5C 461.034,503.634 458.367,503.801 455.5,503C 454.944,502.617 454.611,502.117 454.5,501.5 Z"/></g>
<g><path style="opacity:1" fill="#e6e8ec" d="M 456.5,486.5 C 462.468,485.459 465.801,487.792 466.5,493.5C 462.167,493.5 457.833,493.5 453.5,493.5C 453.15,490.547 454.15,488.213 456.5,486.5 Z"/></g>
<g><path style="opacity:1" fill="#1e2a54" d="M 474.5,503.5 C 474.107,500.487 474.774,497.82 476.5,495.5C 479.968,494.189 483.634,493.189 487.5,492.5C 488.848,490.389 488.515,488.555 486.5,487C 483.833,486.333 481.167,486.333 478.5,487C 477.468,488.627 476.134,489.793 474.5,490.5C 474.833,489.167 475.167,487.833 475.5,486.5C 480.827,482.35 485.993,482.683 491,487.5C 491.499,493.491 491.666,499.491 491.5,505.5C 489.857,505.52 488.524,504.853 487.5,503.5C 484.29,506.222 480.624,507.056 476.5,506C 475.619,505.292 474.953,504.458 474.5,503.5 Z"/></g>
<g><path style="opacity:1" fill="#b8bdc8" d="M 487.5,500.5 C 487.5,499.167 487.5,497.833 487.5,496.5C 484.098,496.342 480.764,496.676 477.5,497.5C 477.611,496.883 477.944,496.383 478.5,496C 481.854,495.545 485.187,495.045 488.5,494.5C 488.795,496.735 488.461,498.735 487.5,500.5 Z"/></g>
<g><path style="opacity:1" fill="#edeff2" d="M 487.5,500.5 C 487.047,501.458 486.381,502.292 485.5,503C 482.833,503.667 480.167,503.667 477.5,503C 476.193,501.057 476.193,499.223 477.5,497.5C 480.764,496.676 484.098,496.342 487.5,496.5C 487.5,497.833 487.5,499.167 487.5,500.5 Z"/></g>
<g><path style="opacity:1" fill="#c2c7d1" d="M 305.5,502.5 C 305.181,506.136 304.015,509.469 302,512.5C 301.329,513.252 300.496,513.586 299.5,513.5C 301.537,509.811 303.537,506.145 305.5,502.5 Z"/></g>
<g><path style="opacity:1" fill="#46506e" d="M 505.5,503.5 C 506.404,504.209 506.737,505.209 506.5,506.5C 504.265,506.795 502.265,506.461 500.5,505.5C 502.781,505.923 504.448,505.256 505.5,503.5 Z"/></g>
<g><path style="opacity:1" fill="#394e6c" d="M 268.5,521.5 C 267.292,520.766 265.959,520.433 264.5,520.5C 264.5,530.167 264.5,539.833 264.5,549.5C 263.506,539.681 263.173,529.681 263.5,519.5C 265.781,519.077 267.448,519.744 268.5,521.5 Z"/></g>
<g><path style="opacity:1" fill="#16264f" d="M 290.5,549.5 C 290.831,541.472 290.498,533.472 289.5,525.5C 288.893,525.624 288.56,525.957 288.5,526.5C 287.302,529.426 286.302,532.426 285.5,535.5C 284.559,537.05 283.893,538.716 283.5,540.5C 282.542,540.953 281.708,541.619 281,542.5C 281.135,540.575 281.302,538.575 281.5,536.5C 284.207,531.396 286.54,526.062 288.5,520.5C 289.689,519.571 291.022,519.238 292.5,519.5C 293.141,529.889 292.474,539.889 290.5,549.5 Z"/></g>
<g><path style="opacity:1" fill="#ced3da" d="M 288.5,526.5 C 289.492,533.982 289.825,541.648 289.5,549.5C 288.672,543.681 288.172,537.681 288,531.5C 287.8,533.32 286.966,534.653 285.5,535.5C 286.302,532.426 287.302,529.426 288.5,526.5 Z"/></g>
<g><path style="opacity:1" fill="#354263" d="M 420.5,529.5 C 420.5,530.167 420.833,530.5 421.5,530.5C 421.167,531.5 420.5,532.167 419.5,532.5C 418.152,531.814 416.985,530.814 416,529.5C 415.169,535.859 415.336,542.193 416.5,548.5C 417.167,543.683 417.834,539.017 418.5,534.5C 418.5,539.5 418.5,544.5 418.5,549.5C 417.167,549.5 415.833,549.5 414.5,549.5C 414.5,542.5 414.5,535.5 414.5,528.5C 416.565,528.517 418.565,528.85 420.5,529.5 Z"/></g>
<g><path style="opacity:1" fill="#212f56" d="M 505.5,547.5 C 504.448,549.256 502.781,549.923 500.5,549.5C 500.217,548.711 499.717,548.044 499,547.5C 498.827,541.984 498.327,536.651 497.5,531.5C 495.952,531.179 495.285,530.179 495.5,528.5C 496.5,528.5 497.5,528.5 498.5,528.5C 498.5,526.833 498.5,525.167 498.5,523.5C 499.5,523.5 500.5,523.5 501.5,523.5C 501.5,525.167 501.5,526.833 501.5,528.5C 502.833,528.5 504.167,528.5 505.5,528.5C 505.5,529.5 505.5,530.5 505.5,531.5C 504.167,531.5 502.833,531.5 501.5,531.5C 501.5,536.833 501.5,542.167 501.5,547.5C 502.833,547.5 504.167,547.5 505.5,547.5 Z"/></g>
<g><path style="opacity:1" fill="#475a77" d="M 378.5,528.5 C 380.669,529.082 383.002,529.082 385.5,528.5C 385.825,536.352 385.492,544.018 384.5,551.5C 384.831,544.137 384.497,536.803 383.5,529.5C 381.458,532.004 379.792,531.67 378.5,528.5 Z"/></g>
<g><path style="opacity:1" fill="#182851" d="M 268.5,521.5 C 271.442,528.385 274.108,535.385 276.5,542.5C 276.967,545.826 278.134,546.159 280,543.5C 280.399,543.728 280.565,544.062 280.5,544.5C 280.709,546.714 279.876,548.381 278,549.5C 276.073,546.545 274.24,543.545 272.5,540.5C 271.171,535.35 269.338,530.35 267,525.5C 266.5,533.493 266.334,541.493 266.5,549.5C 265.833,549.5 265.167,549.5 264.5,549.5C 264.5,539.833 264.5,530.167 264.5,520.5C 265.959,520.433 267.292,520.766 268.5,521.5 Z"/></g>
<g><path style="opacity:1" fill="#c5cad4" d="M 272.5,540.5 C 271.198,538.328 270.032,535.994 269,533.5C 268.667,533.833 268.333,534.167 268,534.5C 267.826,539.684 267.326,544.684 266.5,549.5C 266.334,541.493 266.5,533.493 267,525.5C 269.338,530.35 271.171,535.35 272.5,540.5 Z"/></g>
<g><path style="opacity:1" fill="#717c94" d="M 300.5,530.5 C 300.167,531.833 299.833,533.167 299.5,534.5C 298.147,532.872 298.481,531.538 300.5,530.5 Z"/></g>
<g><path style="opacity:1" fill="#202e56" d="M 421.5,530.5 C 420.833,530.5 420.5,530.167 420.5,529.5C 424.375,526.629 427.708,527.296 430.5,531.5C 434.984,526.256 439.484,526.256 444,531.5C 444.499,537.491 444.666,543.491 444.5,549.5C 443.5,549.5 442.5,549.5 441.5,549.5C 441.666,543.824 441.499,538.157 441,532.5C 438,529.833 435,529.833 432,532.5C 431.501,538.157 431.334,543.824 431.5,549.5C 430.5,549.5 429.5,549.5 428.5,549.5C 428.829,543.463 428.496,537.463 427.5,531.5C 425.591,530.652 423.591,530.318 421.5,530.5 Z"/></g>
<g><path style="opacity:1" fill="#b4bbc7" d="M 497.5,531.5 C 498.327,536.651 498.827,541.984 499,547.5C 499.717,548.044 500.217,548.711 500.5,549.5C 499.504,549.586 498.671,549.252 498,548.5C 497.501,542.843 497.334,537.176 497.5,531.5 Z"/></g>
<g><path style="opacity:1" fill="#3a4f6d" d="M 288.5,526.5 C 288.56,525.957 288.893,525.624 289.5,525.5C 290.498,533.472 290.831,541.472 290.5,549.5C 290.167,549.5 289.833,549.5 289.5,549.5C 289.825,541.648 289.492,533.982 288.5,526.5 Z"/></g>
<g><path style="opacity:1" fill="#aab0be" d="M 345.5,530.5 C 344.011,534.354 344.678,535.021 347.5,532.5C 347.5,533.5 347.5,534.5 347.5,535.5C 346.167,535.5 344.833,535.5 343.5,535.5C 343.12,533.302 343.787,531.635 345.5,530.5 Z"/></g>
<g><path style="opacity:1" fill="#2c3b5f" d="M 335.5,549.5 C 335.666,543.824 335.499,538.157 335,532.5C 332.643,530.354 330.143,530.021 327.5,531.5C 326.833,531.833 326.167,532.167 325.5,532.5C 324.531,531.691 323.698,530.691 323,529.5C 322.333,535.833 322.333,542.167 323,548.5C 323.174,543.649 323.674,538.982 324.5,534.5C 324.5,539.5 324.5,544.5 324.5,549.5C 323.5,549.5 322.5,549.5 321.5,549.5C 321.5,542.5 321.5,535.5 321.5,528.5C 322.93,528.421 324.264,528.754 325.5,529.5C 330.179,526.529 334.346,527.196 338,531.5C 338.499,537.491 338.666,543.491 338.5,549.5C 337.5,549.5 336.5,549.5 335.5,549.5 Z"/></g>
<g><path style="opacity:1" fill="#9fa7b7" d="M 327.5,531.5 C 330.143,530.021 332.643,530.354 335,532.5C 335.499,538.157 335.666,543.824 335.5,549.5C 334.673,544.349 334.173,539.016 334,533.5C 332.211,531.771 330.044,531.104 327.5,531.5 Z"/></g>
<g><path style="opacity:1" fill="#2c3b5f" d="M 489.5,549.5 C 489.666,543.824 489.499,538.157 489,532.5C 486.302,530.327 483.469,529.994 480.5,531.5C 479.833,531.833 479.167,532.167 478.5,532.5C 477.531,531.691 476.698,530.691 476,529.5C 475.333,535.833 475.333,542.167 476,548.5C 476.174,543.649 476.674,538.982 477.5,534.5C 477.5,539.5 477.5,544.5 477.5,549.5C 476.5,549.5 475.5,549.5 474.5,549.5C 474.5,542.5 474.5,535.5 474.5,528.5C 475.93,528.421 477.264,528.754 478.5,529.5C 483.503,526.477 488.003,527.143 492,531.5C 492.499,537.491 492.666,543.491 492.5,549.5C 491.5,549.5 490.5,549.5 489.5,549.5 Z"/></g>
<g><path style="opacity:1" fill="#a0a8b7" d="M 480.5,531.5 C 483.469,529.994 486.302,530.327 489,532.5C 489.499,538.157 489.666,543.824 489.5,549.5C 488.673,544.349 488.173,539.016 488,533.5C 485.865,531.722 483.365,531.055 480.5,531.5 Z"/></g>
<g><path style="opacity:1" fill="#202d56" d="M 313.5,549.5 C 312.707,545.835 311.374,545.835 309.5,549.5C 301.21,552.041 297.71,549.041 299,540.5C 303.123,537.973 307.623,536.64 312.5,536.5C 312.133,530.844 309.133,529.011 303.5,531C 302.468,532.627 301.134,533.793 299.5,534.5C 299.833,533.167 300.167,531.833 300.5,530.5C 305.495,526.385 310.328,526.718 315,531.5C 315.167,534.5 315.333,537.5 315.5,540.5C 315.483,543.913 314.816,546.913 313.5,549.5 Z"/></g>
<g><path style="opacity:1" fill="#041946" d="M 325.5,532.5 C 325.167,533.167 324.833,533.833 324.5,534.5C 323.674,538.982 323.174,543.649 323,548.5C 322.333,542.167 322.333,535.833 323,529.5C 323.698,530.691 324.531,531.691 325.5,532.5 Z"/></g>
<g><path style="opacity:1" fill="#12214d" d="M 360.5,531.5 C 360.666,535.514 360.499,539.514 360,543.5C 359.79,541.942 359.29,540.609 358.5,539.5C 358.158,538.662 357.492,538.328 356.5,538.5C 357.167,537.833 357.833,537.167 358.5,536.5C 358.88,534.302 358.213,532.635 356.5,531.5C 354.034,530.366 351.367,530.199 348.5,531C 347.944,531.383 347.611,531.883 347.5,532.5C 344.678,535.021 344.011,534.354 345.5,530.5C 349.397,527.363 353.73,526.863 358.5,529C 359.381,529.708 360.047,530.542 360.5,531.5 Z"/></g>
<g><path style="opacity:1" fill="#acb3c0" d="M 356.5,531.5 C 353.43,531.368 350.43,531.701 347.5,532.5C 347.611,531.883 347.944,531.383 348.5,531C 351.367,530.199 354.034,530.366 356.5,531.5 Z"/></g>
<g><path style="opacity:1" fill="#041946" d="M 478.5,532.5 C 478.167,533.167 477.833,533.833 477.5,534.5C 476.674,538.982 476.174,543.649 476,548.5C 475.333,542.167 475.333,535.833 476,529.5C 476.698,530.691 477.531,531.691 478.5,532.5 Z"/></g>
<g><path style="opacity:1" fill="#041d47" d="M 419.5,532.5 C 419.167,533.167 418.833,533.833 418.5,534.5C 417.834,539.017 417.167,543.683 416.5,548.5C 415.336,542.193 415.169,535.859 416,529.5C 416.985,530.814 418.152,531.814 419.5,532.5 Z"/></g>
<g><path style="opacity:1" fill="#eceef1" d="M 311.5,544.5 C 311.047,545.458 310.381,546.292 309.5,547C 307.167,547.667 304.833,547.667 302.5,547C 301.193,545.057 301.193,543.223 302.5,541.5C 305.43,540.701 308.43,540.368 311.5,540.5C 311.5,541.833 311.5,543.167 311.5,544.5 Z"/></g>
<g><path style="opacity:1" fill="#b8bdc8" d="M 311.5,544.5 C 311.5,543.167 311.5,541.833 311.5,540.5C 308.43,540.368 305.43,540.701 302.5,541.5C 302.611,540.883 302.944,540.383 303.5,540C 306.513,539.498 309.513,538.998 312.5,538.5C 312.795,540.735 312.461,542.735 311.5,544.5 Z"/></g>
<g><path style="opacity:1" fill="#475373" d="M 281.5,536.5 C 281.302,538.575 281.135,540.575 281,542.5C 281.708,541.619 282.542,540.953 283.5,540.5C 283.262,542.404 282.262,543.738 280.5,544.5C 280.565,544.062 280.399,543.728 280,543.5C 278.134,546.159 276.967,545.826 276.5,542.5C 277.397,543.598 278.23,543.598 279,542.5C 279.566,540.277 280.4,538.277 281.5,536.5 Z"/></g>
<g><path style="opacity:1" fill="#172650" d="M 378.5,528.5 C 379.792,531.67 381.458,532.004 383.5,529.5C 384.497,536.803 384.831,544.137 384.5,551.5C 381.573,557.148 376.906,558.981 370.5,557C 368.536,555.549 367.203,553.716 366.5,551.5C 368.359,551.461 369.692,552.294 370.5,554C 374.591,555.227 378.091,554.394 381,551.5C 381.798,549.741 381.631,548.074 380.5,546.5C 377.639,548.98 374.306,549.98 370.5,549.5C 370.5,549.167 370.5,548.833 370.5,548.5C 369.5,546.833 368.167,545.5 366.5,544.5C 364.317,538.084 365.65,532.584 370.5,528C 373.221,527.398 375.887,527.565 378.5,528.5 Z"/></g>
<g><path style="opacity:1" fill="#ebedf0" d="M 371.5,530.5 C 380.827,530.019 383.994,534.352 381,543.5C 376.436,547.843 372.436,547.509 369,542.5C 367.773,537.938 368.607,533.938 371.5,530.5 Z"/></g>
<g><path style="opacity:1" fill="#8e99ab" d="M 408.5,545.5 C 407.652,544.375 406.652,544.375 405.5,545.5C 405.62,544.414 406.287,543.747 407.5,543.5C 409.418,543.861 409.751,544.528 408.5,545.5 Z"/></g>
<g><path style="opacity:1" fill="#8e99ab" d="M 468.5,545.5 C 467.652,544.375 466.652,544.375 465.5,545.5C 465.62,544.414 466.287,543.747 467.5,543.5C 469.418,543.861 469.751,544.528 468.5,545.5 Z"/></g>
<g><path style="opacity:1" fill="#27345b" d="M 360.5,531.5 C 361.49,537.31 361.823,543.31 361.5,549.5C 359.857,549.52 358.524,548.853 357.5,547.5C 352.892,551.384 348.392,551.384 344,547.5C 343.231,544.901 343.398,542.401 344.5,540C 348.911,537.875 353.578,536.708 358.5,536.5C 357.833,537.167 357.167,537.833 356.5,538.5C 353.52,539.266 350.52,540.099 347.5,541C 346.167,543 346.167,545 347.5,547C 354.667,549.309 358.334,546.809 358.5,539.5C 359.29,540.609 359.79,541.942 360,543.5C 360.499,539.514 360.666,535.514 360.5,531.5 Z"/></g>
<g><path style="opacity:1" fill="#e4e6ea" d="M 356.5,538.5 C 357.492,538.328 358.158,538.662 358.5,539.5C 358.334,546.809 354.667,549.309 347.5,547C 346.167,545 346.167,543 347.5,541C 350.52,540.099 353.52,539.266 356.5,538.5 Z"/></g>
<g><path style="opacity:1" fill="#868ea1" d="M 366.5,544.5 C 368.167,545.5 369.5,546.833 370.5,548.5C 368.167,548.167 366.833,546.833 366.5,544.5 Z"/></g>
<g><path style="opacity:1" fill="#8993a6" d="M 313.5,549.5 C 312.298,548.595 310.964,548.595 309.5,549.5C 311.374,545.835 312.707,545.835 313.5,549.5 Z"/></g>
<g><path style="opacity:1" fill="#192550" d="M 394.5,545.5 C 394.611,546.117 394.944,546.617 395.5,547C 398.367,547.801 401.034,547.634 403.5,546.5C 404.167,546.167 404.833,545.833 405.5,545.5C 406.652,544.375 407.652,544.375 408.5,545.5C 401.837,552.753 396.004,552.086 391,543.5C 388.258,533.086 392.091,527.919 402.5,528C 407.827,530.487 410.16,534.653 409.5,540.5C 404.167,540.5 398.833,540.5 393.5,540.5C 393.366,542.292 393.699,543.958 394.5,545.5 Z"/></g>
<g><path style="opacity:1" fill="#a6acbb" d="M 394.5,545.5 C 397.43,546.299 400.43,546.632 403.5,546.5C 401.034,547.634 398.367,547.801 395.5,547C 394.944,546.617 394.611,546.117 394.5,545.5 Z"/></g>
<g><path style="opacity:1" fill="#e6e8ec" d="M 396.5,530.5 C 402.468,529.459 405.801,531.792 406.5,537.5C 402.167,537.5 397.833,537.5 393.5,537.5C 393.15,534.547 394.15,532.213 396.5,530.5 Z"/></g>
<g><path style="opacity:1" fill="#182550" d="M 454.5,545.5 C 454.611,546.117 454.944,546.617 455.5,547C 458.367,547.801 461.034,547.634 463.5,546.5C 464.167,546.167 464.833,545.833 465.5,545.5C 466.652,544.375 467.652,544.375 468.5,545.5C 461.837,552.753 456.004,552.086 451,543.5C 449.642,537.969 450.809,533.135 454.5,529C 464.182,526.5 469.182,530.334 469.5,540.5C 464.167,540.5 458.833,540.5 453.5,540.5C 453.366,542.292 453.699,543.958 454.5,545.5 Z"/></g>
<g><path style="opacity:1" fill="#a6acbb" d="M 454.5,545.5 C 457.43,546.299 460.43,546.632 463.5,546.5C 461.034,547.634 458.367,547.801 455.5,547C 454.944,546.617 454.611,546.117 454.5,545.5 Z"/></g>
<g><path style="opacity:1" fill="#e6e8ec" d="M 456.5,530.5 C 462.468,529.459 465.801,531.792 466.5,537.5C 462.167,537.5 457.833,537.5 453.5,537.5C 453.15,534.547 454.15,532.213 456.5,530.5 Z"/></g>
<g><path style="opacity:1" fill="#e0e3e7" d="M 366.5,551.5 C 367.833,550.833 369.167,550.167 370.5,549.5C 374.306,549.98 377.639,548.98 380.5,546.5C 381.631,548.074 381.798,549.741 381,551.5C 378.091,554.394 374.591,555.227 370.5,554C 369.692,552.294 368.359,551.461 366.5,551.5 Z"/></g>
<g><path style="opacity:1" fill="#46506e" d="M 505.5,547.5 C 506.404,548.209 506.737,549.209 506.5,550.5C 504.265,550.795 502.265,550.461 500.5,549.5C 502.781,549.923 504.448,549.256 505.5,547.5 Z"/></g>
<g><path style="opacity:1" fill="#f8fcfe" d="M -0.5,558.5 C 3.87431,581.898 17.8743,595.231 41.5,598.5C 41.5,598.833 41.5,599.167 41.5,599.5C 27.5,599.5 13.5,599.5 -0.5,599.5C -0.5,585.833 -0.5,572.167 -0.5,558.5 Z"/></g>
<g><path style="opacity:1" fill="#e1f5fb" d="M 599.5,558.5 C 599.5,572.167 599.5,585.833 599.5,599.5C 413.5,599.5 227.5,599.5 41.5,599.5C 41.5,599.167 41.5,598.833 41.5,598.5C 215.167,598.667 388.834,598.5 562.5,598C 583.352,592.652 595.686,579.486 599.5,558.5 Z"/></g>
</svg>
