<svg width="1440" height="296" viewBox="0 0 1440 296" fill="none" xmlns="http://www.w3.org/2000/svg">
    <mask id="mask0_1_3" style="mask-type:luminance" maskUnits="userSpaceOnUse" x="0" y="0"
        width="1440" height="296">
        <path d="M1440 0H0V296H1440V0Z" fill="white" />
    </mask>
    <g mask="url(#mask0_1_3)">
        <path d="M1440 0H0V296H1440V0Z" fill="#0F2B0B" />
        <g filter="url(#filter0_f_1_3)">
            <path
                d="M-12 140C53.1696 140 106 87.1696 106 22C106 -43.1696 53.1696 -96 -12 -96C-77.1696 -96 -130 -43.1696 -130 22C-130 87.1696 -77.1696 140 -12 140Z"
                fill="#379C14" />
        </g>
        <g filter="url(#filter1_f_1_3)">
            <path
                d="M1334.98 117.917C1376.39 129.013 1418.95 104.438 1430.05 63.0275C1441.15 21.6168 1416.57 -20.9481 1375.16 -32.0441C1333.75 -43.14 1291.19 -18.5651 1280.09 22.8455C1268.99 64.2561 1293.57 106.821 1334.98 117.917Z"
                fill="#379C14" />
        </g>
        <path
            d="M279.5 125H213.5C212.672 125 212 125.672 212 126.5C212 127.328 212.672 128 213.5 128H279.5C280.328 128 281 127.328 281 126.5C281 125.672 280.328 125 279.5 125Z"
            fill="#15AF2E" fill-opacity="0.14" />
        <path
            d="M203.5 125H100.5C99.6716 125 99 125.672 99 126.5C99 127.328 99.6716 128 100.5 128H203.5C204.328 128 205 127.328 205 126.5C205 125.672 204.328 125 203.5 125Z"
            fill="#15AF2E" fill-opacity="0.14" />
        <path
            d="M90.5 125H1.5C0.671573 125 0 125.672 0 126.5C0 127.328 0.671573 128 1.5 128H90.5C91.3284 128 92 127.328 92 126.5C92 125.672 91.3284 125 90.5 125Z"
            fill="#15AF2E" fill-opacity="0.14" />
        <path
            d="M362.5 125H288.5C287.672 125 287 125.672 287 126.5C287 127.328 287.672 128 288.5 128H362.5C363.328 128 364 127.328 364 126.5C364 125.672 363.328 125 362.5 125Z"
            fill="#2BAF15" fill-opacity="0.34" />
        <path
            d="M362.5 136H329.5C328.672 136 328 136.672 328 137.5C328 138.328 328.672 139 329.5 139H362.5C363.328 139 364 138.328 364 137.5C364 136.672 363.328 136 362.5 136Z"
            fill="#15AF2E" fill-opacity="0.14" />
        <path
            d="M319.5 136H185.5C184.672 136 184 136.672 184 137.5C184 138.328 184.672 139 185.5 139H319.5C320.328 139 321 138.328 321 137.5C321 136.672 320.328 136 319.5 136Z"
            fill="#15AF2E" fill-opacity="0.14" />
        <path
            d="M175.5 136H73.5C72.6716 136 72 136.672 72 137.5C72 138.328 72.6716 139 73.5 139H175.5C176.328 139 177 138.328 177 137.5C177 136.672 176.328 136 175.5 136Z"
            fill="#2BAF15" fill-opacity="0.34" />
        <path
            d="M63.5 136H1.5C0.671573 136 0 136.672 0 137.5C0 138.328 0.671573 139 1.5 139H63.5C64.3284 139 65 138.328 65 137.5C65 136.672 64.3284 136 63.5 136Z"
            fill="#15AF2E" fill-opacity="0.14" />
        <path
            d="M142.5 70H1.5C0.671573 70 0 70.6716 0 71.5C0 72.3284 0.671573 73 1.5 73H142.5C143.328 73 144 72.3284 144 71.5C144 70.6716 143.328 70 142.5 70Z"
            fill="#15AF2E" fill-opacity="0.14" />
        <path
            d="M285.5 70H152.5C151.672 70 151 70.6716 151 71.5C151 72.3284 151.672 73 152.5 73H285.5C286.328 73 287 72.3284 287 71.5C287 70.6716 286.328 70 285.5 70Z"
            fill="#2BAF15" fill-opacity="0.34" />
        <path
            d="M295.5 70H338.5C339.328 70 340 70.6716 340 71.5C340 72.3284 339.328 73 338.5 73H295.5C294.672 73 294 72.3284 294 71.5C294 70.6716 294.672 70 295.5 70Z"
            fill="#15AF2E" fill-opacity="0.14" />
        <path
            d="M231.5 81H123.5C122.672 81 122 81.6716 122 82.5C122 83.3284 122.672 84 123.5 84H231.5C232.328 84 233 83.3284 233 82.5C233 81.6716 232.328 81 231.5 81Z"
            fill="#15AF2E" fill-opacity="0.14" />
        <path
            d="M231.5 222H123.5C122.672 222 122 222.672 122 223.5C122 224.328 122.672 225 123.5 225H231.5C232.328 225 233 224.328 233 223.5C233 222.672 232.328 222 231.5 222Z"
            fill="#15AF2E" fill-opacity="0.14" />
        <path
            d="M113.5 81H1.5C0.671573 81 0 81.6716 0 82.5C0 83.3284 0.671573 84 1.5 84H113.5C114.328 84 115 83.3284 115 82.5C115 81.6716 114.328 81 113.5 81Z"
            fill="#2BAF15" fill-opacity="0.34" />
        <path
            d="M113.5 222H1.5C0.671573 222 0 222.672 0 223.5C0 224.328 0.671573 225 1.5 225H113.5C114.328 225 115 224.328 115 223.5C115 222.672 114.328 222 113.5 222Z"
            fill="#2BAF15" fill-opacity="0.34" />
        <path
            d="M301.5 81H276.5C275.672 81 275 81.6716 275 82.5C275 83.3284 275.672 84 276.5 84H301.5C302.328 84 303 83.3284 303 82.5C303 81.6716 302.328 81 301.5 81Z"
            fill="#2BAF15" fill-opacity="0.34" />
        <path
            d="M266.5 81H241.5C240.672 81 240 81.6716 240 82.5C240 83.3284 240.672 84 241.5 84H266.5C267.328 84 268 83.3284 268 82.5C268 81.6716 267.328 81 266.5 81Z"
            fill="#15AF2E" fill-opacity="0.14" />
        <path
            d="M275.5 222H241.5C240.672 222 240 222.672 240 223.5C240 224.328 240.672 225 241.5 225H275.5C276.328 225 277 224.328 277 223.5C277 222.672 276.328 222 275.5 222Z"
            fill="#15AF2E" fill-opacity="0.14" />
        <path
            d="M391.5 81H311.5C310.672 81 310 81.6716 310 82.5C310 83.3284 310.672 84 311.5 84H391.5C392.328 84 393 83.3284 393 82.5C393 81.6716 392.328 81 391.5 81Z"
            fill="#15AF2E" fill-opacity="0.14" />
        <path
            d="M371.5 92H285.5C284.672 92 284 92.6716 284 93.5C284 94.3284 284.672 95 285.5 95H371.5C372.328 95 373 94.3284 373 93.5C373 92.6716 372.328 92 371.5 92Z"
            fill="#15AF2E" fill-opacity="0.14" />
        <path
            d="M301.5 233H285.5C284.672 233 284 233.672 284 234.5C284 235.328 284.672 236 285.5 236H301.5C302.328 236 303 235.328 303 234.5C303 233.672 302.328 233 301.5 233Z"
            fill="#15AF2E" fill-opacity="0.14" />
        <path
            d="M275.5 92H135.5C134.672 92 134 92.6716 134 93.5C134 94.3284 134.672 95 135.5 95H275.5C276.328 95 277 94.3284 277 93.5C277 92.6716 276.328 92 275.5 92Z"
            fill="#2BAF15" fill-opacity="0.34" />
        <path
            d="M275.5 233H135.5C134.672 233 134 233.672 134 234.5C134 235.328 134.672 236 135.5 236H275.5C276.328 236 277 235.328 277 234.5C277 233.672 276.328 233 275.5 233Z"
            fill="#2BAF15" fill-opacity="0.34" />
        <path
            d="M125.5 92H96.5C95.6716 92 95 92.6716 95 93.5C95 94.3284 95.6716 95 96.5 95H125.5C126.328 95 127 94.3284 127 93.5C127 92.6716 126.328 92 125.5 92Z"
            fill="#15AF2E" fill-opacity="0.14" />
        <path
            d="M125.5 233H96.5C95.6716 233 95 233.672 95 234.5C95 235.328 95.6716 236 96.5 236H125.5C126.328 236 127 235.328 127 234.5C127 233.672 126.328 233 125.5 233Z"
            fill="#15AF2E" fill-opacity="0.14" />
        <path
            d="M86.5 92H1.5C0.671573 92 0 92.6716 0 93.5C0 94.3284 0.671573 95 1.5 95H86.5C87.3284 95 88 94.3284 88 93.5C88 92.6716 87.3284 92 86.5 92Z"
            fill="#15AF2E" fill-opacity="0.14" />
        <path
            d="M86.5 233H1.5C0.671573 233 0 233.672 0 234.5C0 235.328 0.671573 236 1.5 236H86.5C87.3284 236 88 235.328 88 234.5C88 233.672 87.3284 233 86.5 233Z"
            fill="#15AF2E" fill-opacity="0.14" />
        <path
            d="M407.5 103H350.5C349.672 103 349 103.672 349 104.5C349 105.328 349.672 106 350.5 106H407.5C408.328 106 409 105.328 409 104.5C409 103.672 408.328 103 407.5 103Z"
            fill="#2BAF15" fill-opacity="0.34" />
        <path
            d="M341.5 103H202.5C201.672 103 201 103.672 201 104.5C201 105.328 201.672 106 202.5 106H341.5C342.328 106 343 105.328 343 104.5C343 103.672 342.328 103 341.5 103Z"
            fill="#15AF2E" fill-opacity="0.14" />
        <path
            d="M250.5 244H202.5C201.672 244 201 244.672 201 245.5C201 246.328 201.672 247 202.5 247H250.5C251.328 247 252 246.328 252 245.5C252 244.672 251.328 244 250.5 244Z"
            fill="#15AF2E" fill-opacity="0.14" />
        <path
            d="M319.5 244H260.5C259.672 244 259 244.672 259 245.5C259 246.328 259.672 247 260.5 247H319.5C320.328 247 321 246.328 321 245.5C321 244.672 320.328 244 319.5 244Z"
            fill="#2BAF15" fill-opacity="0.34" />
        <path
            d="M192.5 103H164.5C163.672 103 163 103.672 163 104.5C163 105.328 163.672 106 164.5 106H192.5C193.328 106 194 105.328 194 104.5C194 103.672 193.328 103 192.5 103Z"
            fill="#15AF2E" fill-opacity="0.14" />
        <path
            d="M155.5 103H107.5C106.672 103 106 103.672 106 104.5C106 105.328 106.672 106 107.5 106H155.5C156.328 106 157 105.328 157 104.5C157 103.672 156.328 103 155.5 103Z"
            fill="#15AF2E" fill-opacity="0.14" />
        <path
            d="M192.5 244H107.5C106.672 244 106 244.672 106 245.5C106 246.328 106.672 247 107.5 247H192.5C193.328 247 194 246.328 194 245.5C194 244.672 193.328 244 192.5 244Z"
            fill="#15AF2E" fill-opacity="0.14" />
        <path
            d="M97.5 103H33.5C32.6716 103 32 103.672 32 104.5C32 105.328 32.6716 106 33.5 106H97.5C98.3284 106 99 105.328 99 104.5C99 103.672 98.3284 103 97.5 103Z"
            fill="#2BAF15" fill-opacity="0.34" />
        <path
            d="M97.5 244H1.5C0.671573 244 0 244.672 0 245.5C0 246.328 0.671573 247 1.5 247H97.5C98.3284 247 99 246.328 99 245.5C99 244.672 98.3284 244 97.5 244Z"
            fill="#2BAF15" fill-opacity="0.34" />
        <path
            d="M23.5 103H1.5C0.671573 103 0 103.672 0 104.5C0 105.328 0.671573 106 1.5 106H23.5C24.3284 106 25 105.328 25 104.5C25 103.672 24.3284 103 23.5 103Z"
            fill="#15AF2E" fill-opacity="0.14" />
        <path
            d="M70.5 114H1.5C0.671573 114 0 114.672 0 115.5C0 116.328 0.671573 117 1.5 117H70.5C71.3284 117 72 116.328 72 115.5C72 114.672 71.3284 114 70.5 114Z"
            fill="#2BAF15" fill-opacity="0.34" />
        <path
            d="M70.5 255H1.5C0.671573 255 0 255.672 0 256.5C0 257.328 0.671573 258 1.5 258H70.5C71.3284 258 72 257.328 72 256.5C72 255.672 71.3284 255 70.5 255Z"
            fill="#15AF2E" fill-opacity="0.14" />
        <path
            d="M174.5 114H80.5C79.6716 114 79 114.672 79 115.5C79 116.328 79.6716 117 80.5 117H174.5C175.328 117 176 116.328 176 115.5C176 114.672 175.328 114 174.5 114Z"
            fill="#15AF2E" fill-opacity="0.14" />
        <path
            d="M132.5 255H80.5C79.6716 255 79 255.672 79 256.5C79 257.328 79.6716 258 80.5 258H132.5C133.328 258 134 257.328 134 256.5C134 255.672 133.328 255 132.5 255Z"
            fill="#2BAF15" fill-opacity="0.34" />
        <path
            d="M1190.5 197H1248.5C1249.33 197 1250 197.672 1250 198.5C1250 199.328 1249.33 200 1248.5 200H1190.5C1189.67 200 1189 199.328 1189 198.5C1189 197.672 1189.67 197 1190.5 197Z"
            fill="#15AF2E" fill-opacity="0.14" />
        <path
            d="M1257.5 197H1348.5C1349.33 197 1350 197.672 1350 198.5C1350 199.328 1349.33 200 1348.5 200H1257.5C1256.67 200 1256 199.328 1256 198.5C1256 197.672 1256.67 197 1257.5 197Z"
            fill="#2BAF15" fill-opacity="0.34" />
        <path
            d="M1357.5 197H1436.5C1437.33 197 1438 197.672 1438 198.5C1438 199.328 1437.33 200 1436.5 200H1357.5C1356.67 200 1356 199.328 1356 198.5C1356 197.672 1356.67 197 1357.5 197Z"
            fill="#15AF2E" fill-opacity="0.14" />
        <path
            d="M1116.5 197H1181.5C1182.33 197 1183 197.672 1183 198.5C1183 199.328 1182.33 200 1181.5 200H1116.5C1115.67 200 1115 199.328 1115 198.5C1115 197.672 1115.67 197 1116.5 197Z"
            fill="#2BAF15" fill-opacity="0.34" />
        <path
            d="M1068.5 208H1107.5C1108.33 208 1109 208.672 1109 209.5C1109 210.328 1108.33 211 1107.5 211H1068.5C1067.67 211 1067 210.328 1067 209.5C1067 208.672 1067.67 208 1068.5 208Z"
            fill="#2BAF15" fill-opacity="0.34" />
        <path
            d="M1116.5 208H1145.5C1146.33 208 1147 208.672 1147 209.5C1147 210.328 1146.33 211 1145.5 211H1116.5C1115.67 211 1115 210.328 1115 209.5C1115 208.672 1115.67 208 1116.5 208Z"
            fill="#15AF2E" fill-opacity="0.14" />
        <path
            d="M1154.5 208H1273.5C1274.33 208 1275 208.672 1275 209.5C1275 210.328 1274.33 211 1273.5 211H1154.5C1153.67 211 1153 210.328 1153 209.5C1153 208.672 1153.67 208 1154.5 208Z"
            fill="#15AF2E" fill-opacity="0.14" />
        <path
            d="M1282.5 208H1372.5C1373.33 208 1374 208.672 1374 209.5C1374 210.328 1373.33 211 1372.5 211H1282.5C1281.67 211 1281 210.328 1281 209.5C1281 208.672 1281.67 208 1282.5 208Z"
            fill="#15AF2E" fill-opacity="0.14" />
        <path
            d="M1381.5 208H1436.5C1437.33 208 1438 208.672 1438 209.5C1438 210.328 1437.33 211 1436.5 211H1381.5C1380.67 211 1380 210.328 1380 209.5C1380 208.672 1380.67 208 1381.5 208Z"
            fill="#2BAF15" fill-opacity="0.34" />
        <path
            d="M1321.5 30H1436.5C1437.33 30 1438 30.6716 1438 31.5C1438 32.3284 1437.33 33 1436.5 33H1321.5C1320.67 33 1320 32.3284 1320 31.5C1320 30.6716 1320.67 30 1321.5 30Z"
            fill="#15AF2E" fill-opacity="0.14" />
        <path
            d="M1311.5 219H1436.5C1437.33 219 1438 219.672 1438 220.5C1438 221.328 1437.33 222 1436.5 222H1311.5C1310.67 222 1310 221.328 1310 220.5C1310 219.672 1310.67 219 1311.5 219Z"
            fill="#15AF2E" fill-opacity="0.14" />
        <path
            d="M1203.5 30H1312.5C1313.33 30 1314 30.6716 1314 31.5C1314 32.3284 1313.33 33 1312.5 33H1203.5C1202.67 33 1202 32.3284 1202 31.5C1202 30.6716 1202.67 30 1203.5 30Z"
            fill="#2BAF15" fill-opacity="0.34" />
        <path
            d="M1137.5 219H1255.5C1256.33 219 1257 219.672 1257 220.5C1257 221.328 1256.33 222 1255.5 222H1137.5C1136.67 222 1136 221.328 1136 220.5C1136 219.672 1136.67 219 1137.5 219Z"
            fill="#15AF2E" fill-opacity="0.14" />
        <path
            d="M1194.5 30H1159.5C1158.67 30 1158 30.6716 1158 31.5C1158 32.3284 1158.67 33 1159.5 33H1194.5C1195.33 33 1196 32.3284 1196 31.5C1196 30.6716 1195.33 30 1194.5 30Z"
            fill="#15AF2E" fill-opacity="0.14" />
        <path
            d="M1302.5 219H1264.5C1263.67 219 1263 219.672 1263 220.5C1263 221.328 1263.67 222 1264.5 222H1302.5C1303.33 222 1304 221.328 1304 220.5C1304 219.672 1303.33 219 1302.5 219Z"
            fill="#2BAF15" fill-opacity="0.34" />
        <path
            d="M1247.5 41H1336.5C1337.33 41 1338 41.6716 1338 42.5C1338 43.3284 1337.33 44 1336.5 44H1247.5C1246.67 44 1246 43.3284 1246 42.5C1246 41.6716 1246.67 41 1247.5 41Z"
            fill="#15AF2E" fill-opacity="0.14" />
        <path
            d="M1232.5 230H1328.5C1329.33 230 1330 230.672 1330 231.5C1330 232.328 1329.33 233 1328.5 233H1232.5C1231.67 233 1231 232.328 1231 231.5C1231 230.672 1231.67 230 1232.5 230Z"
            fill="#15AF2E" fill-opacity="0.14" />
        <path
            d="M1345.5 41H1436.5C1437.33 41 1438 41.6716 1438 42.5C1438 43.3284 1437.33 44 1436.5 44H1345.5C1344.67 44 1344 43.3284 1344 42.5C1344 41.6716 1344.67 41 1345.5 41Z"
            fill="#2BAF15" fill-opacity="0.34" />
        <path
            d="M1337.5 230H1436.5C1437.33 230 1438 230.672 1438 231.5C1438 232.328 1437.33 233 1436.5 233H1337.5C1336.67 233 1336 232.328 1336 231.5C1336 230.672 1336.67 230 1337.5 230Z"
            fill="#2BAF15" fill-opacity="0.34" />
        <path
            d="M1190.5 41H1210.5C1211.33 41 1212 41.6716 1212 42.5C1212 43.3284 1211.33 44 1210.5 44H1190.5C1189.67 44 1189 43.3284 1189 42.5C1189 41.6716 1189.67 41 1190.5 41Z"
            fill="#2BAF15" fill-opacity="0.34" />
        <path
            d="M1219.5 41H1239.5C1240.33 41 1241 41.6716 1241 42.5C1241 43.3284 1240.33 44 1239.5 44H1219.5C1218.67 44 1218 43.3284 1218 42.5C1218 41.6716 1218.67 41 1219.5 41Z"
            fill="#15AF2E" fill-opacity="0.14" />
        <path
            d="M1164.5 230H1223.5C1224.33 230 1225 230.672 1225 231.5C1225 232.328 1224.33 233 1223.5 233H1164.5C1163.67 233 1163 232.328 1163 231.5C1163 230.672 1163.67 230 1164.5 230Z"
            fill="#2BAF15" fill-opacity="0.34" />
        <path
            d="M1116.5 41H1181.5C1182.33 41 1183 41.6716 1183 42.5C1183 43.3284 1182.33 44 1181.5 44H1116.5C1115.67 44 1115 43.3284 1115 42.5C1115 41.6716 1115.67 41 1116.5 41Z"
            fill="#15AF2E" fill-opacity="0.14" />
        <path
            d="M1108.5 84H1184.5C1185.33 84 1186 84.6716 1186 85.5C1186 86.3284 1185.33 87 1184.5 87H1108.5C1107.67 87 1107 86.3284 1107 85.5C1107 84.6716 1107.67 84 1108.5 84Z"
            fill="#15AF2E" fill-opacity="0.14" />
        <path
            d="M1108.5 241H1184.5C1185.33 241 1186 241.672 1186 242.5C1186 243.328 1185.33 244 1184.5 244H1108.5C1107.67 244 1107 243.328 1107 242.5C1107 241.672 1107.67 241 1108.5 241Z"
            fill="#2BAF15" fill-opacity="0.34" />
        <path
            d="M1193.5 84H1317.5C1318.33 84 1319 84.6716 1319 85.5C1319 86.3284 1318.33 87 1317.5 87H1193.5C1192.67 87 1192 86.3284 1192 85.5C1192 84.6716 1192.67 84 1193.5 84Z"
            fill="#15AF2E" fill-opacity="0.14" />
        <path
            d="M1193.5 241H1317.5C1318.33 241 1319 241.672 1319 242.5C1319 243.328 1318.33 244 1317.5 244H1193.5C1192.67 244 1192 243.328 1192 242.5C1192 241.672 1192.67 241 1193.5 241Z"
            fill="#15AF2E" fill-opacity="0.14" />
        <path
            d="M1326.5 84H1352.5C1353.33 84 1354 84.6716 1354 85.5C1354 86.3284 1353.33 87 1352.5 87H1326.5C1325.67 87 1325 86.3284 1325 85.5C1325 84.6716 1325.67 84 1326.5 84Z"
            fill="#2BAF15" fill-opacity="0.34" />
        <path
            d="M1326.5 241H1352.5C1353.33 241 1354 241.672 1354 242.5C1354 243.328 1353.33 244 1352.5 244H1326.5C1325.67 244 1325 243.328 1325 242.5C1325 241.672 1325.67 241 1326.5 241Z"
            fill="#2BAF15" fill-opacity="0.34" />
        <path
            d="M1361.5 84H1436.5C1437.33 84 1438 84.6716 1438 85.5C1438 86.3284 1437.33 87 1436.5 87H1361.5C1360.67 87 1360 86.3284 1360 85.5C1360 84.6716 1360.67 84 1361.5 84Z"
            fill="#15AF2E" fill-opacity="0.14" />
        <path
            d="M1361.5 241H1436.5C1437.33 241 1438 241.672 1438 242.5C1438 243.328 1437.33 244 1436.5 244H1361.5C1360.67 244 1360 243.328 1360 242.5C1360 241.672 1360.67 241 1361.5 241Z"
            fill="#15AF2E" fill-opacity="0.14" />
        <path
            d="M1076.5 95H1126.5C1127.33 95 1128 95.6716 1128 96.5C1128 97.3284 1127.33 98 1126.5 98H1076.5C1075.67 98 1075 97.3284 1075 96.5C1075 95.6716 1075.67 95 1076.5 95Z"
            fill="#2BAF15" fill-opacity="0.34" />
        <path
            d="M1076.5 252H1126.5C1127.33 252 1128 252.672 1128 253.5C1128 254.328 1127.33 255 1126.5 255H1076.5C1075.67 255 1075 254.328 1075 253.5C1075 252.672 1075.67 252 1076.5 252Z"
            fill="#15AF2E" fill-opacity="0.14" />
        <path
            d="M1135.5 95H1258.5C1259.33 95 1260 95.6716 1260 96.5C1260 97.3284 1259.33 98 1258.5 98H1135.5C1134.67 98 1134 97.3284 1134 96.5C1134 95.6716 1134.67 95 1135.5 95Z"
            fill="#15AF2E" fill-opacity="0.14" />
        <path
            d="M1135.5 252H1258.5C1259.33 252 1260 252.672 1260 253.5C1260 254.328 1259.33 255 1258.5 255H1135.5C1134.67 255 1134 254.328 1134 253.5C1134 252.672 1134.67 252 1135.5 252Z"
            fill="#15AF2E" fill-opacity="0.14" />
        <path
            d="M1267.5 95H1291.5C1292.33 95 1293 95.6716 1293 96.5C1293 97.3284 1292.33 98 1291.5 98H1267.5C1266.67 98 1266 97.3284 1266 96.5C1266 95.6716 1266.67 95 1267.5 95Z"
            fill="#2BAF15" fill-opacity="0.34" />
        <path
            d="M1300.5 95H1342.5C1343.33 95 1344 95.6716 1344 96.5C1344 97.3284 1343.33 98 1342.5 98H1300.5C1299.67 98 1299 97.3284 1299 96.5C1299 95.6716 1299.67 95 1300.5 95Z"
            fill="#15AF2E" fill-opacity="0.14" />
        <path
            d="M1267.5 252H1342.5C1343.33 252 1344 252.672 1344 253.5C1344 254.328 1343.33 255 1342.5 255H1267.5C1266.67 255 1266 254.328 1266 253.5C1266 252.672 1266.67 252 1267.5 252Z"
            fill="#2BAF15" fill-opacity="0.34" />
        <path
            d="M1351.5 95H1408.5C1409.33 95 1410 95.6716 1410 96.5C1410 97.3284 1409.33 98 1408.5 98H1351.5C1350.67 98 1350 97.3284 1350 96.5C1350 95.6716 1350.67 95 1351.5 95Z"
            fill="#15AF2E" fill-opacity="0.14" />
        <path
            d="M1351.5 252H1436.5C1437.33 252 1438 252.672 1438 253.5C1438 254.328 1437.33 255 1436.5 255H1351.5C1350.67 255 1350 254.328 1350 253.5C1350 252.672 1350.67 252 1351.5 252Z"
            fill="#15AF2E" fill-opacity="0.14" />
        <path
            d="M1417.5 95H1436.5C1437.33 95 1438 95.6716 1438 96.5C1438 97.3284 1437.33 98 1436.5 98H1417.5C1416.67 98 1416 97.3284 1416 96.5C1416 95.6716 1416.67 95 1417.5 95Z"
            fill="#15AF2E" fill-opacity="0.14" />
        <path
            d="M1375.5 106H1436.5C1437.33 106 1438 106.672 1438 107.5C1438 108.328 1437.33 109 1436.5 109H1375.5C1374.67 109 1374 108.328 1374 107.5C1374 106.672 1374.67 106 1375.5 106Z"
            fill="#2BAF15" fill-opacity="0.34" />
        <path
            d="M1375.5 263H1436.5C1437.33 263 1438 263.672 1438 264.5C1438 265.328 1437.33 266 1436.5 266H1375.5C1374.67 266 1374 265.328 1374 264.5C1374 263.672 1374.67 263 1375.5 263Z"
            fill="#2BAF15" fill-opacity="0.34" />
        <path
            d="M1283.5 106H1366.5C1367.33 106 1368 106.672 1368 107.5C1368 108.328 1367.33 109 1366.5 109H1283.5C1282.67 109 1282 108.328 1282 107.5C1282 106.672 1282.67 106 1283.5 106Z"
            fill="#15AF2E" fill-opacity="0.14" />
        <path
            d="M1215.5 263H1366.5C1367.33 263 1368 263.672 1368 264.5C1368 265.328 1367.33 266 1366.5 266H1215.5C1214.67 266 1214 265.328 1214 264.5C1214 263.672 1214.67 263 1215.5 263Z"
            fill="#15AF2E" fill-opacity="0.14" />
        <g filter="url(#filter2_f_1_3)">
            <path d="M1163 235H272V287H1163V235Z" fill="#379C14" />
        </g>
        <mask id="mask1_1_3" style="mask-type:luminance" maskUnits="userSpaceOnUse" x="697" y="64"
            width="46" height="40">
            <path d="M742.5 64H697.5V104H742.5V64Z" fill="white" />
        </mask>
        <g mask="url(#mask1_1_3)">
            <path
                d="M698.763 70.2377C698.079 69.5541 698.079 68.4462 698.762 67.7625C699.445 67.0796 700.554 67.0795 701.238 67.7626L716.235 82.7646C716.919 83.4482 716.919 84.5516 716.235 85.2353L701.238 100.235C700.554 100.919 699.446 100.919 698.763 100.235C698.079 99.5516 698.079 98.4483 698.763 97.7646L711.991 84.5302L712.521 83.9999L711.991 83.4697L698.763 70.2377ZM740 97.25C740.969 97.25 741.75 98.0314 741.75 99C741.75 99.9686 740.969 100.75 740 100.75H717.5C716.531 100.75 715.75 99.9686 715.75 99C715.75 98.0314 716.531 97.25 717.5 97.25H740Z"
                stroke="#71F832" stroke-width="1.5" />
        </g>
        <path
            d="M660.484 142.27V149.758C659.375 150.773 657.129 151.281 653.746 151.281C653.082 151.281 652.496 151.254 651.988 151.199C651.488 151.145 651.027 151.074 650.605 150.988C650.191 150.902 649.836 150.758 649.539 150.555C649.242 150.344 648.98 150.133 648.754 149.922C648.527 149.711 648.344 149.406 648.203 149.008C648.062 148.602 647.945 148.211 647.852 147.836C647.766 147.461 647.699 146.957 647.652 146.324C647.613 145.691 647.586 145.086 647.57 144.508C647.555 143.93 647.547 143.188 647.547 142.281C647.547 141.508 647.551 140.848 647.559 140.301C647.574 139.754 647.602 139.195 647.641 138.625C647.688 138.055 647.746 137.582 647.816 137.207C647.895 136.824 647.996 136.441 648.121 136.059C648.254 135.668 648.406 135.355 648.578 135.121C648.75 134.879 648.965 134.641 649.223 134.406C649.48 134.172 649.766 133.992 650.078 133.867C650.398 133.742 650.77 133.629 651.191 133.527C651.613 133.426 652.074 133.359 652.574 133.328C653.074 133.289 653.641 133.27 654.273 133.27C654.312 133.27 654.371 133.27 654.449 133.27C654.996 133.27 655.41 133.273 655.691 133.281C655.973 133.289 656.352 133.32 656.828 133.375C657.312 133.422 657.684 133.5 657.941 133.609C658.199 133.711 658.496 133.867 658.832 134.078C659.168 134.281 659.418 134.535 659.582 134.84C659.746 135.137 659.891 135.516 660.016 135.977C660.141 136.438 660.203 136.969 660.203 137.57C660.203 137.711 660.195 137.906 660.18 138.156L658.082 138.555L657.953 136.246C657.938 135.746 657.652 135.426 657.098 135.285C656.543 135.137 655.492 135.062 653.945 135.062C652.891 135.062 652.094 135.129 651.555 135.262C651.016 135.387 650.641 135.582 650.43 135.848C650.219 136.113 650.09 136.508 650.043 137.031C649.973 138.633 649.938 140.273 649.938 141.953C649.938 143.641 649.973 145.281 650.043 146.875C650.082 147.719 650.148 148.266 650.242 148.516C650.391 148.898 650.73 149.156 651.262 149.289C651.762 149.414 652.633 149.477 653.875 149.477C656.547 149.477 658.027 149.297 658.316 148.938C658.309 148.133 658.305 146.5 658.305 144.039H655.352L655.152 142.27H660.484ZM666.426 151H664.047V133.539H666.426V151ZM679.891 135.344H675.332V151H672.953V135.344H668.488V133.539H679.891V135.344ZM694.445 151H692.066V142.984H684.262V151H681.883V133.539H684.262V141.133H692.066V133.539H694.445V151ZM711.355 133.539V144.473C711.355 145.41 711.312 146.215 711.227 146.887C711.148 147.559 711.004 148.156 710.793 148.68C710.582 149.195 710.316 149.617 709.996 149.945C709.684 150.266 709.27 150.531 708.754 150.742C708.246 150.945 707.676 151.086 707.043 151.164C706.41 151.242 705.645 151.281 704.746 151.281C703.879 151.281 703.141 151.246 702.531 151.176C701.922 151.105 701.359 150.977 700.844 150.789C700.328 150.594 699.91 150.34 699.59 150.027C699.277 149.707 699.008 149.293 698.781 148.785C698.555 148.27 698.395 147.664 698.301 146.969C698.215 146.273 698.172 145.441 698.172 144.473V133.539H700.551V144.777C700.551 145.426 700.551 145.895 700.551 146.184C700.559 146.473 700.582 146.828 700.621 147.25C700.66 147.664 700.711 147.949 700.773 148.105C700.836 148.254 700.938 148.441 701.078 148.668C701.227 148.895 701.391 149.039 701.57 149.102C701.758 149.156 702.012 149.227 702.332 149.312C702.652 149.398 702.996 149.449 703.363 149.465C703.738 149.473 704.203 149.477 704.758 149.477C705.414 149.477 705.961 149.457 706.398 149.418C706.844 149.379 707.23 149.301 707.559 149.184C707.887 149.066 708.137 148.934 708.309 148.785C708.488 148.629 708.629 148.402 708.73 148.105C708.84 147.809 708.91 147.5 708.941 147.18C708.973 146.859 708.988 146.434 708.988 145.902L708.977 133.539H711.355ZM727.398 145.973C727.391 146.465 727.371 146.898 727.34 147.273C727.316 147.641 727.273 147.988 727.211 148.316C727.148 148.645 727.082 148.922 727.012 149.148C726.941 149.375 726.828 149.59 726.672 149.793C726.523 149.988 726.379 150.148 726.238 150.273C726.098 150.391 725.895 150.5 725.629 150.602C725.371 150.695 725.121 150.766 724.879 150.812C724.637 150.859 724.312 150.898 723.906 150.93C723.508 150.961 723.121 150.98 722.746 150.988C722.379 150.996 721.914 151 721.352 151H715.094V133.539H721.727C722.609 133.539 723.34 133.586 723.918 133.68C724.504 133.766 725.02 133.926 725.465 134.16C725.918 134.395 726.246 134.727 726.449 135.156C726.652 135.586 726.758 136.133 726.766 136.797L726.777 138.062C726.777 138.594 726.758 139.027 726.719 139.363C726.68 139.699 726.609 140.004 726.508 140.277C726.414 140.551 726.27 140.766 726.074 140.922C725.879 141.078 725.641 141.211 725.359 141.32C725.086 141.422 724.73 141.512 724.293 141.59C724.824 141.645 725.281 141.762 725.664 141.941C726.047 142.121 726.348 142.336 726.566 142.586C726.793 142.836 726.969 143.152 727.094 143.535C727.219 143.918 727.301 144.293 727.34 144.66C727.379 145.027 727.398 145.465 727.398 145.973ZM724.457 137.559C724.457 137.543 724.457 137.52 724.457 137.488C724.457 137.16 724.457 136.93 724.457 136.797C724.457 136.656 724.434 136.488 724.387 136.293C724.348 136.09 724.305 135.957 724.258 135.895C724.219 135.832 724.121 135.75 723.965 135.648C723.816 135.539 723.668 135.477 723.52 135.461C723.371 135.438 723.137 135.41 722.816 135.379C722.504 135.34 722.191 135.32 721.879 135.32C721.566 135.32 721.141 135.32 720.602 135.32H717.449V140.922H719.805C720.828 140.922 721.656 140.895 722.289 140.84C722.922 140.777 723.391 140.676 723.695 140.535C724.008 140.387 724.211 140.23 724.305 140.066C724.406 139.902 724.457 139.684 724.457 139.41V137.559ZM725.078 145.41C725.062 144.48 725.027 143.895 724.973 143.652C724.863 143.223 724.594 142.93 724.164 142.773C723.633 142.57 722.445 142.465 720.602 142.457C720.477 142.457 720.34 142.457 720.191 142.457H717.449V149.23H721.926C722.832 149.23 723.516 149.156 723.977 149.008C724.438 148.852 724.742 148.621 724.891 148.316C725.039 148.012 725.109 147.562 725.102 146.969L725.078 145.41ZM747.555 145.973C747.547 146.465 747.527 146.898 747.496 147.273C747.473 147.641 747.43 147.988 747.367 148.316C747.305 148.645 747.238 148.922 747.168 149.148C747.098 149.375 746.984 149.59 746.828 149.793C746.68 149.988 746.535 150.148 746.395 150.273C746.254 150.391 746.051 150.5 745.785 150.602C745.527 150.695 745.277 150.766 745.035 150.812C744.793 150.859 744.469 150.898 744.062 150.93C743.664 150.961 743.277 150.98 742.902 150.988C742.535 150.996 742.07 151 741.508 151H735.25V133.539H741.883C742.766 133.539 743.496 133.586 744.074 133.68C744.66 133.766 745.176 133.926 745.621 134.16C746.074 134.395 746.402 134.727 746.605 135.156C746.809 135.586 746.914 136.133 746.922 136.797L746.934 138.062C746.934 138.594 746.914 139.027 746.875 139.363C746.836 139.699 746.766 140.004 746.664 140.277C746.57 140.551 746.426 140.766 746.23 140.922C746.035 141.078 745.797 141.211 745.516 141.32C745.242 141.422 744.887 141.512 744.449 141.59C744.98 141.645 745.438 141.762 745.82 141.941C746.203 142.121 746.504 142.336 746.723 142.586C746.949 142.836 747.125 143.152 747.25 143.535C747.375 143.918 747.457 144.293 747.496 144.66C747.535 145.027 747.555 145.465 747.555 145.973ZM744.613 137.559C744.613 137.543 744.613 137.52 744.613 137.488C744.613 137.16 744.613 136.93 744.613 136.797C744.613 136.656 744.59 136.488 744.543 136.293C744.504 136.09 744.461 135.957 744.414 135.895C744.375 135.832 744.277 135.75 744.121 135.648C743.973 135.539 743.824 135.477 743.676 135.461C743.527 135.438 743.293 135.41 742.973 135.379C742.66 135.34 742.348 135.32 742.035 135.32C741.723 135.32 741.297 135.32 740.758 135.32H737.605V140.922H739.961C740.984 140.922 741.812 140.895 742.445 140.84C743.078 140.777 743.547 140.676 743.852 140.535C744.164 140.387 744.367 140.23 744.461 140.066C744.562 139.902 744.613 139.684 744.613 139.41V137.559ZM745.234 145.41C745.219 144.48 745.184 143.895 745.129 143.652C745.02 143.223 744.75 142.93 744.32 142.773C743.789 142.57 742.602 142.465 740.758 142.457C740.633 142.457 740.496 142.457 740.348 142.457H737.605V149.23H742.082C742.988 149.23 743.672 149.156 744.133 149.008C744.594 148.852 744.898 148.621 745.047 148.316C745.195 148.012 745.266 147.562 745.258 146.969L745.234 145.41ZM759.59 151H750.719V133.539H753.098V149.207H759.824L759.59 151ZM768.812 151.281C768.133 151.281 767.527 151.266 766.996 151.234C766.473 151.203 765.988 151.125 765.543 151C765.098 150.883 764.715 150.773 764.395 150.672C764.082 150.57 763.797 150.379 763.539 150.098C763.289 149.809 763.082 149.562 762.918 149.359C762.754 149.148 762.613 148.805 762.496 148.328C762.379 147.844 762.293 147.434 762.238 147.098C762.184 146.754 762.137 146.227 762.098 145.516C762.066 144.805 762.047 144.195 762.039 143.688C762.039 143.18 762.039 142.445 762.039 141.484C762.039 140.328 762.07 139.367 762.133 138.602C762.195 137.836 762.316 137.125 762.496 136.469C762.684 135.812 762.926 135.297 763.223 134.922C763.527 134.547 763.938 134.227 764.453 133.961C764.977 133.688 765.582 133.504 766.27 133.41C766.965 133.309 767.812 133.258 768.812 133.258C769.758 133.258 770.566 133.305 771.238 133.398C771.91 133.492 772.504 133.66 773.02 133.902C773.543 134.137 773.961 134.434 774.273 134.793C774.594 135.145 774.855 135.609 775.059 136.188C775.262 136.766 775.398 137.414 775.469 138.133C775.547 138.844 775.586 139.711 775.586 140.734C775.586 143.625 775.543 145.527 775.457 146.441C775.309 148.004 774.949 149.121 774.379 149.793C773.777 150.512 772.754 150.965 771.309 151.152C770.621 151.238 769.789 151.281 768.812 151.281ZM770.488 135.109C770.043 135.078 769.484 135.062 768.812 135.062C768.141 135.062 767.582 135.078 767.137 135.109C766.691 135.141 766.301 135.207 765.965 135.309C765.637 135.41 765.383 135.523 765.203 135.648C765.023 135.773 764.875 135.969 764.758 136.234C764.648 136.492 764.574 136.758 764.535 137.031C764.504 137.305 764.48 137.676 764.465 138.145C764.441 139.59 764.43 141.043 764.43 142.504C764.43 144.707 764.488 146.215 764.605 147.027C764.793 148.246 765.148 148.949 765.672 149.137C766.062 149.363 767.109 149.477 768.812 149.477C770.516 149.477 771.562 149.363 771.953 149.137C772.102 149.082 772.234 148.992 772.352 148.867C772.477 148.742 772.578 148.574 772.656 148.363C772.742 148.152 772.816 147.941 772.879 147.73C772.941 147.512 772.992 147.234 773.031 146.898C773.07 146.562 773.102 146.262 773.125 145.996C773.148 145.723 773.164 145.379 773.172 144.965C773.18 144.543 773.184 144.195 773.184 143.922C773.191 143.648 773.195 143.285 773.195 142.832C773.195 141.254 773.184 139.691 773.16 138.145C773.145 137.676 773.117 137.305 773.078 137.031C773.047 136.758 772.973 136.492 772.855 136.234C772.746 135.969 772.602 135.773 772.422 135.648C772.242 135.523 771.984 135.41 771.648 135.309C771.32 135.207 770.934 135.141 770.488 135.109ZM791.617 142.27V149.758C790.508 150.773 788.262 151.281 784.879 151.281C784.215 151.281 783.629 151.254 783.121 151.199C782.621 151.145 782.16 151.074 781.738 150.988C781.324 150.902 780.969 150.758 780.672 150.555C780.375 150.344 780.113 150.133 779.887 149.922C779.66 149.711 779.477 149.406 779.336 149.008C779.195 148.602 779.078 148.211 778.984 147.836C778.898 147.461 778.832 146.957 778.785 146.324C778.746 145.691 778.719 145.086 778.703 144.508C778.688 143.93 778.68 143.188 778.68 142.281C778.68 141.508 778.684 140.848 778.691 140.301C778.707 139.754 778.734 139.195 778.773 138.625C778.82 138.055 778.879 137.582 778.949 137.207C779.027 136.824 779.129 136.441 779.254 136.059C779.387 135.668 779.539 135.355 779.711 135.121C779.883 134.879 780.098 134.641 780.355 134.406C780.613 134.172 780.898 133.992 781.211 133.867C781.531 133.742 781.902 133.629 782.324 133.527C782.746 133.426 783.207 133.359 783.707 133.328C784.207 133.289 784.773 133.27 785.406 133.27C785.445 133.27 785.504 133.27 785.582 133.27C786.129 133.27 786.543 133.273 786.824 133.281C787.105 133.289 787.484 133.32 787.961 133.375C788.445 133.422 788.816 133.5 789.074 133.609C789.332 133.711 789.629 133.867 789.965 134.078C790.301 134.281 790.551 134.535 790.715 134.84C790.879 135.137 791.023 135.516 791.148 135.977C791.273 136.438 791.336 136.969 791.336 137.57C791.336 137.711 791.328 137.906 791.312 138.156L789.215 138.555L789.086 136.246C789.07 135.746 788.785 135.426 788.23 135.285C787.676 135.137 786.625 135.062 785.078 135.062C784.023 135.062 783.227 135.129 782.688 135.262C782.148 135.387 781.773 135.582 781.562 135.848C781.352 136.113 781.223 136.508 781.176 137.031C781.105 138.633 781.07 140.273 781.07 141.953C781.07 143.641 781.105 145.281 781.176 146.875C781.215 147.719 781.281 148.266 781.375 148.516C781.523 148.898 781.863 149.156 782.395 149.289C782.895 149.414 783.766 149.477 785.008 149.477C787.68 149.477 789.16 149.297 789.449 148.938C789.441 148.133 789.438 146.5 789.438 144.039H786.484L786.285 142.27H791.617Z"
            fill="#71F832" />
    </g>
    <defs>
        <filter id="filter0_f_1_3" x="-530" y="-496" width="1036" height="1036"
            filterUnits="userSpaceOnUse" color-interpolation-filters="sRGB">
            <feFlood flood-opacity="0" result="BackgroundImageFix" />
            <feBlend mode="normal" in="SourceGraphic" in2="BackgroundImageFix" result="shape" />
            <feGaussianBlur stdDeviation="200" result="effect1_foregroundBlur_1_3" />
        </filter>
        <filter id="filter1_f_1_3" x="909.425" y="-402.708" width="891.29" height="891.29"
            filterUnits="userSpaceOnUse" color-interpolation-filters="sRGB">
            <feFlood flood-opacity="0" result="BackgroundImageFix" />
            <feBlend mode="normal" in="SourceGraphic" in2="BackgroundImageFix" result="shape" />
            <feGaussianBlur stdDeviation="184" result="effect1_foregroundBlur_1_3" />
        </filter>
        <filter id="filter2_f_1_3" x="60" y="23" width="1315" height="476"
            filterUnits="userSpaceOnUse" color-interpolation-filters="sRGB">
            <feFlood flood-opacity="0" result="BackgroundImageFix" />
            <feBlend mode="normal" in="SourceGraphic" in2="BackgroundImageFix" result="shape" />
            <feGaussianBlur stdDeviation="106" result="effect1_foregroundBlur_1_3" />
        </filter>
    </defs>
</svg>